<svg width="129" height="26" viewBox="0 0 129 26" fill="none" xmlns="http://www.w3.org/2000/svg">
<path d="M5.89099 22.5041H2.10789C1.21091 22.5041 0.762419 22.5041 0.493821 22.331C0.203539 22.1439 0.020433 21.83 0.00100961 21.4862C-0.0169624 21.1681 0.205229 20.7802 0.649605 20.0043L8.93254 5.54279C9.38333 4.75566 9.60875 4.36209 9.89555 4.21559C10.2054 4.0573 10.5728 4.05703 10.8829 4.21487C11.1699 4.36095 11.3959 4.75419 11.8479 5.54066L13.7582 8.86473C14.0869 9.43663 14.2512 9.72258 14.3235 10.0243C14.4021 10.3527 14.4023 10.6949 14.3239 11.0233C14.2519 11.325 14.0878 11.6112 13.7596 12.1834L8.80655 20.8189C8.4736 21.3995 8.3071 21.6897 8.079 21.9067C7.83068 22.1429 7.52959 22.3169 7.20047 22.4145C6.89807 22.5041 6.56239 22.5041 5.89099 22.5041Z" fill="white"/>
<path d="M19.3872 22.5039H15.0011C14.096 22.5039 13.6434 22.5039 13.374 22.3292C13.0829 22.1406 12.9003 21.8243 12.8831 21.4789C12.8672 21.1592 13.0949 20.7697 13.5504 19.9909L15.7399 16.2474C16.1896 15.4784 16.4145 15.0939 16.6993 14.9499C17.007 14.7943 17.3708 14.794 17.6788 14.9492C17.9638 15.0928 18.1892 15.477 18.6401 16.2454L20.8367 19.9889C21.294 20.7682 21.5226 21.1579 21.507 21.4777C21.4901 21.8234 21.3076 22.1401 21.0164 22.329C20.7469 22.5039 20.2937 22.5039 19.3872 22.5039Z" fill="white"/>
<path d="M38.3836 22.5041H34.6006C33.7036 22.5041 33.2551 22.5041 32.9865 22.331C32.6962 22.1439 32.5131 21.83 32.4937 21.4862C32.4758 21.1681 32.6979 20.7802 33.1423 20.0043L41.4252 5.54279C41.876 4.75566 42.1014 4.36209 42.3882 4.21559C42.6981 4.0573 43.0655 4.05703 43.3756 4.21487C43.6626 4.36095 43.8886 4.75419 44.3405 5.54066L46.2509 8.86473C46.5796 9.43663 46.7439 9.72258 46.8162 10.0243C46.8948 10.3527 46.895 10.6949 46.8166 11.0233C46.7446 11.325 46.5805 11.6112 46.2523 12.1834L41.2992 20.8189C40.9663 21.3995 40.7998 21.6897 40.5717 21.9067C40.3234 22.1429 40.0223 22.3169 39.6932 22.4145C39.3908 22.5041 39.0551 22.5041 38.3836 22.5041Z" fill="white"/>
<path d="M51.8799 22.5039H47.4938C46.5886 22.5039 46.136 22.5039 45.8667 22.3292C45.5756 22.1406 45.393 21.8243 45.3758 21.4789C45.3598 21.1592 45.5876 20.7697 46.0431 19.9909L48.2325 16.2474C48.6823 15.4784 48.9071 15.0939 49.1919 14.9499C49.4997 14.7943 49.8635 14.794 50.1715 14.9492C50.4564 15.0928 50.6818 15.477 51.1327 16.2454L53.3294 19.9889C53.7867 20.7682 54.0153 21.1579 53.9997 21.4777C53.9828 21.8234 53.8003 22.1401 53.509 22.329C53.2395 22.5039 52.7863 22.5039 51.8799 22.5039Z" fill="white"/>
<path d="M22.3047 3.50391H18.4237C17.5275 3.50391 17.0794 3.50391 16.8109 3.67689C16.5207 3.86384 16.3376 4.17748 16.3179 4.52109C16.2997 4.83903 16.5213 5.2268 16.9646 6.00234L25.2164 20.4405C25.6764 21.2454 25.9065 21.648 26.1971 21.7946C26.5111 21.953 26.8828 21.9496 27.1938 21.7855C27.4817 21.6336 27.7043 21.227 28.1494 20.4137L30.1261 16.8026C30.4381 16.2326 30.594 15.9476 30.6602 15.6487C30.7323 15.3234 30.7277 14.9858 30.6468 14.6626C30.5724 14.3656 30.4087 14.0849 30.0814 13.5236L25.2081 5.16815C24.8736 4.59461 24.7064 4.30784 24.4787 4.09351C24.2309 3.86024 23.9313 3.68851 23.6043 3.5923C23.3038 3.50391 22.9708 3.50391 22.3047 3.50391Z" fill="white"/>
<path d="M35.7087 3.50391H31.3164C30.4121 3.50391 29.9599 3.50391 29.6907 3.67835C29.3996 3.86687 29.217 4.18288 29.1995 4.52815C29.1834 4.84766 29.4105 5.23692 29.8649 6.01545L32.0574 9.77234C32.5073 10.5432 32.7323 10.9286 33.0173 11.0729C33.3252 11.2288 33.6894 11.229 33.9976 11.0736C34.2827 10.9297 34.5082 10.5446 34.9592 9.7744L37.159 6.01752C37.6151 5.23852 37.8432 4.84902 37.8273 4.52926C37.8102 4.18372 37.6277 3.86734 37.3365 3.67858C37.0671 3.50391 36.6143 3.50391 35.7087 3.50391Z" fill="white"/>
<path d="M62.7653 21H65.9123L68.8132 11.0146H68.9325L71.8409 21H74.9879L79.358 5.72727H75.8306L73.3026 16.3615H73.1683L70.3867 5.72727H67.3665L64.5774 16.3391H64.4506L61.9226 5.72727H58.3952L62.7653 21ZM82.6424 21.2163C84.3352 21.2163 85.4315 20.478 85.9908 19.4116H86.0803V21H89.0931V13.2741C89.0931 10.5447 86.7813 9.39631 84.2308 9.39631C81.4865 9.39631 79.6818 10.7088 79.2418 12.7969L82.1801 13.0355C82.3963 12.2749 83.0749 11.7156 84.2159 11.7156C85.2972 11.7156 85.9162 12.2599 85.9162 13.1996V13.2443C85.9162 13.9826 85.1332 14.0795 83.1421 14.2734C80.875 14.4822 78.8391 15.2429 78.8391 17.8008C78.8391 20.0678 80.4574 21.2163 82.6424 21.2163ZM83.5522 19.0238C82.5753 19.0238 81.8743 18.5689 81.8743 17.6964C81.8743 16.8015 82.6126 16.3615 83.7312 16.2049C84.4247 16.108 85.5582 15.9439 85.9386 15.6903V16.9059C85.9386 18.1065 84.9467 19.0238 83.5522 19.0238ZM94.3146 5.72727H91.1377V21H94.3146V5.72727ZM99.6162 5.72727H96.4394V21H99.6162V5.72727ZM106.961 21.2237C109.795 21.2237 111.704 19.8441 112.152 17.7188L109.213 17.5249C108.893 18.3974 108.072 18.8523 107.013 18.8523C105.425 18.8523 104.418 17.8008 104.418 16.093V16.0856H112.219V15.2131C112.219 11.3203 109.862 9.39631 106.834 9.39631C103.464 9.39631 101.279 11.7901 101.279 15.3249C101.279 18.9567 103.434 21.2237 106.961 21.2237ZM104.418 14.1168C104.485 12.8118 105.477 11.7678 106.887 11.7678C108.266 11.7678 109.221 12.7521 109.228 14.1168H104.418ZM119.965 9.54545H117.809V6.80114H114.633V9.54545H113.066V11.9318H114.633V17.8977C114.618 20.1424 116.146 21.2536 118.451 21.1566C119.271 21.1268 119.853 20.9627 120.173 20.8583L119.674 18.4943C119.517 18.5241 119.182 18.5987 118.883 18.5987C118.249 18.5987 117.809 18.3601 117.809 17.4801V11.9318H119.965V9.54545Z" fill="white"/>
</svg>
