<svg width="54" height="20" viewBox="0 0 54 20" fill="none" xmlns="http://www.w3.org/2000/svg">
<path d="M5.89099 19.5041H2.10789C1.21091 19.5041 0.762419 19.5041 0.493821 19.331C0.203539 19.1439 0.020433 18.83 0.00100961 18.4862C-0.0169624 18.1681 0.205229 17.7802 0.649605 17.0043L8.93254 2.54279C9.38333 1.75566 9.60875 1.36209 9.89555 1.21559C10.2054 1.0573 10.5728 1.05703 10.8829 1.21487C11.1699 1.36095 11.3959 1.75419 11.8479 2.54066L13.7582 5.86473C14.0869 6.43663 14.2512 6.72258 14.3235 7.02428C14.4021 7.35269 14.4023 7.69486 14.3239 8.02329C14.2519 8.32505 14.0878 8.6112 13.7596 9.18337L8.80655 17.8189C8.4736 18.3995 8.3071 18.6897 8.079 18.9067C7.83068 19.1429 7.52959 19.3169 7.20047 19.4145C6.89807 19.5041 6.56239 19.5041 5.89099 19.5041Z" fill="white"/>
<path d="M19.3872 19.5039H15.0011C14.096 19.5039 13.6434 19.5039 13.374 19.3292C13.0829 19.1406 12.9003 18.8243 12.8831 18.4789C12.8672 18.1592 13.0949 17.7697 13.5504 16.9909L15.7399 13.2474C16.1896 12.4784 16.4145 12.0939 16.6993 11.9499C17.007 11.7943 17.3708 11.794 17.6788 11.9492C17.9638 12.0928 18.1892 12.477 18.6401 13.2454L20.8367 16.9889C21.294 17.7682 21.5226 18.1579 21.507 18.4777C21.4901 18.8234 21.3076 19.1401 21.0164 19.329C20.7469 19.5039 20.2937 19.5039 19.3872 19.5039Z" fill="white"/>
<path d="M38.3836 19.5041H34.6006C33.7036 19.5041 33.2551 19.5041 32.9865 19.331C32.6962 19.1439 32.5131 18.83 32.4937 18.4862C32.4758 18.1681 32.6979 17.7802 33.1423 17.0043L41.4252 2.54279C41.876 1.75566 42.1014 1.36209 42.3882 1.21559C42.6981 1.0573 43.0655 1.05703 43.3756 1.21487C43.6626 1.36095 43.8886 1.75419 44.3405 2.54066L46.2509 5.86473C46.5796 6.43663 46.7439 6.72258 46.8162 7.02428C46.8948 7.35269 46.895 7.69486 46.8166 8.02329C46.7446 8.32505 46.5805 8.6112 46.2523 9.18337L41.2992 17.8189C40.9663 18.3995 40.7998 18.6897 40.5717 18.9067C40.3234 19.1429 40.0223 19.3169 39.6932 19.4145C39.3908 19.5041 39.0551 19.5041 38.3836 19.5041Z" fill="white"/>
<path d="M51.8799 19.5039H47.4938C46.5886 19.5039 46.136 19.5039 45.8667 19.3292C45.5756 19.1406 45.393 18.8243 45.3758 18.4789C45.3598 18.1592 45.5876 17.7697 46.0431 16.9909L48.2325 13.2474C48.6823 12.4784 48.9071 12.0939 49.1919 11.9499C49.4997 11.7943 49.8635 11.794 50.1715 11.9492C50.4564 12.0928 50.6818 12.477 51.1327 13.2454L53.3294 16.9889C53.7867 17.7682 54.0153 18.1579 53.9997 18.4777C53.9828 18.8234 53.8003 19.1401 53.509 19.329C53.2395 19.5039 52.7863 19.5039 51.8799 19.5039Z" fill="white"/>
<path d="M22.3047 0.503906H18.4237C17.5275 0.503906 17.0794 0.503906 16.8109 0.676894C16.5207 0.86384 16.3376 1.17748 16.3179 1.52109C16.2997 1.83903 16.5213 2.2268 16.9646 3.00234L25.2164 17.4405C25.6764 18.2454 25.9065 18.648 26.1971 18.7946C26.5111 18.953 26.8828 18.9496 27.1938 18.7855C27.4817 18.6336 27.7043 18.227 28.1494 17.4137L30.1261 13.8026C30.4381 13.2326 30.594 12.9476 30.6602 12.6487C30.7323 12.3234 30.7277 11.9858 30.6468 11.6626C30.5724 11.3656 30.4087 11.0849 30.0814 10.5236L25.2081 2.16815C24.8736 1.59461 24.7064 1.30784 24.4787 1.09351C24.2309 0.860238 23.9313 0.68851 23.6043 0.5923C23.3038 0.503906 22.9708 0.503906 22.3047 0.503906Z" fill="white"/>
<path d="M35.7087 0.503906H31.3164C30.4121 0.503906 29.9599 0.503906 29.6907 0.678353C29.3996 0.866869 29.217 1.18288 29.1995 1.52815C29.1834 1.84766 29.4105 2.23692 29.8649 3.01545L32.0574 6.77234C32.5073 7.5432 32.7323 7.92865 33.0173 8.07288C33.3252 8.22883 33.6894 8.22904 33.9976 8.0736C34.2827 7.92973 34.5082 7.54464 34.9592 6.7744L37.159 3.01752C37.6151 2.23852 37.8432 1.84902 37.8273 1.52926C37.8102 1.18372 37.6277 0.867343 37.3365 0.678584C37.0671 0.503907 36.6143 0.503906 35.7087 0.503906Z" fill="white"/>
</svg>
