<svg width="256" height="256" viewBox="0 0 256 256" fill="none" xmlns="http://www.w3.org/2000/svg">
<g clip-path="url(#clip0_6106_31764)">
<rect width="256" height="256" fill="#323240"/>
<path opacity="0.15" fill-rule="evenodd" clip-rule="evenodd" d="M161.313 226.567C156.877 231.989 143.569 243.72 125.824 247.269C103.644 251.705 74.0696 251.705 62.24 236.918C59.3529 233.309 56.4882 230.399 53.7639 227.631C45.326 219.059 38.2357 211.856 36 189.5C34.4966 174.466 21.1789 168.692 10.5006 164.063C0.17318 159.586 -7.68547 156.179 0 146.5C22.9429 117.607 14.9813 106.465 0.520166 86.2281L-2.67029e-05 85.5C-14.7871 64.7981 9.00667 38.7714 25.2724 37.2927C33.604 36.5353 35.3403 29.9584 37.039 23.5237C38.6567 17.396 40.2403 11.3973 47.4531 10.676C53.6311 10.0582 57.7442 5.0523 62.2728 -0.459309C68.5832 -8.13948 75.7003 -16.8015 90.3355 -15.9406C100.691 -15.3315 110.042 -10.2537 119.32 -5.21571C132.565 1.97627 145.661 9.087 161.313 3C187.93 -7.35093 255.95 -18.8993 251.514 37.2927C248.989 69.2827 244.067 74.4344 240.023 78.6673C236.964 81.8698 234.407 84.5463 233.77 97.9208C232.291 128.974 181.922 119.851 198 116C222.187 110.207 216.33 79.1605 204.5 55.5C192.67 31.8395 177.579 29.8979 167.228 37.2927C161.512 41.3761 167.833 43.2999 173.293 44.9618C177.721 46.3095 181.582 47.4849 178 49.5C168.887 54.6261 157.038 49.1211 151 37.2927C143.574 22.7455 81.4632 44.6875 74.0697 71.3042C70.3197 84.8043 61.6244 90.3158 53.9651 95.1707C46.5233 99.8877 40.0595 103.985 40.0595 114.187C40.0595 134.888 48.9318 196.993 82.942 196.993C100.883 196.993 118.825 200.285 134.595 203.179L134.595 203.179L134.596 203.179C148.72 205.771 161.103 208.044 170.185 207.345C189.409 205.866 230.812 192.138 251.514 167C266.527 148.771 300.088 179.324 315.413 193.276L315.414 193.277L315.416 193.278C316.996 194.717 318.383 195.979 319.535 196.993C318.657 196.514 316.987 195.264 314.723 193.57C303.001 184.796 275.364 164.111 259.5 177C250.447 184.355 241.307 195.937 232.561 207.02L232.561 207.02L232.561 207.02C218.45 224.9 205.365 241.481 195.323 236.918C190.993 234.949 187.92 233.296 185.379 231.928C178.377 228.16 175.418 226.567 161.313 226.567ZM50.4105 201.43C57.3111 206.852 75.8442 216.809 94.7716 213.26C118.431 208.824 146.526 208.824 146.526 219.175C146.526 229.525 128.782 236.919 115.473 241.355C102.165 245.791 68.1549 239.876 62.2401 226.568C60.0531 221.647 59.2812 218.95 58.6538 216.758C57.5842 213.021 56.9342 210.75 50.4105 201.43ZM66.6764 50.6015C71.4082 23.3933 94.2789 17.5771 105.123 18.07C125.112 8.65731 118.141 6.46135 109.452 3.72471C104.644 2.21011 99.3095 0.529894 97.729 -2.63103C94.5736 -8.94185 83.1885 -1.03785 70.4919 7.77671C65.3387 11.3543 59.9694 15.0819 54.8466 18.07C37.1021 28.4201 37.1023 29.9005 38.581 53.5597C39.5122 68.4594 30.4738 79.2539 27.3466 82.9887C26.6434 83.8285 26.2391 84.3113 26.3143 84.4036C26.416 84.5284 27.3949 83.9387 29.6978 82.5512C30.1437 82.2826 30.6392 81.9841 31.1875 81.6551C35.6833 78.9576 40.1791 78.1737 44.4256 77.4333C54.146 75.7384 62.5599 74.2713 66.6764 50.6015ZM176.1 10.6776C169.2 13.635 159.539 19.8456 176.1 21.0285C196.802 22.5072 217.504 38.773 218.983 47.6452C219.334 49.7527 219.602 53.2785 219.905 57.2715C220.879 70.0883 222.218 87.7176 227.855 78.698C235.248 66.8683 247.078 41.7304 239.685 34.3369C236.906 31.558 233.918 30.2413 230.329 28.6596C224.368 26.0331 216.749 22.6756 205.674 10.6776C191.479 -4.70092 180.044 4.26988 176.1 10.6776Z" fill="#D3CAC3"/>
<path d="M85.0029 102C73.5789 111.584 71.7633 129.636 62.0019 118C52.2406 106.364 50.5779 76.0849 62.0019 66.5011C73.4259 56.9172 87.4286 64.012 97.19 75.6475C106.951 87.2831 96.4269 92.416 85.0029 102Z" fill="#D3CAC3" stroke="#1A1A1C" stroke-width="5" stroke-linejoin="round"/>
<path d="M173.945 105C185.369 114.584 187.185 132.636 196.946 121C206.707 109.364 208.37 79.0849 196.946 69.5011C185.522 59.9172 171.519 67.012 161.758 78.6475C151.997 90.2831 162.521 95.416 173.945 105Z" fill="#D3CAC3" stroke="#1A1A1C" stroke-width="5" stroke-linejoin="round"/>
<path opacity="0.1" d="M81.5414 99.2065C73.4883 105.962 71.886 120.202 65.0049 111.999C58.1238 103.797 58.4492 80.755 66.5023 73.9991C74.5554 67.2431 89.1218 72.7976 96.0029 80.9998C102.884 89.2021 89.5945 92.4506 81.5414 99.2065Z" fill="#1A1A1C"/>
<path d="M84.5404 102.207C76.4873 108.963 74.885 123.202 68.0039 115C61.1228 106.798 61.4482 83.7556 69.5013 76.9996C77.5544 70.2436 86.2504 75.4282 93.1314 83.6305C100.013 91.8328 92.5935 95.4511 84.5404 102.207Z" fill="#FCF3ED"/>
<path opacity="0.1" d="M174.411 102.206C182.464 108.962 185.618 123.202 192.499 115C199.38 106.798 200.552 81.7554 192.499 74.9994C184.446 68.2434 172.377 75.2977 165.496 83.5C158.615 91.7023 166.357 95.4505 174.411 102.206Z" fill="#1A1A1C"/>
<path d="M174.496 98C182.549 104.756 184.567 122.702 191.448 114.5C198.329 106.298 199.501 85.7556 191.448 78.9996C183.395 72.2436 174.699 77.4282 167.818 85.6305C160.937 93.8328 166.443 91.244 174.496 98Z" fill="#FCF3ED"/>
<path d="M206.998 247.191C206.998 279.67 170.285 306 124.998 306C79.7102 306 42.9976 279.67 42.9976 247.191C42.9976 214.712 63.9976 151 124.998 151C193.498 151 206.998 214.712 206.998 247.191Z" fill="#D3CAC3" stroke="#111111" stroke-width="5" stroke-linejoin="round"/>
<ellipse cx="124.998" cy="232" rx="46" ry="60" fill="#FCF3ED"/>
<path d="M199.494 140.5C199.494 90.1 160.494 72.1667 140.994 69.5C140.994 69.5 134.5 68.501 138.5 64C138.5 64 135.994 62.4991 124.994 69.5C127.494 60 132.994 56 132.994 56C132.994 56 112.494 65.1667 109.994 69.5C94.327 72.3333 61.4937 89.5 55.4937 135.5C49.4937 181.5 99.327 189.333 124.994 189.5C150.66 189.667 199.494 190.9 199.494 140.5Z" fill="#D3CAC3" stroke="#111111" stroke-width="5" stroke-linejoin="round"/>
<path d="M164.996 159C164.996 171.703 146.864 177.999 124.496 177.999C102.129 177.999 85.9961 170.203 85.9961 157.5C85.9961 144.797 103.129 133.5 125.496 133.5C147.864 133.5 164.996 146.297 164.996 159Z" fill="#FCF3ED"/>
<path d="M137.996 106C142.163 104.83 154.196 102.941 168.996 104.746" stroke="#131314" stroke-width="7" stroke-linecap="round" stroke-linejoin="bevel"/>
<path d="M112.996 105C109.233 103.83 98.3638 101.941 84.9961 103.746" stroke="#131314" stroke-width="7" stroke-linecap="round" stroke-linejoin="bevel"/>
<ellipse cx="100.996" cy="129" rx="10" ry="12" transform="rotate(-12.2284 100.996 129)" fill="#1A1A1C"/>
<ellipse cx="10" cy="12" rx="10" ry="12" transform="matrix(-0.977311 -0.211809 -0.211809 0.977311 161.626 119.391)" fill="#1A1A1C"/>
<ellipse cx="2.86734" cy="3.98297" rx="2.86734" ry="3.98297" transform="matrix(-0.996195 -0.0871557 -0.0871557 0.996195 150.404 122.5)" fill="#F8F8FB"/>
<ellipse cx="102.201" cy="124.218" rx="2.86734" ry="3.98297" transform="rotate(-5 102.201 124.218)" fill="#F8F8FB"/>
<path d="M124.496 149L124.496 166.5" stroke="#1A1A1C" stroke-width="4" stroke-linecap="round"/>
<path d="M139.996 148.5C139.996 152.642 133.28 159 124.996 159C116.712 159 109.996 152.642 109.996 148.5C109.996 144.358 116.712 143 124.996 143C133.28 143 139.996 144.358 139.996 148.5Z" fill="#1A1A1C"/>
<path d="M170.998 223C173.998 237 174.753 256.643 161.998 272" stroke="#1A1A1C" stroke-width="6" stroke-linecap="round" stroke-linejoin="bevel"/>
<path d="M78.7855 222.5C75.7935 232.562 76.6598 251.95 87.9976 267" stroke="#1A1A1C" stroke-width="6" stroke-linecap="round" stroke-linejoin="bevel"/>
<path opacity="0.1" d="M150.497 189C207.297 185 203.164 134.333 193.997 109.5C191.998 146.5 174.998 166 158.997 176.5C143.195 186.87 79.4969 194 150.497 189Z" fill="#28282E"/>
<path opacity="0.1" d="M186.998 265.5C199.398 239.9 181.831 201.5 171.498 185.5L186.998 178.5C208.598 211.3 208.331 248.167 205.498 262.5C194.164 274.167 174.598 291.1 186.998 265.5Z" fill="#1A1A1C"/>
<path d="M51.9944 250C50.8277 239.167 61.5974 198.7 73.9974 187.5" stroke="#AFA7A1" stroke-width="6" stroke-linecap="round" stroke-linejoin="bevel"/>
<line x1="124" y1="119" x2="127" y2="119" stroke="#111111" stroke-width="8" stroke-linecap="round" stroke-linejoin="round"/>
<path d="M78.1378 117.133C78.0624 114.873 79.8742 113 82.1356 113H115.383C118.374 113 120.696 115.609 120.349 118.579L118.635 133.275C117.988 138.819 113.291 143 107.709 143H89.6394C83.707 143 78.8432 138.296 78.6455 132.366L78.1378 117.133Z" fill="#28282E" stroke="#111111" stroke-width="5" stroke-linecap="round" stroke-linejoin="round"/>
<path d="M172.862 117.133C172.938 114.873 171.126 113 168.864 113H135.617C132.626 113 130.304 115.609 130.651 118.579L132.365 133.275C133.012 138.819 137.709 143 143.291 143H161.361C167.293 143 172.157 138.296 172.354 132.366L172.862 117.133Z" fill="#28282E" stroke="#111111" stroke-width="5" stroke-linecap="round" stroke-linejoin="round"/>
<path d="M165.305 121.133L151.305 135.133" stroke="#5A5A71" stroke-width="5" stroke-linecap="round"/>
<path d="M155.305 121.133L141.305 135.133" stroke="#5A5A71" stroke-width="5" stroke-linecap="round"/>
<circle cx="81" cy="116" r="2" fill="#D9D9D9"/>
<circle cx="170" cy="116" r="2" fill="#D9D9D9"/>
<circle cx="99" cy="128" r="6" stroke="#E84142" stroke-width="4"/>
<circle opacity="0.3" cx="99" cy="128" r="6" stroke="#E84142" stroke-width="8"/>
<path d="M84.5 96.5C88 92.8333 97.2 84.7 106 81.5" stroke="#AFA7A1" stroke-width="6" stroke-linecap="round" stroke-linejoin="bevel"/>
</g>
<defs>
<clipPath id="clip0_6106_31764">
<rect width="256" height="256" fill="white"/>
</clipPath>
</defs>
</svg>
