<svg width="62" height="62" viewBox="0 0 62 62" fill="none" xmlns="http://www.w3.org/2000/svg">
<circle cx="31" cy="31" r="31" fill="#28282E" fill-opacity="0.1"/>
<circle cx="31" cy="31" r="30.5" stroke="#28282E" stroke-opacity="0.1"/>
<mask id="mask0_8221_58695" style="mask-type:alpha" maskUnits="userSpaceOnUse" x="19" y="19" width="24" height="24">
<rect x="19" y="19" width="24" height="24" fill="#D9D9D9"/>
</mask>
<g mask="url(#mask0_8221_58695)">
<path d="M26.2917 28.625L30.3167 22.15C30.4056 22.0166 30.5083 21.9181 30.625 21.8542C30.7417 21.7902 30.8723 21.7582 31.0168 21.7582C31.1611 21.7582 31.2916 21.7902 31.4082 21.8542C31.5249 21.9181 31.6277 22.0166 31.7168 22.15L35.7417 28.625C35.8306 28.7695 35.8722 28.9167 35.8667 29.0667C35.8611 29.2167 35.8222 29.3556 35.75 29.4832C35.6778 29.6111 35.5801 29.7125 35.4567 29.7875C35.3334 29.8625 35.1895 29.9 35.025 29.9H27.0082C26.8426 29.9 26.6976 29.8618 26.5732 29.7855C26.4491 29.709 26.3524 29.6082 26.2832 29.4832C26.2111 29.3556 26.1723 29.2167 26.1667 29.0667C26.1611 28.9167 26.2028 28.7695 26.2917 28.625ZM36.6 41C35.3612 41 34.3181 40.5764 33.4707 39.7292C32.6236 38.8819 32.2 37.8388 32.2 36.6C32.2 35.3611 32.6236 34.3181 33.4707 33.4707C34.3181 32.6236 35.3612 32.2 36.6 32.2C37.8388 32.2 38.8819 32.6236 39.7292 33.4707C40.5764 34.3181 41 35.3611 41 36.6C41 37.8388 40.5764 38.8819 39.7292 39.7292C38.8819 40.5764 37.8388 41 36.6 41ZM22 39.5832V33.5167C22 33.2806 22.0798 33.0826 22.2395 32.923C22.3993 32.7631 22.5973 32.6832 22.8332 32.6832H28.9C29.1362 32.6832 29.3341 32.7631 29.4938 32.923C29.6534 33.0826 29.7332 33.2806 29.7332 33.5167V39.5832C29.7332 39.8194 29.6534 40.0173 29.4938 40.177C29.3341 40.3368 29.1362 40.4167 28.9 40.4167H22.8332C22.5973 40.4167 22.3993 40.3368 22.2395 40.177C22.0798 40.0173 22 39.8194 22 39.5832ZM36.6015 39.3332C37.3672 39.3332 38.0139 39.0689 38.5417 38.5402C39.0694 38.0116 39.3333 37.3643 39.3333 36.5985C39.3333 35.8328 39.0689 35.1861 38.5402 34.6582C38.0116 34.1306 37.3643 33.8667 36.5985 33.8667C35.8328 33.8667 35.1861 34.1311 34.6582 34.6597C34.1306 35.1884 33.8667 35.8356 33.8667 36.6015C33.8667 37.3671 34.1311 38.0139 34.6597 38.5417C35.1884 39.0694 35.8357 39.3332 36.6015 39.3332ZM23.6667 38.75H28.0668V34.35H23.6667V38.75ZM28.5 28.2332H33.5332L31.0168 24.1667L28.5 28.2332Z" fill="#28282E" fill-opacity="0.6"/>
</g>
</svg>

