<svg xmlns="http://www.w3.org/2000/svg" width="80" height="80" viewBox="0 0 80 80" fill="none">
<path d="M22.6795 10C33.3975 3.81198 46.6025 3.81198 57.3205 10C68.0385 16.188 74.641 27.624 74.641 40C74.641 52.376 68.0385 63.812 57.3205 70C46.6025 76.188 33.3975 76.188 22.6795 70C11.9615 63.812 5.35898 52.376 5.35898 40C5.35898 27.624 11.9615 16.188 22.6795 10Z" fill="white" fill-opacity="0.1"/>
<path d="M22.8457 10.2891C33.4605 4.16059 46.5395 4.16059 57.1543 10.2891C67.7688 16.4176 74.3076 27.7432 74.3076 40C74.3076 52.2568 67.7688 63.5824 57.1543 69.7109C46.5395 75.8394 33.4605 75.8394 22.8457 69.7109C12.2312 63.5824 5.69238 52.2568 5.69238 40C5.69238 27.7432 12.2312 16.4176 22.8457 10.2891Z" stroke="white" stroke-opacity="0.1" stroke-width="0.666667"/>
<mask id="mask0_2511_34205" style="mask-type:alpha" maskUnits="userSpaceOnUse" x="28" y="28" width="24" height="24">
<rect x="28" y="28" width="24" height="24" fill="#D9D9D9"/>
</mask>
<g mask="url(#mask0_2511_34205)">
<path d="M35.2917 37.6251L39.3167 31.1501C39.4056 31.0167 39.5083 30.9181 39.625 30.8543C39.7417 30.7903 39.8723 30.7583 40.0168 30.7583C40.1611 30.7583 40.2916 30.7903 40.4082 30.8543C40.5249 30.9181 40.6277 31.0167 40.7168 31.1501L44.7417 37.6251C44.8306 37.7696 44.8722 37.9168 44.8667 38.0668C44.8611 38.2168 44.8222 38.3556 44.75 38.4833C44.6778 38.6111 44.5801 38.7126 44.4567 38.7876C44.3334 38.8626 44.1895 38.9001 44.025 38.9001H36.0082C35.8426 38.9001 35.6976 38.8619 35.5732 38.7856C35.4491 38.7091 35.3524 38.6083 35.2832 38.4833C35.2111 38.3556 35.1723 38.2168 35.1667 38.0668C35.1611 37.9168 35.2028 37.7696 35.2917 37.6251ZM45.6 50.0001C44.3612 50.0001 43.3181 49.5765 42.4707 48.7293C41.6236 47.882 41.2 46.8389 41.2 45.6001C41.2 44.3612 41.6236 43.3181 42.4707 42.4708C43.3181 41.6236 44.3612 41.2001 45.6 41.2001C46.8388 41.2001 47.8819 41.6236 48.7292 42.4708C49.5764 43.3181 50 44.3612 50 45.6001C50 46.8389 49.5764 47.882 48.7292 48.7293C47.8819 49.5765 46.8388 50.0001 45.6 50.0001ZM31 48.5833V42.5168C31 42.2806 31.0798 42.0827 31.2395 41.9231C31.3993 41.7632 31.5973 41.6833 31.8332 41.6833H37.9C38.1362 41.6833 38.3341 41.7632 38.4938 41.9231C38.6534 42.0827 38.7332 42.2806 38.7332 42.5168V48.5833C38.7332 48.8195 38.6534 49.0174 38.4938 49.1771C38.3341 49.3369 38.1362 49.4168 37.9 49.4168H31.8332C31.5973 49.4168 31.3993 49.3369 31.2395 49.1771C31.0798 49.0174 31 48.8195 31 48.5833ZM45.6015 48.3333C46.3672 48.3333 47.0139 48.069 47.5417 47.5403C48.0694 47.0116 48.3333 46.3644 48.3333 45.5986C48.3333 44.8329 48.0689 44.1861 47.5402 43.6583C47.0116 43.1306 46.3643 42.8668 45.5985 42.8668C44.8328 42.8668 44.1861 43.1311 43.6582 43.6598C43.1306 44.1885 42.8667 44.8357 42.8667 45.6016C42.8667 46.3672 43.1311 47.014 43.6597 47.5418C44.1884 48.0695 44.8357 48.3333 45.6015 48.3333ZM32.6667 47.7501H37.0668V43.3501H32.6667V47.7501ZM37.5 37.2333H42.5332L40.0168 33.1668L37.5 37.2333Z" fill="white" fill-opacity="0.6"/>
</g>
</svg>
