<svg width="256" height="256" viewBox="0 0 256 256" fill="none" xmlns="http://www.w3.org/2000/svg">
<rect width="256" height="256" transform="matrix(1 0 0 -1 0 256)" fill="#272F49"/>
<path fill-rule="evenodd" clip-rule="evenodd" d="M174.83 57.3481C174.83 57.3828 174.83 57.4175 174.83 57.4522C174.83 57.4869 174.83 57.5216 174.83 57.5563V57.3481ZM128.632 11.1204H128.363C128.408 11.1202 128.453 11.1202 128.498 11.1202C128.543 11.1202 128.587 11.1202 128.632 11.1204ZM174.829 57.7764C174.654 83.2156 153.978 103.784 128.498 103.784C103.018 103.784 82.3413 83.2156 82.167 57.7764H174.829Z" fill="#457978"/>
<path fill-rule="evenodd" clip-rule="evenodd" d="M82.1672 103.423H174.829C174.655 128.863 153.979 149.432 128.498 149.432C103.018 149.432 82.3411 128.863 82.1672 103.423Z" fill="#24629A"/>
<path fill-rule="evenodd" clip-rule="evenodd" d="M82.1671 149.072H174.829C174.655 174.512 153.979 195.081 128.498 195.081C103.017 195.081 82.341 174.512 82.1671 149.072Z" fill="#E9E3D1"/>
</svg>
