<svg width="256" height="256" viewBox="0 0 256 256" fill="none" xmlns="http://www.w3.org/2000/svg">
<rect width="256" height="256" fill="#EEA556"/>
<path fill-rule="evenodd" clip-rule="evenodd" d="M174.83 198.652C174.83 198.617 174.83 198.583 174.83 198.548C174.83 198.513 174.83 198.478 174.83 198.444V198.652ZM128.632 244.88H128.364C128.408 244.88 128.453 244.88 128.498 244.88C128.543 244.88 128.588 244.88 128.632 244.88ZM174.829 198.224C174.654 172.784 153.978 152.216 128.498 152.216C103.018 152.216 82.3413 172.784 82.167 198.224H174.829Z" fill="#457978"/>
<path fill-rule="evenodd" clip-rule="evenodd" d="M82.1673 152.577H174.829C174.655 127.137 153.979 106.568 128.498 106.568C103.018 106.568 82.3412 127.137 82.1673 152.577Z" fill="#24366D"/>
<path fill-rule="evenodd" clip-rule="evenodd" d="M82.1671 106.928H174.829C174.655 81.4879 153.979 60.9189 128.498 60.9189C103.017 60.9189 82.341 81.4879 82.1671 106.928Z" fill="#E9E3D1"/>
</svg>
