<svg width="256" height="256" viewBox="0 0 256 256" fill="none" xmlns="http://www.w3.org/2000/svg">
<g clip-path="url(#clip0_5531_31397)">
<rect width="256" height="256" fill="#E9E3D1"/>
<path fill-rule="evenodd" clip-rule="evenodd" d="M128.66 258.65H128.337C128.391 258.65 128.444 258.65 128.498 258.65C128.552 258.65 128.606 258.65 128.66 258.65ZM192.847 193.85H64.1497C64.3918 158.518 93.1089 129.95 128.498 129.95C163.888 129.95 192.605 158.518 192.847 193.85ZM64.1483 194.185C64.1482 194.223 64.1482 194.262 64.1482 194.3C64.1482 194.339 64.1482 194.377 64.1483 194.416V194.185Z" fill="#E84142"/>
<path d="M128.498 88.5498C163.737 88.5498 192.36 116.875 192.842 152H64.1541C64.6354 116.875 93.2589 88.55 128.498 88.5498Z" fill="#213059"/>
<path d="M128.498 47.1494C163.888 47.1495 192.603 75.7173 192.845 111.05H64.1506C64.3924 75.7172 93.1088 47.1494 128.498 47.1494Z" fill="#457978"/>
<path d="M128.188 89C147.509 89.0001 164.841 97.5168 176.637 111H79.7373C91.5328 97.5166 108.865 89 128.188 89Z" fill="#EEA556"/>
<path d="M128.188 130C147.509 130 164.841 138.517 176.637 152H79.7373C91.5328 138.517 108.865 130 128.188 130Z" fill="#111111"/>
</g>
<defs>
<clipPath id="clip0_5531_31397">
<rect width="256" height="256" fill="white"/>
</clipPath>
</defs>
</svg>
