<svg width="256" height="256" viewBox="0 0 256 256" fill="none" xmlns="http://www.w3.org/2000/svg">
<g clip-path="url(#clip0_5531_31462)">
<rect width="256" height="256" fill="#E9E3D1"/>
<path fill-rule="evenodd" clip-rule="evenodd" d="M128.853 -132.28H127.147C127.431 -132.282 127.715 -132.283 128 -132.283C128.285 -132.283 128.569 -132.282 128.853 -132.28ZM256 -0.896484C255.517 70.7393 198.394 128.659 128 128.659C57.6053 128.659 0.482701 70.7393 -0.00012207 -0.896484H256Z" fill="#48A7A5"/>
<path fill-rule="evenodd" clip-rule="evenodd" d="M128.853 389.016H127.147C127.431 389.018 127.715 389.019 128 389.019C128.285 389.019 128.569 389.018 128.853 389.016ZM256 257.633C255.517 185.997 198.395 128.077 128 128.077C57.6054 128.077 0.482823 185.997 0 257.633H256Z" fill="#323237"/>
</g>
<defs>
<clipPath id="clip0_5531_31462">
<rect width="256" height="256" fill="white"/>
</clipPath>
</defs>
</svg>
