<svg width="256" height="256" viewBox="0 0 256 256" fill="none" xmlns="http://www.w3.org/2000/svg">
<rect width="256" height="256" fill="url(#paint0_linear_5567_31181)"/>
<path d="M109.5 30.3923C120.638 23.9615 134.362 23.9615 145.5 30.3923L202.598 63.3577C213.736 69.7885 220.598 81.673 220.598 94.5346V160.465C220.598 173.327 213.736 185.212 202.598 191.642L145.5 224.608C134.362 231.038 120.638 231.038 109.5 224.608L52.4023 191.642C41.2638 185.212 34.4023 173.327 34.4023 160.465V94.5346C34.4023 81.673 41.2638 69.7885 52.4023 63.3577L109.5 30.3923Z" fill="url(#paint1_linear_5567_31181)"/>
<path opacity="0.6" d="M109.5 30.3924C120.638 23.9616 134.362 23.9616 145.5 30.3924L202.598 63.3573C205.129 64.8188 207.439 66.5635 209.498 68.536C208.879 68.1256 208.246 67.7316 207.598 67.3573L150.5 34.3924C139.362 27.9616 125.638 27.9616 114.5 34.3924L57.4023 67.3573C46.264 73.788 39.4025 85.6726 39.4023 98.534V164.466C39.4025 174.403 43.5001 183.757 50.501 190.463C40.4886 183.823 34.4023 172.577 34.4023 160.465V94.534C34.4024 81.6726 41.264 69.788 52.4023 63.3573L109.5 30.3924Z" fill="#111111"/>
<path opacity="0.6" d="M211.828 70.9883C217.4 77.4331 220.598 85.7555 220.598 94.5342V160.465C220.598 173.326 213.736 185.211 202.598 191.642L145.5 224.607C134.362 231.038 120.638 231.038 109.5 224.607L52.4023 191.642C47.3757 188.739 43.2199 184.727 40.1729 180.015C42.7636 183.011 45.8675 185.602 49.4023 187.643L106.5 220.607C117.638 227.038 131.362 227.038 142.5 220.607L199.598 187.643C210.736 181.212 217.598 169.327 217.598 156.466V90.5342C217.598 83.4783 215.532 76.7169 211.828 70.9883Z" fill="white"/>
<path d="M125.349 70.4995C126.654 69.8348 128.21 69.8348 129.516 70.4995C130.729 71.1184 131.691 72.792 133.592 76.1391L142.775 92.186L142.822 92.268C144.875 95.8588 145.916 97.6801 146.37 99.5913C146.874 101.677 146.874 103.878 146.37 105.964C145.912 107.89 144.882 109.724 142.798 113.37L119.335 154.892L119.273 154.999C117.207 158.619 116.16 160.454 114.709 161.838C113.129 163.352 111.227 164.452 109.144 165.072C107.243 165.598 105.113 165.598 100.854 165.598H82.7627C78.9617 165.598 77.0843 165.598 75.9394 164.865C74.7028 164.062 73.9471 162.733 73.8554 161.265C73.7867 159.913 74.7258 158.262 76.6035 154.96L121.272 76.1391C123.173 72.792 124.135 71.1184 125.349 70.4995ZM157.395 127.153C158.699 126.488 160.235 126.488 161.539 127.153C162.722 127.756 163.643 129.316 165.468 132.405L165.615 132.655L178.601 154.892C178.664 155.002 178.726 155.109 178.788 155.215C180.588 158.324 181.506 159.912 181.44 161.22C181.371 162.686 180.592 164.039 179.356 164.842C178.211 165.598 176.286 165.598 172.462 165.598H146.54C142.716 165.598 140.792 165.598 139.67 164.865C138.433 164.062 137.678 162.71 137.586 161.243C137.518 159.901 138.464 158.265 140.358 154.992L140.402 154.916L153.341 132.678C155.242 129.4 156.204 127.772 157.395 127.153Z" fill="url(#paint2_linear_5567_31181)"/>
<path opacity="0.6" d="M157.394 127.152C158.699 126.487 160.235 126.487 161.54 127.152C162.347 127.564 163.03 128.424 163.965 129.911C162.799 129.504 161.513 129.585 160.395 130.155C159.204 130.774 158.242 132.401 156.341 135.679L143.403 157.918L143.359 157.994C141.465 161.267 140.518 162.903 140.586 164.245C140.609 164.609 140.672 164.966 140.774 165.309C140.334 165.204 139.972 165.061 139.669 164.864C138.433 164.061 137.678 162.709 137.586 161.242C137.518 159.9 138.464 158.264 140.358 154.991L140.403 154.915L153.341 132.676C155.242 129.399 156.203 127.771 157.394 127.152ZM125.348 70.4976C126.653 69.8328 128.211 69.8328 129.516 70.4976C130.311 70.903 130.996 71.7623 131.91 73.2466C130.746 72.8524 129.457 72.936 128.348 73.5005C127.135 74.1195 126.173 75.7932 124.272 79.1402L79.6031 157.962C77.7254 161.264 76.7863 162.915 76.855 164.267C76.8773 164.624 76.9397 164.972 77.0376 165.306C76.6041 165.201 76.2451 165.06 75.939 164.864C74.7024 164.061 73.9467 162.732 73.855 161.264C73.7863 159.912 74.7253 158.261 76.6031 154.96L121.272 76.1373C123.173 72.7902 124.135 71.1165 125.348 70.4976Z" fill="white"/>
<path opacity="0.6" d="M131.908 73.2471C132.115 73.3172 132.319 73.3995 132.516 73.5C133.73 74.1189 134.692 75.7927 136.592 79.1396L145.775 95.1875L145.822 95.2695C147.875 98.8603 148.916 100.682 149.371 102.593C149.874 104.679 149.874 106.88 149.371 108.966C148.913 110.892 147.882 112.726 145.799 116.371L122.335 157.894L122.274 158C120.208 161.62 119.16 163.456 117.709 164.84C116.129 166.353 114.228 167.452 112.144 168.072C110.243 168.599 108.114 168.6 103.854 168.6H85.7634C81.9619 168.6 80.0841 168.599 78.9391 167.866C78.004 167.259 77.3436 166.351 77.0378 165.31C78.2261 165.598 79.9782 165.6 82.7634 165.6H100.854C105.114 165.6 107.244 165.6 109.144 165.073C111.228 164.453 113.129 163.353 114.709 161.84C116.16 160.456 117.208 158.62 119.274 155L119.335 154.894L142.799 113.371C144.882 109.726 145.913 107.892 146.371 105.966C146.874 103.88 146.874 101.679 146.371 99.5928C145.916 97.6816 144.875 95.8603 142.822 92.2695L142.775 92.1875L133.592 76.1406C132.936 74.9847 132.389 74.0293 131.908 73.2471ZM163.964 129.91C164.159 129.978 164.352 130.059 164.54 130.154C165.723 130.757 166.643 132.318 168.467 135.406L168.616 135.656L181.6 157.894C181.664 158.003 181.726 158.111 181.788 158.217C183.588 161.326 184.506 162.913 184.44 164.222C184.371 165.688 183.592 167.041 182.356 167.844C181.21 168.599 179.287 168.6 175.463 168.6H149.54C145.716 168.6 143.792 168.599 142.67 167.866C141.741 167.263 141.084 166.35 140.775 165.312C141.969 165.597 143.747 165.6 146.54 165.6H172.463C176.287 165.6 178.21 165.599 179.356 164.844C180.592 164.041 181.371 162.688 181.44 161.222C181.506 159.913 180.587 158.326 178.788 155.217C178.726 155.111 178.664 155.003 178.6 154.894L165.616 132.656L165.468 132.406C164.889 131.426 164.398 130.601 163.964 129.91Z" fill="black"/>
<g filter="url(#filter0_f_5567_31181)">
<ellipse cx="112.701" cy="94.9202" rx="4" ry="30" transform="rotate(30 112.701 94.9202)" fill="url(#paint3_linear_5567_31181)"/>
</g>
<g filter="url(#filter1_f_5567_31181)">
<ellipse cx="174.476" cy="205.138" rx="4" ry="45" transform="rotate(60 174.476 205.138)" fill="white"/>
</g>
<defs>
<filter id="filter0_f_5567_31181" x="91.3028" y="62.8613" width="42.7964" height="64.1182" filterUnits="userSpaceOnUse" color-interpolation-filters="sRGB">
<feFlood flood-opacity="0" result="BackgroundImageFix"/>
<feBlend mode="normal" in="SourceGraphic" in2="BackgroundImageFix" result="shape"/>
<feGaussianBlur stdDeviation="3" result="effect1_foregroundBlur_5567_31181"/>
</filter>
<filter id="filter1_f_5567_31181" x="123.453" y="170.369" width="102.047" height="69.5371" filterUnits="userSpaceOnUse" color-interpolation-filters="sRGB">
<feFlood flood-opacity="0" result="BackgroundImageFix"/>
<feBlend mode="normal" in="SourceGraphic" in2="BackgroundImageFix" result="shape"/>
<feGaussianBlur stdDeviation="6" result="effect1_foregroundBlur_5567_31181"/>
</filter>
<linearGradient id="paint0_linear_5567_31181" x1="90.2095" y1="-26.6948" x2="260.985" y2="102.618" gradientUnits="userSpaceOnUse">
<stop stop-color="#EFEFF6"/>
<stop offset="0.554538" stop-color="#3A3A45"/>
<stop offset="1" stop-color="#A6A6BE"/>
</linearGradient>
<linearGradient id="paint1_linear_5567_31181" x1="95.7619" y1="-2.41946" x2="221.768" y2="84.3831" gradientUnits="userSpaceOnUse">
<stop stop-color="#1E1E29"/>
<stop offset="0.554538" stop-color="#3A3A45"/>
<stop offset="1" stop-color="#75758D"/>
</linearGradient>
<linearGradient id="paint2_linear_5567_31181" x1="74.0004" y1="90.0008" x2="128" y2="157.501" gradientUnits="userSpaceOnUse">
<stop stop-color="white"/>
<stop offset="1" stop-color="#3F3F4D"/>
</linearGradient>
<linearGradient id="paint3_linear_5567_31181" x1="112.701" y1="64.9202" x2="112.701" y2="124.92" gradientUnits="userSpaceOnUse">
<stop stop-color="white"/>
<stop offset="1" stop-color="white" stop-opacity="0"/>
</linearGradient>
</defs>
</svg>
