<svg width="256" height="256" viewBox="0 0 256 256" fill="none" xmlns="http://www.w3.org/2000/svg">
<rect width="256" height="256" fill="url(#paint0_linear_5900_31685)"/>
<path d="M109.5 30.3923C120.638 23.9615 134.362 23.9615 145.5 30.3923L202.598 63.3577C213.736 69.7885 220.598 81.673 220.598 94.5346V160.465C220.598 173.327 213.736 185.212 202.598 191.642L145.5 224.608C134.362 231.038 120.638 231.038 109.5 224.608L52.4023 191.642C41.2638 185.212 34.4023 173.327 34.4023 160.465V94.5346C34.4023 81.673 41.2638 69.7885 52.4023 63.3577L109.5 30.3923Z" fill="url(#paint1_linear_5900_31685)"/>
<path opacity="0.6" d="M109.5 30.3924C120.638 23.9616 134.362 23.9616 145.5 30.3924L202.598 63.3573C205.129 64.8188 207.439 66.5635 209.498 68.536C208.879 68.1256 208.246 67.7316 207.598 67.3573L150.5 34.3924C139.362 27.9616 125.638 27.9616 114.5 34.3924L57.4023 67.3573C46.264 73.788 39.4025 85.6726 39.4023 98.534V164.466C39.4025 174.403 43.5001 183.757 50.501 190.463C40.4886 183.823 34.4023 172.577 34.4023 160.465V94.534C34.4024 81.6726 41.264 69.788 52.4023 63.3573L109.5 30.3924Z" fill="#111111"/>
<path opacity="0.6" d="M211.828 70.9883C217.4 77.4331 220.598 85.7555 220.598 94.5342V160.465C220.598 173.326 213.736 185.211 202.598 191.642L145.5 224.607C134.362 231.038 120.638 231.038 109.5 224.607L52.4023 191.642C47.3757 188.739 43.2199 184.727 40.1729 180.015C42.7636 183.011 45.8675 185.602 49.4023 187.643L106.5 220.607C117.638 227.038 131.362 227.038 142.5 220.607L199.598 187.643C210.736 181.212 217.598 169.327 217.598 156.466V90.5342C217.598 83.4783 215.532 76.7169 211.828 70.9883Z" fill="white"/>
<g filter="url(#filter0_f_5900_31685)">
<ellipse cx="174.476" cy="205.138" rx="4" ry="45" transform="rotate(60 174.476 205.138)" fill="white"/>
</g>
<path d="M165.349 117.134C167.09 105.483 158.225 99.2207 146.103 95.0427L150.036 79.2606L140.434 76.8667L136.606 92.2334C134.082 91.6034 131.49 91.0099 128.913 90.4215L132.769 74.9534L123.174 72.5596L119.239 88.3366C117.15 87.8607 115.099 87.3904 113.108 86.8949L113.12 86.8453L99.8791 83.5369L97.325 93.7979C97.325 93.7979 104.448 95.4317 104.298 95.5323C108.186 96.5033 108.889 99.0786 108.773 101.12L104.293 119.099C104.561 119.167 104.908 119.266 105.291 119.42C104.971 119.34 104.63 119.253 104.276 119.169L97.9977 144.356C97.5225 145.538 96.3165 147.311 93.5982 146.638C93.6944 146.777 86.6197 144.895 86.6197 144.895L81.8528 155.892L94.3475 159.009C96.6719 159.592 98.9497 160.202 101.193 160.776L97.2198 176.739L106.81 179.133L110.745 163.34C113.365 164.051 115.907 164.708 118.396 165.326L114.475 181.046L124.077 183.44L128.049 167.506C144.422 170.607 156.733 169.357 161.914 154.539C166.09 142.609 161.707 135.728 153.093 131.241C159.367 129.793 164.092 125.664 165.352 117.136L165.349 117.133L165.349 117.134ZM143.412 147.914C140.445 159.844 120.37 153.395 113.862 151.778L119.134 130.629C125.642 132.255 146.513 135.472 143.412 147.914H143.412ZM146.381 116.961C143.674 127.813 126.966 122.3 121.546 120.948L126.326 101.768C131.746 103.12 149.201 105.643 146.382 116.961H146.381Z" fill="url(#paint2_linear_5900_31685)"/>
<path opacity="0.6" d="M117.87 167.433C119.059 167.74 120.234 168.037 121.396 168.326L118.003 181.925L114.475 181.046L117.87 167.433ZM100.673 162.863C101.857 163.172 103.03 163.479 104.193 163.776L100.747 177.619L97.2197 176.739L100.673 162.863ZM142.203 140.688C145.527 143.135 147.531 146.423 146.412 150.914L146.339 151.19C143.131 162.743 123.319 156.382 116.861 154.777L117.38 152.693C125.665 154.837 140.592 158.085 143.339 148.19L143.412 147.914C144.127 145.046 143.566 142.67 142.203 140.688ZM108.511 98.9268C111.336 100.087 111.876 102.312 111.772 104.12L107.293 122.1C107.561 122.168 107.908 122.266 108.291 122.42C107.971 122.34 107.63 122.254 107.276 122.169L100.998 147.355C100.523 148.537 99.3167 150.311 96.5986 149.638C96.6886 149.775 89.685 147.913 89.6201 147.896L85.7334 156.86L81.8525 155.893L86.6201 144.896C86.685 144.913 93.6886 146.775 93.5986 146.638C96.3167 147.311 97.5229 145.537 97.998 144.355L104.276 119.169C104.63 119.254 104.971 119.34 105.291 119.42C104.908 119.266 104.561 119.168 104.293 119.1L108.772 101.12C108.812 100.423 108.756 99.6633 108.511 98.9268ZM157.313 133.917C158.526 134.866 159.585 135.902 160.47 137.04C159.179 136.011 157.71 135.084 156.093 134.241C156.507 134.146 156.914 134.036 157.313 133.917ZM145.429 110.34C148.531 112.527 150.471 115.587 149.382 119.962H149.381C146.674 130.813 129.966 125.3 124.546 123.948L125.063 121.868C132.128 123.676 144.123 126.012 146.381 116.962H146.382C147.044 114.302 146.586 112.127 145.429 110.34ZM149.532 96.3213C154.899 98.4893 159.388 101.189 162.239 104.762C158.827 101.975 154.26 99.8203 149.104 98.043L149.532 96.3213ZM150.036 79.2607L149.507 81.3809L143.435 79.8672L139.606 95.2334C137.082 94.6035 134.489 94.0103 131.913 93.4219L132.457 91.2373C133.851 91.5622 135.239 91.8921 136.606 92.2334L140.435 76.8672L150.036 79.2607ZM132.77 74.9531L132.24 77.0723L126.174 75.5596L122.239 91.3369C120.15 90.8611 118.099 90.3901 116.108 89.8945L116.119 89.8457L102.879 86.5371L100.865 94.626C99.1152 94.2079 97.3475 93.803 97.3252 93.7979L99.8789 83.5371L113.119 86.8457L113.108 86.8945C115.099 87.3901 117.15 87.8611 119.239 88.3369L123.174 72.5596L132.77 74.9531Z" fill="white"/>
<path opacity="0.6" d="M160.469 137.04C166.051 141.491 168.306 147.849 164.914 157.539C159.733 172.357 147.422 173.606 131.049 170.506L127.076 186.439L117.475 184.046L118.003 181.925L124.076 183.439L128.049 167.506C144.422 170.606 156.733 169.357 161.914 154.539C164.608 146.842 163.738 141.247 160.469 137.04ZM110.744 163.34C113.364 164.051 115.908 164.707 118.397 165.326L117.87 167.433C116.515 167.082 115.14 166.719 113.744 166.34L109.81 182.133L100.22 179.739L100.747 177.619L106.81 179.133L110.744 163.34ZM94.3479 159.009C96.6721 159.592 98.9496 160.203 101.193 160.776L100.673 162.863C99.5746 162.577 98.4667 162.29 97.3479 162.009L84.8528 158.893L85.7327 156.86L94.3479 159.009ZM119.134 130.629C124.142 131.88 137.653 134.075 142.203 140.688C136.318 136.357 126.293 134.668 122.134 133.629L117.38 152.693C115.991 152.334 114.789 152.008 113.862 151.777L119.134 130.629ZM162.24 104.762C166.848 108.525 169.349 113.44 168.349 120.134L168.352 120.136C167.175 128.102 162.974 132.229 157.313 133.918C156.06 132.938 154.646 132.05 153.093 131.241C159.367 129.794 164.092 125.664 165.352 117.136L165.349 117.134C166.103 112.088 164.867 108.054 162.24 104.762ZM126.326 101.768C130.472 102.802 141.659 104.522 145.428 110.339C140.504 106.868 132.651 105.597 129.326 104.768L125.064 121.868C123.658 121.508 122.446 121.173 121.546 120.948L126.326 101.768ZM100.865 94.626C102.628 95.0472 104.373 95.4819 104.298 95.5322C106.858 96.1715 108.036 97.5068 108.51 98.9268C108.145 98.777 107.743 98.6433 107.298 98.5322C107.448 98.4321 100.39 96.8127 100.325 96.7979L100.865 94.626ZM153.035 82.2607L149.531 96.3213C148.424 95.8738 147.279 95.4482 146.103 95.043L149.506 81.3809L153.035 82.2607ZM135.77 77.9531L132.457 91.2373C131.278 90.9625 130.094 90.6915 128.913 90.4219L132.24 77.0723L135.77 77.9531Z" fill="black"/>
<g filter="url(#filter1_f_5900_31685)">
<ellipse cx="104.701" cy="125.92" rx="4" ry="30" transform="rotate(15.7767 104.701 125.92)" fill="url(#paint3_linear_5900_31685)"/>
</g>
<defs>
<filter id="filter0_f_5900_31685" x="123.453" y="170.369" width="102.047" height="69.5371" filterUnits="userSpaceOnUse" color-interpolation-filters="sRGB">
<feFlood flood-opacity="0" result="BackgroundImageFix"/>
<feBlend mode="normal" in="SourceGraphic" in2="BackgroundImageFix" result="shape"/>
<feGaussianBlur stdDeviation="6" result="effect1_foregroundBlur_5900_31685"/>
</filter>
<filter id="filter1_f_5900_31685" x="89.6794" y="91.0293" width="30.0429" height="69.7822" filterUnits="userSpaceOnUse" color-interpolation-filters="sRGB">
<feFlood flood-opacity="0" result="BackgroundImageFix"/>
<feBlend mode="normal" in="SourceGraphic" in2="BackgroundImageFix" result="shape"/>
<feGaussianBlur stdDeviation="3" result="effect1_foregroundBlur_5900_31685"/>
</filter>
<linearGradient id="paint0_linear_5900_31685" x1="90.2095" y1="-26.6948" x2="260.985" y2="102.618" gradientUnits="userSpaceOnUse">
<stop stop-color="#EFEFF6"/>
<stop offset="0.554538" stop-color="#3A3A45"/>
<stop offset="1" stop-color="#A6A6BE"/>
</linearGradient>
<linearGradient id="paint1_linear_5900_31685" x1="95.7619" y1="-2.41946" x2="221.768" y2="84.3831" gradientUnits="userSpaceOnUse">
<stop stop-color="#1E1E29"/>
<stop offset="0.554538" stop-color="#3A3A45"/>
<stop offset="1" stop-color="#75758D"/>
</linearGradient>
<linearGradient id="paint2_linear_5900_31685" x1="81.9683" y1="95.7568" x2="145.184" y2="148.766" gradientUnits="userSpaceOnUse">
<stop stop-color="white"/>
<stop offset="1" stop-color="#3F3F4D"/>
</linearGradient>
<linearGradient id="paint3_linear_5900_31685" x1="104.701" y1="95.9203" x2="104.701" y2="155.92" gradientUnits="userSpaceOnUse">
<stop stop-color="white"/>
<stop offset="1" stop-color="white" stop-opacity="0"/>
</linearGradient>
</defs>
</svg>
