<svg width="256" height="256" viewBox="0 0 256 256" fill="none" xmlns="http://www.w3.org/2000/svg">
<rect width="256" height="256" fill="url(#paint0_linear_5531_31313)"/>
<path d="M109.5 30.3923C120.638 23.9615 134.362 23.9615 145.5 30.3923L202.598 63.3577C213.736 69.7885 220.598 81.673 220.598 94.5346V160.465C220.598 173.327 213.736 185.212 202.598 191.642L145.5 224.608C134.362 231.038 120.638 231.038 109.5 224.608L52.4023 191.642C41.2638 185.212 34.4023 173.327 34.4023 160.465V94.5346C34.4023 81.673 41.2638 69.7885 52.4023 63.3577L109.5 30.3923Z" fill="url(#paint1_linear_5531_31313)"/>
<path opacity="0.6" d="M109.5 30.3924C120.638 23.9616 134.362 23.9616 145.5 30.3924L202.598 63.3573C205.129 64.8188 207.439 66.5635 209.498 68.536C208.879 68.1256 208.246 67.7316 207.598 67.3573L150.5 34.3924C139.362 27.9616 125.638 27.9616 114.5 34.3924L57.4023 67.3573C46.264 73.788 39.4025 85.6726 39.4023 98.534V164.466C39.4025 174.403 43.5001 183.757 50.501 190.463C40.4886 183.823 34.4023 172.577 34.4023 160.465V94.534C34.4024 81.6726 41.264 69.788 52.4023 63.3573L109.5 30.3924Z" fill="#111111"/>
<path opacity="0.6" d="M211.828 70.9883C217.4 77.4331 220.598 85.7555 220.598 94.5342V160.465C220.598 173.326 213.736 185.211 202.598 191.642L145.5 224.607C134.362 231.038 120.638 231.038 109.5 224.607L52.4023 191.642C47.3757 188.739 43.2199 184.727 40.1729 180.015C42.7636 183.011 45.8675 185.602 49.4023 187.643L106.5 220.607C117.638 227.038 131.362 227.038 142.5 220.607L199.598 187.643C210.736 181.212 217.598 169.327 217.598 156.466V90.5342C217.598 83.4783 215.532 76.7169 211.828 70.9883Z" fill="white"/>
<path d="M125.348 70.4986C126.654 69.8338 128.211 69.8338 129.516 70.4986C130.73 71.1177 131.692 72.7915 133.593 76.1382L142.775 92.1851L142.822 92.2671C144.875 95.858 145.916 97.6792 146.371 99.5904C146.875 101.677 146.875 103.877 146.371 105.963C145.913 107.889 144.882 109.724 142.798 113.369L119.335 154.891L119.274 154.998C117.208 158.618 116.16 160.453 114.709 161.837C113.129 163.351 111.228 164.451 109.144 165.071C107.244 165.598 105.114 165.597 100.854 165.597H82.7635C78.962 165.597 77.0842 165.597 75.9392 164.864C74.7026 164.061 73.9469 162.732 73.8553 161.264C73.7866 159.912 74.7256 158.261 76.6033 154.96L121.272 76.1382C123.173 72.7911 124.135 71.1175 125.348 70.4986ZM157.394 127.152C158.699 126.487 160.234 126.487 161.539 127.152C162.722 127.755 163.643 129.315 165.468 132.404L165.616 132.654L178.6 154.892C178.664 155.002 178.726 155.109 178.788 155.214C180.588 158.324 181.506 159.911 181.44 161.219C181.371 162.686 180.593 164.04 179.356 164.842C178.211 165.598 176.287 165.597 172.463 165.597H146.54C142.716 165.597 140.792 165.597 139.67 164.864C138.433 164.061 137.677 162.709 137.586 161.242C137.518 159.9 138.464 158.264 140.358 154.991L140.403 154.915L153.342 132.677C155.242 129.399 156.204 127.771 157.394 127.152Z" fill="url(#paint2_linear_5531_31313)"/>
<path opacity="0.6" d="M157.395 127.152C158.699 126.487 160.235 126.487 161.539 127.152C162.347 127.564 163.03 128.424 163.965 129.912C162.799 129.505 161.512 129.585 160.395 130.155C159.204 130.774 158.243 132.402 156.342 135.68L143.402 157.918L143.359 157.994C141.465 161.267 140.518 162.903 140.586 164.245C140.609 164.609 140.672 164.966 140.774 165.309C140.333 165.204 139.972 165.061 139.67 164.864C138.434 164.061 137.678 162.709 137.586 161.242C137.518 159.9 138.465 158.264 140.359 154.991L140.402 154.915L153.341 132.677C155.242 129.399 156.204 127.771 157.395 127.152ZM125.348 70.4986C126.653 69.8338 128.21 69.8338 129.516 70.4986C130.311 70.904 130.996 71.7625 131.909 73.2466C130.746 72.8526 129.457 72.9371 128.349 73.5015C127.135 74.1205 126.173 75.794 124.273 79.1412L79.6037 157.962C77.7259 161.264 76.7869 162.915 76.8556 164.267C76.8779 164.624 76.9401 164.972 77.0382 165.307C76.6044 165.202 76.2449 165.06 75.9386 164.864C74.7022 164.061 73.9462 162.732 73.8546 161.264C73.786 159.912 74.725 158.261 76.6027 154.96L121.272 76.1382C123.172 72.7915 124.134 71.1177 125.348 70.4986Z" fill="white"/>
<path opacity="0.6" d="M131.908 73.2471C132.115 73.3172 132.319 73.3995 132.516 73.5C133.73 74.1189 134.692 75.7927 136.592 79.1396L145.775 95.1875L145.822 95.2695C147.875 98.8603 148.916 100.682 149.371 102.593C149.874 104.679 149.874 106.88 149.371 108.966C148.913 110.892 147.882 112.726 145.799 116.371L122.335 157.894L122.274 158C120.208 161.62 119.16 163.456 117.709 164.84C116.129 166.353 114.228 167.452 112.144 168.072C110.243 168.599 108.114 168.6 103.854 168.6H85.7634C81.9619 168.6 80.0841 168.599 78.9391 167.866C78.004 167.259 77.3436 166.351 77.0378 165.31C78.2261 165.598 79.9782 165.6 82.7634 165.6H100.854C105.114 165.6 107.244 165.6 109.144 165.073C111.228 164.453 113.129 163.353 114.709 161.84C116.16 160.456 117.208 158.62 119.274 155L119.335 154.894L142.799 113.371C144.882 109.726 145.913 107.892 146.371 105.966C146.874 103.88 146.874 101.679 146.371 99.5928C145.916 97.6816 144.875 95.8603 142.822 92.2695L142.775 92.1875L133.592 76.1406C132.936 74.9847 132.389 74.0293 131.908 73.2471ZM163.964 129.91C164.159 129.978 164.352 130.059 164.54 130.154C165.723 130.757 166.643 132.318 168.467 135.406L168.616 135.656L181.6 157.894C181.664 158.003 181.726 158.111 181.788 158.217C183.588 161.326 184.506 162.913 184.44 164.222C184.371 165.688 183.592 167.041 182.356 167.844C181.21 168.599 179.287 168.6 175.463 168.6H149.54C145.716 168.6 143.792 168.599 142.67 167.866C141.741 167.263 141.084 166.35 140.775 165.312C141.969 165.597 143.747 165.6 146.54 165.6H172.463C176.287 165.6 178.21 165.599 179.356 164.844C180.592 164.041 181.371 162.688 181.44 161.222C181.506 159.913 180.587 158.326 178.788 155.217C178.726 155.111 178.664 155.003 178.6 154.894L165.616 132.656L165.468 132.406C164.889 131.426 164.398 130.601 163.964 129.91Z" fill="black"/>
<g filter="url(#filter0_f_5531_31313)">
<ellipse cx="112.701" cy="94.9202" rx="4" ry="30" transform="rotate(30 112.701 94.9202)" fill="url(#paint3_linear_5531_31313)"/>
</g>
<g opacity="0.6" filter="url(#filter1_f_5531_31313)">
<ellipse cx="174.476" cy="205.138" rx="4" ry="45" transform="rotate(60 174.476 205.138)" fill="white"/>
</g>
<defs>
<filter id="filter0_f_5531_31313" x="91.3027" y="62.8613" width="42.7964" height="64.1182" filterUnits="userSpaceOnUse" color-interpolation-filters="sRGB">
<feFlood flood-opacity="0" result="BackgroundImageFix"/>
<feBlend mode="normal" in="SourceGraphic" in2="BackgroundImageFix" result="shape"/>
<feGaussianBlur stdDeviation="3" result="effect1_foregroundBlur_5531_31313"/>
</filter>
<filter id="filter1_f_5531_31313" x="123.453" y="170.369" width="102.047" height="69.5371" filterUnits="userSpaceOnUse" color-interpolation-filters="sRGB">
<feFlood flood-opacity="0" result="BackgroundImageFix"/>
<feBlend mode="normal" in="SourceGraphic" in2="BackgroundImageFix" result="shape"/>
<feGaussianBlur stdDeviation="6" result="effect1_foregroundBlur_5531_31313"/>
</filter>
<linearGradient id="paint0_linear_5531_31313" x1="90.2095" y1="-26.6948" x2="260.985" y2="102.618" gradientUnits="userSpaceOnUse">
<stop stop-color="#686878"/>
<stop offset="0.554538" stop-color="#202027"/>
<stop offset="1" stop-color="#2E2E38"/>
</linearGradient>
<linearGradient id="paint1_linear_5531_31313" x1="95.7619" y1="-2.41946" x2="221.768" y2="84.3831" gradientUnits="userSpaceOnUse">
<stop stop-color="#1E1E29"/>
<stop offset="0.554538" stop-color="#3A3A45"/>
<stop offset="1" stop-color="#17171E"/>
</linearGradient>
<linearGradient id="paint2_linear_5531_31313" x1="74.0002" y1="89.9999" x2="163" y2="161.5" gradientUnits="userSpaceOnUse">
<stop stop-color="#7B7B8E"/>
<stop offset="1" stop-color="#2C2C39"/>
</linearGradient>
<linearGradient id="paint3_linear_5531_31313" x1="112.701" y1="64.9202" x2="112.701" y2="124.92" gradientUnits="userSpaceOnUse">
<stop stop-color="white"/>
<stop offset="1" stop-color="white" stop-opacity="0"/>
</linearGradient>
</defs>
</svg>
