<svg width="256" height="256" viewBox="0 0 256 256" fill="none" xmlns="http://www.w3.org/2000/svg">
<g clip-path="url(#clip0_5527_31209)">
<rect width="256" height="256" fill="#42C49F"/>
<path opacity="0.1" fill-rule="evenodd" clip-rule="evenodd" d="M160.995 76.5C180.495 79.1667 219.495 97.1 219.495 147.5C219.495 165.203 213.47 176.536 204.54 183.782C222.328 205.176 226.999 235.087 226.999 254.191C226.999 286.67 190.286 313 144.999 313C99.7114 313 62.9987 286.67 62.9987 254.191C62.9987 234.467 70.7431 203.226 90.4867 181.729C79.8448 173.595 73.0555 161.202 75.4948 142.5C81.4948 96.5 114.328 79.3333 129.995 76.5C132.495 72.1667 152.995 63 152.995 63C152.995 63 147.495 67 144.995 76.5C155.995 69.4991 163.995 69.4991 163.995 69.4991C159.995 74.0001 160.995 76.5 160.995 76.5Z" fill="#28282E"/>
<path d="M87.5653 99.1088C78.3754 110.852 80.3402 128.888 68.3795 119.528C56.4187 110.168 48.5171 80.8907 57.7069 69.1474C66.8968 57.4041 82.0658 61.443 94.0265 70.803C105.987 80.1631 96.7551 87.3656 87.5653 99.1088Z" fill="#FBF5EC" stroke="#1A1A1C" stroke-width="5" stroke-linejoin="round"/>
<path d="M170.575 100.871C178.8 113.309 175.403 131.131 188.072 122.755C200.741 114.378 210.952 85.8238 202.728 73.3852C194.503 60.9466 179.06 63.7632 166.392 72.1398C153.723 80.5165 162.351 88.4321 170.575 100.871Z" fill="#FBF5EC" stroke="#1A1A1C" stroke-width="5" stroke-linejoin="round"/>
<path opacity="0.6" d="M83.6 97.0936C77.1218 105.372 78.5052 119.634 70.0737 113.036C61.6421 106.438 57.1852 83.8283 63.6634 75.5501C70.1416 67.2719 85.5429 69.687 93.9744 76.2852C102.406 82.8834 90.0782 88.8154 83.6 97.0936Z" fill="#C6C0B6"/>
<path d="M88.5473 101.157C82.0691 109.435 83.4525 123.697 75.021 117.099C66.5895 110.501 62.1325 87.8916 68.6108 79.6134C75.089 71.3352 84.6706 74.6052 93.1021 81.2033C101.534 87.8015 95.0255 92.8788 88.5473 101.157Z" fill="#FBF5EC"/>
<path opacity="0.6" d="M171.817 98.3251C177.614 107.093 176.586 121.642 185.517 115.737C194.447 109.832 202.697 86.1588 196.9 77.3905C191.102 68.6221 177.525 71.9502 168.594 77.8552C159.663 83.7601 166.019 89.5567 171.817 98.3251Z" fill="#C6C0B6"/>
<path d="M170.999 97.8673C176.796 106.636 173.623 124.414 182.554 118.509C191.485 112.604 198.454 93.245 192.657 84.4766C186.859 75.7083 177.047 78.2039 168.117 84.1088C159.186 90.0138 165.201 89.099 170.999 97.8673Z" fill="#FBF5EC"/>
<path d="M206.998 247.191C206.998 279.67 170.285 306 124.998 306C79.7104 306 42.9977 279.67 42.9977 247.191C42.9977 214.712 63.9977 151 124.998 151C193.498 151 206.998 214.712 206.998 247.191Z" fill="#FBF5EC" stroke="#1A1A1C" stroke-width="5" stroke-linejoin="round"/>
<ellipse cx="124.998" cy="232" rx="46" ry="60" fill="#C6C0B6"/>
<path d="M199.494 140.5C199.494 90.1 160.494 72.1667 140.994 69.5C140.994 69.5 139.994 67.0001 143.994 62.4991C143.994 62.4991 135.994 62.4991 124.994 69.5C127.494 60 132.994 56 132.994 56C132.994 56 112.494 65.1667 109.994 69.5C94.3272 72.3333 61.4939 89.5 55.4939 135.5C49.4939 181.5 99.3272 189.333 124.994 189.5C150.661 189.667 199.494 190.9 199.494 140.5Z" fill="#FBF5EC" stroke="#1A1A1C" stroke-width="5" stroke-linejoin="round"/>
<path d="M164.996 159C164.996 171.703 146.864 177.999 124.496 177.999C102.129 177.999 85.9963 170.203 85.9963 157.5C85.9963 144.797 103.129 133.5 125.496 133.5C147.864 133.5 164.996 146.297 164.996 159Z" fill="#C6C0B6"/>
<path d="M137.996 105.977C142.163 101.311 154.196 93.7774 168.996 100.977" stroke="#1A1A1C" stroke-width="8" stroke-linecap="round" stroke-linejoin="bevel"/>
<path d="M112.996 107C109.233 102.32 98.364 94.7655 84.9963 101.986" stroke="#1A1A1C" stroke-width="8" stroke-linecap="round" stroke-linejoin="bevel"/>
<ellipse cx="100.996" cy="129" rx="10" ry="12" transform="rotate(-12.2284 100.996 129)" fill="#1A1A1C"/>
<ellipse cx="10" cy="12" rx="10" ry="12" transform="matrix(-0.977311 -0.211809 -0.211809 0.977311 161.627 119.391)" fill="#1A1A1C"/>
<ellipse cx="2.86734" cy="3.98297" rx="2.86734" ry="3.98297" transform="matrix(-0.996195 -0.0871557 -0.0871557 0.996195 150.404 122.5)" fill="#F8F8FB"/>
<ellipse cx="102.201" cy="124.218" rx="2.86734" ry="3.98297" transform="rotate(-5 102.201 124.218)" fill="#F8F8FB"/>
<path d="M124.496 149L124.496 166.5" stroke="#1A1A1C" stroke-width="4" stroke-linecap="round"/>
<path d="M112 164C113.188 166.817 117.447 171.436 126 167.38C135.927 172.45 140 164 140 164" stroke="#28282E" stroke-width="4" stroke-linecap="round" stroke-linejoin="bevel"/>
<ellipse cx="124.5" cy="171" rx="4.5" ry="4" fill="#EEEEEE" stroke="#1A1A1C" stroke-width="4" stroke-linecap="round" stroke-linejoin="bevel"/>
<path d="M139.996 148.5C139.996 152.642 133.281 159 124.996 159C116.712 159 109.996 152.642 109.996 148.5C109.996 144.358 116.712 143 124.996 143C133.281 143 139.996 144.358 139.996 148.5Z" fill="#1A1A1C"/>
<path d="M170.998 223C173.998 237 174.753 256.643 161.998 272" stroke="#1A1A1C" stroke-width="6" stroke-linecap="round" stroke-linejoin="bevel"/>
<path d="M78.7856 222.5C75.7937 232.562 76.66 251.95 87.9977 267" stroke="#1A1A1C" stroke-width="6" stroke-linecap="round" stroke-linejoin="bevel"/>
<path opacity="0.1" d="M150.497 189C207.297 185 203.164 134.333 193.997 109.5C191.998 146.5 174.998 166 158.997 176.5C143.195 186.87 79.4971 194 150.497 189Z" fill="#1A1A1C"/>
<path opacity="0.1" d="M186.998 265.5C199.398 239.9 181.831 201.5 171.498 185.5L186.998 178.5C208.598 211.3 208.331 248.167 205.498 262.5C194.164 274.167 174.598 291.1 186.998 265.5Z" fill="#1A1A1C"/>
<path d="M51.9947 250C50.828 239.167 61.5977 198.7 73.9977 187.5" stroke="white" stroke-width="6" stroke-linecap="round" stroke-linejoin="bevel"/>
<path d="M122.538 178.875C115.842 177.908 115.563 171.623 116.261 168.602C121.84 167.393 133 165.701 133 168.602C133 172.227 130.907 180.083 122.538 178.875Z" fill="#E06493" stroke="#2A2A2D" stroke-width="4" stroke-linecap="round" stroke-linejoin="bevel"/>
<line x1="124" y1="119" x2="127" y2="119" stroke="#111111" stroke-width="8" stroke-linecap="round" stroke-linejoin="round"/>
<path d="M78.1378 117.133C78.0624 114.873 79.8742 113 82.1356 113H115.383C118.374 113 120.696 115.609 120.349 118.579L118.635 133.275C117.988 138.819 113.291 143 107.709 143H89.6394C83.707 143 78.8432 138.296 78.6455 132.366L78.1378 117.133Z" stroke="#111111" stroke-width="6" stroke-linecap="round" stroke-linejoin="round"/>
<path d="M172.862 117.133C172.938 114.873 171.126 113 168.864 113H135.617C132.626 113 130.304 115.609 130.651 118.579L132.365 133.275C133.012 138.819 137.709 143 143.291 143H161.361C167.293 143 172.157 138.296 172.354 132.366L172.862 117.133Z" stroke="#111111" stroke-width="6" stroke-linecap="round" stroke-linejoin="round"/>
</g>
<defs>
<clipPath id="clip0_5527_31209">
<rect width="256" height="256" fill="white"/>
</clipPath>
</defs>
</svg>
