<svg width="256" height="256" viewBox="0 0 256 256" fill="none" xmlns="http://www.w3.org/2000/svg">
<g clip-path="url(#clip0_5527_31787)">
<rect width="256" height="256" fill="#CBF086"/>
<path opacity="0.1" fill-rule="evenodd" clip-rule="evenodd" d="M159.995 76.5C179.495 79.1667 218.495 97.1 218.495 147.5C218.495 165.203 212.47 176.536 203.54 183.782C221.328 205.176 225.999 235.087 225.999 254.191C225.999 286.67 189.286 313 143.999 313C98.7114 313 61.9987 286.67 61.9987 254.191C61.9987 234.467 69.7431 203.226 89.4867 181.729C78.8448 173.595 72.0555 161.202 74.4948 142.5C80.4948 96.5 113.328 79.3333 128.995 76.5C131.495 72.1667 151.995 63 151.995 63C151.995 63 146.495 67 143.995 76.5C154.995 69.4991 162.995 69.4991 162.995 69.4991C158.995 74.0001 159.995 76.5 159.995 76.5Z" fill="#28282E"/>
<path d="M85.0029 102C73.5789 111.584 71.7632 129.636 62.0019 118C52.2405 106.364 50.5779 76.0849 62.0019 66.5011C73.4259 56.9172 87.4286 64.012 97.1899 75.6475C106.951 87.2831 96.4269 92.416 85.0029 102Z" fill="#3F3F45" stroke="#2A2A2D" stroke-width="5" stroke-linejoin="round"/>
<path d="M173.945 105C185.369 114.584 187.185 132.636 196.946 121C206.707 109.364 208.37 79.0849 196.946 69.5011C185.522 59.9172 171.519 67.012 161.758 78.6475C151.997 90.2831 162.521 95.416 173.945 105Z" fill="#3F3F45" stroke="#2A2A2D" stroke-width="5" stroke-linejoin="round"/>
<path opacity="0.6" d="M81.5414 99.2065C73.4882 105.962 71.8859 120.202 65.0048 111.999C58.1238 103.797 58.4491 80.755 66.5022 73.9991C74.5554 67.2431 89.1217 72.7976 96.0028 80.9998C102.884 89.2021 89.5945 92.4506 81.5414 99.2065Z" fill="#2A2A2D"/>
<path d="M85.5391 104.207C77.486 110.963 75.8837 125.202 69.0026 117C62.1216 108.798 62.4469 85.7556 70.5 78.9996C78.5532 72.2436 87.2491 77.4282 94.1301 85.6305C101.011 93.8328 93.5923 97.4511 85.5391 104.207Z" fill="#5D5D66"/>
<path opacity="0.6" d="M174.411 102.206C182.464 108.962 185.618 123.202 192.499 115C199.38 106.798 200.552 81.7554 192.499 74.9994C184.446 68.2434 172.377 75.2977 165.496 83.5C158.615 91.7023 166.357 95.4505 174.411 102.206Z" fill="#2A2A2D"/>
<path d="M173.496 102C181.549 108.756 183.567 126.702 190.448 118.5C197.329 110.298 198.501 89.7556 190.448 82.9996C182.395 76.2436 173.699 81.4282 166.818 89.6305C159.937 97.8328 165.443 95.244 173.496 102Z" fill="#5D5D66"/>
<path d="M206.998 247.191C206.998 279.67 170.285 306 124.998 306C79.7102 306 42.9976 279.67 42.9976 247.191C42.9976 214.712 63.9976 151 124.998 151C193.498 151 206.998 214.712 206.998 247.191Z" fill="#3F3F45" stroke="#2A2A2D" stroke-width="5" stroke-linejoin="round"/>
<ellipse cx="124.998" cy="232" rx="46" ry="60" fill="#5D5D66"/>
<path d="M199.494 140.5C199.494 90.1 160.494 72.1667 140.994 69.5C140.994 69.5 139.994 67.0001 143.994 62.4991C143.994 62.4991 135.994 62.4991 124.994 69.5C127.494 60 132.994 56 132.994 56C132.994 56 112.494 65.1667 109.994 69.5C94.327 72.3333 61.4937 89.5 55.4937 135.5C49.4937 181.5 99.327 189.333 124.994 189.5C150.66 189.667 199.494 190.9 199.494 140.5Z" fill="#FBF5EC" stroke="#2A2A2D" stroke-width="5" stroke-linejoin="round"/>
<path opacity="0.1" d="M164.996 159C164.996 171.703 146.864 177.999 124.496 177.999C102.129 177.999 85.9961 170.203 85.9961 157.5C85.9961 144.797 103.129 133.5 125.496 133.5C147.864 133.5 164.996 146.297 164.996 159Z" fill="#28282E"/>
<path d="M136.338 126.194C134.493 134.708 140.456 143.226 149.657 145.221C158.859 147.215 168.814 138.929 170.659 130.416C172.504 121.902 165.541 116.383 156.339 114.389C147.138 112.395 138.183 117.68 136.338 126.194Z" fill="#5D5D66"/>
<path d="M138.761 112.335C142.596 110.603 153.879 106.316 168.337 103.024" stroke="#28282E" stroke-width="8" stroke-linecap="round" stroke-linejoin="bevel"/>
<ellipse cx="100.996" cy="129" rx="10" ry="12" transform="rotate(-12.2284 100.996 129)" fill="#2A2A2D"/>
<ellipse cx="10" cy="12" rx="10" ry="12" transform="matrix(-0.977311 -0.211809 -0.211809 0.977311 161.626 119.391)" fill="#2A2A2D"/>
<ellipse cx="2.86734" cy="3.98297" rx="2.86734" ry="3.98297" transform="matrix(-0.996195 -0.0871557 -0.0871557 0.996195 150.404 122.5)" fill="#F8F8FB"/>
<ellipse cx="102.201" cy="124.218" rx="2.86734" ry="3.98297" transform="rotate(-5 102.201 124.218)" fill="#F8F8FB"/>
<path d="M124.496 149L124.496 166.5" stroke="#2A2A2D" stroke-width="4" stroke-linecap="round"/>
<path d="M139.996 148.5C139.996 152.642 133.28 159 124.996 159C116.712 159 109.996 152.642 109.996 148.5C109.996 144.358 116.712 143 124.996 143C133.28 143 139.996 144.358 139.996 148.5Z" fill="#2A2A2D"/>
<path d="M170.998 223C173.998 237 174.753 256.643 161.998 272" stroke="#2A2A2D" stroke-width="6" stroke-linecap="round" stroke-linejoin="bevel"/>
<path d="M78.7855 222.5C75.7935 232.562 76.6598 251.95 87.9976 267" stroke="#2A2A2D" stroke-width="6" stroke-linecap="round" stroke-linejoin="bevel"/>
<path opacity="0.1" d="M150.497 189C207.297 185 203.164 134.333 193.997 109.5C191.998 146.5 174.998 166 158.997 176.5C143.195 186.87 79.4969 194 150.497 189Z" fill="#28282E"/>
<path opacity="0.6" d="M186.998 265.5C199.398 239.9 181.831 201.5 171.498 185.5L186.998 178.5C208.598 211.3 208.331 248.167 205.498 262.5C194.164 274.167 174.598 291.1 186.998 265.5Z" fill="#2A2A2D"/>
<path d="M51.9945 250C50.8278 239.167 61.5976 198.7 73.9976 187.5" stroke="#5D5D66" stroke-width="6" stroke-linecap="round" stroke-linejoin="bevel"/>
<path d="M161.5 78.5C141.833 97.1667 92.7 137.2 53.5 148" stroke="#28282E" stroke-width="10" stroke-linecap="round"/>
<path d="M106.89 103C102.391 103 82.2406 113.793 78.7192 119.694C74.1918 127.283 92.3016 145.496 97.8352 144.99C103.369 144.484 125 128.295 125 124.248C125 120.201 114.436 103 106.89 103Z" fill="#28282E"/>
</g>
<defs>
<clipPath id="clip0_5527_31787">
<rect width="256" height="256" fill="white"/>
</clipPath>
</defs>
</svg>
