<svg width="256" height="256" viewBox="0 0 256 256" fill="none" xmlns="http://www.w3.org/2000/svg">
<g clip-path="url(#clip0_5901_31835)">
<rect width="256" height="256" fill="#DF8AB6"/>
<path d="M85.0029 102C73.5789 111.584 71.7632 129.636 62.0019 118C52.2405 106.364 50.5779 76.0849 62.0019 66.5011C73.4259 56.9172 87.4286 64.012 97.1899 75.6475C106.951 87.2831 96.4269 92.416 85.0029 102Z" fill="#B7A69B" stroke="#1A1A1C" stroke-width="5" stroke-linejoin="round"/>
<path d="M173.945 105C185.369 114.584 187.185 132.636 196.946 121C206.707 109.364 208.37 79.0849 196.946 69.5011C185.522 59.9172 171.519 67.012 161.758 78.6475C151.997 90.2831 162.521 95.416 173.945 105Z" fill="#B7A69B" stroke="#1A1A1C" stroke-width="5" stroke-linejoin="round"/>
<path opacity="0.1" d="M81.5414 99.2065C73.4882 105.962 71.8859 120.202 65.0048 111.999C58.1238 103.797 58.4491 80.755 66.5022 73.9991C74.5554 67.2431 89.1217 72.7976 96.0028 80.9998C102.884 89.2021 89.5945 92.4506 81.5414 99.2065Z" fill="#1A1A1C"/>
<path d="M84.5404 102.207C76.4873 108.963 74.885 123.202 68.0039 115C61.1228 106.798 61.4482 83.7556 69.5013 76.9996C77.5544 70.2436 86.2504 75.4282 93.1314 83.6305C100.013 91.8328 92.5935 95.4511 84.5404 102.207Z" fill="#E3D0C3"/>
<path opacity="0.1" d="M174.411 102.206C182.464 108.962 185.618 123.202 192.499 115C199.38 106.798 200.552 81.7554 192.499 74.9994C184.446 68.2434 172.377 75.2977 165.496 83.5C158.615 91.7023 166.357 95.4505 174.411 102.206Z" fill="#1A1A1C"/>
<path d="M174.496 98C182.549 104.756 184.567 122.702 191.448 114.5C198.329 106.298 199.501 85.7556 191.448 78.9996C183.395 72.2436 174.699 77.4282 167.818 85.6305C160.937 93.8328 166.443 91.244 174.496 98Z" fill="#E3D0C3"/>
<path d="M206.998 247.191C206.998 279.67 170.285 306 124.998 306C79.7102 306 42.9976 279.67 42.9976 247.191C42.9976 214.712 63.9976 151 124.998 151C193.498 151 206.998 214.712 206.998 247.191Z" fill="#B7A69B" stroke="#111111" stroke-width="5" stroke-linejoin="round"/>
<ellipse cx="124.998" cy="232" rx="46" ry="60" fill="#E3D0C3"/>
<path d="M199.494 140.5C199.494 90.1 160.494 72.1667 140.994 69.5C140.994 69.5 134.5 68.501 138.5 64C138.5 64 135.994 62.4991 124.994 69.5C127.494 60 132.994 56 132.994 56C132.994 56 112.494 65.1667 109.994 69.5C94.327 72.3333 61.4937 89.5 55.4937 135.5C49.4937 181.5 99.327 189.333 124.994 189.5C150.66 189.667 199.494 190.9 199.494 140.5Z" fill="#B7A69B" stroke="#111111" stroke-width="5" stroke-linejoin="round"/>
<path d="M164.996 159C164.996 171.703 146.864 177.999 124.496 177.999C102.129 177.999 85.9961 170.203 85.9961 157.5C85.9961 144.797 103.129 133.5 125.496 133.5C147.864 133.5 164.996 146.297 164.996 159Z" fill="#E3D0C3"/>
<path d="M137.996 108C142.163 106.83 154.196 104.941 168.996 106.746" stroke="#131314" stroke-width="5" stroke-linecap="round" stroke-linejoin="bevel"/>
<path d="M112.996 108C109.233 106.83 98.3638 104.941 84.9961 106.746" stroke="#131314" stroke-width="5" stroke-linecap="round" stroke-linejoin="bevel"/>
<ellipse cx="100.996" cy="129" rx="10" ry="12" transform="rotate(-12.2284 100.996 129)" fill="#1A1A1C"/>
<ellipse cx="10" cy="12" rx="10" ry="12" transform="matrix(-0.977311 -0.211809 -0.211809 0.977311 161.626 119.391)" fill="#1A1A1C"/>
<ellipse cx="2.86734" cy="3.98297" rx="2.86734" ry="3.98297" transform="matrix(-0.996195 -0.0871557 -0.0871557 0.996195 150.404 122.5)" fill="#F8F8FB"/>
<ellipse cx="102.201" cy="124.218" rx="2.86734" ry="3.98297" transform="rotate(-5 102.201 124.218)" fill="#F8F8FB"/>
<path d="M124.496 149L124.496 166.5" stroke="#1A1A1C" stroke-width="4" stroke-linecap="round"/>
<path d="M110.999 164C112.187 166.817 116.446 171.436 124.999 167.38C134.926 172.45 138.999 164 138.999 164" stroke="#111111" stroke-width="4" stroke-linecap="round" stroke-linejoin="bevel"/>
<path d="M139.996 148.5C139.996 152.642 133.28 159 124.996 159C116.712 159 109.996 152.642 109.996 148.5C109.996 144.358 116.712 143 124.996 143C133.28 143 139.996 144.358 139.996 148.5Z" fill="#1A1A1C"/>
<path d="M170.998 223C173.998 237 174.753 256.643 161.998 272" stroke="#1A1A1C" stroke-width="6" stroke-linecap="round" stroke-linejoin="bevel"/>
<path d="M78.7855 222.5C75.7935 232.562 76.6598 251.95 87.9976 267" stroke="#1A1A1C" stroke-width="6" stroke-linecap="round" stroke-linejoin="bevel"/>
<path opacity="0.1" d="M150.497 189C207.297 185 203.164 134.333 193.997 109.5C191.998 146.5 174.998 166 158.997 176.5C143.195 186.87 79.4969 194 150.497 189Z" fill="#28282E"/>
<path opacity="0.1" d="M186.998 265.5C199.398 239.9 181.831 201.5 171.498 185.5L186.998 178.5C208.598 211.3 208.331 248.167 205.498 262.5C194.164 274.167 174.598 291.1 186.998 265.5Z" fill="#1A1A1C"/>
<path d="M51.9945 250C50.8278 239.167 61.5976 198.7 73.9976 187.5" stroke="#E3D0C3" stroke-width="6" stroke-linecap="round" stroke-linejoin="bevel"/>
<line x1="121" y1="121" x2="130" y2="121" stroke="#111111" stroke-width="6" stroke-linecap="round" stroke-linejoin="round"/>
<path d="M75.1453 119.14C75.0659 116.878 76.8787 115 79.1428 115H111.221C116.026 115 119.747 119.206 119.161 123.975L117.873 134.463C117.134 140.479 112.024 145 105.962 145H87.639C81.1753 145 75.873 139.88 75.6463 133.421L75.1453 119.14Z" fill="url(#paint0_linear_5901_31835)" stroke="#111111" stroke-width="4" stroke-linecap="round" stroke-linejoin="round"/>
<path d="M174.855 119.14C174.934 116.878 173.121 115 170.857 115H138.779C133.974 115 130.253 119.206 130.839 123.975L132.127 134.463C132.866 140.479 137.976 145 144.038 145H162.361C168.825 145 174.127 139.88 174.354 133.421L174.855 119.14Z" fill="url(#paint1_linear_5901_31835)" stroke="#111111" stroke-width="4" stroke-linecap="round" stroke-linejoin="round"/>
<path d="M167.305 123.133L153.305 137.133" stroke="#FF54AC" stroke-width="5" stroke-linecap="round"/>
<path d="M111.305 123.133L97.3047 137.133" stroke="#FF54AC" stroke-width="5" stroke-linecap="round"/>
<path d="M157.305 123.133L143.305 137.133" stroke="#FF54AC" stroke-width="5" stroke-linecap="round"/>
<path d="M101.305 123.133L87.3047 137.133" stroke="#FF54AC" stroke-width="5" stroke-linecap="round"/>
</g>
<defs>
<linearGradient id="paint0_linear_5901_31835" x1="120.263" y1="105.5" x2="89.9926" y2="131.522" gradientUnits="userSpaceOnUse">
<stop stop-color="#F7E4FA"/>
<stop offset="1" stop-color="#C8DB8C"/>
</linearGradient>
<linearGradient id="paint1_linear_5901_31835" x1="129.737" y1="105.5" x2="160.007" y2="131.522" gradientUnits="userSpaceOnUse">
<stop stop-color="#F7E4FA"/>
<stop offset="1" stop-color="#C8DB8C"/>
</linearGradient>
<clipPath id="clip0_5901_31835">
<rect width="256" height="256" fill="white"/>
</clipPath>
</defs>
</svg>
