<svg width="256" height="256" viewBox="0 0 256 256" fill="none" xmlns="http://www.w3.org/2000/svg">
<g clip-path="url(#clip0_5906_31958)">
<rect width="256" height="256" fill="#118F6B"/>
<path d="M-82.3241 173.719C-84.6382 174.491 -138.272 175.524 -164.8 175.944C-169.176 177.057 -164.652 181.73 -159.831 183.287C-155.974 184.533 -103.635 180.345 -77.9481 178.095C-85.4392 181.482 -99.6797 190.927 -96.7129 201.607C-93.0045 214.957 -91.1502 221.558 -80.3957 240.175C-71.7921 255.068 -53.9173 257.011 -46.0554 256.121C-54.8815 247.641 -72.5189 226.424 -72.4596 209.395C-72.4003 192.365 -59.5789 224.154 -53.1756 242.177C-31.1474 273.551 -12.5309 254.489 9.27481 254.489C26.7194 254.49 39.5358 244.353 43.7635 239.285C40.6237 238.271 29.968 234.894 12.4641 229.494C-5.03983 224.095 -13.3221 208.752 -15.2752 201.755C-15.5719 192.707 -12.2342 179.757 3.48962 200.346C23.1444 226.083 35.4565 229.049 47.7686 229.198C60.0807 229.346 76.4721 213.103 73.7278 208.727C70.9836 204.351 48.1395 216.367 37.2366 195.377C26.3337 174.387 62.0091 191.223 76.4721 192.484C90.9351 193.745 102.06 173.571 108.365 168.602C113.408 164.626 113.037 163.484 112.222 163.41C95.9044 142.642 67.2751 148.131 55.2597 154.806C45.6474 160.146 39.3875 158.712 37.4591 157.328C26.126 149.08 59.6851 140.689 77.8813 137.525C81.6886 137.574 85.3575 135.181 69.5743 125.213C53.7911 115.244 31.1053 131.987 21.7352 141.604C12.9338 149.318 -4.99534 161.837 -6.30072 150.208C-7.93246 135.671 45.9885 114.681 50.587 112.752C55.1855 110.824 43.3184 102.962 24.7762 100.737C6.23387 98.5118 -7.7841 115.348 -19.2062 128.699C-30.6282 142.049 -35.1525 170.011 -38.861 150.282C-42.5694 130.553 -12.0859 103.481 0.00365669 97.9184C9.67532 93.4683 6.80249 92.0096 4.15713 91.8366C-10.7509 91.0701 -43.2815 92.1036 -54.1398 102.369C-64.9982 112.634 -65.0922 134.632 -63.7818 144.348C-64.3752 148.551 -67.3716 155.622 -74.6105 150.282C-83.6591 143.607 -63.7818 108.154 -62.6693 103.926C-61.5567 99.6985 -73.943 100.366 -96.0454 128.847C-113.727 151.632 -94.2653 168.256 -82.3241 173.719Z" fill="#2A6655"/>
<path d="M241.411 73.8463C243.725 74.6176 297.36 75.651 323.887 76.0713C328.263 77.1839 323.739 81.8565 318.918 83.4141C315.061 84.6601 262.723 80.472 237.035 78.2222C244.526 81.6093 258.767 91.0535 255.8 101.734C252.092 115.084 250.237 121.685 239.483 140.302C230.879 155.195 213.004 157.138 205.143 156.248C213.969 147.768 231.606 126.551 231.547 109.522C231.487 92.4924 218.666 124.281 212.263 142.304C190.235 173.678 171.618 154.616 149.812 154.616C132.368 154.616 119.551 144.48 115.324 139.412C118.463 138.398 129.119 135.021 146.623 129.621C164.127 124.222 172.409 108.879 174.362 101.882C174.659 92.8335 171.321 79.8836 155.598 100.473C135.943 126.21 123.631 129.176 111.319 129.325C99.0065 129.473 82.6151 113.23 85.3593 108.854C88.1036 104.478 110.948 116.494 121.851 95.5036C132.753 74.5138 97.0781 91.3502 82.6151 92.611C68.1521 93.8719 57.0267 73.6979 50.7223 68.7286C45.6788 64.7531 46.0497 63.6109 46.8655 63.5367C63.1827 42.7693 91.8121 48.2579 103.827 54.9331C113.44 60.2733 119.7 58.8393 121.628 57.4549C132.961 49.2073 99.402 40.8162 81.2059 37.6517C77.3985 37.7011 73.7296 35.3079 89.5128 25.3396C105.296 15.3713 127.982 32.1137 137.352 41.731C146.153 49.4446 164.082 61.9644 165.388 50.3346C167.02 35.7975 113.099 14.8076 108.5 12.8792C103.902 10.9508 115.769 3.08888 134.311 0.863801C152.853 -1.36127 166.871 15.4751 178.293 28.8256C189.715 42.176 194.24 70.1378 197.948 50.4088C201.657 30.6798 171.173 3.60807 159.083 -1.95462C149.412 -6.40477 152.285 -7.86343 154.93 -8.03649C169.838 -8.8029 202.369 -7.76949 213.227 2.49553C224.085 12.7605 224.179 34.7591 222.869 44.4753C223.462 48.6782 226.459 55.749 233.698 50.4088C242.746 43.7336 222.869 8.28072 221.756 4.05307C220.644 -0.174568 233.03 0.492953 255.133 28.9739C272.814 51.7587 253.352 68.3825 241.411 73.8463Z" fill="#2A6655"/>
<path d="M85.0029 102C73.5789 111.584 71.7632 129.636 62.0019 118C52.2405 106.364 50.5779 76.0849 62.0019 66.5011C73.4259 56.9172 87.4286 64.012 97.1899 75.6475C106.951 87.2831 96.4269 92.416 85.0029 102Z" fill="#B7A69B" stroke="#1A1A1C" stroke-width="5" stroke-linejoin="round"/>
<path d="M173.945 105C185.369 114.584 187.185 132.636 196.946 121C206.707 109.364 208.37 79.0849 196.946 69.5011C185.522 59.9172 171.519 67.012 161.758 78.6475C151.997 90.2831 162.521 95.416 173.945 105Z" fill="#B7A69B" stroke="#1A1A1C" stroke-width="5" stroke-linejoin="round"/>
<path opacity="0.1" d="M81.5414 99.2065C73.4882 105.962 71.8859 120.202 65.0048 111.999C58.1238 103.797 58.4491 80.755 66.5022 73.9991C74.5554 67.2431 89.1217 72.7976 96.0028 80.9998C102.884 89.2021 89.5945 92.4506 81.5414 99.2065Z" fill="#1A1A1C"/>
<path d="M84.5404 102.207C76.4873 108.963 74.885 123.202 68.0039 115C61.1228 106.798 61.4482 83.7556 69.5013 76.9996C77.5544 70.2436 86.2504 75.4282 93.1314 83.6305C100.013 91.8328 92.5935 95.4511 84.5404 102.207Z" fill="#E3D0C3"/>
<rect x="110.796" y="52.8779" width="58.5816" height="11" transform="rotate(122.048 110.796 52.8779)" fill="#F7B500" stroke="#1A1A1C" stroke-width="5" stroke-linejoin="round"/>
<path d="M113.07 40.0371L111.035 52.6775L101.711 46.8407L111.746 39.2011L113.07 40.0371Z" fill="#E3D0C3" stroke="#1A1A1C" stroke-width="5" stroke-linejoin="round"/>
<path opacity="0.1" d="M174.411 102.206C182.464 108.962 185.618 123.202 192.499 115C199.38 106.798 200.552 81.7554 192.499 74.9994C184.446 68.2434 172.377 75.2977 165.496 83.5C158.615 91.7023 166.357 95.4505 174.411 102.206Z" fill="#1A1A1C"/>
<path d="M174.496 98C182.549 104.756 184.567 122.702 191.448 114.5C198.329 106.298 199.501 85.7556 191.448 78.9996C183.395 72.2436 174.699 77.4282 167.818 85.6305C160.937 93.8328 166.443 91.244 174.496 98Z" fill="#E3D0C3"/>
<path d="M206.997 247.191C206.997 279.67 170.285 306 124.997 306C79.7101 306 42.9975 279.67 42.9975 247.191C42.9975 214.712 63.9975 151 124.997 151C193.497 151 206.997 214.712 206.997 247.191Z" fill="#B7A69B" stroke="#111111" stroke-width="5" stroke-linejoin="round"/>
<ellipse cx="124.998" cy="232" rx="46" ry="60" fill="#E3D0C3"/>
<path d="M199.494 140.5C199.494 90.1 160.494 72.1667 140.994 69.5C140.994 69.5 134.5 68.501 138.5 64C138.5 64 135.994 62.4991 124.994 69.5C127.494 60 132.994 56 132.994 56C132.994 56 112.494 65.1667 109.994 69.5C94.327 72.3333 61.4937 89.5 55.4937 135.5C49.4937 181.5 99.327 189.333 124.994 189.5C150.66 189.667 199.494 190.9 199.494 140.5Z" fill="#B7A69B" stroke="#111111" stroke-width="5" stroke-linejoin="round"/>
<path d="M164.996 159C164.996 171.703 146.864 177.999 124.496 177.999C102.129 177.999 85.9961 170.203 85.9961 157.5C85.9961 144.797 103.129 133.5 125.496 133.5C147.864 133.5 164.996 146.297 164.996 159Z" fill="#E3D0C3"/>
<path d="M137.996 108C142.163 106.83 154.196 104.941 168.996 106.746" stroke="#28282E" stroke-width="7" stroke-linecap="round" stroke-linejoin="bevel"/>
<path d="M112.996 108C109.233 106.83 98.3638 104.941 84.9961 106.746" stroke="#28282E" stroke-width="7" stroke-linecap="round" stroke-linejoin="bevel"/>
<ellipse cx="100.996" cy="129" rx="10" ry="12" transform="rotate(-12.2284 100.996 129)" fill="#1A1A1C"/>
<ellipse cx="10" cy="12" rx="10" ry="12" transform="matrix(-0.977311 -0.211809 -0.211809 0.977311 161.626 119.391)" fill="#1A1A1C"/>
<ellipse cx="2.86734" cy="3.98297" rx="2.86734" ry="3.98297" transform="matrix(-0.996195 -0.0871557 -0.0871557 0.996195 150.404 122.5)" fill="#F8F8FB"/>
<ellipse cx="102.201" cy="124.218" rx="2.86734" ry="3.98297" transform="rotate(-5 102.201 124.218)" fill="#F8F8FB"/>
<path d="M124.496 149L124.496 166.5" stroke="#1A1A1C" stroke-width="4" stroke-linecap="round"/>
<path d="M110.999 164C112.187 166.817 116.446 171.436 124.999 167.38C134.926 172.45 138.999 164 138.999 164" stroke="#111111" stroke-width="4" stroke-linecap="round" stroke-linejoin="bevel"/>
<path d="M139.996 148.5C139.996 152.642 133.28 159 124.996 159C116.712 159 109.996 152.642 109.996 148.5C109.996 144.358 116.712 143 124.996 143C133.28 143 139.996 144.358 139.996 148.5Z" fill="#1A1A1C"/>
<path d="M170.998 223C173.998 237 174.753 256.643 161.998 272" stroke="#1A1A1C" stroke-width="6" stroke-linecap="round" stroke-linejoin="bevel"/>
<path d="M78.7855 222.5C75.7935 232.562 76.6598 251.95 87.9976 267" stroke="#1A1A1C" stroke-width="6" stroke-linecap="round" stroke-linejoin="bevel"/>
<path opacity="0.1" d="M150.497 189C207.297 185 203.164 134.333 193.997 109.5C191.998 146.5 174.998 166 158.997 176.5C143.195 186.87 79.4969 194 150.497 189Z" fill="#28282E"/>
<path opacity="0.1" d="M186.998 265.5C199.398 239.9 181.831 201.5 171.498 185.5L186.998 178.5C208.598 211.3 208.331 248.167 205.498 262.5C194.164 274.167 174.598 291.1 186.998 265.5Z" fill="#1A1A1C"/>
<path d="M51.9944 250C50.8277 239.167 61.5974 198.7 73.9974 187.5" stroke="#E3D0C3" stroke-width="6" stroke-linecap="round" stroke-linejoin="bevel"/>
</g>
<defs>
<clipPath id="clip0_5906_31958">
<rect width="256" height="256" fill="white"/>
</clipPath>
</defs>
</svg>
