<svg width="256" height="256" viewBox="0 0 256 256" fill="none" xmlns="http://www.w3.org/2000/svg">
<g clip-path="url(#clip0_5527_31688)">
<rect width="256" height="256" fill="#DF8AB6"/>
<path opacity="0.1" fill-rule="evenodd" clip-rule="evenodd" d="M157.995 74.5C177.495 77.1667 216.495 95.1 216.495 145.5C216.495 163.203 210.47 174.536 201.541 181.782C219.328 203.176 223.999 233.087 223.999 252.191C223.999 284.67 187.286 311 141.999 311C96.7114 311 59.9988 284.67 59.9988 252.191C59.9988 232.467 67.7431 201.226 87.4868 179.729C76.8448 171.595 70.0555 159.202 72.4949 140.5C78.4949 94.5 111.328 77.3333 126.995 74.5C129.495 70.1667 149.995 61 149.995 61C149.995 61 144.495 65 141.995 74.5C152.995 67.4991 160.995 67.4991 160.995 67.4991C156.995 72.0001 157.995 74.5 157.995 74.5Z" fill="#28282E"/>
<path d="M82.999 99.9998C71.575 109.584 69.7594 127.636 59.998 116C50.2367 104.364 48.574 74.0849 59.998 64.5011C71.422 54.9172 85.4247 62.012 95.1861 73.6475C104.947 85.2831 94.423 90.416 82.999 99.9998Z" fill="#87D28E" stroke="#2A2A2D" stroke-width="5" stroke-linejoin="round"/>
<path d="M175.948 101C187.372 110.584 189.187 128.636 198.949 117C208.71 105.364 210.373 75.0849 198.949 65.5011C187.525 55.9172 173.522 63.012 163.761 74.6475C153.999 86.2831 164.524 91.416 175.948 101Z" fill="#87D28E" stroke="#2A2A2D" stroke-width="5" stroke-linejoin="round"/>
<path opacity="0.2" d="M79.5375 97.2065C71.4844 103.962 69.8821 118.202 63.001 109.999C56.1199 101.797 56.4453 78.755 64.4984 71.9991C72.5515 65.2431 87.1179 70.7976 93.999 78.9998C100.88 87.2021 87.5906 90.4506 79.5375 97.2065Z" fill="#2A2A2D"/>
<path d="M83.5353 102.207C75.4821 108.963 73.8799 123.202 66.9988 115C60.1177 106.798 60.443 83.7556 68.4962 76.9996C76.5493 70.2436 85.2452 75.4282 92.1263 83.6305C99.0074 91.8328 91.5884 95.4511 83.5353 102.207Z" fill="#DAF0DC"/>
<path opacity="0.2" d="M176.413 98.2064C184.466 104.962 187.621 119.202 194.502 111C201.383 102.798 202.555 77.7554 194.502 70.9994C186.449 64.2434 174.38 71.2977 167.499 79.5C160.618 87.7023 168.36 91.4505 176.413 98.2064Z" fill="#2A2A2D"/>
<path d="M175.499 98C183.552 104.756 185.57 122.702 192.451 114.5C199.332 106.298 200.504 85.7556 192.451 78.9996C184.397 72.2436 175.702 77.4282 168.82 85.6305C161.939 93.8328 167.446 91.244 175.499 98Z" fill="#DAF0DC"/>
<path d="M206.999 247.191C206.999 279.67 170.286 306 124.999 306C79.7114 306 42.9988 279.67 42.9988 247.191C42.9988 214.712 63.9988 151 124.999 151C193.499 151 206.999 214.712 206.999 247.191Z" fill="#87D28E" stroke="#2A2A2D" stroke-width="5" stroke-linejoin="round"/>
<ellipse cx="124.999" cy="232" rx="46" ry="60" fill="#DAF0DC"/>
<path d="M199.495 140.5C199.495 90.1 160.495 72.1667 140.995 69.5C140.995 69.5 139.995 67.0001 143.995 62.4991C143.995 62.4991 135.995 62.4991 124.995 69.5C127.495 60 132.995 56 132.995 56C132.995 56 112.495 65.1667 109.995 69.5C94.3282 72.3333 61.4949 89.5 55.4949 135.5C49.4949 181.5 99.3282 189.333 124.995 189.5C150.662 189.667 199.495 190.9 199.495 140.5Z" fill="#87D28E" stroke="#2A2A2D" stroke-width="5" stroke-linejoin="round"/>
<path d="M163.999 159C163.999 171.703 145.866 177.999 123.499 177.999C101.131 177.999 84.9988 170.203 84.9988 157.5C84.9988 144.797 102.131 133.5 124.499 133.5C146.866 133.5 163.999 146.297 163.999 159Z" fill="#DAF0DC"/>
<path d="M138 113C142.167 110.075 154.2 105.353 169 109.866" stroke="#DAF0DC" stroke-width="8" stroke-linecap="round" stroke-linejoin="bevel"/>
<path d="M113 114C109.237 111.075 98.3677 106.353 85 110.866" stroke="#DAF0DC" stroke-width="8" stroke-linecap="round" stroke-linejoin="bevel"/>
<ellipse cx="100.997" cy="129" rx="10" ry="12" transform="rotate(-12.2284 100.997 129)" fill="#2A2A2D"/>
<ellipse cx="10" cy="12" rx="10" ry="12" transform="matrix(-0.977311 -0.211809 -0.211809 0.977311 161.628 119.391)" fill="#2A2A2D"/>
<ellipse cx="2.86734" cy="3.98297" rx="2.86734" ry="3.98297" transform="matrix(-0.996195 -0.0871557 -0.0871557 0.996195 150.405 122.5)" fill="#F8F8FB"/>
<ellipse cx="102.202" cy="124.218" rx="2.86734" ry="3.98297" transform="rotate(-5 102.202 124.218)" fill="#F8F8FB"/>
<path d="M109.999 163C111.187 165.817 115.446 170.436 123.999 166.38C133.926 171.45 137.999 163 137.999 163" stroke="#2A2A2D" stroke-width="4" stroke-linecap="round" stroke-linejoin="bevel"/>
<path d="M123.499 149L123.499 166.5" stroke="#2A2A2D" stroke-width="4" stroke-linecap="round"/>
<path d="M138.999 148.5C138.999 152.642 132.283 159 123.999 159C115.715 159 108.999 152.642 108.999 148.5C108.999 144.358 115.715 143 123.999 143C132.283 143 138.999 144.358 138.999 148.5Z" fill="#2A2A2D"/>
<path d="M170.999 223C173.999 237 174.754 256.643 161.999 272" stroke="#2A2A2D" stroke-width="6" stroke-linecap="round" stroke-linejoin="bevel"/>
<path d="M78.7867 222.5C75.7948 232.562 76.661 251.95 87.9988 267" stroke="#2A2A2D" stroke-width="6" stroke-linecap="round" stroke-linejoin="bevel"/>
<path opacity="0.2" d="M150.498 189C207.298 185 203.165 134.333 193.998 109.5C191.999 146.5 174.999 166 158.998 176.5C143.196 186.87 79.4981 194 150.498 189Z" fill="#2A2A2D"/>
<path opacity="0.2" d="M186.999 265.5C199.399 239.9 181.832 201.5 171.499 185.5L186.999 178.5C208.599 211.3 208.332 248.167 205.499 262.5C194.165 274.167 174.599 291.1 186.999 265.5Z" fill="#2A2A2D"/>
<path opacity="0.3" d="M51.9957 250C50.829 239.167 61.5988 198.7 73.9988 187.5" stroke="#DAF0DC" stroke-width="6" stroke-linecap="round" stroke-linejoin="bevel"/>
<line x1="123" y1="115" x2="128" y2="115" stroke="#111111" stroke-width="6" stroke-linecap="round" stroke-linejoin="round"/>
<path d="M78.1378 117.133C78.0624 114.873 79.8742 113 82.1356 113H115.383C118.374 113 120.696 115.609 120.349 118.579L118.635 133.275C117.988 138.819 113.291 143 107.709 143H89.6394C83.707 143 78.8432 138.296 78.6455 132.366L78.1378 117.133Z" stroke="#111111" stroke-width="6" stroke-linecap="round" stroke-linejoin="round"/>
<path d="M172.862 117.133C172.938 114.873 171.126 113 168.864 113H135.617C132.626 113 130.304 115.609 130.651 118.579L132.365 133.275C133.012 138.819 137.709 143 143.291 143H161.361C167.293 143 172.157 138.296 172.354 132.366L172.862 117.133Z" stroke="#111111" stroke-width="6" stroke-linecap="round" stroke-linejoin="round"/>
<g filter="url(#filter0_d_5527_31688)">
<path fill-rule="evenodd" clip-rule="evenodd" d="M106.846 228.598H112.924C114.355 228.598 115.07 228.598 115.709 228.421C116.409 228.213 117.048 227.843 117.579 227.335C118.066 226.87 118.418 226.253 119.112 225.037L119.112 225.037L119.133 225.001L127.016 211.05C127.716 209.826 128.062 209.21 128.216 208.563C128.386 207.862 128.386 207.122 128.216 206.421C128.064 205.779 127.714 205.167 127.024 203.961L127.008 203.933L123.923 198.542C123.284 197.417 122.961 196.855 122.554 196.647C122.115 196.424 121.592 196.424 121.153 196.647C120.745 196.855 120.422 197.417 119.784 198.542L104.776 225.024C104.145 226.133 103.83 226.688 103.853 227.142C103.884 227.635 104.137 228.082 104.553 228.352C104.938 228.598 105.568 228.598 106.846 228.598ZM136.982 228.598H128.273C126.988 228.598 126.342 228.598 125.965 228.352C125.55 228.082 125.296 227.628 125.265 227.135C125.242 226.684 125.56 226.134 126.196 225.035L126.196 225.035L126.211 225.009L130.558 217.538C131.197 216.436 131.52 215.889 131.92 215.681C132.358 215.458 132.874 215.458 133.313 215.681C133.71 215.884 134.019 216.408 134.632 217.444L134.633 217.446L134.682 217.53L139.045 225.001C139.066 225.038 139.087 225.074 139.108 225.11L139.108 225.11C139.712 226.155 140.021 226.688 139.999 227.127C139.976 227.62 139.714 228.075 139.299 228.344C138.914 228.598 138.267 228.598 136.983 228.598H136.982Z" fill="#74B07B"/>
</g>
</g>
<defs>
<filter id="filter0_d_5527_31688" x="100.852" y="193.479" width="39.1484" height="35.1182" filterUnits="userSpaceOnUse" color-interpolation-filters="sRGB">
<feFlood flood-opacity="0" result="BackgroundImageFix"/>
<feColorMatrix in="SourceAlpha" type="matrix" values="0 0 0 0 0 0 0 0 0 0 0 0 0 0 0 0 0 0 127 0" result="hardAlpha"/>
<feOffset dx="-3" dy="-3"/>
<feComposite in2="hardAlpha" operator="out"/>
<feColorMatrix type="matrix" values="0 0 0 0 1 0 0 0 0 1 0 0 0 0 1 0 0 0 0.6 0"/>
<feBlend mode="normal" in2="BackgroundImageFix" result="effect1_dropShadow_5527_31688"/>
<feBlend mode="normal" in="SourceGraphic" in2="effect1_dropShadow_5527_31688" result="shape"/>
</filter>
<clipPath id="clip0_5527_31688">
<rect width="256" height="256" fill="white"/>
</clipPath>
</defs>
</svg>
