<svg width="256" height="256" viewBox="0 0 256 256" fill="none" xmlns="http://www.w3.org/2000/svg">
<g clip-path="url(#clip0_5575_31588)">
<rect width="256" height="256" fill="url(#paint0_linear_5575_31588)"/>
<path opacity="0.3" d="M54.7385 42.5455C71.7486 32.1339 108.338 14.2223 124.5 22.5004C140.9 30.9004 146.667 48.0004 147.5 55.5004L124.5 37.5004L140 55.5004L134 55.0004L123.5 45.0004L129.5 55.0004L121 54.5004L109 43.5004L116 53.5004H112.5L99 40.0004L107 52.0004C101.333 51.667 89.7 50.7004 88.5 49.5004C87.3 48.3004 82.6667 44.0004 80.5 42.0004L81.5 49.0004L58 46.5004C76 52.5004 114.1 67.9004 122.5 81.5004C117.333 78.167 106.4 71.5004 104 71.5004C101 71.5004 125 86.5004 125 88.0004C125 89.5004 126 97.5004 126 99.5004C126 101.1 113.333 90.167 107 84.5004C113.333 91.0004 126 104.5 126 106.5C126 108.5 123 114 121.5 116.5C120.5 114.667 118.4 110.8 118 110C117.5 109 120 123 118 126C116.4 128.4 104 144 98 151.5C98.3333 148 99 140.4 99 138C99 135 107 126.5 107 121C104.333 123.5 99 129 99 131C99 133.5 97.5 119 96 115C94.5 111 95.5 107 96 103.5C96.5 100 97 92.5004 96.5 88.0004C96.1 84.4004 92.6667 95.5004 91 101.5C89.6667 98.667 87 92.4004 87 90.0004V79.5004C87 77.5004 84.6667 82.667 83.5 85.5004C77 76.5004 62.8 57.7004 58 54.5004C63.1667 62.667 73.5 80.5004 73.5 86.5004H67.5C70.1667 88.8337 75.5 94.4004 75.5 98.0004C75.5 101.6 74.1667 112.834 73.5 118L71.5 115.5C70.5 121.667 68.1 134.4 66.5 136C64.9 137.6 63.1667 136 62.5 135C60.6667 139.334 53.9 149.4 41.5 155C43 149.5 46 137.5 46 133.5C46 129.5 52 125.5 55 124C52.1667 125.167 46.1 127.6 44.5 128V115.5C44.5 112.7 52.5 108 56.5 106C53.6667 106.5 47 108.3 43 111.5L42.5 99.0004C46.1667 98.8337 53.8 98.4004 55 98.0004C56.5 97.5004 45 93.5004 42.5 93.5004L42 90.5004C34 111.5 14.9 158.5 2.5 178.5C-9.9 198.5 -18.3333 230.834 -21 244.5L-32.5 238.5C-23.6667 214.667 -3.5 162.9 6.5 146.5C19 126 42 67.5004 42 58.5004L31.5 71.5004L30 61.0004C27.6667 68.3337 22.3 83.7004 19.5 86.5004C20.6667 79.8337 23 66.1004 23 64.5004C23 62.5004 15.5 80.5004 15 90.0004L9.5 95.0004C8.66667 91.667 7.5 83.9004 9.5 79.5004C7.33333 83.5004 3.1 93.0004 3.5 99.0004C4 106.5 -9 111.5 -10.5 115.5C-11.9652 119.407 -9.61399 99.9395 -6.70821 93.9074C-9.79532 99.9747 -16.1541 113.835 -18.5 124C-21.5 137 -23 98.5004 -18.5 81.5004C-14 64.5004 -5.5 55.0759 38 49.0004C34.1667 47.667 24.5 45.0004 16.5 45.0004C8.5 45.0004 8.5 24.667 9.5 14.5004C19 19.3337 38.8 30.4003 42 36.0004C46 43.0004 40 28.5004 40 20.5004C40 14.1004 39.3333 14.167 39 15.0004L37.5 26.5004C36 21.3337 33 10.1004 33 6.50036C32.1667 9.66703 30.5 16.6004 30.5 19.0004C30.5 22.0004 22 11.0004 21.5 10.5004C21 10.0004 22 -11.4996 20.5 -12.9996C19.3 -14.1996 17.6667 0.833696 17 8.50036L3 -2.50003C3.16667 -5.00003 3.9 -10.5 5.5 -12.5C7.1 -14.5 0.833332 -8.33336 -2.5 -5.00003L-5.5 -6.00003C-3.7763 -8.7087 -0.397247 -13.5275 2.37957 -16.1831C-1.74885 -13.3289 -7.38498 -9.46904 -9 -8.50003H-11C-4.83333 -16.1667 9.9 -30.7 19.5 -27.5C29.1 -24.3 35.8333 -13.5 38 -8.50003C42.1667 1.66689 50.6 26.0006 51 42.0004C51.3333 38.3336 52.4 29.9 54 25.5C55.6 21.1 57.6667 16.3333 58.5 14.5L52.5 22.5004V17C55.3333 14 61 7.3 61 4.5L52.5 13.5C51.5 10 49.8 2.20002 51 -1C52.2 -4.20002 55.5 -10 57 -12.5C55.1667 -11.5 51.3 -8.79998 50.5 -6C49.7 -3.20002 49.8333 -6.50001 50 -8.5C52.6667 -15 59.4 -27.3 65 -24.5C70.6 -21.7 71 -7.66667 70.5 -1C69.0389 8.5784 63.8775 30.3331 54.7385 42.5455Z" fill="#701044" fill-opacity="0.75"/>
<path opacity="0.3" d="M229.261 8.54548C212.251 -1.86608 175.662 -19.7777 159.5 -11.4996C143.1 -3.09959 137.333 14.0004 136.5 21.5004L159.5 3.50036L144 21.5004L150 21.0004L160.5 11.0004L154.5 21.0004L163 20.5004L175 9.50036L168 19.5004H171.5L185 6.00036L177 18.0004C182.667 17.667 194.3 16.7004 195.5 15.5004C196.7 14.3004 201.333 10.0004 203.5 8.00036L202.5 15.0004L226 12.5004C208 18.5004 169.9 33.9004 161.5 47.5004C166.667 44.167 177.6 37.5004 180 37.5004C183 37.5004 159 52.5004 159 54.0004C159 55.5004 158 63.5004 158 65.5004C158 67.1004 170.667 56.167 177 50.5004C170.667 57.0004 158 70.5004 158 72.5004C158 74.5004 161 80.0004 162.5 82.5004C163.5 80.667 165.6 76.8004 166 76.0004C166.5 75.0004 164 89.0004 166 92.0004C167.6 94.4004 180 110 186 117.5C185.667 114 185 106.4 185 104C185 101 177 92.5004 177 87.0004C179.667 89.5004 185 95.0004 185 97.0004C185 99.5004 186.5 85.0004 188 81.0004C189.5 77.0004 188.5 73.0004 188 69.5004C187.5 66.0004 187 58.5004 187.5 54.0004C187.9 50.4004 191.333 61.5004 193 67.5004C194.333 64.667 197 58.4004 197 56.0004V45.5004C197 43.5004 199.333 48.667 200.5 51.5004C207 42.5004 221.2 23.7004 226 20.5004C220.833 28.667 210.5 46.5004 210.5 52.5004H216.5C213.833 54.8337 208.5 60.4004 208.5 64.0004C208.5 67.6004 209.833 78.8337 210.5 84.0004L212.5 81.5004C213.5 87.667 215.9 100.4 217.5 102C219.1 103.6 220.833 102 221.5 101C223.333 105.334 230.1 115.4 242.5 121C241 115.5 238 103.5 238 99.5004C238 95.5004 232 91.5004 229 90.0004C231.833 91.167 237.9 93.6004 239.5 94.0004V81.5004C239.5 78.7004 231.5 74.0004 227.5 72.0004C230.333 72.5004 237 74.3004 241 77.5004L241.5 65.0004C237.833 64.8337 230.2 64.4004 229 64.0004C227.5 63.5004 239 59.5004 241.5 59.5004L242 56.5004C250 77.5004 269.1 124.5 281.5 144.5C293.9 164.5 302.333 196.834 305 210.5L316.5 204.5C307.667 180.667 287.5 128.9 277.5 112.5C265 92.0004 242 33.5004 242 24.5004L252.5 37.5004L254 27.0004C256.333 34.3337 261.7 49.7004 264.5 52.5004C263.333 45.8337 261 32.1004 261 30.5004C261 28.5004 268.5 46.5004 269 56.0004L274.5 61.0004C275.333 57.667 276.5 49.9004 274.5 45.5004C276.667 49.5004 280.9 59.0004 280.5 65.0004C280 72.5004 293 77.5004 294.5 81.5004C295.965 85.4075 293.614 65.9395 290.708 59.9074C293.795 65.9747 300.154 79.8347 302.5 90.0004C305.5 103 307 64.5004 302.5 47.5004C298 30.5004 289.5 21.0759 246 15.0004C249.833 13.667 259.5 11.0004 267.5 11.0004C275.5 11.0004 275.5 -9.33297 274.5 -19.4996C265 -14.6663 245.2 -3.59968 242 2.00036C238 9.00041 244 -5.49964 244 -13.4996C244 -19.8996 244.667 -19.833 245 -18.9996L246.5 -7.49964C248 -12.6663 251 -23.8996 251 -27.4996C251.833 -24.333 253.5 -17.3996 253.5 -14.9996C253.5 -11.9996 262 -22.9996 262.5 -23.4996C263 -23.9996 262 -45.4996 263.5 -46.9996C264.7 -48.1996 266.333 -33.1663 267 -25.4996L281 -36.5C280.833 -39 280.1 -44.5 278.5 -46.5C276.9 -48.5 283.167 -42.3334 286.5 -39L289.5 -40C287.776 -42.7087 284.397 -47.5275 281.62 -50.1831C285.749 -47.3289 291.385 -43.469 293 -42.5H295C288.833 -50.1667 274.1 -64.7 264.5 -61.5C254.9 -58.3 248.167 -47.5 246 -42.5C241.833 -32.3331 233.4 -7.99936 233 8.00036C232.667 4.33357 231.6 -4.1 230 -8.5C228.4 -12.9 226.333 -17.6667 225.5 -19.5L231.5 -11.4996V-17C228.667 -20 223 -26.7 223 -29.5L231.5 -20.5C232.5 -24 234.2 -31.8 233 -35C231.8 -38.2 228.5 -44 227 -46.5C228.833 -45.5 232.7 -42.8 233.5 -40C234.3 -37.2 234.167 -40.5 234 -42.5C231.333 -49 224.6 -61.3 219 -58.5C213.4 -55.7 213 -41.6667 213.5 -35C214.961 -25.4216 220.122 -3.66687 229.261 8.54548Z" fill="#701044" fill-opacity="0.75"/>
<path opacity="0.1" fill-rule="evenodd" clip-rule="evenodd" d="M157.995 74.5C177.495 77.1667 216.495 95.1 216.495 145.5C216.495 163.203 210.47 174.536 201.54 181.782C219.328 203.176 223.999 233.087 223.999 252.191C223.999 284.67 187.286 311 141.999 311C96.7114 311 59.9987 284.67 59.9987 252.191C59.9987 232.467 67.7431 201.226 87.4867 179.729C76.8448 171.595 70.0555 159.202 72.4948 140.5C78.4948 94.5 111.328 77.3333 126.995 74.5C129.495 70.1667 149.995 61 149.995 61C149.995 61 144.495 65 141.995 74.5C152.995 67.4991 160.995 67.4991 160.995 67.4991C156.995 72.0001 157.995 74.5 157.995 74.5Z" fill="#28282E"/>
<path d="M82.999 99.9998C71.575 109.584 69.7593 127.636 59.998 116C50.2366 104.364 48.574 74.0849 59.998 64.5011C71.422 54.9172 85.4247 62.012 95.186 73.6475C104.947 85.2831 94.423 90.416 82.999 99.9998Z" fill="#78553E" stroke="#2A2A2D" stroke-width="5" stroke-linejoin="round"/>
<path d="M175.948 101C187.372 110.584 189.187 128.636 198.949 117C208.71 105.364 210.373 75.0849 198.949 65.5011C187.525 55.9172 173.522 63.012 163.761 74.6475C153.999 86.2831 164.524 91.416 175.948 101Z" fill="#78553E" stroke="#2A2A2D" stroke-width="5" stroke-linejoin="round"/>
<path opacity="0.6" d="M79.5375 97.2065C71.4843 103.962 69.882 118.202 63.001 109.999C56.1199 101.797 56.4452 78.755 64.4984 71.9991C72.5515 65.2431 87.1179 70.7976 93.9989 78.9998C100.88 87.2021 87.5906 90.4506 79.5375 97.2065Z" fill="#2A2A2D"/>
<path d="M83.5352 102.207C75.4821 108.963 73.8798 123.202 66.9987 115C60.1177 106.798 60.443 83.7556 68.4961 76.9996C76.5493 70.2436 85.2452 75.4282 92.1263 83.6305C99.0073 91.8328 91.5884 95.4511 83.5352 102.207Z" fill="#C58C67"/>
<path opacity="0.6" d="M176.413 98.2064C184.466 104.962 187.621 119.202 194.502 111C201.383 102.798 202.555 77.7554 194.502 70.9994C186.449 64.2434 174.38 71.2977 167.499 79.5C160.618 87.7023 168.36 91.4505 176.413 98.2064Z" fill="#2A2A2D"/>
<path d="M175.499 98C183.552 104.756 185.569 122.702 192.451 114.5C199.332 106.298 200.504 85.7556 192.451 78.9996C184.397 72.2436 175.702 77.4282 168.82 85.6305C161.939 93.8328 167.446 91.244 175.499 98Z" fill="#C58C67"/>
<path d="M206.999 247.191C206.999 279.67 170.286 306 124.999 306C79.7114 306 42.9987 279.67 42.9987 247.191C42.9987 214.712 63.9987 151 124.999 151C193.499 151 206.999 214.712 206.999 247.191Z" fill="#78553E" stroke="#2A2A2D" stroke-width="5" stroke-linejoin="round"/>
<ellipse cx="124.999" cy="232" rx="46" ry="60" fill="#C58C67"/>
<path d="M199.495 140.5C199.495 90.1 160.495 72.1667 140.995 69.5C140.995 69.5 139.995 67.0001 143.995 62.4991C143.995 62.4991 135.995 62.4991 124.995 69.5C127.495 60 132.995 56 132.995 56C132.995 56 112.495 65.1667 109.995 69.5C94.3282 72.3333 61.4948 89.5 55.4948 135.5C49.4948 181.5 99.3282 189.333 124.995 189.5C150.661 189.667 199.495 190.9 199.495 140.5Z" fill="#78553E" stroke="#2A2A2D" stroke-width="5" stroke-linejoin="round"/>
<path d="M163.999 159C163.999 171.703 145.866 177.999 123.499 177.999C101.131 177.999 84.9987 170.203 84.9987 157.5C84.9987 144.797 102.131 133.5 124.499 133.5C146.866 133.5 163.999 146.297 163.999 159Z" fill="#C58C67"/>
<path d="M137.999 109.977C142.165 105.311 154.199 97.7774 168.999 104.977" stroke="#C58C67" stroke-width="8" stroke-linecap="round" stroke-linejoin="bevel"/>
<path d="M113 110C109.237 108.83 98.3677 106.941 85 108.746" stroke="#C58C67" stroke-width="8" stroke-linecap="round" stroke-linejoin="bevel"/>
<ellipse cx="100.997" cy="129" rx="10" ry="12" transform="rotate(-12.2284 100.997 129)" fill="#2A2A2D"/>
<ellipse cx="10" cy="12" rx="10" ry="12" transform="matrix(-0.977311 -0.211809 -0.211809 0.977311 161.628 119.391)" fill="#2A2A2D"/>
<ellipse cx="2.86734" cy="3.98297" rx="2.86734" ry="3.98297" transform="matrix(-0.996195 -0.0871557 -0.0871557 0.996195 150.405 122.5)" fill="#F8F8FB"/>
<ellipse cx="102.202" cy="124.218" rx="2.86734" ry="3.98297" transform="rotate(-5 102.202 124.218)" fill="#F8F8FB"/>
<path d="M109.999 163C111.187 165.817 115.446 170.436 123.999 166.38C133.926 171.45 137.999 163 137.999 163" stroke="#2A2A2D" stroke-width="4" stroke-linecap="round" stroke-linejoin="bevel"/>
<path d="M123.499 149L123.499 166.5" stroke="#2A2A2D" stroke-width="4" stroke-linecap="round"/>
<path d="M138.999 148.5C138.999 152.642 132.283 159 123.999 159C115.714 159 108.999 152.642 108.999 148.5C108.999 144.358 115.714 143 123.999 143C132.283 143 138.999 144.358 138.999 148.5Z" fill="#2A2A2D"/>
<path d="M170.999 223C173.999 237 174.754 256.643 161.999 272" stroke="#2A2A2D" stroke-width="6" stroke-linecap="round" stroke-linejoin="bevel"/>
<path d="M78.7866 222.5C75.7947 232.562 76.661 251.95 87.9987 267" stroke="#2A2A2D" stroke-width="6" stroke-linecap="round" stroke-linejoin="bevel"/>
<path opacity="0.3" d="M150.498 189C207.298 185 203.165 134.333 193.998 109.5C191.999 146.5 174.999 166 158.998 176.5C143.196 186.87 79.4981 194 150.498 189Z" fill="#2A2A2D"/>
<path opacity="0.3" d="M186.999 265.5C199.399 239.9 181.832 201.5 171.499 185.5L186.999 178.5C208.599 211.3 208.332 248.167 205.499 262.5C194.165 274.167 174.599 291.1 186.999 265.5Z" fill="#2A2A2D"/>
<path opacity="0.3" d="M51.9957 250C50.829 239.167 61.5987 198.7 73.9987 187.5" stroke="#C58C67" stroke-width="6" stroke-linecap="round" stroke-linejoin="bevel"/>
<line x1="121" y1="121" x2="130" y2="121" stroke="#111111" stroke-width="6" stroke-linecap="round" stroke-linejoin="round"/>
<path d="M75.1453 119.14C75.0659 116.878 76.8787 115 79.1428 115H111.221C116.026 115 119.747 119.206 119.161 123.975L117.873 134.463C117.134 140.479 112.024 145 105.962 145H87.639C81.1753 145 75.873 139.88 75.6463 133.421L75.1453 119.14Z" fill="url(#paint1_linear_5575_31588)" stroke="#111111" stroke-width="4" stroke-linecap="round" stroke-linejoin="round"/>
<path d="M174.855 119.14C174.934 116.878 173.121 115 170.857 115H138.779C133.974 115 130.253 119.206 130.839 123.975L132.127 134.463C132.866 140.479 137.976 145 144.038 145H162.361C168.825 145 174.127 139.88 174.354 133.421L174.855 119.14Z" fill="url(#paint2_linear_5575_31588)" stroke="#111111" stroke-width="4" stroke-linecap="round" stroke-linejoin="round"/>
<g filter="url(#filter0_f_5575_31588)">
<ellipse cx="149.499" cy="126.499" rx="4.5" ry="8.5" transform="rotate(68.8026 149.499 126.499)" fill="#D045FF"/>
</g>
<path opacity="0.3" d="M167.305 123.133L153.305 137.133" stroke="white" stroke-width="5" stroke-linecap="round"/>
<path opacity="0.2" d="M111.305 123.133L97.3047 137.133" stroke="white" stroke-width="5" stroke-linecap="round"/>
<path opacity="0.3" d="M157.305 123.133L143.305 137.133" stroke="white" stroke-width="5" stroke-linecap="round"/>
<path opacity="0.2" d="M101.305 123.133L87.3047 137.133" stroke="white" stroke-width="5" stroke-linecap="round"/>
<g filter="url(#filter1_f_5575_31588)">
<ellipse cx="89.4991" cy="126.499" rx="4.5" ry="8.5" transform="rotate(68.8026 89.4991 126.499)" fill="#D045FF"/>
</g>
<path d="M89.7165 67.1345C84.5883 85.1983 90.8988 67.4701 119.057 75.4642C145.506 79.3345 188.397 100.347 188.397 100.347C193.526 82.2833 199.227 45.7283 148.241 31.2536C97.2546 16.7789 94.8447 49.0707 89.7165 67.1345Z" fill="#565665" stroke="#2A2A2D" stroke-width="5" stroke-linejoin="round"/>
<path d="M60.3636 51.525C87.4155 50.7607 163.658 88.0675 186.653 99.1696C127.507 76.8233 101.04 78.3831 84.0684 80.602C72.725 76.326 33.3118 52.2893 60.3636 51.525Z" fill="#3B3B4D" stroke="#2A2A2D" stroke-width="5" stroke-linejoin="round"/>
<path opacity="0.3" d="M150.999 79.499C162.499 64.499 160.999 44.999 146.596 33.3844C200.499 42.4992 188.535 82.5046 186.499 96.9996L150.999 79.499Z" fill="#2A2A2D"/>
<ellipse cx="12.27" cy="13.035" rx="12.27" ry="13.035" transform="matrix(0.987199 0.159496 -0.188971 0.981983 117 38)" fill="#6CADE5"/>
<path d="M132.906 53.9559C132.184 57.7072 128.727 60.1267 125.334 59.5785C121.942 59.0304 119.597 55.6736 120.319 51.9224C121.041 48.1711 124.497 45.7516 127.89 46.2997C131.283 46.8479 133.627 50.2047 132.906 53.9559Z" stroke="white" stroke-width="4"/>
</g>
<defs>
<filter id="filter0_f_5575_31588" x="126.407" y="106.298" width="46.1836" height="40.4023" filterUnits="userSpaceOnUse" color-interpolation-filters="sRGB">
<feFlood flood-opacity="0" result="BackgroundImageFix"/>
<feBlend mode="normal" in="SourceGraphic" in2="BackgroundImageFix" result="shape"/>
<feGaussianBlur stdDeviation="7.5" result="effect1_foregroundBlur_5575_31588"/>
</filter>
<filter id="filter1_f_5575_31588" x="66.4073" y="106.298" width="46.1836" height="40.4023" filterUnits="userSpaceOnUse" color-interpolation-filters="sRGB">
<feFlood flood-opacity="0" result="BackgroundImageFix"/>
<feBlend mode="normal" in="SourceGraphic" in2="BackgroundImageFix" result="shape"/>
<feGaussianBlur stdDeviation="7.5" result="effect1_foregroundBlur_5575_31588"/>
</filter>
<linearGradient id="paint0_linear_5575_31588" x1="128" y1="0" x2="128" y2="256" gradientUnits="userSpaceOnUse">
<stop stop-color="#FFD285"/>
<stop offset="1" stop-color="#FF9FA8"/>
</linearGradient>
<linearGradient id="paint1_linear_5575_31588" x1="120.263" y1="105.5" x2="89.9926" y2="131.522" gradientUnits="userSpaceOnUse">
<stop stop-color="#001E72"/>
<stop offset="1" stop-color="#28A7E6"/>
</linearGradient>
<linearGradient id="paint2_linear_5575_31588" x1="129.737" y1="105.5" x2="160.007" y2="131.522" gradientUnits="userSpaceOnUse">
<stop stop-color="#001E72"/>
<stop offset="1" stop-color="#28A7E6"/>
</linearGradient>
<clipPath id="clip0_5575_31588">
<rect width="256" height="256" fill="white"/>
</clipPath>
</defs>
</svg>
