<svg width="256" height="256" viewBox="0 0 256 256" fill="none" xmlns="http://www.w3.org/2000/svg">
<g clip-path="url(#clip0_5527_31723)">
<rect width="256" height="256" fill="#FFD286"/>
<path opacity="0.4" fill-rule="evenodd" clip-rule="evenodd" d="M161.313 226.567C156.877 231.989 143.569 243.72 125.824 247.269C103.644 251.705 74.0696 251.705 62.24 236.918C59.3529 233.309 56.4882 230.399 53.7639 227.631C45.326 219.059 38.2357 211.856 36 189.5C34.4966 174.466 21.1789 168.692 10.5006 164.063C0.17318 159.586 -7.68547 156.179 0 146.5C22.9429 117.607 14.9813 106.465 0.520166 86.2281L-2.67029e-05 85.5C-14.7871 64.7981 9.00667 38.7714 25.2724 37.2927C33.604 36.5353 35.3403 29.9584 37.039 23.5237C38.6567 17.396 40.2403 11.3973 47.4531 10.676C53.6311 10.0582 57.7442 5.0523 62.2728 -0.459309C68.5832 -8.13948 75.7003 -16.8015 90.3355 -15.9406C100.691 -15.3315 110.042 -10.2537 119.32 -5.21571C132.565 1.97627 145.661 9.087 161.313 3C187.93 -7.35093 255.95 -18.8993 251.514 37.2927C248.989 69.2827 244.067 74.4344 240.023 78.6673C236.964 81.8698 234.407 84.5463 233.77 97.9208C232.291 128.974 181.922 119.851 198 116C222.187 110.207 216.33 79.1605 204.5 55.5C192.67 31.8395 177.579 29.8979 167.228 37.2927C161.512 41.3761 167.833 43.2999 173.293 44.9618C177.721 46.3095 181.582 47.4849 178 49.5C168.887 54.6261 157.038 49.1211 151 37.2927C143.574 22.7455 81.4632 44.6875 74.0697 71.3042C70.3197 84.8043 61.6244 90.3158 53.9651 95.1707C46.5233 99.8877 40.0595 103.985 40.0595 114.187C40.0595 134.888 48.9318 196.993 82.942 196.993C100.883 196.993 118.825 200.285 134.595 203.179L134.595 203.179L134.596 203.179C148.72 205.771 161.103 208.044 170.185 207.345C189.409 205.866 230.812 192.138 251.514 167C266.527 148.771 300.088 179.324 315.413 193.276L315.414 193.277L315.416 193.278C316.996 194.717 318.383 195.979 319.535 196.993C318.657 196.514 316.987 195.264 314.723 193.57C303.001 184.796 275.364 164.111 259.5 177C250.447 184.355 241.307 195.937 232.561 207.02L232.561 207.02L232.561 207.02C218.45 224.9 205.365 241.481 195.323 236.918C190.993 234.949 187.92 233.296 185.379 231.928C178.377 228.16 175.418 226.567 161.313 226.567ZM50.4105 201.43C57.3111 206.852 75.8442 216.809 94.7716 213.26C118.431 208.824 146.526 208.824 146.526 219.175C146.526 229.525 128.782 236.919 115.473 241.355C102.165 245.791 68.1549 239.876 62.2401 226.568C60.0531 221.647 59.2812 218.95 58.6538 216.758C57.5842 213.021 56.9342 210.75 50.4105 201.43ZM66.6764 50.6015C71.4082 23.3933 94.2789 17.5771 105.123 18.07C125.112 8.65731 118.141 6.46135 109.452 3.72471C104.644 2.21011 99.3095 0.529894 97.729 -2.63103C94.5736 -8.94185 83.1885 -1.03785 70.4919 7.77671C65.3387 11.3543 59.9694 15.0819 54.8466 18.07C37.1021 28.4201 37.1023 29.9005 38.581 53.5597C39.5122 68.4594 30.4738 79.2539 27.3466 82.9887C26.6434 83.8285 26.2391 84.3113 26.3143 84.4036C26.416 84.5284 27.3949 83.9387 29.6978 82.5512C30.1437 82.2826 30.6392 81.9841 31.1875 81.6551C35.6833 78.9576 40.1791 78.1737 44.4256 77.4333C54.146 75.7384 62.5599 74.2713 66.6764 50.6015ZM176.1 10.6776C169.2 13.635 159.539 19.8456 176.1 21.0285C196.802 22.5072 217.504 38.773 218.983 47.6452C219.334 49.7527 219.602 53.2785 219.905 57.2715C220.879 70.0883 222.218 87.7176 227.855 78.698C235.248 66.8683 247.078 41.7304 239.685 34.3369C236.906 31.558 233.918 30.2413 230.329 28.6596C224.368 26.0331 216.749 22.6756 205.674 10.6776C191.479 -4.70092 180.044 4.26988 176.1 10.6776Z" fill="#F7B500"/>
<path opacity="0.1" fill-rule="evenodd" clip-rule="evenodd" d="M157.995 74.5C177.495 77.1667 216.495 95.1 216.495 145.5C216.495 163.203 210.47 174.536 201.541 181.782C219.328 203.176 223.999 233.087 223.999 252.191C223.999 284.67 187.286 311 141.999 311C96.7114 311 59.9988 284.67 59.9988 252.191C59.9988 232.467 67.7431 201.226 87.4868 179.729C76.8448 171.595 70.0555 159.202 72.4949 140.5C78.4949 94.5 111.328 77.3333 126.995 74.5C129.495 70.1667 149.995 61 149.995 61C149.995 61 144.495 65 141.995 74.5C152.995 67.4991 160.995 67.4991 160.995 67.4991C156.995 72.0001 157.995 74.5 157.995 74.5Z" fill="#28282E"/>
<path d="M82.999 99.9998C71.575 109.584 69.7594 127.636 59.998 116C50.2367 104.364 48.574 74.0849 59.998 64.5011C71.422 54.9172 85.4247 62.012 95.1861 73.6475C104.947 85.2831 94.423 90.416 82.999 99.9998Z" fill="#A169B4" stroke="#28282E" stroke-width="5" stroke-linejoin="round"/>
<path d="M175.948 101C187.372 110.584 189.187 128.636 198.949 117C208.71 105.364 210.373 75.0849 198.949 65.5011C187.525 55.9172 173.522 63.012 163.761 74.6475C153.999 86.2831 164.524 91.416 175.948 101Z" fill="#A169B4" stroke="#28282E" stroke-width="5" stroke-linejoin="round"/>
<path opacity="0.2" d="M79.5375 97.2065C71.4844 103.962 69.8821 118.202 63.001 109.999C56.1199 101.797 56.4453 78.755 64.4984 71.9991C72.5515 65.2431 87.1179 70.7976 93.999 78.9998C100.88 87.2021 87.5906 90.4506 79.5375 97.2065Z" fill="#28282E"/>
<path d="M83.5353 102.207C75.4821 108.963 73.8799 123.202 66.9988 115C60.1177 106.798 60.443 83.7556 68.4962 76.9996C76.5493 70.2436 85.2452 75.4282 92.1263 83.6305C99.0074 91.8328 91.5884 95.4511 83.5353 102.207Z" fill="#C4B3D5"/>
<path opacity="0.2" d="M176.413 98.2064C184.466 104.962 187.621 119.202 194.502 111C201.383 102.798 202.555 77.7554 194.502 70.9994C186.449 64.2434 174.38 71.2977 167.499 79.5C160.618 87.7023 168.36 91.4505 176.413 98.2064Z" fill="#28282E"/>
<path d="M175.499 98C183.552 104.756 185.57 122.702 192.451 114.5C199.332 106.298 200.504 85.7556 192.451 78.9996C184.397 72.2436 175.702 77.4282 168.82 85.6305C161.939 93.8328 167.446 91.244 175.499 98Z" fill="#C4B3D5"/>
<path d="M206.999 247.191C206.999 279.67 170.286 306 124.999 306C79.7114 306 42.9988 279.67 42.9988 247.191C42.9988 214.712 63.9988 151 124.999 151C193.499 151 206.999 214.712 206.999 247.191Z" fill="#A169B4" stroke="#28282E" stroke-width="5" stroke-linejoin="round"/>
<ellipse cx="124.999" cy="232" rx="46" ry="60" fill="#C4B3D5"/>
<path d="M199.495 140.5C199.495 90.1 160.495 72.1667 140.995 69.5C140.995 69.5 139.995 67.0001 143.995 62.4991C143.995 62.4991 135.995 62.4991 124.995 69.5C127.495 60 132.995 56 132.995 56C132.995 56 112.495 65.1667 109.995 69.5C94.3282 72.3333 61.4949 89.5 55.4949 135.5C49.4949 181.5 99.3282 189.333 124.995 189.5C150.662 189.667 199.495 190.9 199.495 140.5Z" fill="#A169B4" stroke="#28282E" stroke-width="5" stroke-linejoin="round"/>
<path d="M163.999 159C163.999 171.703 145.866 177.999 123.499 177.999C101.131 177.999 84.9988 170.203 84.9988 157.5C84.9988 144.797 102.131 133.5 124.499 133.5C146.866 133.5 163.999 146.297 163.999 159Z" fill="#C4B3D5"/>
<path d="M138 113C142.167 110.075 154.2 105.353 169 109.866" stroke="#C4B3D5" stroke-width="8" stroke-linecap="round" stroke-linejoin="bevel"/>
<path d="M113 114C109.237 111.075 98.3677 106.353 85 110.866" stroke="#C4B3D5" stroke-width="8" stroke-linecap="round" stroke-linejoin="bevel"/>
<ellipse cx="100.997" cy="129" rx="10" ry="12" transform="rotate(-12.2284 100.997 129)" fill="#28282E"/>
<ellipse cx="10" cy="12" rx="10" ry="12" transform="matrix(-0.977311 -0.211809 -0.211809 0.977311 161.628 119.391)" fill="#28282E"/>
<ellipse cx="2.86734" cy="3.98297" rx="2.86734" ry="3.98297" transform="matrix(-0.996195 -0.0871557 -0.0871557 0.996195 150.405 122.5)" fill="#F8F8FB"/>
<ellipse cx="102.202" cy="124.218" rx="2.86734" ry="3.98297" transform="rotate(-5 102.202 124.218)" fill="#F8F8FB"/>
<path d="M109.999 163C111.187 165.817 115.446 170.436 123.999 166.38C133.926 171.45 137.999 163 137.999 163" stroke="#28282E" stroke-width="4" stroke-linecap="round" stroke-linejoin="bevel"/>
<path d="M123.499 149L123.499 166.5" stroke="#28282E" stroke-width="4" stroke-linecap="round"/>
<path d="M138.999 148.5C138.999 152.642 132.283 159 123.999 159C115.715 159 108.999 152.642 108.999 148.5C108.999 144.358 115.715 143 123.999 143C132.283 143 138.999 144.358 138.999 148.5Z" fill="#28282E"/>
<path d="M170.999 223C173.999 237 174.754 256.643 161.999 272" stroke="#28282E" stroke-width="6" stroke-linecap="round" stroke-linejoin="bevel"/>
<path d="M78.7867 222.5C75.7948 232.562 76.661 251.95 87.9988 267" stroke="#28282E" stroke-width="6" stroke-linecap="round" stroke-linejoin="bevel"/>
<path opacity="0.2" d="M150.498 189C207.298 185 203.165 134.333 193.998 109.5C191.999 146.5 174.999 166 158.998 176.5C143.196 186.87 79.4981 194 150.498 189Z" fill="#28282E"/>
<path opacity="0.2" d="M186.999 265.5C199.399 239.9 181.832 201.5 171.499 185.5L186.999 178.5C208.599 211.3 208.332 248.167 205.499 262.5C194.165 274.167 174.599 291.1 186.999 265.5Z" fill="#28282E"/>
<path opacity="0.3" d="M51.9957 250C50.829 239.167 61.5988 198.7 73.9988 187.5" stroke="#C4B3D5" stroke-width="6" stroke-linecap="round" stroke-linejoin="bevel"/>
<path d="M121.538 178.875C114.842 177.908 114.563 171.623 115.261 168.602C120.84 167.393 132 165.701 132 168.602C132 172.227 129.907 180.083 121.538 178.875Z" fill="#E06493" stroke="#2A2A2D" stroke-width="4" stroke-linecap="round" stroke-linejoin="bevel"/>
<line x1="121" y1="121" x2="130" y2="121" stroke="#111111" stroke-width="6" stroke-linecap="round" stroke-linejoin="round"/>
<path d="M75.1453 119.14C75.0659 116.878 76.8787 115 79.1428 115H111.221C116.026 115 119.747 119.206 119.161 123.975L117.873 134.463C117.134 140.479 112.024 145 105.962 145H87.639C81.1753 145 75.873 139.88 75.6463 133.421L75.1453 119.14Z" fill="url(#paint0_linear_5527_31723)" stroke="#111111" stroke-width="4" stroke-linecap="round" stroke-linejoin="round"/>
<path d="M174.855 119.14C174.934 116.878 173.121 115 170.857 115H138.779C133.974 115 130.253 119.206 130.839 123.975L132.127 134.463C132.866 140.479 137.976 145 144.038 145H162.361C168.825 145 174.127 139.88 174.354 133.421L174.855 119.14Z" fill="url(#paint1_linear_5527_31723)" stroke="#111111" stroke-width="4" stroke-linecap="round" stroke-linejoin="round"/>
<g filter="url(#filter0_f_5527_31723)">
<ellipse cx="149.499" cy="126.499" rx="4.5" ry="8.5" transform="rotate(68.8026 149.499 126.499)" fill="#D045FF"/>
</g>
<path opacity="0.3" d="M167.305 123.133L153.305 137.133" stroke="white" stroke-width="5" stroke-linecap="round"/>
<path opacity="0.2" d="M111.305 123.133L97.3047 137.133" stroke="white" stroke-width="5" stroke-linecap="round"/>
<path opacity="0.3" d="M157.305 123.133L143.305 137.133" stroke="white" stroke-width="5" stroke-linecap="round"/>
<path opacity="0.2" d="M101.305 123.133L87.3047 137.133" stroke="white" stroke-width="5" stroke-linecap="round"/>
<g filter="url(#filter1_f_5527_31723)">
<ellipse cx="89.4991" cy="126.499" rx="4.5" ry="8.5" transform="rotate(68.8026 89.4991 126.499)" fill="#D045FF"/>
</g>
</g>
<defs>
<filter id="filter0_f_5527_31723" x="126.407" y="106.298" width="46.1836" height="40.4023" filterUnits="userSpaceOnUse" color-interpolation-filters="sRGB">
<feFlood flood-opacity="0" result="BackgroundImageFix"/>
<feBlend mode="normal" in="SourceGraphic" in2="BackgroundImageFix" result="shape"/>
<feGaussianBlur stdDeviation="7.5" result="effect1_foregroundBlur_5527_31723"/>
</filter>
<filter id="filter1_f_5527_31723" x="66.4073" y="106.298" width="46.1836" height="40.4023" filterUnits="userSpaceOnUse" color-interpolation-filters="sRGB">
<feFlood flood-opacity="0" result="BackgroundImageFix"/>
<feBlend mode="normal" in="SourceGraphic" in2="BackgroundImageFix" result="shape"/>
<feGaussianBlur stdDeviation="7.5" result="effect1_foregroundBlur_5527_31723"/>
</filter>
<linearGradient id="paint0_linear_5527_31723" x1="120.263" y1="105.5" x2="89.9926" y2="131.522" gradientUnits="userSpaceOnUse">
<stop stop-color="#5AE66F"/>
<stop offset="1" stop-color="#FFD285"/>
</linearGradient>
<linearGradient id="paint1_linear_5527_31723" x1="129.737" y1="105.5" x2="160.007" y2="131.522" gradientUnits="userSpaceOnUse">
<stop stop-color="#5AE66F"/>
<stop offset="1" stop-color="#FFD285"/>
</linearGradient>
<clipPath id="clip0_5527_31723">
<rect width="256" height="256" fill="white"/>
</clipPath>
</defs>
</svg>
