<svg width="256" height="256" viewBox="0 0 256 256" fill="none" xmlns="http://www.w3.org/2000/svg">
<g clip-path="url(#clip0_5527_31628)">
<rect width="256" height="256" fill="#988ADF"/>
<path d="M-82.3241 173.719C-84.6382 174.491 -138.272 175.524 -164.8 175.944C-169.176 177.057 -164.652 181.73 -159.831 183.287C-155.974 184.533 -103.635 180.345 -77.9481 178.095C-85.4392 181.482 -99.6797 190.927 -96.7129 201.607C-93.0045 214.957 -91.1502 221.558 -80.3957 240.175C-71.7921 255.068 -53.9173 257.011 -46.0554 256.121C-54.8815 247.641 -72.5189 226.424 -72.4596 209.395C-72.4003 192.365 -59.5789 224.154 -53.1756 242.177C-31.1474 273.551 -12.5309 254.489 9.27481 254.489C26.7194 254.49 39.5358 244.353 43.7635 239.285C40.6237 238.271 29.968 234.894 12.4641 229.494C-5.03983 224.095 -13.3221 208.752 -15.2752 201.755C-15.5719 192.707 -12.2342 179.757 3.48962 200.346C23.1444 226.083 35.4565 229.049 47.7686 229.198C60.0807 229.346 76.4721 213.103 73.7278 208.727C70.9836 204.351 48.1395 216.367 37.2366 195.377C26.3337 174.387 62.0091 191.223 76.4721 192.484C90.9351 193.745 102.06 173.571 108.365 168.602C113.408 164.626 113.037 163.484 112.222 163.41C95.9044 142.642 67.2751 148.131 55.2597 154.806C45.6474 160.146 39.3875 158.712 37.4591 157.328C26.126 149.08 59.6851 140.689 77.8813 137.525C81.6886 137.574 85.3575 135.181 69.5743 125.213C53.7911 115.244 31.1053 131.987 21.7352 141.604C12.9338 149.318 -4.99534 161.837 -6.30072 150.208C-7.93246 135.671 45.9885 114.681 50.587 112.752C55.1855 110.824 43.3184 102.962 24.7762 100.737C6.23387 98.5118 -7.7841 115.348 -19.2062 128.699C-30.6282 142.049 -35.1525 170.011 -38.861 150.282C-42.5694 130.553 -12.0859 103.481 0.00365669 97.9184C9.67532 93.4683 6.80249 92.0096 4.15713 91.8366C-10.7509 91.0701 -43.2815 92.1036 -54.1398 102.369C-64.9982 112.634 -65.0922 134.632 -63.7818 144.348C-64.3752 148.551 -67.3716 155.622 -74.6105 150.282C-83.6591 143.607 -63.7818 108.154 -62.6693 103.926C-61.5567 99.6985 -73.943 100.366 -96.0454 128.847C-113.727 151.632 -94.2653 168.256 -82.3241 173.719Z" fill="#685AB2"/>
<path d="M241.411 73.8463C243.725 74.6176 297.36 75.651 323.887 76.0713C328.263 77.1839 323.739 81.8565 318.918 83.4141C315.061 84.6601 262.723 80.472 237.035 78.2222C244.526 81.6093 258.767 91.0535 255.8 101.734C252.092 115.084 250.237 121.685 239.483 140.302C230.879 155.195 213.004 157.138 205.143 156.248C213.969 147.768 231.606 126.551 231.547 109.522C231.487 92.4924 218.666 124.281 212.263 142.304C190.235 173.678 171.618 154.616 149.812 154.616C132.368 154.616 119.551 144.48 115.324 139.412C118.464 138.398 129.119 135.021 146.623 129.621C164.127 124.222 172.409 108.879 174.362 101.882C174.659 92.8335 171.321 79.8836 155.598 100.473C135.943 126.21 123.631 129.176 111.319 129.325C99.0065 129.473 82.6151 113.23 85.3594 108.854C88.1036 104.478 110.948 116.494 121.851 95.5036C132.753 74.5138 97.0781 91.3502 82.6151 92.611C68.1521 93.8719 57.0267 73.6979 50.7224 68.7286C45.6789 64.7531 46.0497 63.6109 46.8656 63.5367C63.1828 42.7693 91.8121 48.2579 103.827 54.9331C113.44 60.2733 119.7 58.8393 121.628 57.4549C132.961 49.2073 99.4021 40.8162 81.2059 37.6517C77.3985 37.7011 73.7297 35.3079 89.5128 25.3396C105.296 15.3713 127.982 32.1137 137.352 41.731C146.153 49.4446 164.083 61.9644 165.388 50.3346C167.02 35.7975 113.099 14.8076 108.5 12.8792C103.902 10.9508 115.769 3.08888 134.311 0.863801C152.853 -1.36127 166.871 15.4751 178.293 28.8256C189.715 42.176 194.24 70.1378 197.948 50.4088C201.657 30.6798 171.173 3.60807 159.084 -1.95462C149.412 -6.40477 152.285 -7.86343 154.93 -8.03649C169.838 -8.8029 202.369 -7.76949 213.227 2.49553C224.085 12.7605 224.179 34.7591 222.869 44.4753C223.462 48.6782 226.459 55.749 233.698 50.4088C242.746 43.7336 222.869 8.28072 221.756 4.05307C220.644 -0.174568 233.03 0.492953 255.133 28.9739C272.815 51.7587 253.353 68.3825 241.411 73.8463Z" fill="#685AB2"/>
<path opacity="0.1" fill-rule="evenodd" clip-rule="evenodd" d="M157.995 74.5C177.495 77.1667 216.495 95.1 216.495 145.5C216.495 163.203 210.47 174.536 201.54 181.782C219.328 203.176 223.999 233.087 223.999 252.191C223.999 284.67 187.286 311 141.999 311C96.7114 311 59.9987 284.67 59.9987 252.191C59.9987 232.467 67.7431 201.226 87.4867 179.729C76.8448 171.595 70.0555 159.202 72.4948 140.5C78.4948 94.5 111.328 77.3333 126.995 74.5C129.495 70.1667 149.995 61 149.995 61C149.995 61 144.495 65 141.995 74.5C152.995 67.4991 160.995 67.4991 160.995 67.4991C156.995 72.0001 157.995 74.5 157.995 74.5Z" fill="#28282E"/>
<path d="M82.999 99.9998C71.575 109.584 69.7593 127.636 59.998 116C50.2366 104.364 48.574 74.0849 59.998 64.5011C71.422 54.9172 85.4247 62.012 95.186 73.6475C104.947 85.2831 94.423 90.416 82.999 99.9998Z" fill="#DE653D" stroke="#2A2A2D" stroke-width="5" stroke-linejoin="round"/>
<path d="M175.948 101C187.372 110.584 189.187 128.636 198.949 117C208.71 105.364 210.373 75.0849 198.949 65.5011C187.525 55.9172 173.522 63.012 163.761 74.6475C153.999 86.2831 164.524 91.416 175.948 101Z" fill="#DE653D" stroke="#2A2A2D" stroke-width="5" stroke-linejoin="round"/>
<path opacity="0.2" d="M79.5375 97.2065C71.4843 103.962 69.882 118.202 63.001 109.999C56.1199 101.797 56.4452 78.755 64.4984 71.9991C72.5515 65.2431 87.1179 70.7976 93.9989 78.9998C100.88 87.2021 87.5906 90.4506 79.5375 97.2065Z" fill="#2A2A2D"/>
<path d="M83.5352 102.207C75.4821 108.963 73.8798 123.202 66.9987 115C60.1177 106.798 60.443 83.7556 68.4961 76.9996C76.5493 70.2436 85.2452 75.4282 92.1263 83.6305C99.0073 91.8328 91.5884 95.4511 83.5352 102.207Z" fill="#FFBFA6"/>
<path opacity="0.2" d="M176.413 98.2064C184.466 104.962 187.621 119.202 194.502 111C201.383 102.798 202.555 77.7554 194.502 70.9994C186.449 64.2434 174.38 71.2977 167.499 79.5C160.618 87.7023 168.36 91.4505 176.413 98.2064Z" fill="#2A2A2D"/>
<path d="M175.499 98C183.552 104.756 185.569 122.702 192.451 114.5C199.332 106.298 200.504 85.7556 192.451 78.9996C184.397 72.2436 175.702 77.4282 168.82 85.6305C161.939 93.8328 167.446 91.244 175.499 98Z" fill="#FFBFA6"/>
<path d="M206.999 247.191C206.999 279.67 170.286 306 124.999 306C79.7114 306 42.9987 279.67 42.9987 247.191C42.9987 214.712 63.9987 151 124.999 151C193.499 151 206.999 214.712 206.999 247.191Z" fill="#DE653D" stroke="#2A2A2D" stroke-width="5" stroke-linejoin="round"/>
<ellipse cx="124.999" cy="232" rx="46" ry="60" fill="#FFBFA6"/>
<path d="M199.495 140.5C199.495 90.1 160.495 72.1667 140.995 69.5C140.995 69.5 139.995 67.0001 143.995 62.4991C143.995 62.4991 135.995 62.4991 124.995 69.5C127.495 60 132.995 56 132.995 56C132.995 56 112.495 65.1667 109.995 69.5C94.3282 72.3333 61.4948 89.5 55.4948 135.5C49.4948 181.5 99.3282 189.333 124.995 189.5C150.661 189.667 199.495 190.9 199.495 140.5Z" fill="#DE653D" stroke="#2A2A2D" stroke-width="5" stroke-linejoin="round"/>
<path d="M163.999 159C163.999 171.703 145.866 177.999 123.499 177.999C101.131 177.999 84.9987 170.203 84.9987 157.5C84.9987 144.797 102.131 133.5 124.499 133.5C146.866 133.5 163.999 146.297 163.999 159Z" fill="#FFBFA6"/>
<path d="M138 113C142.167 110.075 154.2 105.353 169 109.866" stroke="#FFBFA6" stroke-width="8" stroke-linecap="round" stroke-linejoin="bevel"/>
<path d="M113 114C109.237 111.075 98.3677 106.353 85 110.866" stroke="#FFBFA6" stroke-width="8" stroke-linecap="round" stroke-linejoin="bevel"/>
<ellipse cx="100.997" cy="129" rx="10" ry="12" transform="rotate(-12.2284 100.997 129)" fill="#2A2A2D"/>
<ellipse cx="10" cy="12" rx="10" ry="12" transform="matrix(-0.977311 -0.211809 -0.211809 0.977311 161.628 119.391)" fill="#2A2A2D"/>
<ellipse cx="2.86734" cy="3.98297" rx="2.86734" ry="3.98297" transform="matrix(-0.996195 -0.0871557 -0.0871557 0.996195 150.405 122.5)" fill="#F8F8FB"/>
<ellipse cx="102.202" cy="124.218" rx="2.86734" ry="3.98297" transform="rotate(-5 102.202 124.218)" fill="#F8F8FB"/>
<path d="M109.999 163C111.187 165.817 115.446 170.436 123.999 166.38C133.926 171.45 137.999 163 137.999 163" stroke="#2A2A2D" stroke-width="4" stroke-linecap="round" stroke-linejoin="bevel"/>
<path d="M123.499 149L123.499 166.5" stroke="#2A2A2D" stroke-width="4" stroke-linecap="round"/>
<path d="M138.999 148.5C138.999 152.642 132.283 159 123.999 159C115.714 159 108.999 152.642 108.999 148.5C108.999 144.358 115.714 143 123.999 143C132.283 143 138.999 144.358 138.999 148.5Z" fill="#2A2A2D"/>
<path d="M170.999 223C173.999 237 174.754 256.643 161.999 272" stroke="#2A2A2D" stroke-width="6" stroke-linecap="round" stroke-linejoin="bevel"/>
<path d="M78.7866 222.5C75.7947 232.562 76.661 251.95 87.9987 267" stroke="#2A2A2D" stroke-width="6" stroke-linecap="round" stroke-linejoin="bevel"/>
<path opacity="0.2" d="M150.498 189C207.298 185 203.165 134.333 193.998 109.5C191.999 146.5 174.999 166 158.998 176.5C143.196 186.87 79.4981 194 150.498 189Z" fill="#2A2A2D"/>
<path opacity="0.2" d="M186.999 265.5C199.399 239.9 181.832 201.5 171.499 185.5L186.999 178.5C208.599 211.3 208.332 248.167 205.499 262.5C194.165 274.167 174.599 291.1 186.999 265.5Z" fill="#2A2A2D"/>
<path opacity="0.4" d="M51.9957 250C50.829 239.167 61.5987 198.7 73.9987 187.5" stroke="#FFBFA6" stroke-width="6" stroke-linecap="round" stroke-linejoin="bevel"/>
<line x1="123" y1="115" x2="128" y2="115" stroke="#111111" stroke-width="6" stroke-linecap="round" stroke-linejoin="round"/>
<path d="M78.1378 117.133C78.0624 114.873 79.8742 113 82.1356 113H115.383C118.374 113 120.696 115.609 120.349 118.579L118.635 133.275C117.988 138.819 113.291 143 107.709 143H89.6394C83.707 143 78.8432 138.296 78.6455 132.366L78.1378 117.133Z" stroke="#111111" stroke-width="6" stroke-linecap="round" stroke-linejoin="round"/>
<path d="M172.862 117.133C172.938 114.873 171.126 113 168.864 113H135.617C132.626 113 130.304 115.609 130.651 118.579L132.365 133.275C133.012 138.819 137.709 143 143.291 143H161.361C167.293 143 172.157 138.296 172.354 132.366L172.862 117.133Z" stroke="#111111" stroke-width="6" stroke-linecap="round" stroke-linejoin="round"/>
</g>
<defs>
<clipPath id="clip0_5527_31628">
<rect width="256" height="256" fill="white"/>
</clipPath>
</defs>
</svg>
