<svg width="256" height="256" viewBox="0 0 256 256" fill="none" xmlns="http://www.w3.org/2000/svg">
<g clip-path="url(#clip0_5527_31178)">
<rect width="256" height="256" fill="#42C49F"/>
<path d="M77.2821 129.683C79.0452 129.423 114.361 112.427 131.798 103.961C135.018 103.245 133.607 107.783 130.977 110.387C128.872 112.47 93.3621 126.982 75.8702 133.978C81.871 133.719 94.2687 135.186 95.8528 143.128C97.833 153.056 98.7986 157.971 97.9189 173.654C97.2151 186.2 86.1991 193.357 80.7791 195.366C83.7408 186.929 88.252 167.282 82.6029 156.197C76.9538 145.112 79.066 170.065 80.8283 183.928C76.7999 211.644 58.3801 205.347 44.1605 212.531C32.7848 218.279 21.0876 215.891 16.661 213.979C18.3745 212.283 24.2105 206.571 33.8459 197.283C43.4814 187.995 43.8273 175.261 42.7959 170.055C40.0082 164.057 33.5653 156.711 30.095 175.318C25.7572 198.577 18.7059 204.568 10.726 208.721C2.7461 212.874 -13.2942 207.682 -12.9464 203.924C-12.5985 200.166 6.25678 200.476 6.45129 183.196C6.6458 165.916 -11.0713 188.649 -20.0873 194.236C-29.1033 199.823 -43.0047 190.333 -48.753 189.17C-53.3516 188.239 -53.4861 187.372 -52.9785 187.055C-49.18 168.136 -28.7024 162.283 -18.6679 162.678C-10.6403 162.993 -7.03067 159.996 -6.22928 158.458C-1.5562 149.345 -26.2047 154.93 -39.1131 158.861C-41.5796 160.148 -44.7605 159.796 -37.7524 148.096C-30.7443 136.395 -10.4348 139.839 -1.15605 143.024C7.12468 145.154 22.9411 147.411 19.9608 139.397C16.2355 129.38 -25.8419 133.457 -29.4759 133.715C-33.1099 133.972 -27.9615 124.936 -16.6031 117.376C-5.24467 109.816 9.44339 116.177 21.2902 121.119C33.1369 126.062 45.2995 142.806 41.2179 128.718C37.1363 114.631 8.33892 107.021 -1.37741 107.376C-9.15048 107.661 -7.75767 105.763 -6.08963 104.779C3.37943 99.3674 24.9332 89.3238 35.3959 92.4403C45.8586 95.5568 53.1674 109.871 55.5141 116.639C57.2857 119.184 61.5692 122.808 64.5303 116.94C68.2317 109.606 43.5894 93.0362 41.4711 90.6459C39.3528 88.2556 47.6498 84.6101 71.4462 95.9008C90.4833 104.933 83.2689 122.186 77.2821 129.683Z" fill="#118F6B"/>
<path d="M-2.54946 17.9708C-4.2063 17.3144 -43.2895 14.3879 -62.624 13.0068C-65.7711 12.0179 -62.2814 8.79259 -58.7015 7.85168C-55.8376 7.09894 -17.8272 12.2742 0.819987 14.9559C-4.5074 12.1817 -14.513 4.71547 -11.9161 -2.95547C-8.6701 -12.5441 -7.05008 -17.2844 1.54925 -30.4291C8.42871 -40.9448 21.5467 -41.6383 27.2458 -40.6705C20.4638 -34.8421 6.73817 -20.0789 6.09164 -7.65403C5.4451 4.77086 16.0857 -17.8991 21.4869 -30.7873C38.8269 -52.7813 51.6351 -38.1222 67.5419 -37.2389C80.2674 -36.5323 89.2062 -28.6188 92.0848 -24.7504C89.7533 -24.1381 81.8434 -22.1062 68.856 -18.8764C55.8685 -15.6466 49.2052 -4.78959 47.4971 0.235192C46.9141 6.82397 48.8242 16.4059 61.1285 2.02331C76.5089 -15.9549 85.6105 -17.6204 94.5979 -17.2299C103.585 -16.8393 114.885 -4.32638 112.705 -1.24535C110.526 1.83568 94.3486 -7.85468 85.545 7.01536C76.7413 21.8854 103.448 11.0487 114.049 10.7148C124.651 10.3809 131.949 25.5481 136.347 29.4285C139.865 32.5328 139.548 33.351 138.95 33.3721C126.206 47.8605 105.544 42.697 97.049 37.3408C90.2534 33.0559 85.6288 33.8483 84.166 34.7802C75.5647 40.3376 99.7054 47.818 112.851 50.8636C115.63 50.9818 118.21 52.8762 106.293 59.5085C94.3752 66.1409 78.5045 53.0087 72.0588 45.6135C65.9508 39.63 53.379 29.7709 51.9557 38.2016C50.1765 48.7401 88.6605 66.236 91.9369 67.829C95.2133 69.422 86.238 74.6764 72.6217 75.5485C59.0053 76.4205 49.4615 63.5709 41.6701 53.3693C33.8788 43.1677 31.711 22.5869 28.2066 36.8286C24.7022 51.0703 45.8427 72.0534 54.4365 76.601C61.3115 80.239 59.1567 81.1867 57.22 81.2058C46.3138 81.161 22.6253 79.0894 15.1201 71.1614C7.61499 63.2335 8.43757 47.1821 9.787 40.1475C9.52442 37.0575 7.62501 31.7781 2.12805 35.3805C-4.74314 39.8834 8.32085 66.5507 8.96117 69.6797C9.60149 72.8088 0.593012 71.8201 -14.3766 50.1485C-26.3522 32.8112 -11.4817 21.4728 -2.54946 17.9708Z" fill="#118F6B"/>
<path d="M264.739 95.7568C265.846 97.1533 298.236 119.219 314.293 130.078C316.525 132.507 311.891 133.557 308.32 132.583C305.463 131.804 275.125 108.326 260.314 96.6844C263.542 101.75 268.477 113.217 262.394 118.564C254.791 125.247 251.019 128.543 237.001 135.631C225.788 141.302 214.078 135.347 209.626 131.661C218.413 130.002 237.679 124.073 244.448 113.634C251.218 103.195 230.672 117.514 219.553 125.978C193.542 136.364 189.774 117.266 176.437 108.551C165.767 101.58 161.98 90.2584 161.419 85.4691C163.745 86.1039 171.612 88.2967 184.475 91.9894C197.339 95.6821 208.536 89.6078 212.526 86.1091C216.324 80.6934 219.458 71.4391 201.613 77.7482C179.306 85.6345 170.59 82.5287 163.001 77.6991C155.411 72.8695 151.877 56.3845 155.304 54.8048C158.732 53.225 167.902 69.7031 182.958 61.2225C198.015 52.7418 169.467 48.7822 160.117 43.7735C150.768 38.7648 152.025 21.98 150.155 16.4212C148.659 11.9742 149.343 11.4238 149.871 11.7045C168.15 5.5237 183.467 20.3218 188.148 29.2062C191.893 36.3138 196.295 37.9384 198.028 37.8623C208.255 37.3469 191.083 18.8036 181.219 9.59628C178.87 8.10498 177.583 5.17505 191.22 5.38572C204.857 5.5964 212.041 24.9024 213.929 34.529C216.229 42.7641 222.192 57.5865 227.638 50.9952C234.445 42.7562 209.854 8.36981 207.812 5.35267C205.771 2.33552 216.171 2.26949 228.401 8.3187C240.631 14.3679 242.476 30.2674 244.126 42.9974C245.777 55.7274 237.37 74.6373 247.522 64.0527C257.675 53.4682 249.849 24.7284 244.678 16.4948C240.541 9.9079 242.881 10.1638 244.568 11.1152C253.993 16.6041 273.476 30.2365 276.015 40.8541C278.554 51.4717 269.82 64.964 265.136 70.3829C263.819 73.1906 262.826 78.7127 269.387 78.3394C277.589 77.8729 279.6 48.2457 280.609 45.2153C281.618 42.185 288.927 47.5433 291.063 73.7955C292.772 94.7974 274.226 97.1871 264.739 95.7568Z" fill="#118F6B"/>
<path d="M130.512 220.48C128.734 220.607 92.249 234.92 74.2285 242.061C70.9638 242.535 72.7094 238.115 75.5271 235.715C77.7812 233.795 114.275 221.973 132.241 216.302C126.237 216.113 113.983 213.725 112.996 205.686C111.763 195.639 111.167 190.665 113.214 175.091C114.852 162.632 126.372 156.318 131.927 154.719C128.343 162.912 122.379 182.167 127.185 193.643C131.991 205.119 131.747 180.077 131.024 166.122C137.109 138.783 155.008 146.437 169.724 140.334C181.497 135.452 192.983 138.706 197.255 140.943C195.42 142.506 189.174 147.767 178.872 156.31C168.57 164.853 167.275 177.526 167.915 182.794C170.247 188.984 176.124 196.789 180.973 178.493C187.035 155.623 194.513 150.175 202.781 146.629C211.049 143.084 226.657 149.458 226.029 153.179C225.402 156.901 206.622 155.185 205.139 172.402C203.655 189.619 223.02 168.272 232.427 163.373C241.835 158.474 254.99 168.976 260.635 170.565C265.151 171.836 265.221 172.711 264.691 172.989C259.491 191.571 238.634 195.88 228.657 194.738C220.675 193.824 216.852 196.544 215.938 198.018C210.598 206.756 235.594 203.026 248.76 200.069C251.316 198.97 254.462 199.559 246.6 210.703C238.738 221.848 218.742 216.898 209.727 213.03C201.628 210.288 186.024 206.856 188.398 215.07C191.366 225.338 233.63 224.412 237.273 224.427C240.916 224.441 235.108 233.068 223.217 239.759C211.326 246.45 197.154 239.011 185.709 233.198C174.264 227.385 163.385 209.781 166.404 224.133C169.423 238.485 197.572 248.224 207.287 248.594C215.06 248.891 213.529 250.679 211.793 251.536C201.946 256.226 179.703 264.633 169.502 260.745C159.301 256.856 153.081 242.036 151.246 235.112C149.669 232.442 145.668 228.508 142.277 234.138C138.039 241.176 161.376 259.539 163.31 262.081C165.244 264.622 156.698 267.638 133.81 254.603C115.501 244.175 123.982 227.509 130.512 220.48Z" fill="#118F6B"/>
<path opacity="0.1" fill-rule="evenodd" clip-rule="evenodd" d="M157.995 74.5C177.495 77.1667 216.495 95.1 216.495 145.5C216.495 163.203 210.47 174.536 201.54 181.782C219.328 203.176 223.999 233.087 223.999 252.191C223.999 284.67 187.286 311 141.999 311C96.7114 311 59.9987 284.67 59.9987 252.191C59.9987 232.467 67.7431 201.226 87.4867 179.729C76.8448 171.595 70.0555 159.202 72.4948 140.5C78.4948 94.5 111.328 77.3333 126.995 74.5C129.495 70.1667 149.995 61 149.995 61C149.995 61 144.495 65 141.995 74.5C152.995 67.4991 160.995 67.4991 160.995 67.4991C156.995 72.0001 157.995 74.5 157.995 74.5Z" fill="#28282E"/>
<path d="M82.999 99.9998C71.575 109.584 69.7593 127.636 59.998 116C50.2366 104.364 48.574 74.0849 59.998 64.5011C71.422 54.9172 85.4247 62.012 95.186 73.6475C104.947 85.2831 94.423 90.416 82.999 99.9998Z" fill="#78553E" stroke="#2A2A2D" stroke-width="5" stroke-linejoin="round"/>
<path d="M175.948 101C187.372 110.584 189.187 128.636 198.949 117C208.71 105.364 210.373 75.0849 198.949 65.5011C187.525 55.9172 173.522 63.012 163.761 74.6475C153.999 86.2831 164.524 91.416 175.948 101Z" fill="#78553E" stroke="#2A2A2D" stroke-width="5" stroke-linejoin="round"/>
<path opacity="0.6" d="M79.5374 97.2065C71.4843 103.962 69.882 118.202 63.0009 109.999C56.1199 101.797 56.4452 78.755 64.4983 71.9991C72.5515 65.2431 87.1178 70.7976 93.9989 78.9998C100.88 87.2021 87.5906 90.4506 79.5374 97.2065Z" fill="#2A2A2D"/>
<path d="M83.5352 102.207C75.4821 108.963 73.8798 123.202 66.9987 115C60.1176 106.798 60.443 83.7556 68.4961 76.9996C76.5492 70.2436 85.2452 75.4282 92.1262 83.6305C99.0073 91.8328 91.5884 95.4511 83.5352 102.207Z" fill="#C58C67"/>
<path opacity="0.6" d="M176.413 98.2064C184.466 104.962 187.621 119.202 194.502 111C201.383 102.798 202.555 77.7554 194.502 70.9994C186.449 64.2434 174.38 71.2977 167.499 79.5C160.618 87.7023 168.36 91.4505 176.413 98.2064Z" fill="#2A2A2D"/>
<path d="M175.499 98C183.552 104.756 185.569 122.702 192.451 114.5C199.332 106.298 200.504 85.7556 192.451 78.9996C184.397 72.2436 175.701 77.4282 168.82 85.6305C161.939 93.8328 167.446 91.244 175.499 98Z" fill="#C58C67"/>
<path d="M206.999 247.191C206.999 279.67 170.286 306 124.999 306C79.7114 306 42.9987 279.67 42.9987 247.191C42.9987 214.712 63.9987 151 124.999 151C193.499 151 206.999 214.712 206.999 247.191Z" fill="#78553E" stroke="#2A2A2D" stroke-width="5" stroke-linejoin="round"/>
<ellipse cx="124.999" cy="232" rx="46" ry="60" fill="#C58C67"/>
<path d="M199.495 140.5C199.495 90.1 160.495 72.1667 140.995 69.5C140.995 69.5 139.995 67.0001 143.995 62.4991C143.995 62.4991 135.995 62.4991 124.995 69.5C127.495 60 132.995 56 132.995 56C132.995 56 112.495 65.1667 109.995 69.5C94.3281 72.3333 61.4948 89.5 55.4948 135.5C49.4948 181.5 99.3281 189.333 124.995 189.5C150.661 189.667 199.495 190.9 199.495 140.5Z" fill="#78553E" stroke="#2A2A2D" stroke-width="5" stroke-linejoin="round"/>
<path d="M163.999 159C163.999 171.703 145.866 177.999 123.499 177.999C101.131 177.999 84.9987 170.203 84.9987 157.5C84.9987 144.797 102.131 133.5 124.499 133.5C146.866 133.5 163.999 146.297 163.999 159Z" fill="#C58C67"/>
<path d="M137.999 115.977C142.165 111.311 154.199 103.777 168.999 110.977" stroke="#C58C67" stroke-width="8" stroke-linecap="round" stroke-linejoin="bevel"/>
<path d="M112.999 117C109.235 112.32 98.3665 104.766 84.9987 111.986" stroke="#C58C67" stroke-width="8" stroke-linecap="round" stroke-linejoin="bevel"/>
<ellipse cx="100.997" cy="129" rx="10" ry="12" transform="rotate(-12.2284 100.997 129)" fill="#2A2A2D"/>
<ellipse cx="10" cy="12" rx="10" ry="12" transform="matrix(-0.977311 -0.211809 -0.211809 0.977311 161.628 119.391)" fill="#2A2A2D"/>
<ellipse cx="2.86734" cy="3.98297" rx="2.86734" ry="3.98297" transform="matrix(-0.996195 -0.0871557 -0.0871557 0.996195 150.405 122.5)" fill="#F8F8FB"/>
<ellipse cx="102.202" cy="124.218" rx="2.86734" ry="3.98297" transform="rotate(-5 102.202 124.218)" fill="#F8F8FB"/>
<path d="M109.999 163C111.187 165.817 115.446 170.436 123.999 166.38C133.926 171.45 137.999 163 137.999 163" stroke="#2A2A2D" stroke-width="4" stroke-linecap="round" stroke-linejoin="bevel"/>
<path d="M123.499 149L123.499 166.5" stroke="#2A2A2D" stroke-width="4" stroke-linecap="round"/>
<path d="M138.999 148.5C138.999 152.642 132.283 159 123.999 159C115.714 159 108.999 152.642 108.999 148.5C108.999 144.358 115.714 143 123.999 143C132.283 143 138.999 144.358 138.999 148.5Z" fill="#2A2A2D"/>
<path d="M170.999 223C173.999 237 174.754 256.643 161.999 272" stroke="#2A2A2D" stroke-width="6" stroke-linecap="round" stroke-linejoin="bevel"/>
<path d="M78.7866 222.5C75.7947 232.562 76.6609 251.95 87.9987 267" stroke="#2A2A2D" stroke-width="6" stroke-linecap="round" stroke-linejoin="bevel"/>
<path opacity="0.6" d="M150.498 189C207.298 185 203.165 134.333 193.998 109.5C191.999 146.5 174.999 166 158.998 176.5C143.196 186.87 79.4981 194 150.498 189Z" fill="#2A2A2D"/>
<path opacity="0.6" d="M186.999 265.5C199.399 239.9 181.832 201.5 171.499 185.5L186.999 178.5C208.599 211.3 208.332 248.167 205.499 262.5C194.165 274.167 174.599 291.1 186.999 265.5Z" fill="#2A2A2D"/>
<path opacity="0.3" d="M51.9956 250C50.829 239.167 61.5987 198.7 73.9987 187.5" stroke="#C58C67" stroke-width="6" stroke-linecap="round" stroke-linejoin="bevel"/>
<path d="M121.538 178.875C114.842 177.908 114.563 171.623 115.261 168.602C120.84 167.393 132 165.701 132 168.602C132 172.227 129.907 180.083 121.538 178.875Z" fill="#E06493" stroke="#2A2A2D" stroke-width="4" stroke-linecap="round" stroke-linejoin="bevel"/>
<line x1="124" y1="119" x2="127" y2="119" stroke="#111111" stroke-width="8" stroke-linecap="round" stroke-linejoin="round"/>
<path d="M78.1378 117.133C78.0624 114.873 79.8742 113 82.1356 113H115.383C118.374 113 120.696 115.609 120.349 118.579L118.635 133.275C117.988 138.819 113.291 143 107.709 143H89.6394C83.707 143 78.8432 138.296 78.6455 132.366L78.1378 117.133Z" stroke="#111111" stroke-width="6" stroke-linecap="round" stroke-linejoin="round"/>
<path d="M172.862 117.133C172.938 114.873 171.126 113 168.864 113H135.617C132.626 113 130.304 115.609 130.651 118.579L132.365 133.275C133.012 138.819 137.709 143 143.291 143H161.361C167.293 143 172.157 138.296 172.354 132.366L172.862 117.133Z" stroke="#111111" stroke-width="6" stroke-linecap="round" stroke-linejoin="round"/>
</g>
<defs>
<clipPath id="clip0_5527_31178">
<rect width="256" height="256" fill="white"/>
</clipPath>
</defs>
</svg>
