<svg width="256" height="256" viewBox="0 0 256 256" fill="none" xmlns="http://www.w3.org/2000/svg">
<g clip-path="url(#clip0_5527_31459)">
<rect width="256" height="256" fill="#B285B4"/>
<path d="M82.999 99.9998C71.575 109.584 69.7593 127.636 59.998 116C50.2366 104.364 48.574 74.0849 59.998 64.5011C71.422 54.9172 85.4247 62.012 95.186 73.6475C104.947 85.2831 94.423 90.416 82.999 99.9998Z" fill="#C57541" stroke="#2A2A2D" stroke-width="5" stroke-linejoin="round"/>
<path d="M175.948 101C187.372 110.584 189.187 128.636 198.949 117C208.71 105.364 210.373 75.0849 198.949 65.5011C187.525 55.9172 173.522 63.012 163.761 74.6475C153.999 86.2831 164.524 91.416 175.948 101Z" fill="#C57541" stroke="#2A2A2D" stroke-width="5" stroke-linejoin="round"/>
<path opacity="0.6" d="M79.5374 97.2065C71.4843 103.962 69.882 118.202 63.0009 109.999C56.1199 101.797 56.4452 78.755 64.4983 71.9991C72.5515 65.2431 87.1178 70.7976 93.9989 78.9998C100.88 87.2021 87.5906 90.4506 79.5374 97.2065Z" fill="#2A2A2D"/>
<path d="M83.5352 102.207C75.4821 108.963 73.8798 123.202 66.9987 115C60.1176 106.798 60.443 83.7556 68.4961 76.9996C76.5492 70.2436 85.2452 75.4282 92.1262 83.6305C99.0073 91.8328 91.5884 95.4511 83.5352 102.207Z" fill="#E3A57D"/>
<path opacity="0.6" d="M176.413 98.2064C184.466 104.962 187.621 119.202 194.502 111C201.383 102.798 202.555 77.7554 194.502 70.9994C186.449 64.2434 174.38 71.2977 167.499 79.5C160.618 87.7023 168.36 91.4505 176.413 98.2064Z" fill="#2A2A2D"/>
<path d="M175.499 98C183.552 104.756 185.57 122.702 192.451 114.5C199.332 106.298 200.504 85.7556 192.451 78.9996C184.397 72.2436 175.702 77.4282 168.82 85.6305C161.939 93.8328 167.446 91.244 175.499 98Z" fill="#E3A57D"/>
<path d="M206.999 247.191C206.999 279.67 170.286 306 124.999 306C79.7114 306 42.9987 279.67 42.9987 247.191C42.9987 214.712 63.9987 151 124.999 151C193.499 151 206.999 214.712 206.999 247.191Z" fill="#C57541" stroke="#2A2A2D" stroke-width="5" stroke-linejoin="round"/>
<ellipse cx="124.999" cy="232" rx="46" ry="60" fill="#E3A57D"/>
<path d="M199.495 140.5C199.495 90.1 160.495 72.1667 140.995 69.5C140.995 69.5 139.995 67.0001 143.995 62.4991C143.995 62.4991 135.995 62.4991 124.995 69.5C127.495 60 132.995 56 132.995 56C132.995 56 112.495 65.1667 109.995 69.5C94.3282 72.3333 61.4949 89.5 55.4949 135.5C49.4949 181.5 99.3282 189.333 124.995 189.5C150.662 189.667 199.495 190.9 199.495 140.5Z" fill="#C57541" stroke="#2A2A2D" stroke-width="5" stroke-linejoin="round"/>
<path d="M163.999 159C163.999 171.703 145.866 177.999 123.499 177.999C101.131 177.999 84.9987 170.203 84.9987 157.5C84.9987 144.797 102.131 133.5 124.499 133.5C146.866 133.5 163.999 146.297 163.999 159Z" fill="#E3A57D"/>
<path d="M138 112C142.167 110.83 154.2 108.941 169 110.746" stroke="#E3A57D" stroke-width="8" stroke-linecap="round" stroke-linejoin="bevel"/>
<path d="M113 112C109.237 110.83 98.3677 108.941 85 110.746" stroke="#E3A57D" stroke-width="8" stroke-linecap="round" stroke-linejoin="bevel"/>
<ellipse cx="100.997" cy="129" rx="10" ry="12" transform="rotate(-12.2284 100.997 129)" fill="#2A2A2D"/>
<ellipse cx="10" cy="12" rx="10" ry="12" transform="matrix(-0.977311 -0.211809 -0.211809 0.977311 161.628 119.391)" fill="#2A2A2D"/>
<ellipse cx="2.86734" cy="3.98297" rx="2.86734" ry="3.98297" transform="matrix(-0.996195 -0.0871557 -0.0871557 0.996195 150.405 122.5)" fill="#F8F8FB"/>
<ellipse cx="102.202" cy="124.218" rx="2.86734" ry="3.98297" transform="rotate(-5 102.202 124.218)" fill="#F8F8FB"/>
<path d="M109.999 163C111.187 165.817 115.446 170.436 123.999 166.38C133.926 171.45 137.999 163 137.999 163" stroke="#2A2A2D" stroke-width="4" stroke-linecap="round" stroke-linejoin="bevel"/>
<path d="M123.499 149L123.499 166.5" stroke="#2A2A2D" stroke-width="4" stroke-linecap="round"/>
<path d="M138.999 148.5C138.999 152.642 132.283 159 123.999 159C115.714 159 108.999 152.642 108.999 148.5C108.999 144.358 115.714 143 123.999 143C132.283 143 138.999 144.358 138.999 148.5Z" fill="#2A2A2D"/>
<path d="M170.999 223C173.999 237 174.754 256.643 161.999 272" stroke="#2A2A2D" stroke-width="6" stroke-linecap="round" stroke-linejoin="bevel"/>
<path d="M78.7866 222.5C75.7947 232.562 76.6609 251.95 87.9987 267" stroke="#2A2A2D" stroke-width="6" stroke-linecap="round" stroke-linejoin="bevel"/>
<path opacity="0.6" d="M150.498 189C207.298 185 203.165 134.333 193.998 109.5C191.999 146.5 174.999 166 158.998 176.5C143.196 186.87 79.4981 194 150.498 189Z" fill="#2A2A2D"/>
<path opacity="0.6" d="M186.999 265.5C199.399 239.9 181.832 201.5 171.499 185.5L186.999 178.5C208.599 211.3 208.332 248.167 205.499 262.5C194.165 274.167 174.599 291.1 186.999 265.5Z" fill="#2A2A2D"/>
<path opacity="0.3" d="M51.9956 250C50.829 239.167 61.5987 198.7 73.9987 187.5" stroke="#E3A57D" stroke-width="6" stroke-linecap="round" stroke-linejoin="bevel"/>
<path d="M101.465 189.02C103.419 188.701 115.302 192.341 121 194.201L121 198.186C115.884 201.374 105.023 207.592 102.512 206.954C100.531 206.452 96.2521 202.942 93.1624 200.178C91.9449 199.088 91.8803 197.221 93.0178 196.048C95.9364 193.039 99.9183 189.272 101.465 189.02Z" fill="#523B60" stroke="#1A1A1C" stroke-width="4" stroke-linecap="round" stroke-linejoin="bevel"/>
<path d="M147.535 189.02C145.581 188.701 133.698 192.341 128 194.201L128 198.186C133.116 201.374 143.977 207.592 146.488 206.954C148.469 206.452 152.748 202.942 155.838 200.178C157.055 199.088 157.12 197.221 155.982 196.048C153.064 193.039 149.082 189.272 147.535 189.02Z" fill="#523B60" stroke="#1A1A1C" stroke-width="4" stroke-linecap="round" stroke-linejoin="bevel"/>
<path d="M116.342 194.031C115.664 191.491 117.578 189 120.206 189H127.794C130.422 189 132.336 191.491 131.658 194.031L129.792 201.031C129.325 202.782 127.739 204 125.927 204H122.073C120.261 204 118.675 202.782 118.208 201.031L116.342 194.031Z" fill="#523B60"/>
<path d="M133 193C132.636 195.913 131.255 201.915 128.636 202.614C126.018 203.313 122.455 202.905 121 202.614" stroke="#1A1A1C" stroke-width="4" stroke-linecap="round"/>
</g>
<defs>
<clipPath id="clip0_5527_31459">
<rect width="256" height="256" fill="white"/>
</clipPath>
</defs>
</svg>
