<svg width="256" height="256" viewBox="0 0 256 256" fill="none" xmlns="http://www.w3.org/2000/svg">
<g clip-path="url(#clip0_5527_31241)">
<rect width="256" height="256" fill="#ABD0E2"/>
<path opacity="0.05" fill-rule="evenodd" clip-rule="evenodd" d="M157.995 74.5C177.495 77.1667 216.495 95.1 216.495 145.5C216.495 163.203 210.47 174.536 201.54 181.782C219.328 203.176 223.999 233.087 223.999 252.191C223.999 284.67 187.286 311 141.999 311C96.7114 311 59.9987 284.67 59.9987 252.191C59.9987 232.467 67.7431 201.226 87.4867 179.729C76.8448 171.595 70.0555 159.202 72.4948 140.5C78.4948 94.5 111.328 77.3333 126.995 74.5C129.495 70.1667 149.995 61 149.995 61C149.995 61 144.495 65 141.995 74.5C152.995 67.4991 160.995 67.4991 160.995 67.4991C156.995 72.0001 157.995 74.5 157.995 74.5Z" fill="#111111"/>
<path d="M82.999 99.9998C71.575 109.584 69.7593 127.636 59.998 116C50.2366 104.364 48.574 74.0849 59.998 64.5011C71.422 54.9172 85.4247 62.012 95.186 73.6475C104.947 85.2831 94.423 90.416 82.999 99.9998Z" fill="#78553E" stroke="#2A2A2D" stroke-width="5" stroke-linejoin="round"/>
<path d="M175.948 101C187.372 110.584 189.187 128.636 198.949 117C208.71 105.364 210.373 75.0849 198.949 65.5011C187.525 55.9172 173.522 63.012 163.761 74.6475C153.999 86.2831 164.524 91.416 175.948 101Z" fill="#78553E" stroke="#2A2A2D" stroke-width="5" stroke-linejoin="round"/>
<path opacity="0.6" d="M79.5374 97.2065C71.4843 103.962 69.882 118.202 63.0009 109.999C56.1199 101.797 56.4452 78.755 64.4983 71.9991C72.5515 65.2431 87.1178 70.7976 93.9989 78.9998C100.88 87.2021 87.5906 90.4506 79.5374 97.2065Z" fill="#2A2A2D"/>
<path d="M83.5352 102.207C75.4821 108.963 73.8798 123.202 66.9987 115C60.1176 106.798 60.443 83.7556 68.4961 76.9996C76.5492 70.2436 85.2452 75.4282 92.1262 83.6305C99.0073 91.8328 91.5884 95.4511 83.5352 102.207Z" fill="#C58C67"/>
<path opacity="0.6" d="M176.413 98.2064C184.466 104.962 187.621 119.202 194.502 111C201.383 102.798 202.555 77.7554 194.502 70.9994C186.449 64.2434 174.38 71.2977 167.499 79.5C160.618 87.7023 168.36 91.4505 176.413 98.2064Z" fill="#2A2A2D"/>
<path d="M175.499 98C183.552 104.756 185.569 122.702 192.451 114.5C199.332 106.298 200.504 85.7556 192.451 78.9996C184.397 72.2436 175.701 77.4282 168.82 85.6305C161.939 93.8328 167.446 91.244 175.499 98Z" fill="#C58C67"/>
<path d="M206.999 247.191C206.999 279.67 170.286 306 124.999 306C79.7114 306 42.9987 279.67 42.9987 247.191C42.9987 214.712 63.9987 151 124.999 151C193.499 151 206.999 214.712 206.999 247.191Z" fill="#78553E" stroke="#2A2A2D" stroke-width="5" stroke-linejoin="round"/>
<ellipse cx="124.999" cy="232" rx="46" ry="60" fill="#C58C67"/>
<path d="M199 140.5C199 90.1 160 72.1667 140.5 69.5C140.5 69.5 139.5 67.0001 143.5 62.4991C143.5 62.4991 135.5 62.4991 124.5 69.5C127 60 132.5 56 132.5 56C132.5 56 112 65.1667 109.5 69.5C93.8333 72.3333 61 89.5 55 135.5C49 181.5 98.8333 189.333 124.5 189.5C150.167 189.667 199 190.9 199 140.5Z" fill="#78553E" stroke="#2A2A2D" stroke-width="5" stroke-linejoin="round"/>
<path d="M166 159C166 171.703 147.868 177.999 125.5 177.999C103.132 177.999 87 170.203 87 157.5C87 144.797 104.132 133.5 126.5 133.5C148.868 133.5 166 146.297 166 159Z" fill="#C58C67"/>
<path d="M138 110C142.167 108.83 154.2 106.941 169 108.746" stroke="#C58C67" stroke-width="8" stroke-linecap="round" stroke-linejoin="bevel"/>
<path d="M113 110C109.237 108.83 98.3677 106.941 85 108.746" stroke="#C58C67" stroke-width="8" stroke-linecap="round" stroke-linejoin="bevel"/>
<ellipse cx="100.997" cy="129" rx="10" ry="12" transform="rotate(-12.2284 100.997 129)" fill="#111111"/>
<ellipse cx="10" cy="12" rx="10" ry="12" transform="matrix(-0.977311 -0.211809 -0.211809 0.977311 161.628 119.391)" fill="#111111"/>
<ellipse cx="2.86734" cy="3.98297" rx="2.86734" ry="3.98297" transform="matrix(-0.996195 -0.0871557 -0.0871557 0.996195 150.405 122.5)" fill="#F8F8FB"/>
<ellipse cx="102.202" cy="124.218" rx="2.86734" ry="3.98297" transform="rotate(-5 102.202 124.218)" fill="#F8F8FB"/>
<path d="M170.999 223C173.999 237 174.754 256.643 161.999 272" stroke="#111111" stroke-width="6" stroke-linecap="round" stroke-linejoin="bevel"/>
<path d="M78.7866 222.5C75.7947 232.562 76.6609 251.95 87.9987 267" stroke="#111111" stroke-width="6" stroke-linecap="round" stroke-linejoin="bevel"/>
<path opacity="0.1" d="M150.498 189C207.298 185 203.165 134.333 193.998 109.5C191.999 146.5 174.999 166 158.998 176.5C143.196 186.87 79.4981 194 150.498 189Z" fill="#111111"/>
<path opacity="0.3" d="M186.999 265.5C199.399 239.9 181.832 201.5 171.499 185.5L186.999 178.5C208.599 211.3 208.332 248.167 205.499 262.5C194.165 274.167 174.599 291.1 186.999 265.5Z" fill="#2A2A2D"/>
<path opacity="0.3" d="M51.9956 250C50.829 239.167 61.5987 198.7 73.9987 187.5" stroke="#C58C67" stroke-width="6" stroke-linecap="round" stroke-linejoin="bevel"/>
<path d="M127 148L127 165.5" stroke="#111111" stroke-width="4" stroke-linecap="round"/>
<path d="M142 147.5C142 151.642 135.284 158 127 158C118.716 158 112 151.642 112 147.5C112 143.358 118.716 142 127 142C135.284 142 142 143.358 142 147.5Z" fill="#111111"/>
<path d="M67.1649 117.139C67.6348 104.599 77.3518 94.5024 89.8399 93.273C101.493 92.1259 115.786 91 127 91C138.214 91 152.507 92.1259 164.16 93.273C176.648 94.5024 186.365 104.599 186.835 117.139C186.936 119.836 187 122.475 187 124.839C187 129.342 186.769 133.603 186.489 137.111C186.055 142.549 182.035 146.906 176.724 148.153L159.756 152.136C154.714 153.319 149.408 152.246 145.223 149.196L132.235 139.731C129.115 137.458 124.885 137.458 121.765 139.731L108.777 149.196C104.592 152.246 99.2855 153.319 94.2441 152.136L77.2762 148.153C71.9652 146.906 67.9447 142.549 67.511 137.111C67.2312 133.603 67 129.342 67 124.839C67 122.475 67.0638 119.836 67.1649 117.139Z" fill="url(#paint0_linear_5527_31241)"/>
<path d="M71.1621 117.289C71.5554 106.795 79.6871 98.2918 90.2318 97.2538C101.86 96.1091 115.992 95 127 95C138.008 95 152.14 96.1091 163.768 97.2538C174.313 98.2918 182.445 106.795 182.838 117.289C182.938 119.956 183 122.541 183 124.839C183 129.21 182.775 133.362 182.502 136.793C182.217 140.366 179.56 143.378 175.81 144.259L158.842 148.242C154.935 149.159 150.822 148.327 147.579 145.963L134.591 136.498C130.067 133.202 123.933 133.202 119.409 136.498L106.421 145.963C103.178 148.327 99.0653 149.159 95.1583 148.242L78.1903 144.259C74.4398 143.378 71.7833 140.366 71.4983 136.793C71.2247 133.362 71 129.21 71 124.839C71 122.541 71.0621 119.956 71.1621 117.289Z" stroke="black" stroke-opacity="0.1" stroke-width="8"/>
<path d="M35.5 108C30.2533 108 26 103.457 26 99.7368C26 96.0162 30.2533 92 35.5 92C40.7467 92 44 96.0162 44 99.7368C44 103.457 40.7467 108 35.5 108Z" fill="white"/>
<path d="M35.5 36C30.2533 36 26 31.4575 26 27.7368C26 24.0162 30.2533 20 35.5 20C40.7467 20 44 24.0162 44 27.7368C44 31.4575 40.7467 36 35.5 36Z" fill="white"/>
<path d="M73 40.5C73 45.7467 67.4575 50 63.7368 50C60.0162 50 57 45.7467 57 40.5C57 35.2533 60.0162 31 63.7368 31C67.4575 31 73 35.2533 73 40.5Z" fill="white"/>
<path d="M119 37.5C119 41.0899 114.843 44 112.053 44C109.262 44 107 41.0899 107 37.5C107 33.9101 109.262 31 112.053 31C114.843 31 119 33.9101 119 37.5Z" fill="white"/>
<path d="M136 13.5C136 18.7467 130.457 23 126.737 23C123.016 23 120 18.7467 120 13.5C120 8.25329 123.016 4 126.737 4C130.457 4 136 8.25329 136 13.5Z" fill="white"/>
<path d="M162 60C157.582 60 154 54.4575 154 50.7368C154 47.0162 157.582 44 162 44C166.418 44 170 47.0162 170 50.7368C170 54.4575 166.418 60 162 60Z" fill="white"/>
<path d="M190 16C190 11.5817 195.543 8 199.263 8C202.984 8 206 11.5817 206 16C206 20.4183 202.984 24 199.263 24C195.543 24 190 20.4183 190 16Z" fill="white"/>
<path d="M236 20C240.418 20 244 25.5425 244 29.2632C244 32.9838 240.418 36 236 36C231.582 36 228 32.9838 228 29.2632C228 25.5425 231.582 20 236 20Z" fill="white"/>
<path d="M246 242C246 246.418 240.457 250 236.737 250C233.016 250 230 246.418 230 242C230 237.582 233.016 234 236.737 234C240.457 234 246 237.582 246 242Z" fill="white"/>
<path d="M220 46.5C220 51.7467 214.457 56 210.737 56C207.016 56 204 51.7467 204 46.5C204 41.2533 207.016 37 210.737 37C214.457 37 220 41.2533 220 46.5Z" fill="white"/>
<path d="M228.5 64C223.253 64 219 69.5425 219 73.2632C219 76.9838 223.253 80 228.5 80C233.747 80 238 76.9838 238 73.2632C238 69.5425 233.747 64 228.5 64Z" fill="white"/>
<path d="M223 123.5C223 128.747 217.457 133 213.737 133C210.016 133 207 128.747 207 123.5C207 118.253 210.016 114 213.737 114C217.457 114 223 118.253 223 123.5Z" fill="white"/>
<path d="M233 166.5C233 171.747 227.457 176 223.737 176C220.016 176 217 171.747 217 166.5C217 161.253 220.016 157 223.737 157C227.457 157 233 161.253 233 166.5Z" fill="white"/>
<path d="M241 138.5C241 142.09 236.843 145 234.053 145C231.262 145 229 142.09 229 138.5C229 134.91 231.262 132 234.053 132C236.843 132 241 134.91 241 138.5Z" fill="white"/>
<path d="M237.5 198C233.91 198 231 193.843 231 191.053C231 188.262 233.91 186 237.5 186C241.09 186 244 188.262 244 191.053C244 193.843 241.09 198 237.5 198Z" fill="white"/>
<path d="M48 135.5C48 139.09 43.8431 142 41.0526 142C38.2621 142 36 139.09 36 135.5C36 131.91 38.2621 129 41.0526 129C43.8431 129 48 131.91 48 135.5Z" fill="white"/>
<path d="M21 215.5C21 219.09 16.8431 222 14.0526 222C11.2621 222 9 219.09 9 215.5C9 211.91 11.2621 209 14.0526 209C16.8431 209 21 211.91 21 215.5Z" fill="white"/>
<path d="M35 203.5C35 201.015 38.1177 199 40.2105 199C42.3034 199 44 201.015 44 203.5C44 205.985 42.3034 208 40.2105 208C38.1177 208 35 205.985 35 203.5Z" fill="white"/>
<path d="M7 153.5C7 151.015 10.1177 149 12.2105 149C14.3034 149 16 151.015 16 153.5C16 155.985 14.3034 158 12.2105 158C10.1177 158 7 155.985 7 153.5Z" fill="white"/>
<path d="M21 239.5C21 237.015 24.1177 235 26.2105 235C28.3034 235 30 237.015 30 239.5C30 241.985 28.3034 244 26.2105 244C24.1177 244 21 241.985 21 239.5Z" fill="white"/>
<path d="M89 53.5C89 51.0147 92.1177 49 94.2105 49C96.3034 49 98 51.0147 98 53.5C98 55.9853 96.3034 58 94.2105 58C92.1177 58 89 55.9853 89 53.5Z" fill="white"/>
<path d="M155 13.5C155 11.0147 158.118 9 160.211 9C162.303 9 164 11.0147 164 13.5C164 15.9853 162.303 18 160.211 18C158.118 18 155 15.9853 155 13.5Z" fill="white"/>
<path d="M205 187.5C205 185.015 208.118 183 210.211 183C212.303 183 214 185.015 214 187.5C214 189.985 212.303 192 210.211 192C208.118 192 205 189.985 205 187.5Z" fill="white"/>
<path d="M134 36.5C134 34.0147 137.118 32 139.211 32C141.303 32 143 34.0147 143 36.5C143 38.9853 141.303 41 139.211 41C137.118 41 134 38.9853 134 36.5Z" fill="white"/>
<path d="M175 36.5C175 34.0147 178.118 32 180.211 32C182.303 32 184 34.0147 184 36.5C184 38.9853 182.303 41 180.211 41C178.118 41 175 38.9853 175 36.5Z" fill="white"/>
<path d="M224 103.5C224 101.015 227.118 99 229.211 99C231.303 99 233 101.015 233 103.5C233 105.985 231.303 108 229.211 108C227.118 108 224 105.985 224 103.5Z" fill="white"/>
<path d="M88.5 15C90.9853 15 93 18.1177 93 20.2105C93 22.3034 90.9853 24 88.5 24C86.0147 24 84 22.3034 84 20.2105C84 18.1177 86.0147 15 88.5 15Z" fill="white"/>
<path d="M42 63.5C42 65.9853 38.8823 68 36.7895 68C34.6966 68 33 65.9853 33 63.5C33 61.0147 34.6966 59 36.7895 59C38.8823 59 42 61.0147 42 63.5Z" fill="white"/>
<path d="M214 212C214 207.029 218.85 203 222.105 203C225.361 203 228 207.029 228 212C228 216.971 225.361 221 222.105 221C218.85 221 214 216.971 214 212Z" fill="white"/>
<path d="M43 172.5C43 177.747 37.4575 182 33.7368 182C30.0162 182 27 177.747 27 172.5C27 167.253 30.0162 163 33.7368 163C37.4575 163 43 167.253 43 172.5Z" fill="white"/>
<path d="M19 129.5C19 133.09 14.8431 136 12.0526 136C9.26214 136 7 133.09 7 129.5C7 125.91 9.26214 123 12.0526 123C14.8431 123 19 125.91 19 129.5Z" fill="white"/>
<path d="M11 51.5C11 47.9101 15.1569 45 17.9474 45C20.7379 45 23 47.9101 23 51.5C23 55.0899 20.7379 58 17.9474 58C15.1569 58 11 55.0899 11 51.5Z" fill="white"/>
</g>
<defs>
<linearGradient id="paint0_linear_5527_31241" x1="187" y1="122.5" x2="67" y2="122.5" gradientUnits="userSpaceOnUse">
<stop stop-color="#FFB832"/>
<stop offset="0.25" stop-color="#C1012E"/>
<stop offset="0.5" stop-color="#7A0334"/>
<stop offset="0.75" stop-color="#C1012E"/>
<stop offset="1" stop-color="#FFB832"/>
</linearGradient>
<clipPath id="clip0_5527_31241">
<rect width="256" height="256" fill="white"/>
</clipPath>
</defs>
</svg>
