<svg width="256" height="256" viewBox="0 0 256 256" fill="none" xmlns="http://www.w3.org/2000/svg">
<g clip-path="url(#clip0_5527_31943)">
<rect width="256" height="256" fill="#FBF5EC"/>
<g opacity="0.1">
<path d="M9.50166 235C4.00166 215.667 -2.30184 184.5 20.5017 184.5C42.0017 184.5 49.0017 235 70.0017 228C90.7481 221.084 70.335 187.5 60.0017 176" stroke="#28282E" stroke-width="12" stroke-linecap="round" stroke-linejoin="round"/>
<path d="M23.5 219C47 275.5 101.097 252.154 106.5 230C111.5 209.5 85.5 190.5 106.5 183.5C127.246 176.584 145 232 127 250" stroke="#28282E" stroke-width="12" stroke-linecap="round" stroke-linejoin="round"/>
<path d="M223.5 226C223.5 226 182 228.625 182 203.5C182 183 195.5 183 227 179C258.5 175 260.001 146.5 263 125" stroke="#28282E" stroke-width="12" stroke-linecap="round" stroke-linejoin="round"/>
<path d="M208.5 204C224.167 206.167 238.1 207.2 254.5 202" stroke="#28282E" stroke-width="12" stroke-linecap="round" stroke-linejoin="round"/>
<path d="M156.498 184C152.165 198.5 153.498 255 218.998 253.5" stroke="#28282E" stroke-width="12" stroke-linecap="round" stroke-linejoin="round"/>
<path d="M43.5 37.9996C67 94.4996 121.097 71.1541 126.5 49C131.5 28.5 105.5 9.50017 126.5 2.5C147.246 -4.41565 165 50.9996 147 69" stroke="#28282E" stroke-width="12" stroke-linecap="round" stroke-linejoin="round"/>
<path d="M179.5 76.5002C192 70.3335 223.1 65.4002 247.5 95.0002" stroke="#28282E" stroke-width="12" stroke-linecap="round" stroke-linejoin="round"/>
<path d="M253.999 41.5C239.166 44 218.599 53.8 254.999 73C291.399 92.2 290.166 113.667 284.999 122" stroke="#28282E" stroke-width="12" stroke-linecap="round" stroke-linejoin="round"/>
<path d="M100.501 37.5C88.1675 24.3333 77.1009 -6.8 95.5009 -16" stroke="#28282E" stroke-width="12" stroke-linecap="round" stroke-linejoin="round"/>
<path d="M75 43.5005C49.5 6.00049 36 9.50089 27 15.5004C9.80533 26.9627 21.1667 51.5007 33.5 66.0007C40.7299 74.5007 45 94.0005 13 74.5007" stroke="#28282E" stroke-width="12" stroke-linecap="round" stroke-linejoin="round"/>
<path d="M190.501 150.5C210.001 162.499 232.999 159 238.324 147.886C247.253 129.25 214.414 120.348 195.379 120.533C184.22 120.64 162.5 83 226 102" stroke="#28282E" stroke-width="12" stroke-linecap="round" stroke-linejoin="round"/>
<path d="M10.4988 163.5C0.165462 151.667 -14.8012 121.9 7.9988 97.5" stroke="#28282E" stroke-width="12" stroke-linecap="round" stroke-linejoin="round"/>
<path d="M41.5 161.5C28.5 153 12.2988 141.101 31.4988 139.501C91.501 134.5 82.501 85.9996 45.501 95.9996C15.901 104 7.99988 128 31.4984 121.5" stroke="#28282E" stroke-width="12" stroke-linecap="round" stroke-linejoin="round"/>
<path d="M172.999 -7.5C172.499 11.1667 174.226 47.1761 193.999 48C217.999 49 220.499 13.5 253.999 19" stroke="#28282E" stroke-width="12" stroke-linecap="round" stroke-linejoin="round"/>
<path d="M196.5 24.501C197.5 21.501 199 0.500967 227.5 1.00097" stroke="#28282E" stroke-width="12" stroke-linecap="round" stroke-linejoin="round"/>
</g>
<path d="M85.0029 102C73.5789 111.584 71.7632 129.636 62.0019 118C52.2405 106.364 50.5779 76.0849 62.0019 66.5011C73.4259 56.9172 87.4286 64.012 97.1899 75.6475C106.951 87.2831 96.4269 92.416 85.0029 102Z" fill="#3F3F45" stroke="#1A1A1C" stroke-width="5" stroke-linejoin="round"/>
<path d="M173.945 105C185.369 114.584 187.185 132.636 196.946 121C206.707 109.364 208.37 79.0849 196.946 69.5011C185.522 59.9172 171.519 67.012 161.758 78.6475C151.997 90.2831 162.521 95.416 173.945 105Z" fill="#3F3F45" stroke="#1A1A1C" stroke-width="5" stroke-linejoin="round"/>
<path opacity="0.6" d="M81.5414 99.2065C73.4882 105.962 71.8859 120.202 65.0049 111.999C58.1238 103.797 58.4491 80.755 66.5023 73.9991C74.5554 67.2431 89.1218 72.7976 96.0028 80.9998C102.884 89.2021 89.5945 92.4506 81.5414 99.2065Z" fill="#1A1A1C"/>
<path d="M84.5404 102.207C76.4873 108.963 74.885 123.202 68.0039 115C61.1228 106.798 61.4482 83.7556 69.5013 76.9996C77.5544 70.2436 86.2504 75.4282 93.1314 83.6305C100.013 91.8328 92.5935 95.4511 84.5404 102.207Z" fill="#9999A8"/>
<path opacity="0.6" d="M174.411 102.206C182.464 108.962 185.618 123.202 192.499 115C199.38 106.798 200.552 81.7554 192.499 74.9994C184.446 68.2434 172.377 75.2977 165.496 83.5C158.615 91.7023 166.357 95.4505 174.411 102.206Z" fill="#1A1A1C"/>
<path d="M174.496 98C182.549 104.756 184.567 122.702 191.448 114.5C198.329 106.298 199.501 85.7556 191.448 78.9996C183.395 72.2436 174.699 77.4282 167.818 85.6305C160.937 93.8328 166.443 91.244 174.496 98Z" fill="#9999A8"/>
<path d="M206.998 247.191C206.998 279.67 170.285 306 124.998 306C79.7102 306 42.9976 279.67 42.9976 247.191C42.9976 214.712 63.9976 151 124.998 151C193.498 151 206.998 214.712 206.998 247.191Z" fill="#3F3F45" stroke="#1A1A1C" stroke-width="5" stroke-linejoin="round"/>
<ellipse cx="124.998" cy="232" rx="46" ry="60" fill="#5D5D66"/>
<path d="M199.494 140.5C199.494 90.1 160.494 72.1667 140.994 69.5C140.994 69.5 139.994 67.0001 143.994 62.4991C143.994 62.4991 135.994 62.4991 124.994 69.5C127.494 60 132.994 56 132.994 56C132.994 56 112.494 65.1667 109.994 69.5C94.327 72.3333 61.4937 89.5 55.4937 135.5C49.4937 181.5 99.327 189.333 124.994 189.5C150.66 189.667 199.494 190.9 199.494 140.5Z" fill="#F6F6F6" stroke="#1A1A1C" stroke-width="5" stroke-linejoin="round"/>
<path opacity="0.1" d="M164.996 159C164.996 171.703 146.864 177.999 124.496 177.999C102.129 177.999 85.9961 170.203 85.9961 157.5C85.9961 144.797 103.129 133.5 125.496 133.5C147.864 133.5 164.996 146.297 164.996 159Z" fill="#28282E"/>
<path d="M137.996 110C142.163 108.83 154.196 106.941 168.996 108.746" stroke="#28282E" stroke-width="8" stroke-linecap="round" stroke-linejoin="bevel"/>
<path d="M112.996 110C109.233 108.83 98.3638 106.941 84.9961 108.746" stroke="#28282E" stroke-width="8" stroke-linecap="round" stroke-linejoin="bevel"/>
<path d="M116.993 126.194C118.838 134.708 112.875 143.226 103.674 145.221C94.4721 147.215 84.5171 138.929 82.6719 130.416C80.8268 121.902 87.7901 116.383 96.9915 114.389C106.193 112.395 115.148 117.68 116.993 126.194Z" fill="#5D5D66"/>
<ellipse cx="100.996" cy="129" rx="10" ry="12" transform="rotate(-12.2284 100.996 129)" fill="#1A1A1C"/>
<path d="M136.338 126.194C134.493 134.708 140.456 143.226 149.657 145.221C158.859 147.215 168.814 138.929 170.659 130.416C172.504 121.902 165.541 116.383 156.339 114.389C147.138 112.395 138.183 117.68 136.338 126.194Z" fill="#5D5D66"/>
<ellipse cx="10" cy="12" rx="10" ry="12" transform="matrix(-0.977311 -0.211809 -0.211809 0.977311 161.626 119.391)" fill="#1A1A1C"/>
<ellipse cx="2.86734" cy="3.98297" rx="2.86734" ry="3.98297" transform="matrix(-0.996195 -0.0871557 -0.0871557 0.996195 150.404 122.5)" fill="#F8F8FB"/>
<ellipse cx="102.201" cy="124.218" rx="2.86734" ry="3.98297" transform="rotate(-5 102.201 124.218)" fill="#F8F8FB"/>
<path d="M110.996 162C112.184 164.817 116.443 172.436 124.996 168.38C134.923 173.45 138.996 162 138.996 162" stroke="#1A1A1C" stroke-width="4" stroke-linecap="round" stroke-linejoin="bevel"/>
<path d="M124.496 149L124.496 166.5" stroke="#1A1A1C" stroke-width="4" stroke-linecap="round"/>
<path d="M139.996 148.5C139.996 152.642 133.28 159 124.996 159C116.712 159 109.996 152.642 109.996 148.5C109.996 144.358 116.712 143 124.996 143C133.28 143 139.996 144.358 139.996 148.5Z" fill="#1A1A1C"/>
<path d="M170.998 223C173.998 237 174.753 256.643 161.998 272" stroke="#1A1A1C" stroke-width="6" stroke-linecap="round" stroke-linejoin="bevel"/>
<path d="M78.7855 222.5C75.7935 232.562 76.6598 251.95 87.9976 267" stroke="#1A1A1C" stroke-width="6" stroke-linecap="round" stroke-linejoin="bevel"/>
<path opacity="0.1" d="M150.497 189C207.297 185 203.164 134.333 193.997 109.5C191.998 146.5 174.998 166 158.997 176.5C143.195 186.87 79.4969 194 150.497 189Z" fill="#28282E"/>
<path opacity="0.6" d="M186.998 265.5C199.398 239.9 181.831 201.5 171.498 185.5L186.998 178.5C208.598 211.3 208.331 248.167 205.498 262.5C194.164 274.167 174.598 291.1 186.998 265.5Z" fill="#1A1A1C"/>
<path d="M51.9945 250C50.8278 239.167 61.5976 198.7 73.9976 187.5" stroke="#5D5D66" stroke-width="6" stroke-linecap="round" stroke-linejoin="bevel"/>
</g>
<defs>
<clipPath id="clip0_5527_31943">
<rect width="256" height="256" fill="white"/>
</clipPath>
</defs>
</svg>
