<svg width="256" height="256" viewBox="0 0 256 256" fill="none" xmlns="http://www.w3.org/2000/svg">
<g clip-path="url(#clip0_5900_31690)">
<rect width="256" height="256" fill="#C5DEB1"/>
<path d="M189.943 55.2587C196.363 98.4327 167.554 96.9152 153.15 93.409L152.684 93.2554C140.027 89.0787 116.04 81.1638 110.72 71.1149C105.334 60.9415 113.799 39.6635 119.644 31.7089C113.851 18.2596 105.459 -9.07871 118.235 -10.8371C134.205 -13.035 138.589 7.53126 146.261 19.1494C154.715 16.951 165.675 20.1437 170.998 20.7194C174.86 6.48498 198.555 -10.8371 205.757 3.4497C216.873 20.7194 196.363 44.1117 189.943 55.2587Z" fill="#FAAF5E" stroke="#1A1A1C" stroke-width="5" stroke-linejoin="round"/>
<path d="M159 50C157.5 39.5 164 22 164 22L157.5 20.5H152C151.333 29.5 151.1 45.9 139.5 51.5C127.9 57.1 124.5 78 125 86C140.5 87.6667 171.8 87.9 173 75.5C174.5 60 160.5 60.5 159 50Z" fill="white"/>
<ellipse cx="7.28594" cy="7.53417" rx="7.28594" ry="7.53417" transform="matrix(0.991171 0.13259 -0.179916 0.983682 130.128 34.6289)" fill="#1A1A1C"/>
<path d="M150.257 57.835L147.231 69.4474" stroke="#1A1A1C" stroke-width="4" stroke-linecap="round"/>
<path d="M159.989 60.1443C159.271 62.9 153.836 66.0012 148.492 64.609C143.147 63.2167 139.917 57.8582 140.635 55.1025C141.352 52.3467 145.92 52.572 151.265 53.9642C156.609 55.3565 160.707 57.3885 159.989 60.1443Z" fill="#1A1A1C"/>
<ellipse cx="7.15797" cy="7.70879" rx="7.15797" ry="7.70879" transform="matrix(-0.939975 -0.341244 -0.444605 0.895727 180.843 44.1885)" fill="#1A1A1C"/>
<ellipse cx="2.09586" cy="2.91132" rx="2.09586" ry="2.91132" transform="matrix(-0.962348 -0.271821 -0.271821 0.962348 172.36 44.5088)" fill="#F8F8FB"/>
<ellipse cx="138.512" cy="41.1562" rx="2.09586" ry="2.91132" transform="rotate(5.77263 138.512 41.1562)" fill="#F8F8FB"/>
<path d="M85.0029 102C73.5789 111.584 71.7632 129.636 62.0019 118C52.2405 106.364 50.5779 76.0849 62.0019 66.5011C73.4259 56.9172 87.4286 64.012 97.1899 75.6475C106.951 87.2831 96.4269 92.416 85.0029 102Z" fill="#3F3F45" stroke="#1A1A1C" stroke-width="5" stroke-linejoin="round"/>
<path d="M173.945 105C185.369 114.584 187.185 132.636 196.946 121C206.707 109.364 208.37 79.0849 196.946 69.5011C185.522 59.9172 171.519 67.012 161.758 78.6475C151.997 90.2831 162.521 95.416 173.945 105Z" fill="#3F3F45" stroke="#1A1A1C" stroke-width="5" stroke-linejoin="round"/>
<path opacity="0.6" d="M81.5414 99.2065C73.4882 105.962 71.8859 120.202 65.0048 111.999C58.1238 103.797 58.4491 80.755 66.5022 73.9991C74.5554 67.2431 89.1217 72.7976 96.0028 80.9998C102.884 89.2021 89.5945 92.4506 81.5414 99.2065Z" fill="#1A1A1C"/>
<path d="M84.5404 102.207C76.4873 108.963 74.885 123.202 68.0039 115C61.1228 106.798 61.4482 83.7556 69.5013 76.9996C77.5544 70.2436 86.2504 75.4282 93.1314 83.6305C100.013 91.8328 92.5935 95.4511 84.5404 102.207Z" fill="#9999A8"/>
<path opacity="0.6" d="M174.411 102.206C182.464 108.962 185.618 123.202 192.499 115C199.38 106.798 200.552 81.7554 192.499 74.9994C184.446 68.2434 172.377 75.2977 165.496 83.5C158.615 91.7023 166.357 95.4505 174.411 102.206Z" fill="#1A1A1C"/>
<path d="M174.496 98C182.549 104.756 184.567 122.702 191.448 114.5C198.329 106.298 199.501 85.7556 191.448 78.9996C183.395 72.2436 174.699 77.4282 167.818 85.6305C160.937 93.8328 166.443 91.244 174.496 98Z" fill="#9999A8"/>
<path d="M206.998 247.191C206.998 279.67 170.285 306 124.998 306C79.7102 306 42.9976 279.67 42.9976 247.191C42.9976 214.712 63.9976 151 124.998 151C193.498 151 206.998 214.712 206.998 247.191Z" fill="#3F3F45" stroke="#1A1A1C" stroke-width="5" stroke-linejoin="round"/>
<ellipse cx="124.998" cy="232" rx="46" ry="60" fill="#5D5D66"/>
<path d="M199.494 140.5C199.494 90.1 160.494 72.1667 140.994 69.5C140.994 69.5 134.5 68.501 138.5 64C138.5 64 135.994 62.4991 124.994 69.5C127.494 60 132.994 56 132.994 56C132.994 56 112.494 65.1667 109.994 69.5C94.327 72.3333 61.4937 89.5 55.4937 135.5C49.4937 181.5 99.327 189.333 124.994 189.5C150.66 189.667 199.494 190.9 199.494 140.5Z" fill="#F6F6F6" stroke="#1A1A1C" stroke-width="5" stroke-linejoin="round"/>
<path opacity="0.1" d="M164.996 159C164.996 171.703 146.864 177.999 124.496 177.999C102.129 177.999 85.9961 170.203 85.9961 157.5C85.9961 144.797 103.129 133.5 125.496 133.5C147.864 133.5 164.996 146.297 164.996 159Z" fill="#28282E"/>
<path d="M137.996 110C142.163 108.83 154.196 106.941 168.996 108.746" stroke="#28282E" stroke-width="8" stroke-linecap="round" stroke-linejoin="bevel"/>
<path d="M112.996 110C109.233 108.83 98.3638 106.941 84.9961 108.746" stroke="#28282E" stroke-width="8" stroke-linecap="round" stroke-linejoin="bevel"/>
<path d="M116.993 126.194C118.838 134.708 112.875 143.226 103.674 145.221C94.4722 147.215 84.5171 138.929 82.672 130.416C80.8268 121.902 87.7902 116.383 96.9916 114.389C106.193 112.395 115.148 117.68 116.993 126.194Z" fill="#5D5D66"/>
<ellipse cx="100.996" cy="129" rx="10" ry="12" transform="rotate(-12.2284 100.996 129)" fill="#1A1A1C"/>
<path d="M136.338 126.194C134.493 134.708 140.456 143.226 149.657 145.221C158.859 147.215 168.814 138.929 170.659 130.416C172.504 121.902 165.541 116.383 156.339 114.389C147.138 112.395 138.183 117.68 136.338 126.194Z" fill="#5D5D66"/>
<ellipse cx="10" cy="12" rx="10" ry="12" transform="matrix(-0.977311 -0.211809 -0.211809 0.977311 161.626 119.391)" fill="#1A1A1C"/>
<ellipse cx="2.86734" cy="3.98297" rx="2.86734" ry="3.98297" transform="matrix(-0.996195 -0.0871557 -0.0871557 0.996195 150.404 122.5)" fill="#F8F8FB"/>
<ellipse cx="102.201" cy="124.218" rx="2.86734" ry="3.98297" transform="rotate(-5 102.201 124.218)" fill="#F8F8FB"/>
<path d="M110.996 162C112.184 164.817 116.443 172.436 124.996 168.38C134.923 173.45 138.996 162 138.996 162" stroke="#1A1A1C" stroke-width="4" stroke-linecap="round" stroke-linejoin="bevel"/>
<path d="M124.496 149L124.496 166.5" stroke="#1A1A1C" stroke-width="4" stroke-linecap="round"/>
<path d="M139.996 148.5C139.996 152.642 133.28 159 124.996 159C116.712 159 109.996 152.642 109.996 148.5C109.996 144.358 116.712 143 124.996 143C133.28 143 139.996 144.358 139.996 148.5Z" fill="#1A1A1C"/>
<path d="M170.998 223C173.998 237 174.753 256.643 161.998 272" stroke="#1A1A1C" stroke-width="6" stroke-linecap="round" stroke-linejoin="bevel"/>
<path d="M78.7855 222.5C75.7935 232.562 76.6598 251.95 87.9976 267" stroke="#1A1A1C" stroke-width="6" stroke-linecap="round" stroke-linejoin="bevel"/>
<path opacity="0.1" d="M150.497 189C207.297 185 203.164 134.333 193.997 109.5C191.998 146.5 174.998 166 158.997 176.5C143.195 186.87 79.4969 194 150.497 189Z" fill="#28282E"/>
<path opacity="0.6" d="M186.998 265.5C199.398 239.9 181.831 201.5 171.498 185.5L186.998 178.5C208.598 211.3 208.331 248.167 205.498 262.5C194.164 274.167 174.598 291.1 186.998 265.5Z" fill="#1A1A1C"/>
<path d="M51.9945 250C50.8278 239.167 61.5976 198.7 73.9976 187.5" stroke="#5D5D66" stroke-width="6" stroke-linecap="round" stroke-linejoin="bevel"/>
<path d="M178 24.0005C179.2 12.8005 189 6.66713 194.5 5.00046C206 2.50064 203.5 18.5 200.5 26.5C198.1 32.9 194 42.0005 186.5 42.0005C183.167 40.6671 176.8 35.2005 178 24.0005Z" fill="#F6F6F6"/>
<path d="M131.532 23.9623L131.5 24.0003C124.862 30.5194 120.137 20.7498 118.319 12.6161C116.864 6.10911 115.263 -3.40226 120.38 -6.2265C123.299 -6.31437 128.407 -3.75675 133 6.50076C137.577 16.7215 134.47 20.4433 131.532 23.9623Z" fill="#F6F6F6"/>
<g filter="url(#filter0_d_5900_31690)">
<path fill-rule="evenodd" clip-rule="evenodd" d="M106.846 228.598H112.924H112.924C114.355 228.598 115.07 228.598 115.709 228.421C116.409 228.213 117.048 227.843 117.579 227.335C118.066 226.87 118.418 226.253 119.112 225.038L119.112 225.037L119.133 225.001L127.016 211.05C127.716 209.826 128.062 209.21 128.216 208.563C128.385 207.862 128.385 207.122 128.216 206.421C128.064 205.779 127.714 205.167 127.024 203.961L127.008 203.933L123.923 198.542C123.284 197.417 122.961 196.855 122.554 196.647C122.115 196.424 121.592 196.424 121.153 196.647C120.745 196.855 120.422 197.417 119.784 198.542L104.776 225.024C104.145 226.133 103.83 226.688 103.853 227.142C103.884 227.635 104.137 228.082 104.553 228.352C104.938 228.598 105.568 228.598 106.846 228.598ZM136.982 228.598H128.273C126.988 228.598 126.342 228.598 125.965 228.352C125.55 228.082 125.296 227.628 125.265 227.135C125.242 226.684 125.56 226.134 126.196 225.035L126.196 225.035L126.211 225.009L130.558 217.538C131.197 216.436 131.52 215.889 131.92 215.681C132.358 215.458 132.874 215.458 133.313 215.681C133.71 215.884 134.019 216.408 134.632 217.444L134.633 217.446L134.682 217.53L139.045 225.001L139.054 225.017C139.072 225.049 139.09 225.08 139.108 225.11L139.108 225.11C139.712 226.155 140.021 226.688 139.999 227.127C139.976 227.62 139.714 228.075 139.299 228.344C138.914 228.598 138.267 228.598 136.983 228.598H136.982Z" fill="white"/>
</g>
</g>
<defs>
<filter id="filter0_d_5900_31690" x="103.852" y="196.479" width="39.1484" height="35.1182" filterUnits="userSpaceOnUse" color-interpolation-filters="sRGB">
<feFlood flood-opacity="0" result="BackgroundImageFix"/>
<feColorMatrix in="SourceAlpha" type="matrix" values="0 0 0 0 0 0 0 0 0 0 0 0 0 0 0 0 0 0 127 0" result="hardAlpha"/>
<feOffset dx="3" dy="3"/>
<feComposite in2="hardAlpha" operator="out"/>
<feColorMatrix type="matrix" values="0 0 0 0 0 0 0 0 0 0 0 0 0 0 0 0 0 0 0.6 0"/>
<feBlend mode="normal" in2="BackgroundImageFix" result="effect1_dropShadow_5900_31690"/>
<feBlend mode="normal" in="SourceGraphic" in2="effect1_dropShadow_5900_31690" result="shape"/>
</filter>
<clipPath id="clip0_5900_31690">
<rect width="256" height="256" fill="white"/>
</clipPath>
</defs>
</svg>
