<svg width="256" height="256" viewBox="0 0 256 256" fill="none" xmlns="http://www.w3.org/2000/svg">
<g clip-path="url(#clip0_5527_31271)">
<rect width="256" height="256" fill="#99ABCD"/>
<path d="M-21.4492 212.543C-23.0676 214.368 -68.9994 242.08 -91.7631 255.708C-94.9965 258.859 -88.742 260.644 -83.7881 259.582C-79.825 258.733 -36.5924 228.937 -15.4715 214.145C-20.2654 220.823 -27.876 236.122 -19.9665 243.889C-10.0796 253.596 -5.1733 258.386 13.4486 269.131C28.3462 277.727 44.7978 270.472 51.1614 265.771C39.2777 262.84 13.3946 253.284 4.93139 238.506C-3.53185 223.729 23.4662 244.848 38.0232 257.255C72.787 273.411 79.3786 247.595 98.2629 236.692C113.37 227.97 119.401 212.783 120.529 206.28C117.303 206.972 106.386 209.376 88.5274 213.451C70.6688 217.527 55.8246 208.381 50.6348 203.298C45.8536 195.61 42.2691 182.726 66.181 192.695C96.071 205.157 108.217 201.57 118.954 195.542C129.69 189.515 135.764 167.252 131.2 164.834C126.635 162.417 112.859 184.245 92.9221 171.518C72.985 158.792 112.299 155.535 125.455 149.395C138.61 143.256 138.158 120.222 141.133 112.766C143.513 106.802 142.621 105.998 141.878 106.342C117.363 96.5151 95.3133 115.583 88.2453 127.372C82.5909 136.802 76.4527 138.691 74.0904 138.456C60.1519 136.98 85.0194 112.933 99.1954 101.095C102.517 99.2338 104.498 95.3268 85.8454 94.5856C67.1926 93.8443 55.9172 119.687 52.6112 132.7C48.8457 143.781 39.5785 163.588 32.6332 154.169C23.9515 142.396 60.1535 97.2575 63.1717 93.2882C66.1899 89.3189 51.9818 88.4438 34.8111 95.788C17.6405 103.132 13.9188 124.722 10.7022 141.995C7.48565 159.268 17.5484 185.745 4.47224 170.514C-8.60388 155.282 4.25976 116.596 11.9483 105.733C18.0991 97.0436 14.8818 97.2168 12.5044 98.3896C-0.789548 105.18 -28.4452 122.34 -32.7163 136.659C-36.9874 150.978 -26.0695 170.076 -20.0766 177.836C-18.489 181.772 -17.5486 189.394 -26.4878 188.389C-37.6617 187.132 -38.1739 146.49 -39.3242 142.273C-40.4746 138.055 -50.8676 144.826 -55.7684 180.543C-59.689 209.116 -34.5225 213.782 -21.4492 212.543Z" fill="#7F94BC"/>
<path d="M233.536 102.67C235.155 104.495 281.087 132.207 303.85 145.835C307.084 148.986 300.829 150.771 295.875 149.709C291.912 148.86 248.68 119.063 227.559 104.271C232.353 110.95 239.963 126.249 232.054 134.015C222.167 143.723 217.26 148.513 198.639 159.258C183.741 167.854 167.289 160.599 160.926 155.898C172.809 152.967 198.693 143.411 207.156 128.633C215.619 113.856 188.621 134.975 174.064 147.382C139.3 163.538 132.709 137.722 113.824 126.819C98.7168 118.097 92.6857 102.91 91.5586 96.4074C94.7845 97.0994 105.701 99.5025 123.56 103.578C141.418 107.654 156.263 98.5078 161.452 93.4251C166.234 85.7371 169.818 72.8533 145.906 82.8223C116.016 95.2835 103.87 91.6968 93.1335 85.6692C82.3968 79.6416 76.3229 57.379 80.8875 54.9614C85.4521 52.5439 99.228 74.3716 119.165 61.6452C139.102 48.9189 99.7882 45.662 86.6324 39.5224C73.4767 33.3829 73.9288 10.349 70.9538 2.89322C68.5737 -3.07138 69.466 -3.87514 70.2096 -3.53144C94.7244 -13.3579 116.774 5.70994 123.842 17.4986C129.496 26.9295 135.634 28.8176 137.997 28.5828C151.935 27.1067 127.068 3.0603 112.892 -8.77837C109.57 -10.6392 107.589 -14.5462 126.242 -15.2875C144.895 -16.0287 156.17 9.81362 159.476 22.8274C163.241 33.9083 172.509 53.7153 179.454 44.2964C188.136 32.5227 151.934 -12.6156 148.915 -16.5848C145.897 -20.5541 160.105 -21.4292 177.276 -14.0851C194.447 -6.74089 198.168 14.8489 201.385 32.1217C204.602 49.3946 194.539 75.8723 207.615 60.6407C220.691 45.4092 207.827 6.72258 200.139 -4.13964C193.988 -12.8294 197.205 -12.6562 199.583 -11.4834C212.877 -4.69316 240.532 12.4671 244.803 26.786C249.075 41.105 238.157 60.2033 232.164 67.9626C230.576 71.8991 229.636 79.5208 238.575 78.5155C249.749 77.2589 250.261 36.6172 251.411 32.3996C252.562 28.1821 262.955 34.9533 267.856 70.6698C271.776 99.2429 246.61 103.909 233.536 102.67Z" fill="#7F94BC"/>
<path opacity="0.1" fill-rule="evenodd" clip-rule="evenodd" d="M157.995 74.5C177.495 77.1667 216.495 95.1 216.495 145.5C216.495 163.203 210.47 174.536 201.54 181.782C219.328 203.176 223.999 233.087 223.999 252.191C223.999 284.67 187.286 311 141.999 311C96.7114 311 59.9987 284.67 59.9987 252.191C59.9987 232.467 67.7431 201.226 87.4867 179.729C76.8448 171.595 70.0555 159.202 72.4948 140.5C78.4948 94.5 111.328 77.3333 126.995 74.5C129.495 70.1667 149.995 61 149.995 61C149.995 61 144.495 65 141.995 74.5C152.995 67.4991 160.995 67.4991 160.995 67.4991C156.995 72.0001 157.995 74.5 157.995 74.5Z" fill="#28282E"/>
<path d="M82.999 99.9998C71.575 109.584 69.7593 127.636 59.998 116C50.2366 104.364 48.574 74.0849 59.998 64.5011C71.422 54.9172 85.4247 62.012 95.186 73.6475C104.947 85.2831 94.423 90.416 82.999 99.9998Z" fill="#E3CBBB" stroke="#2A2A2D" stroke-width="5" stroke-linejoin="round"/>
<path d="M175.948 101C187.372 110.584 189.187 128.636 198.949 117C208.71 105.364 210.373 75.0849 198.949 65.5011C187.525 55.9172 173.522 63.012 163.761 74.6475C153.999 86.2831 164.524 91.416 175.948 101Z" fill="#E3CBBB" stroke="#2A2A2D" stroke-width="5" stroke-linejoin="round"/>
<path opacity="0.6" d="M79.5374 97.2065C71.4843 103.962 69.882 118.202 63.0009 109.999C56.1199 101.797 56.4452 78.755 64.4983 71.9991C72.5515 65.2431 87.1178 70.7976 93.9989 78.9998C100.88 87.2021 87.5906 90.4506 79.5374 97.2065Z" fill="#2A2A2D"/>
<path d="M83.5352 102.207C75.4821 108.963 73.8798 123.202 66.9987 115C60.1176 106.798 60.443 83.7556 68.4961 76.9996C76.5492 70.2436 85.2452 75.4282 92.1262 83.6305C99.0073 91.8328 91.5884 95.4511 83.5352 102.207Z" fill="#FFFAF7"/>
<path opacity="0.6" d="M176.413 98.2064C184.466 104.962 187.621 119.202 194.502 111C201.383 102.798 202.555 77.7554 194.502 70.9994C186.449 64.2434 174.38 71.2977 167.499 79.5C160.618 87.7023 168.36 91.4505 176.413 98.2064Z" fill="#2A2A2D"/>
<path d="M175.499 98C183.552 104.756 185.57 122.702 192.451 114.5C199.332 106.298 200.504 85.7556 192.451 78.9996C184.397 72.2436 175.702 77.4282 168.82 85.6305C161.939 93.8328 167.446 91.244 175.499 98Z" fill="#FFFAF7"/>
<path d="M206.999 247.191C206.999 279.67 170.286 306 124.999 306C79.7114 306 42.9987 279.67 42.9987 247.191C42.9987 214.712 63.9987 151 124.999 151C193.499 151 206.999 214.712 206.999 247.191Z" fill="#E3CBBB" stroke="#2A2A2D" stroke-width="5" stroke-linejoin="round"/>
<ellipse cx="124.999" cy="232" rx="46" ry="60" fill="#FFFAF7"/>
<path d="M199.495 140.5C199.495 90.1 160.495 72.1667 140.995 69.5C140.995 69.5 139.995 67.0001 143.995 62.4991C143.995 62.4991 135.995 62.4991 124.995 69.5C127.495 60 132.995 56 132.995 56C132.995 56 112.495 65.1667 109.995 69.5C94.3282 72.3333 61.4949 89.5 55.4949 135.5C49.4949 181.5 99.3282 189.333 124.995 189.5C150.662 189.667 199.495 190.9 199.495 140.5Z" fill="#E3CBBB" stroke="#2A2A2D" stroke-width="5" stroke-linejoin="round"/>
<path d="M163.999 159C163.999 171.703 145.866 177.999 123.499 177.999C101.131 177.999 84.9987 170.203 84.9987 157.5C84.9987 144.797 102.131 133.5 124.499 133.5C146.866 133.5 163.999 146.297 163.999 159Z" fill="#FFFAF7"/>
<path d="M138 110C142.167 108.83 154.2 106.941 169 108.746" stroke="#FFFAF7" stroke-width="8" stroke-linecap="round" stroke-linejoin="bevel"/>
<path d="M113 110C109.237 108.83 98.3677 106.941 85 108.746" stroke="#FFFAF7" stroke-width="8" stroke-linecap="round" stroke-linejoin="bevel"/>
<ellipse cx="100.997" cy="129" rx="10" ry="12" transform="rotate(-12.2284 100.997 129)" fill="#2A2A2D"/>
<ellipse cx="10" cy="12" rx="10" ry="12" transform="matrix(-0.977311 -0.211809 -0.211809 0.977311 161.628 119.391)" fill="#2A2A2D"/>
<ellipse cx="2.86734" cy="3.98297" rx="2.86734" ry="3.98297" transform="matrix(-0.996195 -0.0871557 -0.0871557 0.996195 150.405 122.5)" fill="#F8F8FB"/>
<ellipse cx="102.202" cy="124.218" rx="2.86734" ry="3.98297" transform="rotate(-5 102.202 124.218)" fill="#F8F8FB"/>
<path d="M109.999 163C111.187 165.817 115.446 170.436 123.999 166.38C133.926 171.45 137.999 163 137.999 163" stroke="#2A2A2D" stroke-width="4" stroke-linecap="round" stroke-linejoin="bevel"/>
<path d="M123.499 149L123.499 166.5" stroke="#2A2A2D" stroke-width="4" stroke-linecap="round"/>
<path d="M138.999 148.5C138.999 152.642 132.283 159 123.999 159C115.714 159 108.999 152.642 108.999 148.5C108.999 144.358 115.714 143 123.999 143C132.283 143 138.999 144.358 138.999 148.5Z" fill="#2A2A2D"/>
<path d="M170.999 223C173.999 237 174.754 256.643 161.999 272" stroke="#2A2A2D" stroke-width="6" stroke-linecap="round" stroke-linejoin="bevel"/>
<path d="M78.7866 222.5C75.7947 232.562 76.6609 251.95 87.9987 267" stroke="#2A2A2D" stroke-width="6" stroke-linecap="round" stroke-linejoin="bevel"/>
<path opacity="0.1" d="M150.498 189C207.298 185 203.165 134.333 193.998 109.5C191.999 146.5 174.999 166 158.998 176.5C143.196 186.87 79.4981 194 150.498 189Z" fill="#2A2A2D"/>
<path opacity="0.1" d="M186.999 265.5C199.399 239.9 181.832 201.5 171.499 185.5L186.999 178.5C208.599 211.3 208.332 248.167 205.499 262.5C194.165 274.167 174.599 291.1 186.999 265.5Z" fill="#2A2A2D"/>
<path opacity="0.3" d="M51.9956 250C50.829 239.167 61.5987 198.7 73.9987 187.5" stroke="#FFFAF7" stroke-width="6" stroke-linecap="round" stroke-linejoin="bevel"/>
<path d="M89.7165 67.1345C84.5883 85.1983 90.8988 67.4701 119.057 75.4642C145.506 79.3345 188.397 100.347 188.397 100.347C193.526 82.2833 199.227 45.7283 148.241 31.2536C97.2546 16.7789 94.8447 49.0707 89.7165 67.1345Z" fill="#565665" stroke="#2A2A2D" stroke-width="5" stroke-linejoin="round"/>
<path d="M60.3636 51.525C87.4154 50.7607 163.658 88.0675 186.653 99.1696C127.507 76.8233 101.04 78.3831 84.0683 80.602C72.7249 76.326 33.3117 52.2893 60.3636 51.525Z" fill="#3B3B4D" stroke="#2A2A2D" stroke-width="5" stroke-linejoin="round"/>
<path opacity="0.3" d="M150.999 79.499C162.499 64.499 160.999 44.999 146.596 33.3844C200.499 42.4992 188.535 82.5046 186.499 96.9996L150.999 79.499Z" fill="#2A2A2D"/>
</g>
<defs>
<clipPath id="clip0_5527_31271">
<rect width="256" height="256" fill="white"/>
</clipPath>
</defs>
</svg>
