<!-- This is a temporary logo for the Australian Dollar until k2-alpine is ready -->
<svg width="128" height="128" viewBox="0 0 128 128" fill="none" xmlns="http://www.w3.org/2000/svg">
<g clip-path="url(#clip0_1665_3763)">
<rect width="128" height="128" fill="white"/>
<g clip-path="url(#clip1_1665_3763)">
<rect width="128" height="128" fill="#003399"/>
<rect width="128" height="128" fill="#003399"/>
<mask id="mask0_1665_3763" style="mask-type:luminance" maskUnits="userSpaceOnUse" x="-16" y="0" width="84" height="64">
<path d="M-16 0H68V64H-16V0Z" fill="white"/>
</mask>
<g mask="url(#mask0_1665_3763)">
<path d="M-16 0L68 64L-16 0ZM68 0L-16 64L68 0Z" fill="black"/>
<path fill-rule="evenodd" clip-rule="evenodd" d="M16.6085 31.9997L-17.8783 5.72406L-14.1217 -5.72461L26 24.8443L66.1217 -5.72461L69.8783 5.72406L35.3915 31.9997L69.8783 58.2754L66.1217 69.7241L26 39.1551L-14.1217 69.7241L-17.8783 58.2754L16.6085 31.9997Z" fill="white"/>
</g>
<mask id="mask1_1665_3763" style="mask-type:luminance" maskUnits="userSpaceOnUse" x="-16" y="0" width="84" height="64">
<path d="M-16 0V32H68V64L-16 0ZM68 0H26V64H-16L68 0Z" fill="white"/>
</mask>
<g mask="url(#mask1_1665_3763)">
<path d="M-16 0L68 64L-16 0ZM68 0L-16 64L68 0Z" fill="black"/>
<path fill-rule="evenodd" clip-rule="evenodd" d="M19.739 31.9998L-17.2522 3.81604L-14.7478 -3.81641L26 27.2295L66.7478 -3.81641L69.2522 3.81604L32.261 31.9998L69.2522 60.1836L66.7478 67.816L26 36.7701L-14.7478 67.816L-17.2522 60.1836L19.739 31.9998Z" fill="#E4002B"/>
</g>
<path d="M26 0V64V0ZM-16 32H68H-16Z" fill="black"/>
<path fill-rule="evenodd" clip-rule="evenodd" d="M19 21.3333V0H33V21.3333H68V42.6667H33V64H19V42.6667H-16V21.3333H19Z" fill="white"/>
<path d="M26 0V64V0ZM-16 32H68H-16Z" fill="black"/>
<path fill-rule="evenodd" clip-rule="evenodd" d="M21.8 25.6V0H30.2V25.6H68V38.4H30.2V64H21.8V38.4H-16V25.6H21.8Z" fill="#E4002B"/>
<path d="M26 72L28.2215 78.907L35.0067 76.3374L30.9916 82.3807L37.2311 86.0834L30.0029 86.7123L30.9983 93.8992L26 88.64L21.0016 93.8992L21.997 86.7123L14.7688 86.0834L21.0083 82.3807L16.9933 76.3374L23.7785 78.907L26 72Z" fill="white"/>
<path d="M99.1111 86L99.9927 88.7409L102.685 87.7212L101.092 90.1193L103.568 91.5887L100.7 91.8382L101.095 94.6901L99.1111 92.6032L97.1276 94.6901L97.5226 91.8382L94.6543 91.5887L97.1303 90.1193L95.537 87.7212L98.2296 88.7409L99.1111 86Z" fill="white"/>
<path d="M83.1111 53.2021L83.9927 55.943L86.6852 54.9233L85.0919 57.3215L87.5679 58.7908L84.6996 59.0404L85.0946 61.8923L83.1111 59.8053L81.1276 61.8923L81.5226 59.0404L78.6543 58.7908L81.1303 57.3215L79.537 54.9233L82.2296 55.943L83.1111 53.2021Z" fill="white"/>
<path d="M99.1111 29.8691L99.9927 32.61L102.685 31.5903L101.092 33.9885L103.568 35.4578L100.7 35.7073L101.095 38.5593L99.1111 36.4723L97.1276 38.5593L97.5226 35.7073L94.6543 35.4578L97.1303 33.9885L95.537 31.5903L98.2296 32.61L99.1111 29.8691Z" fill="white"/>
<path d="M113.333 48.9355L114.215 51.6764L116.907 50.6567L115.314 53.0549L117.79 54.5242L114.922 54.7737L115.317 57.6257L113.333 55.5387L111.35 57.6257L111.745 54.7737L108.877 54.5242L111.353 53.0549L109.759 50.6567L112.452 51.6764L113.333 48.9355Z" fill="white"/>
<path d="M101.511 67.7734L102.208 69.4813L104.047 69.6161L102.638 70.8063L103.079 72.5975L101.511 71.6253L99.9437 72.5975L100.384 70.8063L98.975 69.6161L100.814 69.4813L101.511 67.7734Z" fill="white"/>
</g>
</g>
<defs>
<clipPath id="clip0_1665_3763">
<rect width="128" height="128" fill="white"/>
</clipPath>
<clipPath id="clip1_1665_3763">
<rect width="128" height="128" fill="white"/>
</clipPath>
</defs>
</svg>