<!-- This is a temporary logo for the Canadian Dollar until k2-alpine is ready -->
<svg width="128" height="128" viewBox="0 0 128 128" fill="none" xmlns="http://www.w3.org/2000/svg">
<g clip-path="url(#clip0_1665_3456)">
<rect width="128" height="128" fill="white"/>
<g clip-path="url(#clip1_1665_3456)">
<rect width="128" height="128" fill="white"/>
<rect width="128" height="128" fill="white"/>
<rect x="102" width="26" height="128" fill="#D80027"/>
<rect width="26" height="128" fill="#D80027"/>
<path d="M66.5484 100L65.7742 85.4382C65.7629 85.1987 65.8066 84.9598 65.9019 84.7391C65.9973 84.5184 66.1419 84.3214 66.3251 84.1627C66.5084 84.0041 66.7256 83.8877 66.9607 83.8223C67.1959 83.7569 67.443 83.744 67.6839 83.7846L81.4624 86.3325L79.4667 80.933C79.3857 80.7182 79.3753 80.4838 79.437 80.2629C79.4988 80.042 79.6294 79.8456 79.8108 79.7012L96 66.8437L92.3527 65.1732C92.1064 65.059 91.911 64.8606 91.8033 64.6152C91.6956 64.3697 91.6829 64.0941 91.7677 63.8402L94.9677 54.1886L85.643 56.129C85.3904 56.1807 85.1273 56.1451 84.8984 56.0282C84.6695 55.9113 84.4889 55.7204 84.3871 55.4878L82.5806 51.3201L75.3032 58.9806C75.1368 59.1528 74.918 59.2674 74.6796 59.3072C74.4412 59.3471 74.196 59.3101 73.9809 59.2017C73.7657 59.0933 73.5922 58.9195 73.4863 58.7062C73.3804 58.493 73.3479 58.2518 73.3935 58.0189L76.9032 40.268L71.2774 43.4571C71.1453 43.533 70.9988 43.5815 70.8468 43.5996C70.6948 43.6177 70.5406 43.605 70.3939 43.5623C70.2471 43.5196 70.1108 43.4478 69.9935 43.3513C69.8762 43.2548 69.7803 43.1358 69.7118 43.0015L64 32L58.2882 43.0015C58.2197 43.1358 58.1238 43.2548 58.0065 43.3513C57.8892 43.4478 57.7529 43.5196 57.6061 43.5623C57.4594 43.605 57.3052 43.6177 57.1532 43.5996C57.0012 43.5815 56.8547 43.533 56.7226 43.4571L51.0968 40.268L54.6065 58.0189C54.6521 58.2518 54.6196 58.493 54.5137 58.7062C54.4078 58.9195 54.2343 59.0933 54.0191 59.2017C53.804 59.3101 53.5588 59.3471 53.3204 59.3072C53.082 59.2674 52.8632 59.1528 52.6968 58.9806L45.4194 51.3201L43.6129 55.4878C43.5111 55.7204 43.3305 55.9113 43.1016 56.0282C42.8727 56.1451 42.6096 56.1807 42.357 56.129L33.0323 54.1886L36.2323 63.8402C36.3171 64.0941 36.3044 64.3697 36.1967 64.6152C36.089 64.8606 35.8936 65.059 35.6473 65.1732L32 66.8437L48.1892 79.7012C48.3706 79.8456 48.5012 80.042 48.563 80.2629C48.6247 80.4838 48.6143 80.7182 48.5333 80.933L46.5376 86.3325L60.3161 83.7846C60.557 83.744 60.8041 83.7569 61.0393 83.8223C61.2744 83.8877 61.4916 84.0041 61.6749 84.1627C61.8581 84.3214 62.0027 84.5184 62.0981 84.7391C62.1934 84.9598 62.2371 85.1987 62.2258 85.4382L61.4516 100H66.5484Z" fill="#D80027"/>
</g>
</g>
<defs>
<clipPath id="clip0_1665_3456">
<rect width="128" height="128" fill="white"/>
</clipPath>
<clipPath id="clip1_1665_3456">
<rect width="128" height="128" fill="white"/>
</clipPath>
</defs>
</svg>