<!-- This is a temporary logo for the Euro until k2-alpine is ready -->
<svg width="128" height="128" viewBox="0 0 128 128" fill="none" xmlns="http://www.w3.org/2000/svg">
<g clip-path="url(#clip0_1665_3441)">
<rect width="128" height="128" fill="white"/>
<g clip-path="url(#clip1_1665_3441)">
<rect width="128" height="128" fill="#003399"/>
<rect width="128" height="128" fill="#003399"/>
<path d="M63.1056 19.0718L61.1032 25.2346L64.1846 26.2358L63.1056 19.0718Z" fill="#FFCC00"/>
<path d="M63.1056 19.0718L65.108 25.2346L62.0266 26.2358L63.1056 19.0718Z" fill="#FFCC00"/>
<path d="M69.2686 23.5493L62.7886 23.5493L62.7886 26.7893L69.2686 23.5493Z" fill="#FFCC00"/>
<path d="M69.2686 23.5493L64.0261 27.3581L62.1217 24.7369L69.2686 23.5493Z" fill="#FFCC00"/>
<path d="M66.9146 30.7941L64.9121 24.6313L61.8307 25.6325L66.9146 30.7941Z" fill="#FFCC00"/>
<path d="M66.9146 30.7941L61.6721 26.9853L63.5765 24.3641L66.9146 30.7941Z" fill="#FFCC00"/>
<path d="M56.9427 23.5493L63.4227 23.5493L63.4227 26.7893L56.9427 23.5493Z" fill="#FFCC00"/>
<path d="M56.9427 23.5493L62.1852 27.3581L64.0896 24.7369L56.9427 23.5493Z" fill="#FFCC00"/>
<path d="M59.2968 30.7941L61.2992 24.6313L64.3806 25.6325L59.2968 30.7941Z" fill="#FFCC00"/>
<path d="M59.2968 30.7941L64.5392 26.9853L62.6348 24.3641L59.2968 30.7941Z" fill="#FFCC00"/>
<path d="M63.1055 96.8305L61.103 102.993L64.1845 103.995L63.1055 96.8305Z" fill="#FFCC00"/>
<path d="M63.1055 96.8305L65.1079 102.993L62.0265 103.995L63.1055 96.8305Z" fill="#FFCC00"/>
<path d="M69.2683 101.308L62.7883 101.308L62.7883 104.548L69.2683 101.308Z" fill="#FFCC00"/>
<path d="M69.2683 101.308L64.0259 105.117L62.1215 102.496L69.2683 101.308Z" fill="#FFCC00"/>
<path d="M66.9143 108.553L64.9119 102.391L61.8305 103.392L66.9143 108.553Z" fill="#FFCC00"/>
<path d="M66.9143 108.553L61.6719 104.745L63.5763 102.123L66.9143 108.553Z" fill="#FFCC00"/>
<path d="M56.9426 101.308L63.4226 101.308L63.4226 104.548L56.9426 101.308Z" fill="#FFCC00"/>
<path d="M56.9426 101.308L62.1851 105.117L64.0895 102.496L56.9426 101.308Z" fill="#FFCC00"/>
<path d="M59.2966 108.553L61.2991 102.391L64.3805 103.392L59.2966 108.553Z" fill="#FFCC00"/>
<path d="M59.2966 108.553L64.5391 104.745L62.6346 102.123L59.2966 108.553Z" fill="#FFCC00"/>
<path d="M24.2257 57.9509L22.2233 64.1137L25.3047 65.1149L24.2257 57.9509Z" fill="#FFCC00"/>
<path d="M24.2257 57.9509L26.2281 64.1137L23.1467 65.1149L24.2257 57.9509Z" fill="#FFCC00"/>
<path d="M30.3885 62.4284L23.9086 62.4284L23.9086 65.6684L30.3885 62.4284Z" fill="#FFCC00"/>
<path d="M30.3885 62.4284L25.1461 66.2373L23.2417 63.6161L30.3885 62.4284Z" fill="#FFCC00"/>
<path d="M28.0345 69.6732L26.0321 63.5104L22.9507 64.5117L28.0345 69.6732Z" fill="#FFCC00"/>
<path d="M28.0345 69.6732L22.7921 65.8644L24.6965 63.2432L28.0345 69.6732Z" fill="#FFCC00"/>
<path d="M18.0626 62.4284L24.5426 62.4284L24.5426 65.6684L18.0626 62.4284Z" fill="#FFCC00"/>
<path d="M18.0626 62.4284L23.3051 66.2372L25.2095 63.616L18.0626 62.4284Z" fill="#FFCC00"/>
<path d="M20.4167 69.6732L22.4192 63.5104L25.5006 64.5117L20.4167 69.6732Z" fill="#FFCC00"/>
<path d="M20.4167 69.6732L25.6592 65.8644L23.7548 63.2432L20.4167 69.6732Z" fill="#FFCC00"/>
<path d="M39.8572 36.0033L45.0996 32.1945L43.1952 29.5733L39.8572 36.0033Z" fill="#FFCC00"/>
<path d="M39.8572 36.0033L41.8596 29.8405L44.941 30.8417L39.8572 36.0033Z" fill="#FFCC00"/>
<path d="M37.5032 28.7584L42.7456 32.5672L44.65 29.946L37.5032 28.7584Z" fill="#FFCC00"/>
<path d="M37.5032 28.7584L43.9832 28.7584L43.9832 31.9984L37.5032 28.7584Z" fill="#FFCC00"/>
<path d="M43.6659 24.2808L41.6635 30.4436L44.7449 31.4448L43.6659 24.2808Z" fill="#FFCC00"/>
<path d="M43.6659 24.2808L45.6683 30.4436L42.5869 31.4448L43.6659 24.2808Z" fill="#FFCC00"/>
<path d="M47.4747 36.0021L42.2323 32.1933L44.1367 29.5721L47.4747 36.0021Z" fill="#FFCC00"/>
<path d="M47.4747 36.0021L45.4723 29.8393L42.3909 30.8405L47.4747 36.0021Z" fill="#FFCC00"/>
<path d="M49.8289 28.757L44.5864 32.5658L42.682 29.9446L49.8289 28.757Z" fill="#FFCC00"/>
<path d="M49.8289 28.757L43.3489 28.757L43.3489 31.9969L49.8289 28.757Z" fill="#FFCC00"/>
<path d="M33.2439 50.2338L31.2415 44.071L28.16 45.0722L33.2439 50.2338Z" fill="#FFCC00"/>
<path d="M33.2439 50.2338L28.0015 46.425L29.9059 43.8038L33.2439 50.2338Z" fill="#FFCC00"/>
<path d="M25.6261 50.2332L30.8685 46.4244L28.9641 43.8032L25.6261 50.2332Z" fill="#FFCC00"/>
<path d="M25.6261 50.2332L27.6285 44.0704L30.71 45.0716L25.6261 50.2332Z" fill="#FFCC00"/>
<path d="M23.2722 42.9884L28.5146 46.7972L30.4191 44.176L23.2722 42.9884Z" fill="#FFCC00"/>
<path d="M23.2722 42.9884L29.7522 42.9884L29.7522 46.2284L23.2722 42.9884Z" fill="#FFCC00"/>
<path d="M35.5978 42.9898L30.3553 46.7987L28.4509 44.1775L35.5978 42.9898Z" fill="#FFCC00"/>
<path d="M35.5978 42.9898L29.1178 42.9898L29.1178 46.2298L35.5978 42.9898Z" fill="#FFCC00"/>
<path d="M29.4348 38.5124L31.4372 44.6752L28.3558 45.6764L29.4348 38.5124Z" fill="#FFCC00"/>
<path d="M29.4348 38.5124L27.4324 44.6752L30.5138 45.6764L29.4348 38.5124Z" fill="#FFCC00"/>
<path d="M35.5974 81.8676L29.1174 81.8676L29.1174 85.1075L35.5974 81.8676Z" fill="#FFCC00"/>
<path d="M35.5974 81.8676L30.355 85.6764L28.4506 83.0552L35.5974 81.8676Z" fill="#FFCC00"/>
<path d="M33.2434 89.1147L31.241 82.9518L28.1596 83.9531L33.2434 89.1147Z" fill="#FFCC00"/>
<path d="M33.2434 89.1147L28.001 85.3058L29.9054 82.6846L33.2434 89.1147Z" fill="#FFCC00"/>
<path d="M25.6256 89.114L30.868 85.3052L28.9636 82.684L25.6256 89.114Z" fill="#FFCC00"/>
<path d="M25.6256 89.114L27.628 82.9512L30.7095 83.9524L25.6256 89.114Z" fill="#FFCC00"/>
<path d="M29.4346 77.392L31.437 83.5548L28.3556 84.556L29.4346 77.392Z" fill="#FFCC00"/>
<path d="M29.4346 77.392L27.4321 83.5548L30.5136 84.556L29.4346 77.392Z" fill="#FFCC00"/>
<path d="M23.2717 81.8694L29.7517 81.8694L29.7517 85.1093L23.2717 81.8694Z" fill="#FFCC00"/>
<path d="M23.2717 81.8694L28.5142 85.6782L30.4186 83.057L23.2717 81.8694Z" fill="#FFCC00"/>
<path d="M49.8285 96.0989L43.3485 96.0989L43.3485 99.3389L49.8285 96.0989Z" fill="#FFCC00"/>
<path d="M49.8285 96.0989L44.5861 99.9077L42.6816 97.2865L49.8285 96.0989Z" fill="#FFCC00"/>
<path d="M47.4746 103.344L45.4722 97.1812L42.3908 98.1824L47.4746 103.344Z" fill="#FFCC00"/>
<path d="M47.4746 103.344L42.2322 99.5352L44.1366 96.914L47.4746 103.344Z" fill="#FFCC00"/>
<path d="M39.8569 103.344L45.0994 99.5354L43.1949 96.9142L39.8569 103.344Z" fill="#FFCC00"/>
<path d="M39.8569 103.344L41.8594 97.1814L44.9408 98.1826L39.8569 103.344Z" fill="#FFCC00"/>
<path d="M43.6658 91.6212L45.6682 97.7841L42.5868 98.7853L43.6658 91.6212Z" fill="#FFCC00"/>
<path d="M43.6658 91.6212L41.6633 97.7841L44.7448 98.7853L43.6658 91.6212Z" fill="#FFCC00"/>
<path d="M37.5029 96.0988L43.9829 96.0988L43.9829 99.3387L37.5029 96.0988Z" fill="#FFCC00"/>
<path d="M37.5029 96.0988L42.7454 99.9076L44.6498 97.2864L37.5029 96.0988Z" fill="#FFCC00"/>
<path d="M101.985 57.9509L103.988 64.1137L100.906 65.1149L101.985 57.9509Z" fill="#FFCC00"/>
<path d="M101.985 57.9509L99.983 64.1137L103.064 65.1149L101.985 57.9509Z" fill="#FFCC00"/>
<path d="M95.8226 62.4284L102.303 62.4284L102.303 65.6684L95.8226 62.4284Z" fill="#FFCC00"/>
<path d="M95.8226 62.4284L101.065 66.2373L102.969 63.6161L95.8226 62.4284Z" fill="#FFCC00"/>
<path d="M98.1766 69.6732L100.179 63.5104L103.26 64.5117L98.1766 69.6732Z" fill="#FFCC00"/>
<path d="M98.1766 69.6732L103.419 65.8644L101.515 63.2432L98.1766 69.6732Z" fill="#FFCC00"/>
<path d="M108.148 62.4284L101.668 62.4284L101.668 65.6684L108.148 62.4284Z" fill="#FFCC00"/>
<path d="M108.148 62.4284L102.906 66.2372L101.002 63.616L108.148 62.4284Z" fill="#FFCC00"/>
<path d="M105.794 69.6732L103.792 63.5104L100.711 64.5117L105.794 69.6732Z" fill="#FFCC00"/>
<path d="M105.794 69.6732L100.552 65.8644L102.456 63.2432L105.794 69.6732Z" fill="#FFCC00"/>
<path d="M86.354 36.0033L81.1116 32.1945L83.016 29.5733L86.354 36.0033Z" fill="#FFCC00"/>
<path d="M86.354 36.0033L84.3516 29.8405L81.2702 30.8417L86.354 36.0033Z" fill="#FFCC00"/>
<path d="M88.7079 28.7578L83.4655 32.5667L81.561 29.9455L88.7079 28.7578Z" fill="#FFCC00"/>
<path d="M88.7079 28.7578L82.2279 28.7578L82.2279 31.9978L88.7079 28.7578Z" fill="#FFCC00"/>
<path d="M82.5452 24.2802L84.5476 30.443L81.4662 31.4442L82.5452 24.2802Z" fill="#FFCC00"/>
<path d="M82.5452 24.2802L80.5427 30.443L83.6242 31.4442L82.5452 24.2802Z" fill="#FFCC00"/>
<path d="M78.7365 36.0013L83.9789 32.1925L82.0745 29.5713L78.7365 36.0013Z" fill="#FFCC00"/>
<path d="M78.7365 36.0013L80.7389 29.8385L83.8203 30.8397L78.7365 36.0013Z" fill="#FFCC00"/>
<path d="M76.3824 28.7566L81.6249 32.5654L83.5293 29.9442L76.3824 28.7566Z" fill="#FFCC00"/>
<path d="M76.3824 28.7566L82.8624 28.7566L82.8624 31.9965L76.3824 28.7566Z" fill="#FFCC00"/>
<path d="M92.9674 50.2339L94.9698 44.0711L98.0513 45.0723L92.9674 50.2339Z" fill="#FFCC00"/>
<path d="M92.9674 50.2339L98.2098 46.4251L96.3054 43.8039L92.9674 50.2339Z" fill="#FFCC00"/>
<path d="M100.585 50.2332L95.3428 46.4244L97.2472 43.8032L100.585 50.2332Z" fill="#FFCC00"/>
<path d="M100.585 50.2332L98.5828 44.0704L95.5014 45.0716L100.585 50.2332Z" fill="#FFCC00"/>
<path d="M102.939 42.9885L97.6968 46.7973L95.7924 44.1761L102.939 42.9885Z" fill="#FFCC00"/>
<path d="M102.939 42.9885L96.4592 42.9885L96.4592 46.2285L102.939 42.9885Z" fill="#FFCC00"/>
<path d="M90.6134 42.9899L95.8558 46.7987L97.7603 44.1775L90.6134 42.9899Z" fill="#FFCC00"/>
<path d="M90.6134 42.9899L97.0934 42.9899L97.0934 46.2299L90.6134 42.9899Z" fill="#FFCC00"/>
<path d="M96.7762 38.5124L94.7738 44.6752L97.8552 45.6764L96.7762 38.5124Z" fill="#FFCC00"/>
<path d="M96.7762 38.5124L98.7787 44.6752L95.6973 45.6764L96.7762 38.5124Z" fill="#FFCC00"/>
<path d="M90.6138 81.8687L97.0938 81.8687L97.0938 85.1087L90.6138 81.8687Z" fill="#FFCC00"/>
<path d="M90.6138 81.8687L95.8562 85.6775L97.7606 83.0563L90.6138 81.8687Z" fill="#FFCC00"/>
<path d="M92.9679 89.1143L94.9703 82.9515L98.0517 83.9527L92.9679 89.1143Z" fill="#FFCC00"/>
<path d="M92.9679 89.1143L98.2103 85.3055L96.3059 82.6843L92.9679 89.1143Z" fill="#FFCC00"/>
<path d="M100.586 89.1139L95.3431 85.305L97.2476 82.6838L100.586 89.1139Z" fill="#FFCC00"/>
<path d="M100.586 89.1139L98.5831 82.9511L95.5017 83.9523L100.586 89.1139Z" fill="#FFCC00"/>
<path d="M96.7767 77.392L94.7743 83.5548L97.8557 84.556L96.7767 77.392Z" fill="#FFCC00"/>
<path d="M96.7767 77.392L98.7792 83.5548L95.6977 84.556L96.7767 77.392Z" fill="#FFCC00"/>
<path d="M102.939 81.8693L96.4593 81.8693L96.4593 85.1093L102.939 81.8693Z" fill="#FFCC00"/>
<path d="M102.939 81.8693L97.6969 85.6781L95.7925 83.0569L102.939 81.8693Z" fill="#FFCC00"/>
<path d="M76.3827 96.0989L82.8627 96.0989L82.8627 99.3389L76.3827 96.0989Z" fill="#FFCC00"/>
<path d="M76.3827 96.0989L81.6251 99.9077L83.5295 97.2865L76.3827 96.0989Z" fill="#FFCC00"/>
<path d="M78.7366 103.344L80.739 97.1812L83.8204 98.1824L78.7366 103.344Z" fill="#FFCC00"/>
<path d="M78.7366 103.344L83.979 99.5352L82.0746 96.914L78.7366 103.344Z" fill="#FFCC00"/>
<path d="M86.3542 103.344L81.1118 99.5354L83.0162 96.9142L86.3542 103.344Z" fill="#FFCC00"/>
<path d="M86.3542 103.344L84.3518 97.1814L81.2704 98.1826L86.3542 103.344Z" fill="#FFCC00"/>
<path d="M82.5454 91.6212L80.543 97.7841L83.6244 98.7853L82.5454 91.6212Z" fill="#FFCC00"/>
<path d="M82.5454 91.6212L84.5478 97.7841L81.4664 98.7853L82.5454 91.6212Z" fill="#FFCC00"/>
<path d="M88.7083 96.0988L82.2283 96.0988L82.2283 99.3387L88.7083 96.0988Z" fill="#FFCC00"/>
<path d="M88.7083 96.0988L83.4658 99.9076L81.5614 97.2864L88.7083 96.0988Z" fill="#FFCC00"/>
</g>
</g>
<defs>
<clipPath id="clip0_1665_3441">
<rect width="128" height="128" fill="white"/>
</clipPath>
<clipPath id="clip1_1665_3441">
<rect width="128" height="128" fill="white"/>
</clipPath>
</defs>
</svg>