<!-- This is a temporary logo for the British Pound until k2-alpine is ready -->
<svg width="128" height="128" viewBox="0 0 128 128" fill="none" xmlns="http://www.w3.org/2000/svg">
<g clip-path="url(#clip0_1665_3410)">
<rect width="128" height="128" fill="white"/>
<g clip-path="url(#clip1_1665_3410)">
<rect width="128" height="128" fill="#003399"/>
<rect width="128" height="128" fill="#003399"/>
<path d="M-27.0457 0.000152588L152.954 128L-27.0457 0.000152588ZM152.954 0.000152588L-27.0457 128L152.954 0.000152588Z" fill="black"/>
<path fill-rule="evenodd" clip-rule="evenodd" d="M42.2476 64.0002L-34 9.77963L-20.0914 -9.7793L62.9543 49.2754L146 -9.7793L159.909 9.77963L83.6609 64.0002L159.909 118.221L146 137.78L62.9543 78.7249L-20.0914 137.78L-34 118.221L42.2476 64.0002Z" fill="white"/>
<mask id="mask0_1665_3410" style="mask-type:luminance" maskUnits="userSpaceOnUse" x="-28" y="0" width="181" height="129">
<path d="M62.9543 64.0002H152.954V128L62.9543 64.0002ZM62.9543 64.0002V128H-27.0457L62.9543 64.0002ZM62.9543 64.0002H-27.0457V0.000152588L62.9543 64.0002ZM62.9543 64.0002V0.000152588H152.954L62.9543 64.0002Z" fill="white"/>
</mask>
<g mask="url(#mask0_1665_3410)">
<path d="M-27.0457 0.000152588L152.954 128L-27.0457 0.000152588ZM152.954 0.000152588L-27.0457 128L152.954 0.000152588Z" fill="black"/>
<path fill-rule="evenodd" clip-rule="evenodd" d="M49.1499 64.0002L-31.6819 6.5198L-22.4095 -6.51949L62.9543 54.1837L148.318 -6.51949L157.59 6.5198L76.7587 64.0002L157.59 121.481L148.318 134.52L62.9543 73.8167L-22.4095 134.52L-31.6819 121.481L49.1499 64.0002Z" fill="#D80027"/>
</g>
<path d="M62.9543 0.000152588V128V0.000152588ZM-27.0457 64.0002H152.954H-27.0457Z" fill="black"/>
<path fill-rule="evenodd" clip-rule="evenodd" d="M42.9543 44.0002V0.000152588H82.9543V44.0002H152.954V84.0002H82.9543V128H42.9543V84.0002H-27.0457V44.0002H42.9543Z" fill="white"/>
<path d="M62.9543 0.000152588V128V0.000152588ZM-27.0457 64.0002H152.954H-27.0457Z" fill="black"/>
<path fill-rule="evenodd" clip-rule="evenodd" d="M50.9543 52.0002V0.000152588H74.9543V52.0002H152.954V76.0002H74.9543V128H50.9543V76.0002H-27.0457V52.0002H50.9543Z" fill="#D80027"/>
</g>
</g>
<defs>
<clipPath id="clip0_1665_3410">
<rect width="128" height="128" fill="white"/>
</clipPath>
<clipPath id="clip1_1665_3410">
<rect width="128" height="128" fill="white"/>
</clipPath>
</defs>
</svg>