<!-- This is a temporary logo for the Hong Kong Dollar until k2-alpine is ready -->
<svg width="128" height="128" viewBox="0 0 128 128" fill="none" xmlns="http://www.w3.org/2000/svg">
<g clip-path="url(#clip0_1665_6842)">
<rect width="128" height="128" fill="white"/>
<g clip-path="url(#clip1_1665_6842)">
<rect width="128" height="128" fill="#D80027"/>
<rect width="128" height="128" fill="#D80027"/>
<path d="M74.7908 21.4768C73.7916 21.8018 72.8797 22.3566 72.1258 23.0979C71.372 23.8393 70.7965 24.7473 70.4441 25.7513C70.0918 26.7554 69.972 27.8285 70.0942 28.8872C70.2164 29.9459 70.5772 30.9618 71.1485 31.8558C72.0272 33.2307 72.5986 34.7845 72.8226 36.408C73.0466 38.0315 72.9177 39.6851 72.4449 41.2525C71.9721 42.8199 71.167 44.2629 70.0862 45.4801C69.0054 46.6973 67.6752 47.659 66.1892 48.2975C64.7255 48.9265 63.4415 49.9205 62.4563 51.1876C61.471 52.4546 60.8163 53.9538 60.5527 55.5462C60.2891 57.1387 60.4252 58.7729 60.9483 60.2978C61.4715 61.8226 62.3647 63.1887 63.5454 64.2696C59.9943 61.7022 57.5707 57.827 56.7913 53.4699C56.012 49.1129 56.9387 44.619 59.3737 40.9463C59.2793 40.864 59.1888 40.7772 59.1026 40.686C56.6109 44.4154 55.6451 48.9835 56.4094 53.4236C57.1737 57.8637 59.6082 61.8275 63.1978 64.4761C58.1635 62.4274 54.0473 58.5679 51.6338 53.6335C49.2203 48.6991 48.6783 43.0349 50.1111 37.7205C51.5439 32.4061 54.8513 27.8133 59.4029 24.8175C63.9544 21.8218 69.4318 20.6327 74.7908 21.4768Z" fill="white"/>
<path d="M64.7799 35.3603L58.0425 38.3458L65.2203 39.9542L60.3438 34.3662L61.0563 41.7994" fill="#D80027"/>
<path d="M108.174 61.6168C107.561 60.7517 106.76 60.0419 105.833 59.5425C104.906 59.0431 103.878 58.7676 102.83 58.7374C101.781 58.7071 100.74 58.923 99.7863 59.3682C98.833 59.8135 97.9937 60.476 97.3334 61.3044C96.318 62.5784 95.0402 63.6108 93.5898 64.3289C92.1394 65.047 90.5517 65.4334 88.9385 65.4609C87.3254 65.4884 85.7258 65.1563 84.2526 64.488C82.7793 63.8197 81.4681 62.8315 80.4112 61.5928C79.3701 60.3727 78.043 59.4392 76.5525 58.8786C75.0621 58.3181 73.4565 58.1487 71.8845 58.386C70.3125 58.6234 68.8248 59.2599 67.5592 60.2366C66.2936 61.2133 65.291 62.4987 64.6441 63.9737C65.9498 59.7487 68.8282 56.2091 72.6656 54.1097C76.503 52.0102 80.9958 51.5169 85.186 52.7351C85.2338 52.6184 85.2871 52.5041 85.3458 52.3927C81.0851 51.1373 76.5108 51.6156 72.591 53.7262C68.6711 55.8369 65.7133 59.4143 64.3433 63.7015C64.7053 58.2036 67.0458 53.0334 70.9187 49.1763C74.7916 45.3192 79.926 43.0451 85.3431 42.7874C90.7602 42.5298 96.0812 44.3066 100.292 47.7792C104.502 51.2518 107.308 56.1773 108.174 61.6168Z" fill="white"/>
<path d="M92.085 56.2338L87.2085 50.6458L87.921 58.079L91.6446 51.6398L84.9072 54.6254" fill="#D80027"/>
<path d="M30.6923 93.7446C31.6886 94.0784 32.7473 94.1742 33.7861 94.0247C34.8248 93.8751 35.8156 93.4843 36.6815 92.8824C37.5474 92.2805 38.2651 91.4839 38.7787 90.5544C39.2923 89.6249 39.5881 88.5876 39.6431 87.5231C39.7275 85.886 40.1641 84.2876 40.9221 82.8404C41.6801 81.3933 42.741 80.1325 44.0302 79.1468C45.3194 78.1611 46.8055 77.4745 48.384 77.1352C49.9625 76.796 51.595 76.8124 53.1666 77.1833C54.7146 77.5486 56.3284 77.5113 57.8585 77.0746C59.3885 76.6379 60.7854 75.8161 61.9199 74.6852C63.0544 73.5544 63.8897 72.1509 64.3486 70.6049C64.8075 69.0589 64.8751 67.4202 64.5451 65.8406C65.9329 70.0385 65.6518 74.6211 63.7618 78.6114C61.8718 82.6017 58.5224 85.684 54.4278 87.201C54.4566 87.324 54.4796 87.4483 54.4966 87.5735C58.6698 86.0444 62.0938 82.9256 64.044 78.877C65.9943 74.8284 66.3177 70.1677 64.9459 65.8811C67.8335 70.5452 68.9309 76.1259 68.029 81.5593C67.1271 86.9927 64.2888 91.899 60.0554 95.3427C55.8219 98.7864 50.4892 100.527 45.0739 100.232C39.6587 99.9373 34.5395 97.6281 30.6923 93.7446Z" fill="white"/>
<path d="M46.8239 88.4915L54.0001 90.0992L49.1249 84.5124L49.8369 91.9443L53.5601 85.506" fill="#D80027"/>
<path d="M80.9195 106.279C81.5398 105.419 81.9567 104.426 82.1377 103.376C82.3187 102.326 82.259 101.248 81.9632 100.225C81.6674 99.2021 81.1436 98.2624 80.4323 97.4789C79.721 96.6953 78.8414 96.0889 77.862 95.7069C76.3558 95.1194 74.9946 94.2035 73.8742 93.0239C72.7539 91.8442 71.9016 90.4294 71.3773 88.879C70.8531 87.3286 70.6696 85.6803 70.8399 84.0501C71.0102 82.42 71.53 80.8475 72.3628 79.4434C73.1831 78.0604 73.6468 76.4894 73.7109 74.8759C73.775 73.2624 73.4375 71.6585 72.7295 70.2128C72.0215 68.7671 70.966 67.5262 69.6607 66.605C68.3554 65.6838 66.8425 65.1121 65.262 64.9428C69.6201 64.899 73.8227 66.5867 76.9736 69.6461C80.1246 72.7056 81.9746 76.8947 82.1293 81.3203C82.2533 81.3304 82.3767 81.3467 82.4991 81.3689C82.3575 76.8637 80.4964 72.5912 77.3095 69.4555C74.1226 66.3198 69.86 64.5671 65.4238 64.568C70.6817 63.2189 76.2445 63.883 81.0515 66.4336C85.8586 68.9841 89.5738 73.2429 91.489 78.3981C93.4041 83.5532 93.3853 89.2442 91.436 94.3861C89.4867 99.528 85.7433 103.761 80.9195 106.279Z" fill="white"/>
<path d="M80.9867 89.0692L84.7103 82.63L77.9729 85.6156L85.1507 87.224L80.2742 81.636" fill="#D80027"/>
<path d="M26.9044 41.3331C26.8998 42.399 27.1373 43.4517 27.5982 44.4093C28.0592 45.3668 28.7312 46.2035 29.5622 46.8543C30.3931 47.505 31.3605 47.9524 32.3893 48.1615C33.418 48.3706 34.4803 48.3359 35.4937 48.06C37.0522 47.6358 38.6832 47.5637 40.272 47.849C41.8608 48.1342 43.3688 48.7698 44.6898 49.711C46.0108 50.6522 47.1127 51.8762 47.918 53.2967C48.7233 54.7172 49.2124 56.2998 49.3509 57.9331C49.4873 59.542 50.021 61.0899 50.9025 62.4335C51.7841 63.7771 52.985 64.8731 54.3941 65.6199C55.8032 66.3667 57.3749 66.7402 58.9638 66.7059C60.5527 66.6716 62.1075 66.2305 63.4841 65.4235C59.9836 68.0618 55.6073 69.2063 51.2883 68.613C46.9693 68.0197 43.0492 65.7356 40.3639 62.2476C40.2577 62.3134 40.1485 62.374 40.0366 62.4291C42.7574 65.9893 46.7347 68.3343 51.1269 68.9678C55.5191 69.6013 59.9815 68.4736 63.57 65.8234C60.0966 70.0551 55.2121 72.8401 49.8477 73.6475C44.4832 74.455 39.0138 73.2284 34.4822 70.2016C29.9506 67.1748 26.6737 62.5594 25.2762 57.2353C23.8787 51.9113 24.4582 46.2508 26.9044 41.3331Z" fill="white"/>
<path d="M36.8056 55.2974L37.5178 62.7295L41.2407 56.2912L34.5047 59.2765L41.6808 60.8845" fill="#D80027"/>
</g>
</g>
<defs>
<clipPath id="clip0_1665_6842">
<rect width="128" height="128" fill="white"/>
</clipPath>
<clipPath id="clip1_1665_6842">
<rect width="128" height="128" fill="white"/>
</clipPath>
</defs>
</svg>