<!-- This is a temporary logo for the United States Dollar until k2-alpine is ready -->
<svg width="128" height="128" viewBox="0 0 128 128" fill="none" xmlns="http://www.w3.org/2000/svg">
<g clip-path="url(#clip0_1665_3408)">
<rect width="128" height="128" fill="white"/>
<rect width="128" height="128" fill="white"/>
<rect width="64" height="64" fill="#003399"/>
<path d="M49.6085 43.4473L53.3703 55.025L43.5217 47.8696H55.6953L45.8467 55.025L49.6085 43.4473Z" fill="white"/>
<path d="M31.6085 43.4473L35.3703 55.025L25.5217 47.8696H37.6953L27.8467 55.025L31.6085 43.4473Z" fill="white"/>
<path d="M13.6085 43.4473L17.3703 55.025L7.52173 47.8696H19.6953L9.84667 55.025L13.6085 43.4473Z" fill="white"/>
<path d="M49.6085 25.4473L53.3703 37.025L43.5217 29.8696H55.6953L45.8467 37.025L49.6085 25.4473Z" fill="white"/>
<path d="M31.6085 25.4473L35.3703 37.025L25.5217 29.8696H37.6953L27.8467 37.025L31.6085 25.4473Z" fill="white"/>
<path d="M13.6085 25.4473L17.3703 37.025L7.52173 29.8696H19.6953L9.84667 37.025L13.6085 25.4473Z" fill="white"/>
<path d="M49.6085 7.44727L53.3703 19.025L43.5217 11.8696H55.6953L45.8467 19.025L49.6085 7.44727Z" fill="white"/>
<path d="M31.6085 7.44727L35.3703 19.025L25.5217 11.8696H37.6953L27.8467 19.025L31.6085 7.44727Z" fill="white"/>
<path d="M13.6085 7.44727L17.3703 19.025L7.52173 11.8696H19.6953L9.84667 19.025L13.6085 7.44727Z" fill="white"/>
<rect x="64" y="48" width="64" height="16" fill="#D80027"/>
<rect y="80" width="128" height="16" fill="#D80027"/>
<rect y="112" width="128" height="16" fill="#D80027"/>
<rect x="64" y="16" width="64" height="16" fill="#D80027"/>
</g>
<defs>
<clipPath id="clip0_1665_3408">
<rect width="128" height="128" fill="white"/>
</clipPath>
</defs>
</svg>