<svg width="212" height="157" viewBox="0 0 212 157" fill="none" xmlns="http://www.w3.org/2000/svg">
<rect opacity="0.6" x="1" y="1" width="210" height="155" rx="6" fill="#28282E" fill-opacity="0.1" stroke="#28282E" stroke-width="2"/>
<circle opacity="0.6" cx="9" cy="9" r="2" fill="#28282E"/>
<circle opacity="0.6" cx="15" cy="9" r="2" fill="#28282E"/>
<circle opacity="0.6" cx="21" cy="9" r="2" fill="#28282E"/>
<rect opacity="0.2" x="46" y="5" width="120" height="8" rx="4" fill="#28282E"/>
<circle opacity="0.3" cx="201" cy="9" r="3" fill="#28282E"/>
<circle cx="192" cy="9" r="3" fill="#28282E"/>
<line opacity="0.6" x1="2" y1="17" x2="210" y2="17" stroke="#28282E" stroke-width="2"/>
<rect x="147" y="15" width="50" height="77" rx="4" fill="#28282E"/>
<rect x="146.5" y="14.5" width="51" height="78" rx="4.5" stroke="white" stroke-opacity="0.1"/>
<path d="M169.217 41.1494C169.767 41.1494 170.266 41.2716 170.714 41.5159C171.161 41.7602 171.514 42.106 171.772 42.5533C172.03 43.0006 172.159 43.5167 172.159 44.1017C172.159 44.6866 172.026 45.2027 171.761 45.6501C171.496 46.0974 171.138 46.4432 170.688 46.6875C170.237 46.9318 169.733 47.0539 169.175 47.0539C168.625 47.0539 168.129 46.9318 167.689 46.6875C167.249 46.4432 166.903 46.0974 166.652 45.6501C166.4 45.2027 166.275 44.6866 166.275 44.1017C166.275 43.5167 166.404 43.0006 166.662 42.5533C166.92 42.106 167.273 41.7602 167.72 41.5159C168.167 41.2716 168.666 41.1494 169.217 41.1494ZM169.217 42.5533C168.927 42.5533 168.664 42.6174 168.429 42.7455C168.194 42.8736 168.008 43.055 167.872 43.2896C167.736 43.5242 167.668 43.7949 167.668 44.1017C167.668 44.4085 167.734 44.6792 167.867 44.9138C167.999 45.1484 168.181 45.3297 168.413 45.4579C168.645 45.586 168.905 45.6501 169.195 45.6501C169.488 45.6501 169.754 45.586 169.991 45.4579C170.228 45.3297 170.417 45.1484 170.556 44.9138C170.695 44.6792 170.765 44.4085 170.765 44.1017C170.765 43.7949 170.697 43.5242 170.561 43.2896C170.426 43.055 170.24 42.8736 170.005 42.7455C169.769 42.6174 169.507 42.5533 169.217 42.5533ZM163.942 41.1494C164.492 41.1494 164.991 41.2716 165.439 41.5159C165.886 41.7602 166.239 42.106 166.497 42.5533C166.643 42.8061 166.747 43.0809 166.811 43.3777L165.307 43.3778C165.207 43.0828 164.991 42.8736 164.756 42.7455C164.52 42.6174 164.258 42.5533 163.968 42.5533C163.678 42.5533 163.415 42.6174 163.18 42.7455C162.945 42.8736 162.759 43.055 162.623 43.2896C162.487 43.5242 162.419 43.7949 162.419 44.1017C162.419 44.4085 162.485 44.6792 162.618 44.9138C162.75 45.1484 162.932 45.3297 163.164 45.4579C163.395 45.586 163.656 45.6501 163.946 45.6501C164.239 45.6501 164.505 45.586 164.742 45.4579C164.979 45.3297 165.168 45.1484 165.307 44.9138L166.788 44.9138C166.722 45.177 166.621 45.4224 166.486 45.6501C166.222 46.0974 165.864 46.4432 165.413 46.6875C164.962 46.9318 164.458 47.0539 163.901 47.0539C163.35 47.0539 162.855 46.9318 162.414 46.6875C161.974 46.4432 161.628 46.0974 161.377 45.6501C161.126 45.2027 161 44.6866 161 44.1017C161 43.5167 161.129 43.0006 161.387 42.5533C161.645 42.106 161.998 41.7602 162.445 41.5159C162.892 41.2716 163.391 41.1494 163.942 41.1494ZM179.182 41.1494C179.726 41.1494 180.212 41.2664 180.643 41.5004C181.073 41.7344 181.406 42.0664 181.644 42.4965C181.881 42.9266 182 43.4204 182 43.9778C182 44.1843 181.986 44.3701 181.959 44.5352H177.778L177.784 44.5965C177.827 44.9802 177.97 45.2833 178.212 45.5055C178.466 45.7395 178.779 45.8565 179.151 45.8565C179.688 45.8565 180.07 45.626 180.297 45.1649H181.855L181.834 45.2332C181.664 45.753 181.354 46.1827 180.906 46.5223C180.438 46.8767 179.863 47.0539 179.182 47.0539C178.631 47.0539 178.138 46.9318 177.701 46.6875C177.264 46.4432 176.923 46.0974 176.679 45.6501C176.434 45.2027 176.312 44.6866 176.312 44.1017C176.312 43.5965 176.4 43.1439 176.576 42.7441L176.122 42.7441L176.059 42.7449C175.767 42.753 175.527 42.8176 175.339 42.9387C175.139 43.0685 174.993 43.2457 174.903 43.4705C174.813 43.6953 174.767 43.952 174.767 44.2408V45.708H176.333V47.0294H172.047V45.708H173.203V42.6526H172.047V41.3314H174.651L174.699 42.3208L174.738 42.2502C174.833 42.0878 174.944 41.9419 175.072 41.8125C175.217 41.6647 175.397 41.5475 175.612 41.4611C175.828 41.3746 176.089 41.3314 176.395 41.3314H177.056L177.056 42.0036C177.236 41.8079 177.446 41.6436 177.685 41.5107C178.119 41.2698 178.618 41.1494 179.182 41.1494ZM179.141 42.3365C178.783 42.3365 178.482 42.4449 178.237 42.6617C177.993 42.8784 177.843 43.1795 177.788 43.5649H180.503C180.496 43.1933 180.362 42.8956 180.101 42.672C179.839 42.4483 179.519 42.3365 179.141 42.3365Z" fill="white"/>
<path d="M170 68.1547C171.238 67.4402 172.762 67.4402 174 68.1547L176.928 69.8453C178.166 70.5598 178.928 71.8803 178.928 73.3094V76.6906C178.928 78.1197 178.166 79.4402 176.928 80.1547L174 81.8453C172.762 82.5598 171.238 82.5598 170 81.8453L167.072 80.1547C165.834 79.4402 165.072 78.1197 165.072 76.6906V73.3094C165.072 71.8803 165.834 70.5598 167.072 69.8453L170 68.1547Z" fill="white" fill-opacity="0.3"/>
<path d="M170.25 68.5879C171.265 68.0018 172.501 67.9648 173.544 68.4775L173.75 68.5879L176.678 70.2783C177.761 70.9035 178.428 72.0591 178.428 73.3096V76.6904C178.428 77.9409 177.761 79.0965 176.678 79.7217L173.75 81.4121C172.735 81.9982 171.499 82.0352 170.456 81.5225L170.25 81.4121L167.322 79.7217C166.239 79.0965 165.572 77.9409 165.572 76.6904V73.3096C165.572 72.0591 166.239 70.9035 167.322 70.2783L170.25 68.5879Z" stroke="white" stroke-opacity="0.1"/>
</svg>
