<svg width="212" height="157" viewBox="0 0 212 157" fill="none" xmlns="http://www.w3.org/2000/svg">
<rect opacity="0.6" x="1" y="1" width="210" height="155" rx="6" fill="#28282E" fill-opacity="0.1" stroke="#28282E" stroke-width="2"/>
<circle opacity="0.6" cx="9" cy="9" r="2" fill="#28282E"/>
<circle opacity="0.6" cx="15" cy="9" r="2" fill="#28282E"/>
<circle opacity="0.6" cx="21" cy="9" r="2" fill="#28282E"/>
<rect opacity="0.2" x="46" y="5" width="120" height="8" rx="4" fill="#28282E"/>
<circle opacity="0.3" cx="201" cy="9" r="3" fill="#28282E"/>
<circle cx="192" cy="9" r="3" fill="#28282E"/>
<line opacity="0.6" x1="2" y1="17" x2="210" y2="17" stroke="#28282E" stroke-width="2"/>
<path d="M156 82L156 90" stroke="#28282E" stroke-opacity="0.3" stroke-width="2" stroke-linecap="round"/>
<path d="M158 24C158 21.7909 159.791 20 162 20H204C206.209 20 208 21.7909 208 24V149C208 151.209 206.209 153 204 153H162C159.791 153 158 151.209 158 149V24Z" fill="#28282E"/>
<path d="M204 19.5C206.485 19.5 208.5 21.5147 208.5 24V149C208.5 151.485 206.485 153.5 204 153.5H162C159.515 153.5 157.5 151.485 157.5 149V24C157.5 21.5147 159.515 19.5 162 19.5H204Z" stroke="white" stroke-opacity="0.1"/>
<path d="M181.217 71.1494C181.767 71.1494 182.266 71.2716 182.714 71.5159C183.161 71.7602 183.514 72.106 183.772 72.5533C184.03 73.0006 184.159 73.5167 184.159 74.1017C184.159 74.6866 184.026 75.2027 183.761 75.6501C183.496 76.0974 183.138 76.4432 182.688 76.6875C182.237 76.9318 181.733 77.0539 181.175 77.0539C180.625 77.0539 180.129 76.9318 179.689 76.6875C179.249 76.4432 178.903 76.0974 178.652 75.6501C178.4 75.2027 178.275 74.6866 178.275 74.1017C178.275 73.5167 178.404 73.0006 178.662 72.5533C178.92 72.106 179.273 71.7602 179.72 71.5159C180.167 71.2716 180.666 71.1494 181.217 71.1494ZM181.217 72.5533C180.927 72.5533 180.664 72.6174 180.429 72.7455C180.194 72.8736 180.008 73.055 179.872 73.2896C179.736 73.5242 179.668 73.7949 179.668 74.1017C179.668 74.4085 179.734 74.6792 179.867 74.9138C179.999 75.1484 180.181 75.3297 180.413 75.4579C180.645 75.586 180.905 75.6501 181.195 75.6501C181.488 75.6501 181.754 75.586 181.991 75.4579C182.228 75.3297 182.417 75.1484 182.556 74.9138C182.695 74.6792 182.765 74.4085 182.765 74.1017C182.765 73.7949 182.697 73.5242 182.561 73.2896C182.426 73.055 182.24 72.8736 182.005 72.7455C181.769 72.6174 181.507 72.5533 181.217 72.5533ZM175.942 71.1494C176.492 71.1494 176.991 71.2716 177.439 71.5159C177.886 71.7602 178.239 72.106 178.497 72.5533C178.643 72.8061 178.747 73.0809 178.811 73.3777L177.307 73.3778C177.207 73.0828 176.991 72.8736 176.756 72.7455C176.52 72.6174 176.258 72.5533 175.968 72.5533C175.678 72.5533 175.415 72.6174 175.18 72.7455C174.945 72.8736 174.759 73.055 174.623 73.2896C174.487 73.5242 174.419 73.7949 174.419 74.1017C174.419 74.4085 174.485 74.6792 174.618 74.9138C174.75 75.1484 174.932 75.3297 175.164 75.4579C175.395 75.586 175.656 75.6501 175.946 75.6501C176.239 75.6501 176.505 75.586 176.742 75.4579C176.979 75.3297 177.168 75.1484 177.307 74.9138L178.788 74.9138C178.722 75.177 178.621 75.4224 178.486 75.6501C178.222 76.0974 177.864 76.4432 177.413 76.6875C176.962 76.9318 176.458 77.0539 175.901 77.0539C175.35 77.0539 174.855 76.9318 174.414 76.6875C173.974 76.4432 173.628 76.0974 173.377 75.6501C173.126 75.2027 173 74.6866 173 74.1017C173 73.5167 173.129 73.0006 173.387 72.5533C173.645 72.106 173.998 71.7602 174.445 71.5159C174.892 71.2716 175.391 71.1494 175.942 71.1494ZM191.182 71.1494C191.726 71.1494 192.212 71.2664 192.643 71.5004C193.073 71.7344 193.406 72.0664 193.644 72.4965C193.881 72.9266 194 73.4204 194 73.9778C194 74.1843 193.986 74.3701 193.959 74.5352H189.778L189.784 74.5965C189.827 74.9802 189.97 75.2833 190.212 75.5055C190.466 75.7395 190.779 75.8565 191.151 75.8565C191.688 75.8565 192.07 75.626 192.297 75.1649H193.855L193.834 75.2332C193.664 75.753 193.354 76.1827 192.906 76.5223C192.438 76.8767 191.863 77.0539 191.182 77.0539C190.631 77.0539 190.138 76.9318 189.701 76.6875C189.264 76.4432 188.923 76.0974 188.679 75.6501C188.434 75.2027 188.312 74.6866 188.312 74.1017C188.312 73.5965 188.4 73.1439 188.576 72.7441L188.122 72.7441L188.059 72.7449C187.767 72.753 187.527 72.8176 187.339 72.9387C187.139 73.0685 186.993 73.2457 186.903 73.4705C186.813 73.6953 186.767 73.952 186.767 74.2408V75.708H188.333V77.0294H184.047V75.708H185.203V72.6526H184.047V71.3314H186.651L186.699 72.3208L186.738 72.2502C186.833 72.0878 186.944 71.9419 187.072 71.8125C187.217 71.6647 187.397 71.5475 187.612 71.4611C187.828 71.3746 188.089 71.3314 188.395 71.3314H189.056L189.056 72.0036C189.236 71.8079 189.446 71.6436 189.685 71.5107C190.119 71.2698 190.618 71.1494 191.182 71.1494ZM191.141 72.3365C190.783 72.3365 190.482 72.4449 190.237 72.6617C189.993 72.8784 189.843 73.1795 189.788 73.5649H192.503C192.496 73.1933 192.362 72.8956 192.101 72.672C191.839 72.4483 191.519 72.3365 191.141 72.3365Z" fill="white"/>
<path d="M181 123.155C182.238 122.44 183.762 122.44 185 123.155L187.928 124.845C189.166 125.56 189.928 126.88 189.928 128.309V131.691C189.928 133.12 189.166 134.44 187.928 135.155L185 136.845C183.762 137.56 182.238 137.56 181 136.845L178.072 135.155C176.834 134.44 176.072 133.12 176.072 131.691V128.309C176.072 126.88 176.834 125.56 178.072 124.845L181 123.155Z" fill="white" fill-opacity="0.3"/>
<path d="M181.25 123.588C182.265 123.002 183.501 122.965 184.544 123.478L184.75 123.588L187.678 125.278C188.761 125.904 189.428 127.059 189.428 128.31V131.69C189.428 132.941 188.761 134.096 187.678 134.722L184.75 136.412C183.735 136.998 182.499 137.035 181.456 136.522L181.25 136.412L178.322 134.722C177.239 134.096 176.572 132.941 176.572 131.69V128.31C176.572 127.059 177.239 125.904 178.322 125.278L181.25 123.588Z" stroke="white" stroke-opacity="0.1"/>
</svg>
