<svg width="65" height="64" viewBox="0 0 65 64" fill="none" xmlns="http://www.w3.org/2000/svg">
<path d="M32.5 64C50.1731 64 64.5 49.6731 64.5 32C64.5 14.3269 50.1731 0 32.5 0C14.8269 0 0.5 14.3269 0.5 32C0.5 49.6731 14.8269 64 32.5 64Z" fill="#0052FF"/>
<path d="M32.7687 22.6144C36.5362 22.6144 39.525 24.9381 40.66 28.3937H48.25C46.875 21.0056 40.7794 16 32.8294 16C23.8013 16 16.75 22.8531 16.75 32.0306C16.75 41.2081 23.625 48 32.8294 48C40.6013 48 46.8181 42.9944 48.1944 35.545H40.6594C39.5831 39.0012 36.5969 41.3856 32.8269 41.3856C27.625 41.3856 23.9794 37.3925 23.9794 32.0306C23.9819 26.6075 27.5687 22.6144 32.7687 22.6144Z" fill="white"/>
</svg>

