<svg width="256" height="93" viewBox="0 0 256 93" fill="none" xmlns="http://www.w3.org/2000/svg">
<path d="M106.382 41.3018C108.617 41.3019 110.467 41.6873 111.932 42.458C113.422 43.2031 114.539 44.3597 115.284 45.9268C116.029 47.4683 116.402 49.4598 116.402 51.9004C116.402 54.3154 116.029 56.3077 115.284 57.875C114.539 59.4419 113.421 60.6111 111.932 61.3818C110.467 62.1269 108.617 62.4999 106.382 62.5C104.172 62.5 102.321 62.1269 100.831 61.3818C99.3411 60.6111 98.2236 59.4421 97.4785 57.875C96.7334 56.3077 96.3604 54.3156 96.3604 51.9004C96.3604 49.4598 96.7335 47.4683 97.4785 45.9268C98.2236 44.3598 99.3411 43.2031 100.831 42.458C102.321 41.6873 104.172 41.3018 106.382 41.3018ZM154.058 44.1152H154.288C154.699 43.4988 155.201 42.9852 155.792 42.5742C156.383 42.1377 157.063 41.8158 157.834 41.6104C158.605 41.4049 159.453 41.3018 160.378 41.3018C161.894 41.3018 163.231 41.6749 164.387 42.4199C165.568 43.165 166.493 44.3216 167.161 45.8887C167.829 47.4302 168.163 49.4216 168.163 51.8623C168.163 54.3286 167.829 56.3458 167.161 57.9131C166.519 59.4801 165.594 60.6367 164.387 61.3818C163.205 62.1269 161.778 62.4999 160.108 62.5C158.798 62.5 157.603 62.2423 156.523 61.7285C155.445 61.189 154.571 60.3929 153.903 59.3398H153.633L153.248 62.0371H149.355V34.1719H154.058V44.1152ZM179.443 41.3018C181.293 41.3018 182.809 41.5585 183.991 42.0723C185.199 42.5861 186.099 43.3189 186.689 44.2695C187.28 45.2201 187.575 46.3767 187.575 47.7383V57.2969C187.575 57.7847 187.717 58.1314 187.999 58.3369C188.282 58.5424 188.591 58.6455 188.925 58.6455H190.158V61.8828C189.901 61.9856 189.528 62.1011 189.04 62.2295C188.552 62.3836 187.948 62.4609 187.229 62.4609C186.561 62.4609 185.956 62.3454 185.417 62.1143C184.903 61.9087 184.466 61.6005 184.106 61.1895C183.747 60.7784 183.49 60.2899 183.336 59.7246H183.104C182.668 60.2641 182.141 60.7527 181.524 61.1895C180.934 61.6005 180.226 61.9211 179.404 62.1523C178.608 62.3835 177.683 62.5 176.63 62.5C176.065 62.5 175.409 62.4227 174.664 62.2686C173.945 62.1401 173.238 61.8834 172.544 61.498C171.876 61.1126 171.324 60.5469 170.887 59.8018C170.45 59.031 170.231 58.029 170.231 56.7959C170.231 55.4086 170.541 54.2645 171.157 53.3652C171.774 52.4406 172.635 51.7208 173.739 51.207C174.87 50.6676 176.206 50.2944 177.747 50.0889C179.314 49.8577 181.023 49.7422 182.873 49.7422V48.085C182.873 47.4942 182.783 46.9672 182.604 46.5049C182.424 46.0426 182.09 45.6827 181.602 45.4258C181.139 45.1432 180.432 45.002 179.481 45.002C178.531 45.002 177.786 45.1175 177.246 45.3486C176.707 45.5797 176.335 45.8626 176.129 46.1963C175.923 46.5302 175.82 46.8777 175.82 47.2373V47.7764H171.272C171.247 47.6482 171.233 47.5198 171.233 47.3916V46.9287C171.234 45.7728 171.581 44.7706 172.274 43.9229C172.968 43.0752 173.932 42.4328 175.165 41.9961C176.398 41.5337 177.825 41.3018 179.443 41.3018ZM224.107 62.0371H220.215L219.83 59.3398H219.56C218.917 60.3928 218.044 61.189 216.939 61.7285C215.86 62.2423 214.665 62.4999 213.354 62.5C211.71 62.5 210.285 62.1268 209.077 61.3818C207.87 60.6367 206.931 59.4804 206.263 57.9131C205.62 56.3458 205.3 54.3287 205.3 51.8623C205.3 49.4216 205.634 47.4302 206.302 45.8887C206.97 44.3215 207.895 43.165 209.077 42.4199C210.259 41.6751 211.595 41.3018 213.085 41.3018C214.01 41.3018 214.858 41.4048 215.629 41.6104C216.4 41.8159 217.081 42.1375 217.672 42.5742C218.263 42.9852 218.764 43.4988 219.175 44.1152H219.406V34.1719H224.107V62.0371ZM82.1006 57.6816H95.3584V62.0371H77.0898V35.5977H82.1006V57.6816ZM140.914 41.3018C142.122 41.3018 143.188 41.5203 144.113 41.957C145.038 42.3938 145.77 43.1135 146.31 44.1152C146.849 45.1172 147.119 46.454 147.119 48.124V62.0371H142.417V49.0869C142.417 48.3935 142.341 47.8149 142.187 47.3525C142.032 46.8647 141.814 46.4922 141.531 46.2354C141.274 45.9528 140.94 45.7466 140.529 45.6182C140.144 45.4897 139.719 45.4258 139.257 45.4258C138.512 45.4258 137.844 45.6321 137.253 46.043C136.662 46.454 136.187 47.0192 135.827 47.7383C135.493 48.4576 135.326 49.2927 135.326 50.2432V62.0371H130.624V49.0869C130.624 48.3935 130.547 47.8149 130.393 47.3525C130.238 46.8647 130.02 46.4922 129.737 46.2354C129.48 45.9528 129.146 45.7466 128.735 45.6182C128.35 45.4897 127.925 45.4258 127.463 45.4258C126.718 45.4259 126.037 45.6321 125.421 46.043C124.83 46.454 124.354 47.019 123.994 47.7383C123.66 48.4575 123.493 49.2928 123.493 50.2432V62.0371H118.791V41.7646H122.723L123.108 44.4619H123.378C123.815 43.8456 124.316 43.306 124.881 42.8438C125.446 42.3558 126.088 41.9825 126.808 41.7256C127.553 41.4431 128.363 41.3018 129.236 41.3018C130.418 41.3018 131.472 41.5461 132.396 42.0342C133.321 42.5223 134.041 43.3317 134.555 44.4619H134.824C135.261 43.8455 135.775 43.3061 136.366 42.8438C136.957 42.3557 137.639 41.9825 138.409 41.7256C139.18 41.4431 140.015 41.3018 140.914 41.3018ZM201.849 41.3018C202.26 41.3018 202.633 41.3409 202.967 41.418C203.326 41.4949 203.596 41.5715 203.775 41.6484V46.0811H202.35C201.553 46.0811 200.846 46.1966 200.229 46.4277C199.613 46.6332 199.086 46.9675 198.649 47.4297C198.238 47.892 197.93 48.4706 197.725 49.1641C197.519 49.8577 197.416 50.6679 197.416 51.5928V62.0371H192.714V41.7646H196.646L197.031 44.9629H197.301C197.558 44.3209 197.866 43.7298 198.226 43.1904C198.611 42.6254 199.1 42.1757 199.69 41.8418C200.281 41.4823 201.001 41.3018 201.849 41.3018ZM48.2373 56.4668H58.4668V46.2373H49.4893V40.7295H63.9746V61.9746H42.7295V36.0078H38.0078V40.7295H41.6562V46.2373H32.5V30.5H48.2373V56.4668ZM106.382 45.1562C105.149 45.1562 104.146 45.4007 103.375 45.8887C102.63 46.3511 102.077 47.0708 101.718 48.0469C101.384 48.9974 101.217 50.1923 101.217 51.6309V52.1709C101.217 53.6096 101.384 54.8177 101.718 55.7939C102.077 56.7444 102.63 57.464 103.375 57.9521C104.146 58.4146 105.149 58.6455 106.382 58.6455C107.615 58.6454 108.604 58.4143 109.349 57.9521C110.119 57.464 110.673 56.7443 111.007 55.7939C111.366 54.8177 111.546 53.6094 111.546 52.1709V51.6309C111.546 50.1924 111.366 48.9974 111.007 48.0469C110.673 47.0706 110.119 46.3511 109.349 45.8887C108.604 45.4007 107.615 45.1564 106.382 45.1562ZM182.873 52.9795C181.46 52.9795 180.15 53.0702 178.942 53.25C177.761 53.4298 176.809 53.7639 176.09 54.252C175.396 54.7401 175.05 55.434 175.05 56.333C175.05 56.7954 175.152 57.2067 175.357 57.5664C175.589 57.9004 175.924 58.1704 176.36 58.376C176.823 58.5556 177.388 58.6455 178.056 58.6455C178.826 58.6455 179.508 58.53 180.099 58.2988C180.715 58.0676 181.216 57.7459 181.602 57.335C182.012 56.924 182.321 56.4228 182.526 55.832C182.757 55.2413 182.873 54.5987 182.873 53.9053V52.9795ZM158.644 45.3486C157.847 45.3486 157.153 45.4901 156.562 45.7725C155.998 46.055 155.522 46.4667 155.137 47.0059C154.777 47.5454 154.507 48.2144 154.327 49.0107C154.147 49.807 154.058 50.7063 154.058 51.708V52.209C154.058 53.5449 154.211 54.6757 154.52 55.6006C154.854 56.5255 155.355 57.2325 156.022 57.7207C156.716 58.2088 157.59 58.4531 158.644 58.4531C159.8 58.4531 160.712 58.2345 161.38 57.7979C162.073 57.3354 162.562 56.6415 162.845 55.7168C163.153 54.7919 163.307 53.622 163.307 52.209V51.6699C163.307 50.2313 163.153 49.0489 162.845 48.124C162.562 47.1735 162.073 46.4798 161.38 46.043C160.712 45.5805 159.8 45.3487 158.644 45.3486ZM214.819 45.3486C213.663 45.3486 212.738 45.5807 212.044 46.043C211.376 46.4797 210.888 47.1738 210.58 48.124C210.297 49.0489 210.156 50.2312 210.156 51.6699V52.209C210.156 53.6221 210.297 54.7918 210.58 55.7168C210.888 56.6415 211.376 57.3354 212.044 57.7979C212.738 58.2346 213.663 58.4531 214.819 58.4531C215.898 58.4531 216.772 58.2088 217.44 57.7207C218.108 57.2325 218.596 56.5253 218.904 55.6006C219.238 54.6757 219.406 53.5448 219.406 52.209V51.708C219.406 50.7063 219.316 49.807 219.136 49.0107C218.956 48.2143 218.673 47.5454 218.288 47.0059C217.928 46.4665 217.453 46.0551 216.862 45.7725C216.297 45.4899 215.616 45.3487 214.819 45.3486Z" fill="white"/>
</svg>
