<svg width="11" height="10" viewBox="0 0 11 10" fill="none" xmlns="http://www.w3.org/2000/svg">
<path fill-rule="evenodd" clip-rule="evenodd" d="M2.70433 0.467566H8.61466C9.4866 0.467566 9.92513 0.467566 10.1862 0.639827C10.4681 0.822598 10.6456 1.13066 10.6613 1.4648C10.6765 1.76267 10.467 2.12408 10.0566 2.83217C10.0426 2.85635 10.0283 2.88085 10.0139 2.90582L7.05354 7.97028L7.01984 8.02724C6.60384 8.7308 6.39373 9.08603 6.12418 9.22334C5.82656 9.37477 5.47679 9.37477 5.17917 9.22334C4.90765 9.08242 4.68834 8.71168 4.255 7.96509L1.30509 2.90063L1.29498 2.88315C0.863143 2.13774 0.647325 1.76523 0.662896 1.45954C0.683788 1.1254 0.856048 0.817343 1.13802 0.634637C1.39385 0.467566 1.83239 0.467566 2.70433 0.467566Z" fill="#E84142"/>
</svg>
