<svg width="11" height="10" viewBox="0 0 11 10" fill="none" xmlns="http://www.w3.org/2000/svg">
<path fill-rule="evenodd" clip-rule="evenodd" d="M2.70433 9.33691H8.61466C9.4866 9.33691 9.92513 9.33691 10.1862 9.16465C10.4681 8.98188 10.6456 8.67382 10.6613 8.33968C10.6765 8.0418 10.467 7.6804 10.0566 6.9723C10.0426 6.94813 10.0283 6.92362 10.0139 6.89866L7.05354 1.83419L7.01984 1.77723C6.60384 1.07367 6.39373 0.718444 6.12418 0.581135C5.82656 0.429701 5.47679 0.429701 5.17917 0.581135C4.90765 0.722058 4.68834 1.09279 4.255 1.83938L1.30509 6.90385L1.29498 6.92132C0.863143 7.66673 0.647325 8.03924 0.662896 8.34493C0.683788 8.67907 0.856048 8.98713 1.13802 9.16984C1.39385 9.33691 1.83239 9.33691 2.70433 9.33691Z" fill="#42C49F"/>
</svg>
