<svg width="23" height="18" viewBox="0 0 23 18" fill="none" xmlns="http://www.w3.org/2000/svg">
<path fill-rule="evenodd" clip-rule="evenodd" d="M0.799805 9.2C0.799805 8.53726 1.33706 8 1.9998 8H21.1998C21.8625 8 22.3998 8.53726 22.3998 9.2C22.3998 9.86274 21.8625 10.4 21.1998 10.4H1.9998C1.33706 10.4 0.799805 9.86274 0.799805 9.2Z" fill="white"/>
<path fill-rule="evenodd" clip-rule="evenodd" d="M10.0483 1.15128C10.517 1.61991 10.517 2.3797 10.0483 2.84833L3.69686 9.1998L10.0483 15.5513C10.517 16.0199 10.517 16.7797 10.0483 17.2483C9.5797 17.717 8.81991 17.717 8.35128 17.2483L1.15128 10.0483C0.682647 9.5797 0.682647 8.81991 1.15128 8.35128L8.35128 1.15128C8.81991 0.682647 9.5797 0.682647 10.0483 1.15128Z" fill="white"/>
</svg>
