<svg width="511" height="511" viewBox="0 0 511 511" fill="none" xmlns="http://www.w3.org/2000/svg">
<g clip-path="url(#clip0_68_1011)">
<g clip-path="url(#clip1_68_1011)">
<mask id="mask0_68_1011" style="mask-type:alpha" maskUnits="userSpaceOnUse" x="0" y="23" width="511" height="463">
<path d="M255.5 485.051C396.609 485.051 511 381.831 511 254.502C511 127.173 396.609 23.9531 255.5 23.9531C114.391 23.9531 0 127.173 0 254.502C0 381.831 114.391 485.051 255.5 485.051Z" fill="#C4C4C4"/>
</mask>
<g mask="url(#mask0_68_1011)">
<path d="M517.553 295.066C517.553 421.703 397.296 697.97 248.95 697.97C100.605 697.97 -19.6523 421.703 -19.6523 295.066C-19.6523 168.43 100.605 65.7715 248.95 65.7715C397.296 65.7715 517.553 168.43 517.553 295.066Z" fill="white"/>
<path fill-rule="evenodd" clip-rule="evenodd" d="M224.756 313.521C230.447 341.183 240.846 367.661 255.502 391.801C270.174 367.67 280.575 341.189 286.247 313.521L255.502 287.971L224.756 313.521ZM152.563 251.769C166.812 251.785 180.586 246.641 191.336 237.289C202.63 243.841 212.61 252.434 220.769 262.63C215.744 249.666 209.211 237.339 201.304 225.903C195.842 218.025 188.553 211.587 180.06 207.14C171.567 202.694 162.124 200.371 152.537 200.371C142.951 200.371 133.507 202.694 125.014 207.14C116.521 211.587 109.232 218.025 103.77 225.903C109.187 233.857 116.462 240.37 124.965 244.876C133.467 249.384 142.94 251.75 152.563 251.769ZM319.667 237.289C325.966 242.747 333.344 246.816 341.321 249.23C349.298 251.644 357.694 252.349 365.962 251.3C374.229 250.25 382.182 247.469 389.303 243.139C396.424 238.808 402.551 233.024 407.286 226.166C401.826 218.277 394.534 211.829 386.036 207.375C377.538 202.922 368.087 200.596 358.492 200.596C348.898 200.596 339.446 202.922 330.949 207.375C322.45 211.829 315.159 218.277 309.699 226.166C301.792 237.602 295.259 249.929 290.234 262.892C298.369 252.602 308.35 243.919 319.667 237.289ZM255.502 669.872C383.938 569.556 466.52 471.234 498.838 351.297C457.706 433.616 364.211 490.857 255.502 490.857C146.792 490.857 53.2976 433.144 12.1643 351.087C44.5358 471.234 127.065 569.556 255.502 669.872ZM950.154 360.321L774.651 314.571L920.457 399.094C873.903 455.446 818.643 503.995 756.76 542.903L671.606 451.193L728.065 560.27C638.136 611.896 532.942 648.148 413.267 669.872L457.181 735.398C414.159 806.649 345.533 849.619 255.344 868.821C165.155 849.619 96.5295 806.649 53.5074 735.398L97.4218 669.872C-22.096 648.148 -127.238 611.896 -217.375 560.27L-160.868 451.193L-246.073 542.956C-307.953 504.048 -363.214 455.499 -409.767 399.146L-263.545 314.623L-439.096 360.373C-478.758 303.975 -510.531 242.423 -533.535 177.425L-320.47 165.568L-553.472 114.728C-566.577 67.3916 -576.463 19.2229 -583.062 -29.4486C-370.627 -60.9282 -172.726 -17.1191 3.97958 136.764C0.699475 158.255 -1.4894 179.899 -2.57865 201.612C25.8055 99.3029 130.58 23.2273 255.502 23.2273C380.423 23.2273 485.197 99.1457 513.635 201.612C512.585 180.625 510.381 159.009 507.024 136.764C683.726 -17.1191 852.042 27.6882 1064.47 59.2202C1057.9 107.896 1077.6 67.3982 1064.47 114.728L831.523 165.568L1044.49 177.268C1021.5 242.306 989.769 303.908 950.154 360.373V360.321ZM255.502 461.895C127.327 461.895 23.392 370.343 23.392 257.278C23.392 254.655 23.392 252.032 23.392 249.355C25.9104 175.903 64.1581 113.574 157.18 113.574C192.7 113.272 227.283 124.954 255.344 146.732C283.421 124.947 318.024 113.264 353.56 113.574C446.53 113.574 484.726 176.061 487.296 249.355C487.296 251.979 487.296 254.602 487.296 257.278C487.611 370.185 383.676 461.895 255.502 461.895Z" fill="url(#paint0_linear_68_1011)"/>
</g>
</g>
</g>
<defs>
<linearGradient id="paint0_linear_68_1011" x1="-583.063" y1="-39.0234" x2="1168.2" y2="234.639" gradientUnits="userSpaceOnUse">
<stop stop-color="#0999FF"/>
<stop offset="0.43805" stop-color="#471CF4"/>
<stop offset="1" stop-color="#00FBD2"/>
</linearGradient>
<clipPath id="clip0_68_1011">
<rect width="511" height="511" fill="white"/>
</clipPath>
<clipPath id="clip1_68_1011">
<rect width="511" height="511" fill="white" transform="translate(0 -25.9492)"/>
</clipPath>
</defs>
</svg>
