<svg
    width="40"
    height="40"
    viewBox="0 0 40 40"
    fill="none"
    xmlns="http://www.w3.org/2000/svg"
>
    <path
    d="M14.5 9.5L19.5 4.5L28.5 11L35 30L19.5 32L5.5 29L14.5 9.5Z"
    fill="white"
    />
    <path
    fillRule="evenodd"
    clipRule="evenodd"
    d="M20.1688 40C31.3017 40 40.3267 31.0457 40.3267 20C40.3267 8.95431 31.3017 0 20.1688 0C9.03586 0 0.0108643 8.95431 0.0108643 20C0.0108643 31.0457 9.03586 40 20.1688 40ZM14.078 29.0609H9.3491C8.22792 29.0609 7.6673 29.0609 7.33156 28.8454C6.96872 28.6127 6.73979 28.222 6.71555 27.7943C6.69305 27.3984 6.97071 26.9157 7.52604 25.9505L7.52629 25.9502L17.8799 7.95394C18.4433 6.97441 18.7251 6.48464 19.0837 6.30232C19.4709 6.10536 19.9302 6.10502 20.3178 6.30145C20.6766 6.48322 20.9591 6.97261 21.524 7.95128L23.9119 12.0878L23.912 12.0879C24.3228 12.7995 24.5282 13.1554 24.6185 13.5308C24.7168 13.9395 24.717 14.3653 24.6191 14.774C24.5291 15.1495 24.324 15.5056 23.9137 16.2176L17.7224 26.9638C17.3062 27.6862 17.0981 28.0475 16.813 28.3175C16.5026 28.6114 16.1262 28.828 15.7148 28.9494C15.3368 29.0609 14.9172 29.0609 14.078 29.0609ZM30.9491 29.0609H25.4665C24.3352 29.0609 23.7695 29.0609 23.4327 28.8436C23.0688 28.6088 22.8405 28.2152 22.819 27.7854C22.7991 27.3876 23.0838 26.9029 23.6532 25.9338L26.3899 21.2752C26.9522 20.3183 27.2333 19.8399 27.5892 19.6606C27.9738 19.467 28.4286 19.4666 28.8136 19.6597C29.1698 19.8384 29.4516 20.3165 30.015 21.2725L30.0152 21.2728L32.761 25.9312C33.3326 26.901 33.6184 27.3859 33.5989 27.784C33.5777 28.2142 33.3496 28.6082 32.9855 28.8433C32.6487 29.0609 32.0822 29.0609 30.9491 29.0609Z"
    fill="#E84142"
    />
</svg>