<svg width="256" height="256" viewBox="0 0 256 256" fill="none" xmlns="http://www.w3.org/2000/svg">
<path d="M169.701 111.925C169.701 131.395 151.056 173.87 128.056 173.87C105.057 173.87 86.4121 131.395 86.4121 111.925C86.4121 92.4552 105.057 76.6719 128.056 76.6719C151.056 76.6719 169.701 92.4552 169.701 111.925Z" fill="white"/>
<path fill-rule="evenodd" clip-rule="evenodd" d="M128 167.539C147.605 152.18 160.21 137.127 165.143 118.764C158.865 131.367 144.594 140.131 128 140.131C111.406 140.131 97.1352 131.295 90.8565 118.732C95.7978 137.127 108.395 152.18 128 167.539ZM207.244 113.141L229.5 126.082C223.805 132.996 217.257 139.143 210.02 144.377C206.897 146.636 202.615 146.049 199.998 143.221L191.515 134.058L200.133 150.759C186.406 158.663 170.349 164.214 152.082 167.539L158.432 177.045C158.647 177.367 158.657 177.786 158.453 178.115C151.901 188.645 141.62 195.043 128.186 197.955C128.048 197.985 127.904 197.985 127.766 197.955C114.332 195.043 104.051 188.645 97.4991 178.115C97.2945 177.786 97.3046 177.367 97.5197 177.045L103.87 167.539C85.627 164.214 69.5779 158.663 55.8193 150.759L64.4445 134.058L55.9544 143.23C53.3368 146.057 49.0546 146.644 45.9324 144.386C38.6948 139.151 32.1466 133.004 26.4521 126.09L48.7718 113.149L32.7372 117.34C26.2676 119.031 19.3328 116.571 16.036 110.753C12.673 104.819 9.83544 98.5915 7.56003 92.1427L40.0826 90.3273L18.6666 85.6402C9.96443 83.7357 2.89034 77.1913 1.27259 68.4313C0.784555 65.7886 0.360199 63.1338 0 60.4691C32.4265 55.6493 62.6346 62.3568 89.6072 85.9172C89.1065 89.2077 88.7724 92.5215 88.6061 95.8459C92.9388 80.1817 108.932 68.5341 128 68.5341C147.068 68.5341 163.061 80.1576 167.402 95.8459C167.242 92.6327 166.905 89.3232 166.393 85.9172C193.365 62.3568 223.574 55.6413 256 60.4691C255.641 63.1371 255.217 65.7953 254.728 68.4412C253.112 77.1965 246.04 83.735 237.343 85.6389L215.925 90.3273L248.432 92.1186C246.16 98.5676 243.328 104.796 239.971 110.733C236.676 116.561 229.733 119.028 223.256 117.332L207.244 113.141Z" fill="url(#paint0_linear_106_1378)"/>
<ellipse cx="128.056" cy="104.784" rx="40.0425" ry="40.1644" fill="url(#paint1_linear_106_1378)"/>
<path fill-rule="evenodd" clip-rule="evenodd" d="M159.459 92.8225C150.336 75.3634 132.225 81.4838 128 86.9665C123.775 81.4838 105.786 75.4533 96.663 92.9123C87.7417 109.986 104.993 135.584 128 140.91C151.007 135.584 168.38 109.896 159.459 92.8225Z" fill="white"/>
<path d="M128.056 115.141L124.615 118.278C124.615 124.711 126.805 130.359 128.056 132.085C130.403 129.418 131.654 121.573 131.654 118.278L128.056 115.141Z" fill="#222598"/>
<path fill-rule="evenodd" clip-rule="evenodd" d="M103.656 97.8828C104.23 98.7718 105.064 100.707 105.22 101.805C105.545 104.086 108.805 111.315 117.955 108.913C118.409 108.794 118.901 108.855 119.274 109.14C120.691 110.218 123.009 112.414 124.303 115.769C124.043 114.2 123.208 110.654 120.706 106.512C121.018 103.531 119.298 98.5468 112.728 98.0397C110.695 97.8828 104.438 97.8828 103.656 97.8828ZM111.321 102.276C112.012 102.276 112.572 101.714 112.572 101.021C112.572 100.328 112.012 99.7655 111.321 99.7655C110.63 99.7655 110.069 100.328 110.069 101.021C110.069 101.714 110.63 102.276 111.321 102.276Z" fill="#222598"/>
<path fill-rule="evenodd" clip-rule="evenodd" d="M152.457 97.8828C151.884 98.7718 151.05 100.707 150.893 101.805C150.569 104.086 147.309 111.315 138.159 108.913C137.705 108.794 137.213 108.855 136.839 109.14C135.423 110.218 133.105 112.414 131.811 115.769C132.071 114.2 132.905 110.654 135.408 106.512C135.095 103.531 136.816 98.5468 143.385 98.0397C145.419 97.8828 151.675 97.8828 152.457 97.8828ZM144.793 102.276C144.102 102.276 143.542 101.714 143.542 101.021C143.542 100.328 144.102 99.7655 144.793 99.7655C145.484 99.7655 146.044 100.328 146.044 101.021C146.044 101.714 145.484 102.276 144.793 102.276Z" fill="#222598"/>
<defs>
<linearGradient id="paint0_linear_106_1378" x1="0" y1="59" x2="271.199" y2="101.888" gradientUnits="userSpaceOnUse">
<stop stop-color="#0999FF"/>
<stop offset="0.43805" stop-color="#471CF4"/>
<stop offset="1" stop-color="#00FBD2"/>
</linearGradient>
<linearGradient id="paint1_linear_106_1378" x1="88.0934" y1="108.4" x2="168.179" y2="108.4" gradientUnits="userSpaceOnUse">
<stop stop-color="#3939F7"/>
<stop offset="1" stop-color="#2F69E8"/>
</linearGradient>
</defs>
</svg>
