<svg width="16" height="16" viewBox="0 0 16 16" fill="none" xmlns="http://www.w3.org/2000/svg">
<path d="M5.55618 3.59961L7.54051 1.59961L11.1123 4.19961L13.6919 11.7996L7.54051 12.5996L1.98438 11.3996L5.55618 3.59961Z" fill="white"/>
<path fill-rule="evenodd" clip-rule="evenodd" d="M7.99998 16C12.4182 16 16 12.4183 16 8C16 3.58172 12.4182 0 7.99998 0C3.58171 0 0 3.58172 0 8C0 12.4183 3.58171 16 7.99998 16ZM5.58275 11.6244H3.70603C3.26107 11.6244 3.03858 11.6244 2.90534 11.5382C2.76134 11.4451 2.67048 11.2888 2.66086 11.1177C2.65193 10.9594 2.76213 10.7663 2.98252 10.3802L7.09159 3.18158C7.31523 2.78976 7.42706 2.59386 7.56934 2.52093C7.72305 2.44214 7.90533 2.44201 8.05915 2.52058C8.20155 2.59329 8.31362 2.78904 8.53785 3.18051L9.48553 4.83512C9.6486 5.11976 9.73008 5.26216 9.76595 5.41232C9.80497 5.5758 9.80504 5.74612 9.76619 5.9096C9.73047 6.0598 9.64904 6.20224 9.48624 6.48704L7.02913 10.7855C6.86395 11.0745 6.78136 11.219 6.66818 11.327C6.54503 11.4446 6.39565 11.5312 6.23238 11.5798C6.08236 11.6244 5.91584 11.6244 5.58275 11.6244ZM12.2784 11.6244H10.1025C9.65352 11.6244 9.42897 11.6244 9.29531 11.5374C9.15089 11.4435 9.06033 11.2861 9.05179 11.1142C9.0439 10.955 9.15688 10.7612 9.38286 10.3735L10.469 8.51008C10.6921 8.12732 10.8037 7.93596 10.9449 7.86424C11.0976 7.7868 11.2781 7.78664 11.4308 7.86388C11.5722 7.93536 11.684 8.1266 11.9076 8.509L12.9974 10.3725C13.2243 10.7604 13.3377 10.9544 13.3299 11.1136C13.3216 11.2857 13.231 11.4433 13.0865 11.5373C12.9529 11.6244 12.728 11.6244 12.2784 11.6244Z" fill="black"/>
</svg>
