<svg width="256" height="256" viewBox="0 0 256 256" fill="none" xmlns="http://www.w3.org/2000/svg">
<circle cx="128" cy="128" r="128" fill="url(#paint0_linear_106_1471)"/>
<path fill-rule="evenodd" clip-rule="evenodd" d="M228.383 89.8687C199.222 34.2284 141.328 53.7334 127.823 71.2063C114.318 53.7334 56.8129 34.5149 27.6509 90.1552C-0.866783 144.566 54.2786 226.145 127.823 243.119C201.367 226.145 256.901 144.279 228.383 89.8687Z" fill="white"/>
<path d="M128 161L117 171C117 191.5 124 209.5 128 215C135.5 206.5 139.5 181.5 139.5 171L128 161Z" fill="#222598"/>
<path fill-rule="evenodd" clip-rule="evenodd" d="M50 106C51.8333 108.833 54.5 115 55 118.5C56.0383 125.768 66.4582 148.806 95.707 141.152C97.159 140.772 98.73 140.968 99.925 141.875C104.453 145.31 111.862 152.309 116 163C115.167 158 112.5 146.7 104.5 133.5C105.5 124 100 108.116 79 106.5C72.5 106 52.5 106 50 106ZM74.5 120C76.709 120 78.5 118.209 78.5 116C78.5 113.791 76.709 112 74.5 112C72.291 112 70.5 113.791 70.5 116C70.5 118.209 72.291 120 74.5 120Z" fill="#222598"/>
<path fill-rule="evenodd" clip-rule="evenodd" d="M206 106C204.167 108.833 201.5 115 201 118.5C199.962 125.768 189.542 148.806 160.293 141.152C158.841 140.772 157.27 140.968 156.075 141.875C151.547 145.31 144.138 152.309 140 163C140.833 158 143.5 146.7 151.5 133.5C150.5 124 156 108.116 177 106.5C183.5 106 203.5 106 206 106ZM181.5 120C179.291 120 177.5 118.209 177.5 116C177.5 113.791 179.291 112 181.5 112C183.709 112 185.5 113.791 185.5 116C185.5 118.209 183.709 120 181.5 120Z" fill="#222598"/>
<defs>
<linearGradient id="paint0_linear_106_1471" x1="0.255002" y1="139.525" x2="256.255" y2="139.525" gradientUnits="userSpaceOnUse">
<stop stop-color="#3939F7"/>
<stop offset="1" stop-color="#2F69E8"/>
</linearGradient>
</defs>
</svg>
