<svg width="165" height="128" viewBox="0 0 165 128" fill="none" xmlns="http://www.w3.org/2000/svg">
<path fill-rule="evenodd" clip-rule="evenodd" d="M48.7682 127.26C31.1543 127.26 14.6202 123.501 0.31311 116.914L58.5215 63.7846C50.4816 57.1888 45.3522 47.1761 45.3522 35.9653C45.3522 24.5504 50.6701 14.3776 58.9636 7.78912V0.00124909H81.072C81.1536 0.000704627 81.2353 0.000431966 81.317 0.000431966C90.3077 0.000431966 98.5279 3.29945 104.833 8.753C111.138 3.29994 119.358 0.00124909 128.348 0.00124909H128.402L128.403 0L128.404 0.00124909H150.702V7.79C158.995 14.3784 164.313 24.5512 164.313 35.9661C164.313 50.3204 155.904 62.7106 143.743 68.4789C139.395 81.316 131.216 92.8621 120.27 102.253V118.85H92.7533C79.5141 124.232 64.576 127.26 48.7682 127.26ZM81.3168 63.6315C87.8638 63.6315 93.8796 61.3573 98.6174 57.5558L104.777 71.4253L110.966 57.4903C115.716 61.3312 121.763 63.6315 128.348 63.6315C143.627 63.6315 156.013 51.2453 156.013 35.9662C156.013 20.6871 143.627 8.30092 128.348 8.30092C118.42 8.30092 109.713 13.5306 104.832 21.3854C99.9515 13.5306 91.2449 8.30092 81.3168 8.30092C66.0377 8.30092 53.6515 20.6871 53.6515 35.9662C53.6515 51.2453 66.0377 63.6315 81.3168 63.6315ZM81.3167 55.3317C92.0121 55.3317 100.682 46.6614 100.682 35.966C100.682 25.2706 92.0121 16.6003 81.3167 16.6003C70.6213 16.6003 61.951 25.2706 61.951 35.966C61.951 46.6614 70.6213 55.3317 81.3167 55.3317ZM81.3167 47.0322C87.4284 47.0322 92.3828 42.0777 92.3828 35.9661C92.3828 29.8544 87.4284 24.8999 81.3167 24.8999C75.2051 24.8999 70.2506 29.8544 70.2506 35.9661C70.2506 42.0777 75.2051 47.0322 81.3167 47.0322ZM147.713 35.966C147.713 46.6614 139.043 55.3317 128.348 55.3317C117.652 55.3317 108.982 46.6614 108.982 35.966C108.982 25.2706 117.652 16.6003 128.348 16.6003C139.043 16.6003 147.713 25.2706 147.713 35.966ZM139.414 35.9661C139.414 42.0777 134.459 47.0322 128.348 47.0322C122.236 47.0322 117.282 42.0777 117.282 35.9661C117.282 29.8544 122.236 24.8999 128.348 24.8999C134.459 24.8999 139.414 29.8544 139.414 35.9661Z" fill="white"/>
</svg>
