<?xml version="1.0" encoding="utf-8"?>
<!-- Generator: Adobe Illustrator 26.3.1, SVG Export Plug-In . SVG Version: 6.00 Build 0)  -->
<svg version="1.1" id="Core_30_xA0_Image_00000052077107122143086090000008191103282490147003_"
	 xmlns="http://www.w3.org/2000/svg" xmlns:xlink="http://www.w3.org/1999/xlink" x="0px" y="0px" viewBox="0 0 520 520"
	 style="enable-background:new 0 0 520 520;" xml:space="preserve">
<style type="text/css">
	.st0{fill:#FFFFFF;}
</style>
<path class="st0" d="M372.7,68.7V55.9h-36.9c-14.8,0-28.4,5.5-38.8,14.5c-10.4-9-23.9-14.5-38.8-14.5h-36.9v12.9
	C207.8,79.6,199,96.4,199,115.2c0,18.5,8.5,35,21.7,45.9l-96,87.6c23.6,10.9,50.8,17.1,79.9,17.1c26.1,0,50.7-5,72.5-13.9h45.4
	v-27.4h0c18-15.5,31.5-34.5,38.7-55.7c20.1-9.5,33.9-29.9,33.9-53.6C395.2,96.4,386.4,79.6,372.7,68.7z M335.9,160.8
	c-10.9,0-20.8-3.8-28.6-10.2l-10.2,23l-10.2-22.9c-7.8,6.3-17.7,10-28.5,10c-25.2,0-45.6-20.4-45.6-45.6c0-25.2,20.4-45.6,45.6-45.6
	c16.4,0,30.7,8.6,38.8,21.6c8-13,22.4-21.6,38.8-21.6c25.2,0,45.6,20.4,45.6,45.6C381.5,140.4,361.1,160.8,335.9,160.8z M335.9,83.2
	c-17.6,0-31.9,14.3-31.9,31.9s14.3,31.9,31.9,31.9s31.9-14.3,31.9-31.9S353.5,83.2,335.9,83.2z M335.9,131.2
	c-8.9,0-16.1-7.2-16.1-16.1c0-8.9,7.2-16.1,16.1-16.1s16.1,7.2,16.1,16.1C351.9,124,344.7,131.2,335.9,131.2z M258.3,83.2
	c-17.6,0-31.9,14.3-31.9,31.9s14.3,31.9,31.9,31.9s31.9-14.3,31.9-31.9S276,83.2,258.3,83.2z M258.3,131.2
	c-8.9,0-16.1-7.2-16.1-16.1c0-8.9,7.2-16.1,16.1-16.1s16.1,7.2,16.1,16.1C274.4,124,267.2,131.2,258.3,131.2z"/>
<path class="st0" d="M31.5,408c3-2.9,6.6-5.2,10.7-6.9c4.2-1.6,8.7-2.5,13.5-2.5c4.7,0,9,0.9,13.1,2.6c4.1,1.6,7.8,4.2,11,7.6l8-7.7
	c-3.9-4.4-8.7-7.7-14.4-9.9c-5.6-2.3-11.7-3.4-18.3-3.4c-6.5,0-12.6,1.1-18.2,3.3c-5.5,2.1-10.3,5.2-14.4,9.2
	c-4.1,3.9-7.3,8.6-9.6,13.9c-2.3,5.3-3.4,11.2-3.4,17.6c0,6.4,1.1,12.2,3.4,17.6c2.3,5.3,5.4,10,9.5,14c4.1,3.9,8.9,7,14.4,9.2
	c5.6,2.1,11.6,3.2,18.2,3.2c6.7,0,12.8-1.1,18.4-3.4c5.6-2.3,10.4-5.6,14.4-10.1l-8-7.7c-3.3,3.5-7,6.1-11,7.9
	c-4.1,1.6-8.5,2.5-13.1,2.5c-4.8,0-9.3-0.8-13.5-2.5c-4.1-1.6-7.7-3.9-10.7-6.9c-3-2.9-5.4-6.4-7.1-10.4c-1.6-4.1-2.5-8.5-2.5-13.3
	c0-4.7,0.8-9.1,2.5-13.1C26.1,414.4,28.5,410.9,31.5,408z M455.5,463.9v-27.7h43.1v-10.4h-43.1v-26.4h48.4v-10.7h-60.6v85.9h62.4
	v-10.7H455.5z M357.7,444.9c5.3-2.4,9.4-5.8,12.3-10.2c2.9-4.5,4.3-9.9,4.3-16.1s-1.4-11.6-4.3-16.1s-7-7.9-12.3-10.3
	c-5.3-2.4-11.7-3.6-19.3-3.6h-33.5v85.9h12.3v-26.1h21.2c1.9,0,3.7-0.1,5.5-0.2l18.5,26.4h13.4l-20.4-28.8
	C356.1,445.6,356.9,445.3,357.7,444.9z M338.1,438h-20.9v-38.7h20.9c7.9,0,13.8,1.7,17.8,5c4.1,3.4,6.1,8.1,6.1,14.2
	s-2,10.9-6.1,14.4C351.8,436.4,345.9,438,338.1,438z M224,400.2c-4.1-4-8.9-7.1-14.5-9.2c-5.5-2.2-11.5-3.3-18-3.3
	c-6.6,0-12.7,1.1-18.3,3.3c-5.6,2.2-10.4,5.3-14.5,9.3c-4.1,3.9-7.3,8.6-9.6,13.9c-2.3,5.3-3.4,11.1-3.4,17.4s1.1,12.1,3.4,17.4
	c2.3,5.3,5.5,10,9.6,14c4.1,3.9,8.9,7,14.5,9.2c5.6,2.2,11.7,3.3,18.3,3.3s12.6-1.1,18-3.2c5.6-2.2,10.4-5.3,14.5-9.2
	c4.2-4,7.4-8.7,9.6-14c2.3-5.3,3.4-11.2,3.4-17.6c0-6.4-1.1-12.2-3.4-17.6C231.4,408.8,228.2,404.2,224,400.2z M222.2,444.8
	c-1.6,4-4,7.5-7,10.6c-2.9,2.9-6.5,5.2-10.6,6.9c-4,1.6-8.4,2.5-13.1,2.5c-4.8,0-9.3-0.8-13.4-2.5c-4-1.6-7.5-3.9-10.6-6.9
	c-3-3-5.4-6.5-7.1-10.6c-1.6-4-2.5-8.4-2.5-13.1c0-4.7,0.8-9.1,2.5-13.1c1.7-4,4.1-7.5,7.1-10.4c3-3,6.5-5.4,10.6-7
	c4.1-1.6,8.6-2.5,13.4-2.5c4.7,0,9.1,0.8,13.1,2.5c4.1,1.6,7.6,4,10.6,7c3,2.9,5.4,6.4,7,10.4c1.7,4,2.6,8.4,2.6,13.1
	C224.8,436.4,223.9,440.8,222.2,444.8z"/>
</svg>
