<svg xmlns="http://www.w3.org/2000/svg" width="32" height="10" viewBox="0 0 32 10" fill="none">
  <path d="M12.5208 0.71875C13.3597 0.71875 14.12 0.897491 14.8016 1.25497C15.4832 1.61246 16.0207 2.11847 16.4139 2.77301C16.8071 3.42756 17.0038 4.18281 17.0038 5.03875C17.0038 5.89469 16.8019 6.64994 16.3982 7.30448C15.9944 7.95903 15.4491 8.46504 14.7623 8.82253C14.0754 9.18001 13.3073 9.35875 12.4579 9.35875C11.619 9.35875 10.8639 9.18001 10.1928 8.82253C9.52168 8.46504 8.99474 7.95903 8.61199 7.30448C8.22923 6.64994 8.03784 5.89469 8.03784 5.03875C8.03784 4.18281 8.23448 3.42756 8.62772 2.77301C9.02096 2.11847 9.55838 1.61246 10.24 1.25497C10.9216 0.897491 11.6819 0.71875 12.5208 0.71875ZM12.5208 2.77301C12.0793 2.77301 11.6791 2.86676 11.3204 3.05425C10.9616 3.24174 10.6788 3.50713 10.4718 3.85043C10.2648 4.19372 10.1614 4.58983 10.1614 5.03875C10.1614 5.48767 10.2621 5.88378 10.4635 6.22707C10.665 6.57037 10.9423 6.83576 11.2955 7.02325C11.6488 7.21074 12.0462 7.30448 12.4877 7.30448C12.9347 7.30448 13.339 7.21074 13.7005 7.02325C14.062 6.83576 14.349 6.57037 14.5615 6.22707C14.774 5.88378 14.8803 5.48767 14.8803 5.03875C14.8803 4.58983 14.7768 4.19372 14.5698 3.85043C14.3628 3.50713 14.08 3.24174 13.7212 3.05425C13.3625 2.86676 12.9623 2.77301 12.5208 2.77301ZM4.48295 0.71875C5.32187 0.71875 6.08213 0.897491 6.76375 1.25497C7.44537 1.61246 7.98279 2.11847 8.37603 2.77301C8.5983 3.14298 8.75775 3.54512 8.85439 3.97942L6.56298 3.97947C6.41018 3.54787 6.08143 3.24174 5.72269 3.05425C5.36394 2.86676 4.96382 2.77301 4.52228 2.77301C4.08075 2.77301 3.68061 2.86676 3.32186 3.05425C2.96311 3.24174 2.68025 3.50713 2.47328 3.85043C2.26631 4.19372 2.16283 4.58983 2.16283 5.03875C2.16283 5.48767 2.26355 5.88378 2.465 6.22707C2.66645 6.57037 2.94379 6.83576 3.29702 7.02325C3.65024 7.21074 4.04762 7.30448 4.48916 7.30448C4.93621 7.30448 5.34049 7.21074 5.702 7.02325C6.06351 6.83576 6.3505 6.57037 6.56298 6.22707L8.81981 6.22709C8.71891 6.61229 8.56575 6.97142 8.36031 7.30448C7.95659 7.95903 7.41128 8.46504 6.72442 8.82253C6.03756 9.18001 5.26943 9.35875 4.42003 9.35875C3.58112 9.35875 2.8261 9.18001 2.15497 8.82253C1.48384 8.46504 0.95688 7.95903 0.574125 7.30448C0.19137 6.64994 0 5.89469 0 5.03875C0 4.18281 0.196618 3.42756 0.589859 2.77301C0.983101 2.11847 1.52054 1.61246 2.20216 1.25497C2.88377 0.897491 3.64404 0.71875 4.48295 0.71875ZM27.7058 0.71875C28.5342 0.71875 29.2761 0.889939 29.9315 1.23232C30.587 1.57469 31.0955 2.06057 31.4573 2.68994C31.8191 3.31931 32 4.04183 32 4.85749C32 5.15959 31.979 5.43148 31.9371 5.67315H25.5666L25.5757 5.7628C25.6415 6.32435 25.8586 6.76776 26.2272 7.09301C26.6152 7.43539 27.0924 7.60658 27.6586 7.60658C28.4766 7.60658 29.0586 7.26924 29.4046 6.59455H31.7798L31.7471 6.6945C31.4875 7.45507 31.016 8.08385 30.3327 8.58085C29.6196 9.09945 28.744 9.35875 27.7058 9.35875C26.8669 9.35875 26.1145 9.18001 25.4486 8.82253C24.7827 8.46504 24.2636 7.95903 23.8914 7.30448C23.5191 6.64994 23.333 5.89469 23.333 5.03875C23.333 4.29952 23.4667 3.63732 23.7341 3.05217L23.0432 3.0522L22.9467 3.05346C22.5017 3.06528 22.1363 3.15979 21.8506 3.33702C21.5444 3.5269 21.3226 3.78629 21.1852 4.11518C21.0477 4.44407 20.979 4.81978 20.979 5.24231V7.38932H23.3648V9.32288H16.8334V7.38932H18.5951V2.91834H16.8334V0.985041H20.8019L20.8745 2.43286L20.9348 2.32951C21.0793 2.09183 21.2485 1.87834 21.4425 1.68905C21.6641 1.47272 21.9389 1.3013 22.2667 1.17479C22.5945 1.04829 22.9921 0.985041 23.4595 0.985041H24.4656L24.4656 1.9687C24.7407 1.6823 25.0605 1.44187 25.425 1.24742C26.0856 0.894975 26.8459 0.71875 27.7058 0.71875ZM27.6429 2.45581C27.0976 2.45581 26.6388 2.61442 26.2665 2.93162C25.8943 3.24882 25.6662 3.68938 25.5823 4.2533H29.7192C29.7087 3.70952 29.5042 3.27399 29.1058 2.94672C28.7073 2.61945 28.2196 2.45581 27.6429 2.45581Z" fill="#28282E"/>
</svg>