<svg width="4000" height="4000" viewBox="0 0 4000 4000" fill="none" xmlns="http://www.w3.org/2000/svg">
<rect width="4000" height="4000" fill="white"/>
<path d="M1685.04 1603C1761.07 1603 1830 1619.45 1891.81 1652.3C1953.58 1685.16 2002.3 1731.69 2037.99 1791.91C2073.63 1852.08 2091.47 1921.55 2091.47 2000.25C2091.47 2078.95 2073.15 2148.42 2036.55 2208.59C1999.95 2268.76 1950.52 2315.3 1888.28 2348.2C1826.03 2381.05 1756.36 2397.5 1679.37 2397.5C1602.38 2397.5 1534.9 2381.05 1474.04 2348.2C1413.19 2315.34 1365.42 2268.81 1330.74 2208.59C1326.82 2201.8 1323.11 2194.87 1319.62 2187.82C1315.96 2194.87 1312.07 2201.8 1307.93 2208.59C1271.33 2268.76 1221.91 2315.3 1159.62 2348.2C1097.37 2381.05 1027.7 2397.5 950.711 2397.5C873.718 2397.5 806.235 2381.05 745.382 2348.2C684.53 2315.34 636.764 2268.81 602.085 2208.59C567.362 2148.42 550 2078.95 550 2000.25C550 1921.55 567.841 1852.08 603.48 1791.91C639.12 1731.74 687.845 1685.2 749.657 1652.3C811.426 1619.45 880.349 1603 956.382 1603C1032.41 1603 1101.34 1619.45 1163.15 1652.3C1224.92 1685.16 1273.64 1731.69 1309.33 1791.91C1313.38 1798.75 1317.18 1805.67 1320.76 1812.73C1324.29 1805.67 1328.08 1798.75 1332.14 1791.91C1367.78 1731.74 1416.51 1685.2 1478.32 1652.3C1540.09 1619.45 1609.01 1603 1685.09 1603H1685.04ZM1685.04 1791.91C1645 1791.91 1608.75 1800.52 1576.21 1817.75C1543.66 1834.98 1518.06 1859.39 1499.3 1890.95C1480.54 1922.51 1471.16 1958.95 1471.16 2000.21C1471.16 2041.46 1480.28 2077.91 1498.56 2109.47C1516.84 2141.02 1541.96 2165.44 1573.98 2182.67C1606 2199.89 1642.03 2208.51 1682.08 2208.51C1722.12 2208.51 1759.24 2199.89 1792 2182.67C1824.76 2165.44 1850.8 2141.02 1870.04 2109.47C1889.32 2077.91 1898.92 2041.46 1898.92 2000.21C1898.92 1958.95 1889.54 1922.51 1870.78 1890.95C1852.03 1859.39 1826.38 1834.98 1793.88 1817.75C1761.34 1800.52 1725.09 1791.91 1685.04 1791.91ZM959.959 1791.91C919.914 1791.91 883.664 1800.52 851.122 1817.75C818.58 1834.98 792.974 1859.39 774.217 1890.95C755.459 1922.51 746.08 1958.95 746.08 2000.21C746.08 2041.46 755.197 2077.91 773.475 2109.47C791.753 2141.02 816.879 2165.44 848.897 2182.67C880.916 2199.89 916.947 2208.51 956.949 2208.51C996.95 2208.51 1034.12 2199.89 1066.88 2182.67C1099.64 2165.44 1125.68 2141.02 1144.92 2109.47H1291.18C1282.8 2075.27 1278.62 2038.86 1278.62 2000.21C1278.62 1965.97 1281.98 1933.5 1288.74 1902.77H1144.92C1131.09 1863.12 1101.25 1834.94 1068.75 1817.71C1036.21 1800.48 999.96 1791.86 959.915 1791.86L959.959 1791.91ZM3061.57 1603C3136.69 1603 3203.91 1618.76 3263.33 1650.23C3322.74 1681.7 3368.85 1726.37 3401.65 1784.25C3434.45 1842.12 3450.86 1908.57 3450.86 1983.59C3450.86 2011.38 3448.94 2036.35 3445.14 2058.6H2867.63L2868.46 2066.83C2874.44 2118.47 2894.11 2159.25 2927.52 2189.16C2962.68 2220.63 3005.96 2236.39 3057.3 2236.39C3131.46 2236.39 3184.2 2205.35 3215.56 2143.32H3430.88L3427.91 2152.49C3404.36 2222.45 3361.65 2280.24 3299.71 2325.95C3235.06 2373.65 3155.67 2397.46 3061.57 2397.46C2985.54 2397.46 2917.32 2381.01 2856.94 2348.15C2796.57 2315.3 2749.55 2268.76 2715.78 2208.55C2682.02 2148.38 2665.18 2078.9 2665.18 2000.21C2665.18 1932.25 2677.31 1871.34 2701.56 1817.53H2638.92L2630.15 1817.66C2589.8 1818.75 2556.69 1827.45 2530.78 1843.72C2503.04 1861.17 2482.93 1885.02 2470.45 1915.28C2457.98 1945.54 2451.74 1980.08 2451.74 2018.91V2216.34H2668.02V2394.13H2075.94V2216.34H2235.64V1805.28H2075.94V1627.5H2435.69L2442.27 1760.65L2447.77 1751.13C2460.86 1729.27 2476.21 1709.66 2493.79 1692.22C2513.9 1672.3 2538.81 1656.55 2568.52 1644.95C2598.22 1633.3 2634.25 1627.5 2676.65 1627.5H2767.87V1717.97C2792.82 1691.65 2821.78 1669.53 2854.85 1651.66C2914.74 1619.23 2983.67 1603.04 3061.62 1603.04L3061.57 1603ZM3055.86 1762.73C3006.44 1762.73 2964.82 1777.32 2931.1 1806.5C2897.34 1835.67 2876.66 1876.19 2869.07 1928.05H3244.09C3243.13 1878.05 3224.59 1838.01 3188.47 1807.88C3152.35 1777.75 3108.16 1762.73 3055.86 1762.73Z" fill="black"/>
</svg>
