<svg width="2900" height="787" xmlns="http://www.w3.org/2000/svg" fill="none">

 <g>
  <path stroke="null" id="svg_2" fill="white" d="m1135.04,0c76.03,0 144.96,16.26021 206.77,48.7312c61.77,32.48087 110.49,78.47403 146.18,137.99923c35.64,59.47578 53.48,128.14426 53.48,205.93625c0,77.79199 -18.32,146.46047 -54.92,205.93625c-36.6,59.47578 -86.03,105.47882 -148.27,137.99923c-62.25,32.47099 -131.92,48.7312 -208.91,48.7312c-76.99,0 -144.47,-16.26021 -205.33,-48.7312c-60.85,-32.48087 -108.62,-78.47403 -143.3,-137.99923c-3.92,-6.71166 -7.63,-13.5617 -11.12,-20.53036c-3.66,6.96866 -7.55,13.8187 -11.69,20.53036c-36.6,59.47578 -86.02,105.47882 -148.31,137.99923c-62.25,32.47099 -131.92,48.7312 -208.909,48.7312c-76.993,0 -144.476,-16.26021 -205.329,-48.7312c-60.852,-32.48087 -108.618,-78.47403 -143.297,-137.99923c-34.723,-59.47578 -52.085,-128.14426 -52.085,-205.93625c0,-77.79199 17.841,-146.46047 53.48,-205.93625c35.64,-59.47578 84.365,-105.47882 146.177,-137.99923c61.769,-32.47099 130.692,-48.7312 206.725,-48.7312c76.028,0 144.958,16.26021 206.768,48.7312c61.77,32.48087 110.49,78.47403 146.18,137.99923c4.05,6.76108 7.85,13.60124 11.43,20.57979c3.53,-6.97854 7.32,-13.8187 11.38,-20.57979c35.64,-59.47578 84.37,-105.47882 146.18,-137.99923c61.77,-32.47099 130.69,-48.7312 206.77,-48.7312l-0.05,0zm0,186.73043c-40.04,0 -76.29,8.51066 -108.83,25.54187c-32.55,17.03121 -58.15,41.15957 -76.91,72.35545c-18.76,31.19587 -28.14,67.21544 -28.14,107.9994c0,40.77407 9.12,76.80353 27.4,107.9994c18.28,31.18599 43.4,55.32424 75.42,72.35545c32.02,17.02132 68.05,25.54187 108.1,25.54187c40.04,0 77.16,-8.52055 109.92,-25.54187c32.76,-17.03121 58.8,-41.16946 78.04,-72.35545c19.28,-31.19587 28.88,-67.22533 28.88,-107.9994c0,-40.78396 -9.38,-76.80353 -28.14,-107.9994c-18.75,-31.19587 -44.4,-55.32424 -76.9,-72.35545c-32.54,-17.03121 -68.79,-25.54187 -108.84,-25.54187zm-725.081,0c-40.045,0 -76.295,8.51066 -108.837,25.54187c-32.542,17.03121 -58.148,41.15957 -76.905,72.35545c-18.758,31.19587 -28.137,67.21544 -28.137,107.9994c0,40.77407 9.117,76.80353 27.395,107.9994c18.278,31.18599 43.404,55.32424 75.422,72.35545c32.019,17.02132 68.05,25.54187 108.052,25.54187c40.001,0 77.171,-8.52055 109.931,-25.54187c32.76,-17.03121 58.8,-41.16946 78.04,-72.35545l146.26,0c-8.38,-33.80541 -12.56,-69.79533 -12.56,-107.9994c0,-33.84495 3.36,-65.94033 10.12,-96.31578l-143.82,0c-13.83,-39.19253 -43.67,-67.0474 -76.17,-84.07861c-32.54,-17.03121 -68.79,-25.55175 -108.835,-25.55175l0.044,0.04942zm2101.611,-186.73043c75.12,0 142.34,15.57817 201.76,46.68508c59.41,31.10691 105.52,75.26153 138.32,132.47373c32.8,57.20232 49.21,122.88564 49.21,197.04009c0,27.46937 -1.92,52.15128 -5.72,74.14456l-577.51,0l0.83,8.13505c5.98,51.0442 25.65,91.35369 59.06,120.9186c35.16,31.10691 78.44,46.68508 129.78,46.68508c74.16,0 126.9,-30.68187 158.26,-91.99619l215.32,0l-2.97,9.0642c-23.55,69.15283 -66.26,126.27607 -128.2,171.45869c-64.65,47.14966 -144.04,70.68495 -238.14,70.68495c-76.03,0 -144.25,-16.26021 -204.63,-48.74108c-60.37,-32.47099 -107.39,-78.47403 -141.16,-137.98935c-33.76,-59.47578 -50.6,-128.15415 -50.6,-205.93625c0,-67.1759 12.13,-127.38315 36.38,-180.57231l-62.64,0l-8.77,0.1285c-40.35,1.07742 -73.46,9.67705 -99.37,25.75933c-27.74,17.24867 -47.85,40.8235 -60.33,70.73437c-12.47,29.91087 -18.71,64.05236 -18.71,102.43436l0,195.15213l216.28,0l0,175.73873l-592.08,0l0,-175.73873l159.7,0l0,-406.31735l-159.7,0l0,-175.72884l359.75,0l6.58,131.61377l5.5,-9.41016c13.09,-21.60779 28.44,-40.99154 46.02,-58.23032c20.11,-19.69017 45.02,-35.25845 74.73,-46.72462c29.7,-11.51559 65.73,-17.24867 108.13,-17.24867l91.22,0l0,89.42619c24.95,-26.01633 53.91,-47.88112 86.98,-65.54494c59.89,-32.05584 128.82,-48.05904 206.77,-48.05904l-0.05,-0.03954zm-5.71,157.8871c-49.42,0 -91.04,14.42167 -124.76,43.265c-33.76,28.83345 -54.44,68.88594 -62.03,120.1476l375.02,0c-0.96,-49.42312 -19.5,-89.00115 -55.62,-118.78353c-36.12,-29.78237 -80.31,-44.62908 -132.61,-44.62908z"/>
 </g>
</svg>