<svg width="91" height="73" viewBox="0 0 91 73" fill="none" xmlns="http://www.w3.org/2000/svg">
<g id="solana-sol-logo 2" clip-path="url(#clip0_24674_68060)">
<path id="Vector" d="M15.1192 55.2555C15.6623 54.7069 16.4091 54.3868 17.2012 54.3868H89.0292C90.3418 54.3868 90.998 55.9869 90.0702 56.9241L75.8811 71.2564C75.338 71.805 74.5912 72.125 73.7991 72.125H1.97113C0.658578 72.125 0.00230464 70.525 0.93014 69.5878L15.1192 55.2555Z" fill="url(#paint0_linear_24674_68060)"/>
<path id="Vector_2" d="M15.1192 1.74362C15.685 1.19502 16.4318 0.875 17.2012 0.875H89.0292C90.3418 0.875 90.998 2.4751 90.0702 3.4123L75.8811 17.7446C75.338 18.2932 74.5912 18.6132 73.7991 18.6132H1.97113C0.658578 18.6132 0.00230464 17.0131 0.93014 16.0759L15.1192 1.74362Z" fill="url(#paint1_linear_24674_68060)"/>
<path id="Vector_3" d="M75.8811 28.3281C75.338 27.7795 74.5912 27.4595 73.7991 27.4595H1.97113C0.658578 27.4595 0.00230464 29.0596 0.93014 29.9968L15.1192 44.3291C15.6623 44.8777 16.4091 45.1977 17.2012 45.1977H89.0292C90.3418 45.1977 90.998 43.5976 90.0702 42.6604L75.8811 28.3281Z" fill="url(#paint2_linear_24674_68060)"/>
</g>
<defs>
<linearGradient id="paint0_linear_24674_68060" x1="82.1675" y1="-7.68667" x2="31.6678" y2="88.0742" gradientUnits="userSpaceOnUse">
<stop stop-color="#00FFA3"/>
<stop offset="1" stop-color="#DC1FFF"/>
</linearGradient>
<linearGradient id="paint1_linear_24674_68060" x1="60.4313" y1="-19.1494" x2="9.93157" y2="76.6115" gradientUnits="userSpaceOnUse">
<stop stop-color="#00FFA3"/>
<stop offset="1" stop-color="#DC1FFF"/>
</linearGradient>
<linearGradient id="paint2_linear_24674_68060" x1="71.2302" y1="-13.4545" x2="20.7305" y2="82.3063" gradientUnits="userSpaceOnUse">
<stop stop-color="#00FFA3"/>
<stop offset="1" stop-color="#DC1FFF"/>
</linearGradient>
<clipPath id="clip0_24674_68060">
<rect width="90" height="71.25" fill="white" transform="translate(0.5 0.875)"/>
</clipPath>
</defs>
</svg>
