<svg width="53" height="16" viewBox="0 0 53 16" fill="none" xmlns="http://www.w3.org/2000/svg">
<g id="logowithtext-grayscale 1" clip-path="url(#clip0_25193_260303)">
<path id="Vector" d="M1.98047 12.5859C2.65643 13.5262 3.52351 14.3129 4.52485 14.8945C5.5262 15.4761 6.63915 15.8395 7.7908 15.9609C7.1983 15.0693 6.33705 14.249 5.26187 13.6245C4.18669 13 3.04805 12.6589 1.98047 12.5859Z" fill="white"/>
<path id="Vector_2" d="M6.70673 11.1325C4.63531 9.92907 2.39329 9.62237 0.789062 10.1642C0.943932 10.676 1.14818 11.1716 1.39892 11.644C2.79272 11.6117 4.31451 11.9902 5.73053 12.8127C7.14658 13.6351 8.22963 14.7702 8.89238 15.9973C9.42718 15.9809 9.95918 15.9127 10.4809 15.7939C10.1565 14.1322 8.77768 12.3362 6.70673 11.1325Z" fill="white"/>
<path id="Vector_3" d="M16.5788 6.25045C16.3155 5.1792 15.8389 4.17201 15.1777 3.28902C14.5164 2.40602 13.684 1.66533 12.7302 1.11117C11.7763 0.557015 10.7206 0.200752 9.62603 0.0636547C8.53143 -0.0734423 7.42043 0.0114397 6.35938 0.313233C8.13198 0.530165 10.0996 1.19561 12.0292 2.31662C13.9588 3.43762 15.5129 4.81705 16.5788 6.25045Z" fill="white"/>
<path id="Vector_4" d="M13.9987 10.182C13.0913 8.67513 11.537 7.23223 9.62226 6.11993C7.70756 5.00758 5.68466 4.37223 3.92777 4.3302C2.38211 4.29359 1.22206 4.74291 0.745886 5.56268C0.743174 5.56753 0.739377 5.57213 0.736395 5.57703C0.69355 5.73078 0.656671 5.88478 0.623047 6.03938C1.28795 5.77688 2.05834 5.63073 2.91496 5.61443C4.81991 5.57868 6.95181 6.18798 8.91916 7.33093C10.8865 8.47393 12.4731 10.0247 13.3853 11.6967C13.7942 12.45 14.0494 13.1917 14.1505 13.9002C14.2682 13.795 14.3837 13.6863 14.4957 13.5732C14.4987 13.5681 14.5006 13.5626 14.5036 13.5572C14.9798 12.7367 14.7956 11.5066 13.9987 10.182Z" fill="white"/>
<path id="Vector_5" d="M8.166 8.62424C5.23386 6.92079 1.99368 6.65394 0.435547 7.84274C0.438607 8.21484 0.467055 8.58628 0.520693 8.95453C0.979042 8.81558 1.45143 8.72808 1.92914 8.69368C3.6703 8.56268 5.5899 9.04784 7.3319 10.0603C9.07385 11.0729 10.447 12.5009 11.196 14.0771C11.403 14.509 11.5609 14.9627 11.6667 15.4297C12.0133 15.2939 12.3502 15.1347 12.6752 14.9533C12.9361 13.0106 11.0989 10.328 8.166 8.62424Z" fill="white"/>
<path id="Vector_6" d="M15.5086 7.65741C14.591 6.15216 13.0231 4.70521 11.0948 3.58556C9.16658 2.46591 7.13578 1.82053 5.37322 1.76873C4.02958 1.72996 2.98884 2.05563 2.44922 2.67091C4.68987 2.29127 7.64533 2.92933 10.5099 4.59349C13.3746 6.25766 15.3937 8.50941 16.173 10.6438C16.4401 9.87066 16.2077 8.80526 15.5086 7.65741Z" fill="white"/>
<path id="Vector_7" d="M23.7678 4.95206H25.1357V9.51596C25.1357 9.93786 25.0409 10.3043 24.8513 10.6154C24.6638 10.9265 24.4027 11.1662 24.0682 11.3345C23.7337 11.5029 23.3448 11.587 22.9016 11.587C22.5075 11.587 22.1495 11.5178 21.8278 11.3793C21.5082 11.2386 21.2546 11.0256 21.0671 10.7401C20.8796 10.4524 20.7869 10.0913 20.7891 9.65661H22.1666C22.1708 9.82921 22.206 9.97726 22.272 10.1009C22.3402 10.2223 22.4329 10.3161 22.5501 10.3821C22.6694 10.446 22.81 10.478 22.972 10.478C23.1424 10.478 23.2862 10.4418 23.4034 10.3693C23.5227 10.2948 23.6133 10.1861 23.6751 10.0433C23.7369 9.90057 23.7678 9.72476 23.7678 9.51596V4.95206ZM29.4024 9.40731V6.58842H30.7639V11.4975H29.4567V10.6058H29.4055C29.2948 10.8935 29.1104 11.1247 28.8526 11.2994C28.597 11.4741 28.2848 11.5614 27.9162 11.5614C27.5881 11.5614 27.2994 11.4869 27.0501 11.3377C26.8008 11.1886 26.6058 10.9766 26.4652 10.7017C26.3267 10.4269 26.2564 10.0977 26.2543 9.71412V6.58842H27.6158V9.47121C27.6179 9.76101 27.6957 9.99006 27.8491 10.1584C28.0025 10.3267 28.2081 10.4109 28.4659 10.4109C28.63 10.4109 28.7834 10.3736 28.9261 10.299C29.0689 10.2223 29.184 10.1094 29.2713 9.96022C29.3608 9.81107 29.4045 9.62676 29.4024 9.40731ZM31.8529 13.3384V6.58842H33.1952V7.41302H33.256C33.3156 7.28092 33.4019 7.14667 33.5148 7.01032C33.6299 6.87182 33.779 6.75677 33.9623 6.66512C34.1476 6.57137 34.3778 6.52452 34.6526 6.52452C35.0106 6.52452 35.3408 6.61827 35.6434 6.80577C35.946 6.99112 36.1878 7.27132 36.3689 7.64632C36.55 8.01917 36.6406 8.48687 36.6406 9.04937C36.6406 9.59697 36.5521 10.0593 36.3753 10.4364C36.2006 10.8114 35.9619 11.0959 35.6594 11.2898C35.3589 11.4815 35.0223 11.5774 34.6495 11.5774C34.3853 11.5774 34.1604 11.5337 33.9751 11.4464C33.7918 11.359 33.6417 11.2493 33.5245 11.1172C33.4073 10.983 33.3177 10.8477 33.256 10.7113H33.2144V13.3384H31.8529ZM33.1856 9.04297C33.1856 9.33487 33.2262 9.58947 33.3071 9.80682C33.3881 10.0242 33.5052 10.1935 33.6587 10.315C33.8121 10.4343 33.9985 10.494 34.218 10.494C34.4396 10.494 34.6271 10.4332 34.7805 10.3118C34.9339 10.1882 35.05 10.0178 35.1288 9.80042C35.2098 9.58097 35.2503 9.32847 35.2503 9.04297C35.2503 8.75957 35.2109 8.51031 35.132 8.29511C35.0532 8.07992 34.9371 7.91157 34.7837 7.79012C34.6302 7.66867 34.4417 7.60796 34.218 7.60796C33.9964 7.60796 33.8089 7.66657 33.6555 7.78372C33.5042 7.90092 33.3881 8.06711 33.3071 8.28231C33.2262 8.49751 33.1856 8.75107 33.1856 9.04297ZM37.5483 11.4975V6.58842H38.9097V11.4975H37.5483ZM38.2322 5.95562C38.0297 5.95562 37.8561 5.88852 37.7112 5.75427C37.5685 5.61792 37.4971 5.45491 37.4971 5.26526C37.4971 5.07776 37.5685 4.91691 37.7112 4.78267C37.8561 4.64631 38.0297 4.57812 38.2322 4.57812C38.4346 4.57812 38.6072 4.64631 38.7499 4.78267C38.8948 4.91691 38.9672 5.07776 38.9672 5.26526C38.9672 5.45491 38.8948 5.61792 38.7499 5.75427C38.6072 5.88852 38.4346 5.95562 38.2322 5.95562ZM42.6115 6.58842V7.61117H39.6552V6.58842H42.6115ZM40.3264 5.41227H41.6879V9.98902C41.6879 10.1147 41.707 10.2127 41.7454 10.283C41.7837 10.3512 41.837 10.3992 41.9052 10.4269C41.9755 10.4546 42.0565 10.4684 42.1481 10.4684C42.212 10.4684 42.2759 10.4631 42.3399 10.4524C42.4038 10.4396 42.4528 10.4301 42.4869 10.4237L42.701 11.4368C42.6328 11.4581 42.537 11.4826 42.4134 11.5103C42.2898 11.5401 42.1396 11.5583 41.9627 11.5646C41.6346 11.5774 41.347 11.5337 41.0998 11.4336C40.8548 11.3335 40.6641 11.1779 40.5278 10.967C40.3913 10.756 40.3242 10.4897 40.3264 10.168V5.41227ZM45.6829 11.5934C45.1779 11.5934 44.7433 11.4911 44.379 11.2866C44.0167 11.0799 43.7376 10.788 43.5416 10.4109C43.3455 10.0316 43.2475 9.58312 43.2475 9.06537C43.2475 8.56037 43.3455 8.11717 43.5416 7.73582C43.7376 7.35441 44.0135 7.05717 44.3693 6.84412C44.7273 6.63102 45.147 6.52452 45.6286 6.52452C45.9524 6.52452 46.2539 6.57672 46.533 6.68112C46.8143 6.78337 47.0593 6.93787 47.2681 7.14452C47.4791 7.35122 47.6431 7.61117 47.7603 7.92437C47.8775 8.23547 47.9361 8.59977 47.9361 9.01742V9.39131H43.7908V8.54756H46.6545C46.6545 8.35156 46.6119 8.17792 46.5266 8.02662C46.4414 7.87537 46.3232 7.75711 46.1719 7.67186C46.0227 7.58452 45.8491 7.54082 45.6509 7.54082C45.4443 7.54082 45.261 7.58877 45.1012 7.68467C44.9435 7.77842 44.82 7.90516 44.7305 8.06496C44.641 8.22266 44.5952 8.39842 44.5931 8.59232V9.39452C44.5931 9.63742 44.6378 9.84732 44.7273 10.0242C44.819 10.201 44.9479 10.3374 45.114 10.4333C45.2802 10.5291 45.4773 10.5771 45.7053 10.5771C45.8565 10.5771 45.995 10.5558 46.1207 10.5132C46.2465 10.4705 46.3541 10.4066 46.4435 10.3214C46.533 10.2362 46.6012 10.1318 46.6481 10.0082L47.9074 10.0913C47.8435 10.3938 47.7124 10.658 47.5142 10.8839C47.3182 11.1076 47.0646 11.2823 46.7536 11.408C46.4446 11.5316 46.0877 11.5934 45.6829 11.5934ZM48.8246 11.4975V6.58842H50.1445V7.44497H50.1957C50.2852 7.14027 50.4354 6.91017 50.6465 6.75462C50.857 6.59697 51.1 6.51812 51.375 6.51812C51.443 6.51812 51.5165 6.52237 51.5955 6.53092C51.6745 6.53942 51.7435 6.55112 51.8035 6.56607V7.77417C51.7395 7.75497 51.6511 7.73792 51.538 7.72302C51.425 7.70812 51.3215 7.70066 51.228 7.70066C51.0275 7.70066 50.8485 7.74432 50.691 7.83167C50.5355 7.91691 50.4119 8.03621 50.3203 8.18961C50.2308 8.34306 50.1861 8.51986 50.1861 8.72016V11.4975H48.8246Z" fill="white"/>
</g>
<defs>
<clipPath id="clip0_25193_260303">
<rect width="52" height="16" fill="white" transform="translate(0.435547)"/>
</clipPath>
</defs>
</svg>
