<svg xmlns="http://www.w3.org/2000/svg" width="61" height="16" viewBox="0 0 61 16" fill="none">
  <g clip-path="url(#clip0_2749_55)">
    <path fill-rule="evenodd" clip-rule="evenodd" d="M36.7835 13.2741V2.38063H38.7474V13.2741H36.7835ZM30.047 12.9366C30.6504 13.2844 31.3613 13.4583 32.1796 13.4583C33.1207 13.4583 33.9185 13.2281 34.5731 12.7679C35.2375 12.3079 35.6823 11.6794 35.9074 10.8825H33.854C33.7355 11.1818 33.5456 11.4216 33.2843 11.6017C32.9979 11.7961 32.6348 11.8933 32.195 11.8933C31.6119 11.8933 31.1414 11.7143 30.7834 11.3563C30.4356 10.988 30.2413 10.4459 30.2004 9.72992H36.0154V9.28499C36.0154 8.36437 35.8568 7.57677 35.5397 6.92213C35.2226 6.26752 34.7675 5.76631 34.1742 5.41854C33.5912 5.07077 32.911 4.89688 32.1336 4.89688C31.3358 4.89688 30.6351 5.07588 30.0316 5.43388C29.4384 5.79188 28.978 6.29309 28.6507 6.93748C28.3234 7.57169 28.1598 8.31838 28.1598 9.1776C28.1598 10.0368 28.3234 10.7886 28.6507 11.433C28.978 12.0774 29.4434 12.5786 30.047 12.9366ZM33.9901 8.41042H30.2004C30.2822 7.77627 30.4919 7.29036 30.8294 6.95283C31.1772 6.61529 31.6119 6.44652 32.1336 6.44652C32.6553 6.44652 33.0848 6.61018 33.4224 6.93748C33.76 7.25458 33.9492 7.74557 33.9901 8.41042ZM19.9273 5.08099L22.9192 13.2741H25.2514L28.2433 5.08099H26.1719L24.0853 11.2949L21.9987 5.08099H19.9273ZM41.4067 12.9366C42.0204 13.2844 42.7314 13.4583 43.5394 13.4583C44.3475 13.4583 45.0532 13.2844 45.6568 12.9366C46.2602 12.5786 46.7256 12.0774 47.0529 11.433C47.3905 10.7886 47.5593 10.0368 47.5593 9.1776C47.5593 8.30816 47.3905 7.55634 47.0529 6.92213C46.7256 6.27775 46.2602 5.78166 45.6568 5.43388C45.0532 5.07588 44.3475 4.89688 43.5394 4.89688C42.7314 4.89688 42.0204 5.07588 41.4067 5.43388C40.8032 5.78166 40.3327 6.27775 39.9952 6.92213C39.6679 7.55634 39.5042 8.30816 39.5042 9.1776C39.5042 10.0368 39.6679 10.7886 39.9952 11.433C40.3327 12.0774 40.8032 12.5786 41.4067 12.9366ZM44.997 11.1568C44.6594 11.6273 44.1736 11.8626 43.5394 11.8626C42.9052 11.8626 42.4142 11.6273 42.0665 11.1568C41.7187 10.6863 41.5448 10.0265 41.5448 9.1776C41.5448 8.33881 41.7187 7.68416 42.0665 7.21367C42.4142 6.73292 42.9052 6.49255 43.5394 6.49255C44.1736 6.49255 44.6594 6.73292 44.997 7.21367C45.3448 7.68416 45.5187 8.33881 45.5187 9.1776C45.5187 10.0265 45.3448 10.6863 44.997 11.1568ZM48.2855 13.2741V5.08099H50.1267L50.1797 6.65195C50.3103 6.20261 50.4921 5.85796 50.725 5.618C51.0728 5.25999 51.5433 5.08099 52.1366 5.08099H52.8884V6.76872H52.1212C51.7019 6.76872 51.3541 6.83009 51.0779 6.95283C50.8017 7.07557 50.5921 7.26994 50.4488 7.53585C50.3159 7.79162 50.2494 8.12915 50.2494 8.54852V13.2741H48.2855ZM54.5545 12.8906C55.0557 13.269 55.6796 13.4583 56.4263 13.4583C56.8969 13.4583 57.3111 13.3867 57.6691 13.2435C58.0373 13.09 58.3442 12.8752 58.5897 12.5991C58.7432 12.4332 58.8729 12.247 58.9785 12.0405L59.0192 13.2741H60.8912V5.08099H58.9272V6.24706C58.7022 5.81746 58.3749 5.48503 57.9452 5.24977C57.5259 5.01451 57.0195 4.89688 56.4263 4.89688C55.6796 4.89688 55.0505 5.09123 54.5391 5.47991C54.0379 5.85837 53.6595 6.3698 53.4037 7.01423C53.1582 7.6586 53.0355 8.37972 53.0355 9.1776C53.0355 9.97541 53.1634 10.7017 53.4191 11.3563C53.6748 12.0007 54.0533 12.5121 54.5545 12.8906ZM58.1294 11.5097C57.8634 11.745 57.4952 11.8626 57.0247 11.8626C56.5848 11.8626 56.2166 11.7398 55.92 11.4943C55.6336 11.2489 55.4188 10.9215 55.2756 10.5124C55.1426 10.093 55.0761 9.64809 55.0761 9.1776C55.0761 8.67634 55.1426 8.22633 55.2756 7.8274C55.4188 7.41824 55.6336 7.09606 55.92 6.86078C56.2166 6.61529 56.5848 6.49255 57.0247 6.49255C57.4849 6.49255 57.8532 6.61018 58.1294 6.84544C58.4056 7.08071 58.605 7.40289 58.7278 7.81205C58.8607 8.21098 58.9272 8.66613 58.9272 9.1776C58.9272 9.6583 58.8607 10.1084 58.7278 10.5277C58.605 10.9369 58.4056 11.2642 58.1294 11.5097Z" fill="white"/>
    <path fill-rule="evenodd" clip-rule="evenodd" d="M2.31868 5.11998C2.31868 5.11998 0.365933 1.96481 2.54615 0.863264C3.92932 0.256169 5.33031 0.69168 6.05892 1.0678C6.14092 1.10511 6.21301 1.13888 6.27772 1.16917C6.76587 1.39776 6.82981 1.42767 7.5109 1.28416C9.19551 0.900064 10.9377 1.09979 12.1905 1.62363C13.7633 0.113403 17.2928 0.0424795 15.4354 3.88445C15.4354 3.88445 15.7843 4.2777 16.0035 4.59825C16.0621 4.72916 15.982 4.84811 15.8951 4.97732C15.7954 5.12549 15.6867 5.28716 15.7674 5.49584C15.888 5.80738 16.0777 6.11236 16.2957 6.46271C16.5704 6.90415 16.8899 7.41769 17.1723 8.10722C17.6788 9.34401 16.9658 11.2572 16.2812 12.3674C15.1084 14.1849 13.1664 13.461 11.5732 12.6777C11.348 12.567 11.0755 12.6682 10.9808 12.9006L10.1327 14.9824C9.99816 15.3125 9.65065 15.5057 9.30786 15.4077C6.89286 14.7174 2.78816 12.2822 0.670099 7.07106C0.514149 6.68736 0.719274 6.25412 1.08612 6.06182C1.49361 5.84827 1.99338 5.52872 2.31868 5.11998ZM16.0649 3.79733C16.1807 3.9377 16.3274 4.12251 16.4459 4.29569L16.4731 4.33548L16.4928 4.37947C16.6029 4.62579 16.558 4.85365 16.4925 5.00964C16.4456 5.12152 16.3714 5.23031 16.3347 5.28428C16.3296 5.29168 16.3253 5.29804 16.3218 5.30325C16.3071 5.32526 16.2964 5.3425 16.2886 5.3556C16.3905 5.59943 16.5444 5.8472 16.7529 6.18297C16.7803 6.22702 16.8086 6.27254 16.8378 6.31977C17.0964 6.73778 17.3981 7.24435 17.6682 7.90413C17.9864 8.68098 17.9038 9.60491 17.6922 10.4195C17.4766 11.249 17.1042 12.0538 16.7374 12.6487L16.7345 12.6534L16.7315 12.658C16.391 13.1857 15.9769 13.5541 15.5035 13.7775C15.0327 13.9996 14.5363 14.0628 14.0516 14.0327C13.142 13.9762 12.2134 13.5847 11.4349 13.2066L10.629 15.1846C10.4033 15.7385 9.79595 16.1046 9.16055 15.923C6.61065 15.1942 2.36235 12.6578 0.173619 7.2728C-0.105811 6.58534 0.275054 5.88184 0.837343 5.58715C1.11968 5.43919 1.41975 5.25128 1.66044 5.03595C1.63007 4.97663 1.59753 4.9111 1.56374 4.84012C1.40497 4.5066 1.21242 4.03978 1.09286 3.5262C0.974565 3.01798 0.917691 2.42165 1.07397 1.85144C1.2366 1.25805 1.62114 0.730181 2.30448 0.384927L2.31745 0.378371L2.33076 0.372528C3.91764 -0.323976 5.4925 0.175431 6.29266 0.585373C6.38388 0.626954 6.45343 0.659598 6.513 0.687577C6.57859 0.718355 6.63208 0.743482 6.68923 0.768663C6.78535 0.811066 6.82945 0.824439 6.86004 0.830337C6.91666 0.84126 6.99996 0.843981 7.39619 0.76064C9.05198 0.384072 10.7623 0.534183 12.0828 1.00736C12.4948 0.680988 12.9792 0.434805 13.4664 0.286722C14.0554 0.107672 14.7038 0.0558984 15.2641 0.237024C15.8577 0.428901 16.327 0.879849 16.4602 1.60058C16.5712 2.20086 16.4389 2.93392 16.0649 3.79733Z" fill="white"/>
    <path d="M12.7635 1.83511C13.0987 1.53285 14.175 0.987077 14.9937 1.27527C13.9529 1.3241 13.6922 2.33868 12.7635 1.83511Z" fill="white"/>
    <path d="M2.36813 7.2297C2.20459 6.67353 1.79242 6.10798 1.10052 6.67194C2.51395 10.3668 5.01776 12.3365 5.01776 12.3365C3.68461 10.9374 2.81614 8.55911 2.36813 7.2297Z" fill="white"/>
    <path d="M8.21854 9.77051C8.90837 10.3759 10.205 10.4163 12.1568 10.3384C11.2694 10.8329 9.82279 10.8166 9.82279 10.8166C10.4762 11.259 11.8178 11.7741 13.1999 11.8476C14.582 11.9211 15.5966 11.5535 15.5945 10.3049C15.5945 9.00227 13.3296 7.55525 8.21854 9.77051Z" fill="white"/>
    <path d="M16.8451 8.9691C16.5692 9.16216 16.2568 9.65291 16.1613 10.2551C15.7463 12.706 17.0423 10.2814 16.8451 8.9691Z" fill="white"/>
    <path d="M11.8123 12.098C12.8854 12.6681 15.0242 13.6353 15.8733 12.0133L15.8097 11.9472C15.7773 11.9136 15.7272 11.9049 15.6849 11.9245C14.7744 12.346 13.3993 12.4918 11.8123 12.098Z" fill="white"/>
    <path d="M12.6426 5.69672C12.8941 6.39084 13.2074 7.19214 13.4831 7.70933C13.6367 7.99769 13.9335 8.16253 14.2581 8.20008C15.6671 8.36297 16.1088 8.2322 16.3864 8.10562C16.5118 8.04846 16.5798 7.907 16.5032 7.79252C16.5032 7.79252 15.41 5.97236 14.8696 5.26283C14.5732 4.82921 14.2215 4.38094 15.1677 4.39791C12.5453 1.68448 10.144 1.24944 7.35277 1.86174C6.80995 1.9684 6.51368 1.89018 5.95193 1.60811C5.35224 1.30472 4.49893 0.961025 3.39676 1.15537C4.181 1.66763 4.83088 2.47306 5.28515 3.17577C5.85527 4.05767 6.82193 4.70543 7.86914 4.62755L10.6059 4.42401C11.4598 4.3605 12.351 4.89163 12.6426 5.69672Z" fill="white"/>
    <path d="M8.93948 5.08735L6.86432 5.2121C2.86565 5.5095 4.86743 9.9843 9.7419 8.64733C12.3837 7.92272 12.8072 7.44278 12.2474 6.15328C12.1618 5.99912 11.9912 5.9115 11.815 5.91829C10.5095 5.96871 9.76976 5.65337 9.48383 5.3605C9.33788 5.21102 9.14801 5.07482 8.93948 5.08735Z" fill="white"/>
  </g>
  <defs>
    <clipPath id="clip0_2749_55">
      <rect width="60.8708" height="16" fill="white" transform="translate(0.0645752)"/>
    </clipPath>
  </defs>
</svg>
