<svg width="256" height="256" viewBox="0 0 256 256" fill="none" xmlns="http://www.w3.org/2000/svg">
<path d="M128 256C198.692 256 256 198.692 256 128C256 57.3075 198.692 0 128 0C57.3075 0 0 57.3075 0 128C0 198.692 57.3075 256 128 256Z" fill="black"/>
<mask id="mask0_301_8" style="mask-type:alpha" maskUnits="userSpaceOnUse" x="0" y="0" width="256" height="256">
<path d="M128 256C198.692 256 256 198.692 256 128C256 57.3075 198.692 0 128 0C57.3075 0 0 57.3075 0 128C0 198.692 57.3075 256 128 256Z" fill="white"/>
</mask>
<g mask="url(#mask0_301_8)">
<path fill-rule="evenodd" clip-rule="evenodd" d="M32.1253 285.569C1.18142 285.569 -27.8655 278.965 -53 267.394L49.2598 174.056C35.1353 162.469 26.1241 144.878 26.1241 125.183C26.1241 105.13 35.4665 87.2583 50.0365 75.6838V62.0022H88.8763C89.0196 62.0012 89.1631 62.0008 89.3067 62.0008C105.101 62.0008 119.543 67.7964 130.619 77.3772C141.696 67.7973 156.136 62.0022 171.93 62.0022H172.025L172.027 62L172.029 62.0022H211.201V75.6854C225.771 87.2599 235.113 105.131 235.113 125.185C235.113 150.402 220.34 172.169 198.976 182.303C191.336 204.855 176.969 225.139 157.739 241.637V270.795H109.398C86.1394 280.25 59.8963 285.569 32.1253 285.569ZM89.3063 173.787C100.808 173.787 111.376 169.792 119.7 163.113L130.521 187.479L141.393 162.998C149.738 169.746 160.362 173.787 171.93 173.787C198.772 173.787 220.532 152.027 220.532 125.185C220.532 98.3428 198.772 76.583 171.93 76.583C154.488 76.583 139.192 85.7703 130.618 99.5696C122.044 85.7703 106.748 76.583 89.3063 76.583C62.4642 76.583 40.7043 98.3428 40.7043 125.185C40.7043 152.027 62.4642 173.787 89.3063 173.787ZM89.3061 159.206C108.096 159.206 123.328 143.974 123.328 125.185C123.328 106.395 108.096 91.1632 89.3061 91.1632C70.5166 91.1632 55.2847 106.395 55.2847 125.185C55.2847 143.974 70.5166 159.206 89.3061 159.206ZM89.3062 144.626C100.043 144.626 108.747 135.922 108.747 125.185C108.747 114.448 100.043 105.744 89.3062 105.744C78.5693 105.744 69.8654 114.448 69.8654 125.185C69.8654 135.922 78.5693 144.626 89.3062 144.626ZM205.951 125.185C205.951 143.974 190.719 159.206 171.929 159.206C153.14 159.206 137.908 143.974 137.908 125.185C137.908 106.395 153.14 91.1632 171.929 91.1632C190.719 91.1632 205.951 106.395 205.951 125.185ZM191.37 125.185C191.37 135.922 182.666 144.626 171.929 144.626C161.193 144.626 152.489 135.922 152.489 125.185C152.489 114.448 161.193 105.744 171.929 105.744C182.666 105.744 191.37 114.448 191.37 125.185Z" fill="#3AA3FF"/>
</g>
</svg>
