<svg width="43" height="46" viewBox="0 0 43 46" fill="none" xmlns="http://www.w3.org/2000/svg">
<path d="M16.7 1.77128C19.6702 0.0564064 23.3297 0.0564064 26.3 1.77128L37.4846 8.22872C40.4549 9.94359 42.2846 13.1128 42.2846 16.5426V29.4574C42.2846 32.8872 40.4549 36.0564 37.4846 37.7713L26.3 44.2287C23.3297 45.9436 19.6702 45.9436 16.7 44.2287L5.51539 37.7713C2.54514 36.0564 0.715389 32.8872 0.715389 29.4574V16.5426C0.715389 13.1128 2.54514 9.94359 5.51539 8.22872L16.7 1.77128Z" fill="#28282E" fill-opacity="0.1"/>
<path d="M17 2.29102C19.7846 0.683321 23.2154 0.683321 26 2.29102L37.1846 8.74805C39.9692 10.3557 41.6846 13.3276 41.6846 16.543V29.457C41.6846 32.6724 39.9692 35.6443 37.1846 37.252L26 43.709C23.2154 45.3167 19.7846 45.3167 17 43.709L5.81543 37.252C3.03082 35.6443 1.31543 32.6724 1.31543 29.457V16.543C1.31543 13.3276 3.03082 10.3557 5.81543 8.74805L17 2.29102Z" stroke="#28282E" stroke-opacity="0.1" stroke-width="1.2"/>
<path d="M18.0208 18.5417C18.8597 18.5417 19.62 18.7279 20.3016 19.1002C20.9832 19.4724 21.5207 19.9994 21.9139 20.681C22.3071 21.3626 22.5038 22.1491 22.5038 23.0404C22.5038 23.9318 22.3019 24.7183 21.8982 25.3999C21.4944 26.0815 20.9491 26.6084 20.2623 26.9807C19.5754 27.353 18.8073 27.5391 17.9579 27.5391C17.119 27.5391 16.3639 27.353 15.6928 26.9807C15.0217 26.6084 14.4947 26.0815 14.112 25.3999C13.7292 24.7183 13.5378 23.9318 13.5378 23.0404C13.5378 22.1491 13.7345 21.3626 14.1277 20.681C14.521 19.9994 15.0584 19.4724 15.74 19.1002C16.4216 18.7279 17.1819 18.5417 18.0208 18.5417ZM18.0208 20.681C17.5793 20.681 17.1791 20.7786 16.8204 20.9739C16.4616 21.1691 16.1788 21.4455 15.9718 21.803C15.7648 22.1604 15.6614 22.5729 15.6614 23.0404C15.6614 23.5079 15.7621 23.9204 15.9635 24.2779C16.165 24.6354 16.4423 24.9118 16.7955 25.107C17.1488 25.3023 17.5462 25.3999 17.9877 25.3999C18.4347 25.3999 18.839 25.3023 19.2005 25.107C19.562 24.9118 19.849 24.6354 20.0615 24.2779C20.274 23.9204 20.3803 23.5079 20.3803 23.0404C20.3803 22.5729 20.2768 22.1604 20.0698 21.803C19.8628 21.4455 19.58 21.1691 19.2212 20.9739C18.8625 20.7786 18.4623 20.681 18.0208 20.681ZM9.98295 18.5417C10.8219 18.5417 11.5821 18.7279 12.2638 19.1002C12.9454 19.4724 13.4828 19.9994 13.876 20.681C14.0983 21.0662 14.2578 21.485 14.3544 21.9373L12.063 21.9373C11.9102 21.4879 11.5814 21.1691 11.2227 20.9739C10.8639 20.7786 10.4638 20.681 10.0223 20.681C9.58075 20.681 9.18061 20.7786 8.82186 20.9739C8.46311 21.1691 8.18025 21.4455 7.97328 21.803C7.76631 22.1604 7.66283 22.5729 7.66283 23.0404C7.66283 23.5079 7.76355 23.9204 7.965 24.2779C8.16645 24.6354 8.44379 24.9118 8.79702 25.107C9.15024 25.3023 9.54762 25.3999 9.98916 25.3999C10.4362 25.3999 10.8405 25.3023 11.202 25.107C11.5635 24.9118 11.8505 24.6354 12.063 24.2779L14.3198 24.2779C14.2189 24.6791 14.0657 25.053 13.8603 25.3999C13.4566 26.0815 12.9113 26.6084 12.2244 26.9807C11.5376 27.353 10.7694 27.5391 9.92003 27.5391C9.08112 27.5391 8.3261 27.353 7.65497 26.9807C6.98384 26.6084 6.45688 26.0815 6.07413 25.3999C5.69137 24.7183 5.5 23.9318 5.5 23.0404C5.5 22.1491 5.69662 21.3626 6.08986 20.681C6.4831 19.9994 7.02054 19.4724 7.70216 19.1002C8.38377 18.7279 9.14404 18.5417 9.98295 18.5417ZM33.2058 18.5417C34.0342 18.5417 34.7761 18.72 35.4315 19.0766C36.087 19.4331 36.5955 19.9391 36.9573 20.5945C37.3191 21.2499 37.5 22.0023 37.5 22.8517C37.5 23.1663 37.479 23.4494 37.4371 23.7011H31.0666L31.0757 23.7944C31.1415 24.3792 31.3586 24.8409 31.7272 25.1797C32.1152 25.5362 32.5924 25.7145 33.1586 25.7145C33.9766 25.7145 34.5586 25.3632 34.9046 24.6606H37.2798L37.2471 24.7647C36.9875 25.5567 36.516 26.2115 35.8327 26.729C35.1196 27.2691 34.244 27.5391 33.2058 27.5391C32.3669 27.5391 31.6145 27.353 30.9486 26.9807C30.2827 26.6084 29.7636 26.0815 29.3914 25.3999C29.0191 24.7183 28.833 23.9318 28.833 23.0404C28.833 22.2706 28.9667 21.581 29.2341 20.9717L28.5432 20.9717L28.4467 20.973C28.0017 20.9853 27.6363 21.0838 27.3506 21.2683C27.0444 21.466 26.8226 21.7362 26.6852 22.0787C26.5477 22.4212 26.479 22.8124 26.479 23.2524V25.4882H28.8648V27.5017H22.3334V25.4882H24.0951V20.8323H22.3334V18.8191H26.3019L26.3745 20.3268L26.4348 20.2191C26.5793 19.9716 26.7485 19.7493 26.9425 19.5522C27.1641 19.3269 27.4389 19.1484 27.7667 19.0167C28.0945 18.8849 28.4921 18.8191 28.9595 18.8191H29.9656L29.9656 19.8434C30.2407 19.5451 30.5605 19.2948 30.925 19.0923C31.5856 18.7253 32.3459 18.5417 33.2058 18.5417ZM33.1429 20.3507C32.5976 20.3507 32.1388 20.5158 31.7665 20.8461C31.3943 21.1765 31.1662 21.6352 31.0823 22.2225H35.2192C35.2087 21.6562 35.0042 21.2027 34.6058 20.8619C34.2073 20.5211 33.7196 20.3507 33.1429 20.3507Z" fill="#28282E"/>
</svg>
