<svg xmlns="http://www.w3.org/2000/svg" fill="none" viewBox="0 0 625 176">
	<path fill="#28282E"
		d="M244.547 0c16.385 0 31.234 3.63544 44.547 10.9063 13.313 7.2709 23.809 17.5627 31.49 30.8756 7.68 13.3128 11.52 28.6738 11.52 46.0829 0 17.4092-3.942 32.7702-11.828 46.0832-7.885 13.313-18.535 23.604-31.95 30.875-13.416 7.271-28.418 10.907-45.008 10.907-16.385 0-31.132-3.636-44.24-10.907s-23.4-17.562-30.875-30.875c-.846-1.506-1.644-3.039-2.394-4.597-.787 1.557-1.629 3.09-2.522 4.597-7.885 13.313-18.535 23.604-31.951 30.875-13.415 7.271-28.417 10.907-45.0073 10.907-16.385 0-31.1316-3.636-44.2396-10.907s-23.3999-17.562-30.8756-30.875C3.73784 120.635 0 105.274 0 87.8648c0-17.4091 3.84025-32.7701 11.5207-46.0829 7.6805-13.3129 18.1772-23.6047 31.4901-30.8756C56.3236 3.63544 71.1726 0 87.5576 0c16.3854 0 31.2344 3.63544 44.5464 10.9063 13.313 7.2709 23.81 17.5627 31.49 30.8756.871 1.5081 1.691 3.0425 2.463 4.6033.763-1.5618 1.583-3.0957 2.453-4.6033 7.68-13.3129 18.177-23.6047 31.49-30.8756C213.313 3.63544 228.162 0 244.547 0m0 41.7819c-8.624 0-16.439 1.9067-23.446 5.7201s-12.531 9.2112-16.574 16.1934c-4.042 6.9823-6.063 15.0388-6.063 24.1694 0 9.1307 1.967 17.1872 5.902 24.1692 3.934 6.982 9.351 12.38 16.25 16.194 6.899 3.813 14.66 5.72 23.284 5.72 8.732 0 16.628-1.907 23.688-5.72 7.061-3.814 12.666-9.212 16.817-16.194 4.15-6.982 6.225-15.0385 6.225-24.1692 0-9.1306-2.021-17.1871-6.064-24.1694-4.042-6.9822-9.567-12.38-16.573-16.1934-7.007-3.8134-14.822-5.7201-23.446-5.7201m-156.2213 0c-8.6238 0-16.439 1.9067-23.4458 5.7201-7.0067 3.8134-12.5313 9.2112-16.5736 16.1934-4.0424 6.9823-6.0636 15.0388-6.0636 24.1694 0 9.1307 1.9673 17.1872 5.9019 24.1692 3.9345 6.982 9.3513 12.38 16.2503 16.194 6.8989 3.813 14.6603 5.72 23.284 5.72 8.7315 0 16.6271-1.907 23.6881-5.72 7.061-3.814 12.666-9.212 16.816-16.194l31.511.001c-1.803-7.563-2.705-15.6194-2.705-24.1702 0-7.5709.727-14.7545 2.179-21.5508l-30.985.006c-2.984-8.7783-9.405-15.0046-16.412-18.818-7.006-3.8134-14.8216-5.7201-23.4453-5.7201M541.129 0c16.18 0 30.671 3.48182 43.472 10.4455 12.8 6.9636 22.734 16.8458 29.8 29.6467C621.467 52.893 625 67.5883 625 84.1782c0 6.1444-.41 11.6743-1.229 16.5898H499.347l.178 1.823c1.285 11.422 5.526 20.44 12.725 27.056 7.578 6.963 16.897 10.445 27.957 10.445 15.976 0 27.343-6.861 34.102-20.584h46.39l-.638 2.033c-5.071 15.47-14.279 28.258-27.626 38.367-13.928 10.548-31.029 15.822-51.306 15.822-16.385 0-31.08-3.636-44.086-10.907s-23.144-17.562-30.415-30.875-10.906-28.674-10.906-46.0832c0-15.0353 2.612-28.5037 7.835-40.4051l-13.494.0005-1.886.0257c-8.691.2403-15.827 2.1627-21.408 5.7673q-8.9685 5.793-12.996 15.8271c-2.685 6.6894-4.027 14.331-4.027 22.9247v43.668h46.597V175H328.777v-39.327h34.408V44.7377h-34.408V5.4161h77.509l1.418 29.4473 1.18-2.1019c2.821-4.8343 6.126-9.1765 9.914-13.0265 4.329-4.4 9.695-7.8865 16.098-10.45945 6.402-2.57297 14.168-3.85945 23.298-3.85945h19.651l-.001 20.0068c5.373-5.8252 11.619-10.7153 18.738-14.6702C509.485 3.58423 524.334 0 541.129 0M539.9 35.3303c-10.65 0-19.611 3.2258-26.882 9.6774-7.27 6.4516-11.725 15.4122-13.364 26.8817h80.799c-.205-11.0599-4.199-19.9181-11.981-26.5745q-11.6745-9.9846-28.572-9.9846" />
</svg>
