<svg width="65" height="64" viewBox="0 0 65 64" fill="none" xmlns="http://www.w3.org/2000/svg">
<circle cx="32.5" cy="32" r="32" fill="#7D00FF"/>
<path d="M44.6862 25.2249C45.7566 25.2249 46.803 24.9075 47.6931 24.3128C48.5831 23.7181 49.2768 22.8728 49.6865 21.8838C50.0961 20.8949 50.2033 19.8067 49.9944 18.7568C49.7856 17.7069 49.2701 16.7425 48.5132 15.9856C47.7563 15.2287 46.7919 14.7132 45.7421 14.5044C44.6922 14.2956 43.604 14.4027 42.615 14.8124C41.626 15.222 40.7808 15.9157 40.1861 16.8058C39.5913 17.6958 39.2739 18.7422 39.2739 19.8127C39.2739 20.5234 39.4138 21.2272 39.6858 21.8839C39.9578 22.5406 40.3565 23.1372 40.859 23.6398C41.3616 24.1424 41.9583 24.5411 42.6149 24.813C43.2716 25.085 43.9754 25.225 44.6862 25.2249ZM28.0908 49.6004C25.4816 49.6004 22.931 48.8267 20.7615 47.3771C18.5921 45.9275 16.9012 43.8671 15.9027 41.4565C14.9042 39.0459 14.6429 36.3933 15.1519 33.8343C15.661 31.2752 16.9174 28.9245 18.7624 27.0795C20.6074 25.2345 22.9581 23.9781 25.5171 23.4691C28.0762 22.96 30.7288 23.2213 33.1394 24.2198C35.55 25.2183 37.6103 26.9092 39.0599 29.0787C40.5095 31.2482 41.2832 33.7988 41.2832 36.408C41.2833 38.1405 40.9421 39.856 40.2791 41.4566C39.6161 43.0572 38.6444 44.5115 37.4194 45.7366C36.1943 46.9616 34.74 47.9333 33.1394 48.5963C31.5388 49.2592 29.8233 49.6004 28.0908 49.6004Z" fill="white"/>
</svg>
